<?xml version="1.0" encoding="UTF-8" standalone="no"?>
<svg
   xmlns:dc="http://purl.org/dc/elements/1.1/"
   xmlns:cc="http://creativecommons.org/ns#"
   xmlns:rdf="http://www.w3.org/1999/02/22-rdf-syntax-ns#"
   xmlns:svg="http://www.w3.org/2000/svg"
   xmlns="http://www.w3.org/2000/svg"
   id="svg8"
   version="1.1"
   viewBox="0 0 549.24353 332.52353"
   height="332.52353mm"
   width="549.24353mm">
  <defs
     id="defs2">
    <marker
       orient="auto"
       refY="0"
       refX="0"
       id="marker6280"
       style="overflow:visible">
      <path
         id="path6278"
         d="M 0,0 5,-5 -12.5,0 5,5 Z"
         style="fill:#000000;fill-opacity:1;fill-rule:evenodd;stroke:#000000;stroke-width:1.00000003pt;stroke-opacity:1"
         transform="matrix(-0.4,0,0,-0.4,-4,0)" />
    </marker>
    <marker
       style="overflow:visible"
       id="Arrow1Mend"
       refX="0"
       refY="0"
       orient="auto">
      <path
         transform="matrix(-0.4,0,0,-0.4,-4,0)"
         style="fill:#000000;fill-opacity:1;fill-rule:evenodd;stroke:#000000;stroke-width:1.00000003pt;stroke-opacity:1"
         d="M 0,0 5,-5 -12.5,0 5,5 Z"
         id="path1066" />
    </marker>
    <marker
       style="overflow:visible"
       id="Arrow1Mstart"
       refX="0"
       refY="0"
       orient="auto">
      <path
         transform="matrix(0.4,0,0,0.4,4,0)"
         style="fill:#000000;fill-opacity:1;fill-rule:evenodd;stroke:#000000;stroke-width:1.00000003pt;stroke-opacity:1"
         d="M 0,0 5,-5 -12.5,0 5,5 Z"
         id="path1063" />
    </marker>
    <marker
       style="overflow:visible"
       id="Arrow1Mend-9"
       refX="0"
       refY="0"
       orient="auto">
      <path
         transform="matrix(-0.4,0,0,-0.4,-4,0)"
         style="fill:#000000;fill-opacity:1;fill-rule:evenodd;stroke:#000000;stroke-width:1.00000003pt;stroke-opacity:1"
         d="M 0,0 5,-5 -12.5,0 5,5 Z"
         id="path1066-3" />
    </marker>
    <marker
       style="overflow:visible"
       id="Arrow1Mend-9-6"
       refX="0"
       refY="0"
       orient="auto">
      <path
         transform="matrix(-0.4,0,0,-0.4,-4,0)"
         style="fill:#000000;fill-opacity:1;fill-rule:evenodd;stroke:#000000;stroke-width:1.00000003pt;stroke-opacity:1"
         d="M 0,0 5,-5 -12.5,0 5,5 Z"
         id="path1066-3-1" />
    </marker>
    <marker
       style="overflow:visible"
       id="Arrow1Mend-9-9"
       refX="0"
       refY="0"
       orient="auto">
      <path
         transform="matrix(-0.4,0,0,-0.4,-4,0)"
         style="fill:#000000;fill-opacity:1;fill-rule:evenodd;stroke:#000000;stroke-width:1.00000003pt;stroke-opacity:1"
         d="M 0,0 5,-5 -12.5,0 5,5 Z"
         id="path1066-3-2" />
    </marker>
    <marker
       orient="auto"
       refY="0"
       refX="0"
       id="marker6280-7"
       style="overflow:visible">
      <path
         id="path6278-5"
         d="M 0,0 5,-5 -12.5,0 5,5 Z"
         style="fill:#000000;fill-opacity:1;fill-rule:evenodd;stroke:#000000;stroke-width:1.00000003pt;stroke-opacity:1"
         transform="matrix(-0.4,0,0,-0.4,-4,0)" />
    </marker>
  </defs>
  <metadata
     id="metadata5">
    <rdf:RDF>
      <cc:Work
         rdf:about="">
        <dc:format>image/svg+xml</dc:format>
        <dc:type
           rdf:resource="http://purl.org/dc/dcmitype/StillImage" />
        <dc:title></dc:title>
      </cc:Work>
    </rdf:RDF>
  </metadata>
  <g
     transform="translate(-159.83133,134.11125)"
     id="layer1">
    <rect
       y="-134.11125"
       x="159.83133"
       height="332.52353"
       width="549.24353"
       id="rect882-3-8"
       style="opacity:1;fill:#ffffff;fill-opacity:1;stroke:none;stroke-width:1;stroke-linecap:round;stroke-linejoin:round;stroke-miterlimit:4;stroke-dasharray:none;stroke-dashoffset:0;stroke-opacity:1" />
    <rect
       y="-98.097633"
       x="359.21024"
       height="73.231857"
       width="93.404289"
       id="rect882-3"
       style="opacity:1;fill:#ffffff;fill-opacity:1;stroke:#000000;stroke-width:1;stroke-linecap:round;stroke-linejoin:round;stroke-miterlimit:4;stroke-dasharray:none;stroke-dashoffset:0;stroke-opacity:1" />
    <path
       id="path1040-0-6"
       d="m 292.22863,-49.477122 h 38.02345 l -10e-6,89.649592 h 36.64546"
       style="fill:none;stroke:#000000;stroke-width:2;stroke-linecap:round;stroke-linejoin:round;stroke-miterlimit:4;stroke-dasharray:none;stroke-opacity:1;marker-end:url(#Arrow1Mend-9)" />
    <path
       id="path1040-0"
       d="m 287.63145,-60.879387 75.03671,0.31391"
       style="fill:none;stroke:#000000;stroke-width:2;stroke-linecap:round;stroke-linejoin:round;stroke-miterlimit:4;stroke-dasharray:4.00000011, 4.00000011;stroke-dashoffset:0;stroke-opacity:1;marker-end:url(#Arrow1Mend)" />
    <path
       id="path1040"
       d="m 253.23561,-60.879387 h 34.39584"
       style="fill:none;stroke:#000000;stroke-width:2;stroke-linecap:round;stroke-linejoin:round;stroke-miterlimit:4;stroke-dasharray:none;stroke-opacity:1" />
    <path
       id="path826"
       d="m 186.8162,-39.449948 c -1.3733,-0.62388 -2.69378,-2.14157 -2.96124,-3.4035 -0.27601,-1.30227 -0.27601,-35.618417 0,-36.920687 0.26746,-1.26194 1.58794,-2.77963 2.96124,-3.40351 1.00229,-0.45532 2.45723,-0.48182 26.46061,-0.48182 24.00338,0 25.45832,0.0265 26.4606,0.48182 1.37331,0.62388 2.69379,2.14157 2.96125,3.40351 0.27601,1.30227 0.27601,35.618417 0,36.920687 -0.26746,1.26193 -1.58794,2.77962 -2.96125,3.4035 -1.00228,0.45533 -2.45722,0.48182 -26.4606,0.48182 -24.00338,0 -25.45832,-0.0265 -26.46061,-0.48182 z m 52.807,-2.6612 0.7734,-0.7734 v -13.910978 -13.910979 h -27.11979 -27.11979 v 13.643439 c 0,9.135318 0.093,13.817218 0.28147,14.169368 0.1548,0.28926 0.66082,0.75724 1.12447,1.03995 0.81914,0.49946 1.55736,0.51404 26.06493,0.51501 l 25.22192,10e-4 0.77339,-0.77339 z m 0.7734,-34.036707 c 0,-3.16424 -0.17712,-3.8806 -1.15544,-4.67308 -0.52567,-0.42581 -2.27411,-0.45754 -25.51447,-0.46302 -27.18625,-0.006 -25.78791,-0.083 -27.01715,1.47972 -0.4867,0.61874 -0.55252,1.06068 -0.55252,3.70946 v 3.00702 h 27.11979 27.11979 z m -51.54763,0.86024 c -1.20161,-1.27905 -0.46532,-3.24185 1.3235,-3.52819 0.81045,-0.12973 1.08636,-0.0421 1.65365,0.52519 0.85419,0.85419 0.92587,2.31206 0.15173,3.0862 -0.75726,0.75726 -2.37984,0.71411 -3.12888,-0.0832 z m 6.02963,-0.24753 c -0.64179,-1.0392 -0.50119,-1.94496 0.43126,-2.77813 0.91032,-0.8134 1.8421,-0.75357 2.77376,0.17809 0.91294,0.91294 0.98492,1.79674 0.22503,2.76279 -0.44538,0.56621 -0.76912,0.69714 -1.72369,0.69714 -1.04066,0 -1.23614,-0.0985 -1.70636,-0.85989 z m 6.40579,0.24753 c -0.71343,-0.75941 -0.74644,-2.02807 -0.0744,-2.85804 0.38163,-0.47129 0.76641,-0.61861 1.61575,-0.61861 1.33479,0 2.11667,0.77122 2.11667,2.08783 0,1.80284 -2.40964,2.71769 -3.65805,1.38882 z"
       style="fill:#000000;stroke-width:0.26458335" />
    <path
       id="path858"
       d="m 375.66739,51.98662 c -0.26456,-0.0789 -0.57132,-0.26692 -0.68169,-0.41787 -0.2593,-0.35461 -0.29677,-34.380107 -0.0384,-34.862877 0.0893,-0.16678 0.43211,-0.37817 0.7619,-0.46975 0.82032,-0.22783 15.2547,-0.22817 15.86718,-3.9e-4 0.24835,0.0924 2.59888,2.31143 5.22341,4.93127 l 4.77188,4.76334 v 12.642976 c 0,8.219941 -0.0567,12.749071 -0.16229,12.946211 -0.0892,0.16678 -0.43211,0.37818 -0.76189,0.46976 -0.74977,0.20823 -24.28118,0.20571 -24.98009,-0.002 z m 23.13854,-13.332621 0.0412,-10.536226 -4.05876,-0.0501 c -4.51973,-0.0558 -4.78644,-0.11478 -4.98386,-1.10191 -0.0563,-0.28166 -0.10243,-2.20017 -0.10243,-4.26337 v -3.75125 l -6.05506,0.042 -6.05507,0.042 -0.0414,14.91712 c -0.0227,8.204417 -0.007,15.007867 0.0355,15.118777 0.0609,0.15969 2.27214,0.19307 10.62772,0.1604 l 10.55083,-0.0412 z m -2.20664,-13.561336 c 0,-0.1573 -3.73007,-3.89209 -3.88717,-3.89209 -0.0675,0 -0.12281,0.90225 -0.12281,2.00499 v 2.00499 h 2.00499 c 1.10274,0 2.00499,-0.053 2.00499,-0.11789 z"
       style="fill:#000000;stroke-width:0.16039914" />
    <text
       id="text862"
       y="-23.516157"
       x="191.91557"
       style="font-style:normal;font-weight:normal;font-size:10.58333302px;line-height:1.25;font-family:sans-serif;letter-spacing:0px;word-spacing:0px;fill:#000000;fill-opacity:1;stroke:none;stroke-width:0.26458332"
       xml:space="preserve"><tspan
         style="stroke-width:0.26458332"
         y="-23.516157"
         x="191.91557"
         id="tspan860">Browser</tspan></text>
    <text
       id="text862-3"
       y="62.265915"
       x="389.38049"
       style="font-style:normal;font-weight:normal;font-size:10.58333302px;line-height:1.25;font-family:sans-serif;letter-spacing:0px;word-spacing:0px;fill:#000000;fill-opacity:1;stroke:none;stroke-width:0.26458332"
       xml:space="preserve"><tspan
         style="text-align:center;text-anchor:middle;stroke-width:0.26458332"
         y="62.265915"
         x="389.38049"
         id="tspan860-6">Modified</tspan><tspan
         id="tspan956"
         style="text-align:center;text-anchor:middle;stroke-width:0.26458332"
         y="75.495079"
         x="389.38049">client.js</tspan></text>
    <rect
       y="9.8792629"
       x="359.74478"
       height="124.5031"
       width="192.43405"
       id="rect882"
       style="opacity:1;fill:none;fill-opacity:1;stroke:#000000;stroke-width:1;stroke-linecap:round;stroke-linejoin:round;stroke-miterlimit:4;stroke-dasharray:none;stroke-dashoffset:0;stroke-opacity:1" />
    <text
       id="text862-3-7"
       y="1.0391103"
       x="359.04593"
       style="font-style:normal;font-weight:normal;font-size:10.58333302px;line-height:1.25;font-family:sans-serif;letter-spacing:0px;word-spacing:0px;fill:#000000;fill-opacity:1;stroke:none;stroke-width:0.26458332"
       xml:space="preserve"><tspan
         style="stroke-width:0.26458332"
         y="1.0391103"
         x="359.04593"
         id="tspan860-6-5">Local Server</tspan></text>
    <text
       id="text862-3-7-5"
       y="-106.44654"
       x="362.28961"
       style="font-style:normal;font-weight:normal;font-size:10.58333302px;line-height:1.25;font-family:sans-serif;letter-spacing:0px;word-spacing:0px;fill:#000000;fill-opacity:1;stroke:none;stroke-width:0.26458332"
       xml:space="preserve"><tspan
         style="stroke-width:0.26458332"
         y="-106.44654"
         x="362.28961"
         id="tspan860-6-5-6">Official Server</tspan></text>
    <path
       id="path858-2"
       d="m 374.14386,-50.563099 c -0.26456,-0.0789 -0.57132,-0.26692 -0.68169,-0.41787 -0.2593,-0.35461 -0.29677,-34.38011 -0.0384,-34.86288 0.0893,-0.16678 0.43211,-0.37817 0.7619,-0.46975 0.82032,-0.22783 15.2547,-0.22817 15.86718,-3.9e-4 0.24835,0.0924 2.59888,2.31143 5.22341,4.93127 l 4.77188,4.76334 v 12.64298 c 0,8.21993 -0.0567,12.74906 -0.16229,12.94621 -0.0892,0.16678 -0.43211,0.37817 -0.76189,0.46975 -0.74977,0.20823 -24.28118,0.20572 -24.98009,-0.002 z m 23.13854,-13.33262 0.0412,-10.53623 -4.05876,-0.0501 c -4.51973,-0.0558 -4.78644,-0.11478 -4.98386,-1.10191 -0.0563,-0.28166 -0.10243,-2.20017 -0.10243,-4.26337 v -3.75125 l -6.05506,0.042 -6.05507,0.042 -0.0414,14.91712 c -0.0227,8.20442 -0.007,15.00787 0.0355,15.11878 0.0609,0.15969 2.27214,0.19307 10.62772,0.16039 l 10.55083,-0.0412 z m -2.20664,-13.56134 c 0,-0.1573 -3.73007,-3.89209 -3.88717,-3.89209 -0.0675,0 -0.12281,0.90225 -0.12281,2.00499 v 2.00499 h 2.00499 c 1.10274,0 2.00499,-0.053 2.00499,-0.11789 z"
       style="fill:#000000;stroke-width:0.16039915" />
    <text
       id="text862-3-9"
       y="-40.28381"
       x="367.06403"
       style="font-style:normal;font-weight:normal;font-size:10.58333302px;line-height:1.25;font-family:sans-serif;letter-spacing:0px;word-spacing:0px;fill:#000000;fill-opacity:1;stroke:none;stroke-width:0.26458332"
       xml:space="preserve"><tspan
         style="stroke-width:0.26458332"
         y="-40.28381"
         x="367.06403"
         id="tspan860-6-1">client.js</tspan></text>
    <path
       id="path980"
       d="m 372.32025,121.37809 c -1.09084,-0.44809 -1.88302,-1.22422 -2.2969,-2.25041 l -0.21968,-0.54466 v -12.81591 -12.8159 l 0.21968,-0.54467 c 0.4208,-1.04332 1.29574,-1.88067 2.39475,-2.29187 0.51352,-0.19213 0.56244,-0.19268 17.19197,-0.19268 16.62952,0 16.67845,7.1e-4 17.19196,0.19268 1.09902,0.4112 1.97396,1.24855 2.39476,2.29187 l 0.21968,0.54467 v 12.8159 12.81591 l -0.21968,0.54466 c -0.4208,1.04333 -1.29574,1.88068 -2.39476,2.29187 -0.51361,0.19217 -0.55944,0.19267 -17.21876,0.19047 l -16.70378,-0.002 z m 7.6207,-7.71172 c 0.0244,-0.0641 0.0985,-0.42059 0.16471,-0.79226 l 0.1204,-0.67575 h 1.19498 c 1.16295,0 1.19626,0.006 1.24275,0.20972 0.0263,0.11534 0.1014,0.46137 0.16694,0.76896 l 0.11918,0.55923 1.55915,0.0255 c 0.85754,0.0141 1.55916,-0.0112 1.55916,-0.056 0,-0.0641 -2.27937,-10.32795 -2.94851,-13.27698 l -0.14326,-0.63136 -1.54671,0.0255 -1.54672,0.0255 -1.51935,6.80408 c -0.83564,3.74224 -1.52015,6.87748 -1.52113,6.96719 -0.002,0.14878 0.13245,0.16312 1.52616,0.16312 1.13659,0 1.53929,-0.0298 1.57225,-0.11651 z m 0.93524,-4.89334 c 0.028,-0.14098 0.1467,-0.74915 0.26387,-1.3515 0.11716,-0.60235 0.23768,-1.09518 0.26783,-1.09518 0.0302,0 0.15067,0.49283 0.26783,1.09518 0.11716,0.60235 0.2359,1.21052 0.26387,1.3515 l 0.0508,0.25631 h -0.58254 -0.58254 z m 9.85311,2.65638 7.1e-4,-2.35347 1.15066,-0.0113 c 1.69778,-0.0166 2.65631,-0.3779 3.6566,-1.37819 2.50619,-2.5062 1.36635,-6.70543 -2.0994,-7.7343 -0.41452,-0.12306 -0.9929,-0.15029 -3.19232,-0.15029 h -2.68607 v 6.92836 c 0,3.81059 0.028,6.95632 0.0621,6.99049 0.0342,0.0342 0.7472,0.0621 1.58451,0.0621 h 1.52237 l 7.1e-4,-2.35347 z m -0.001,-6.96719 v -1.53791 l 1.0658,0.0466 c 1.14918,0.0503 1.35491,0.13019 1.77164,0.68835 0.26946,0.36091 0.26946,1.24501 0,1.60592 -0.41673,0.55816 -0.62246,0.6381 -1.77164,0.68835 l -1.0658,0.0466 z m 10.81236,2.33016 v -6.99049 h -1.58451 -1.58452 v 6.92836 c 0,3.81059 0.028,6.95632 0.0621,6.99049 0.0342,0.0342 0.74721,0.0621 1.58451,0.0621 h 1.52238 z"
       style="fill:#000000;stroke-width:0.09320658" />
    <path
       id="path1018"
       d="m 500.59518,86.57076 c -5.68076,-0.31457 -10.37852,-1.49874 -13.12197,-3.30769 -1.17062,-0.77187 -1.87517,-1.57949 -2.24936,-2.57841 L 485.05601,80.2366 V 67.00984 53.78309 l 0.18033,-0.49681 c 0.25246,-0.69551 0.58434,-1.18016 1.22457,-1.78825 0.70713,-0.67163 1.308,-1.06705 2.54704,-1.67617 2.47849,-1.21844 5.69914,-1.96962 10.09087,-2.35359 1.45316,-0.12706 6.22051,-0.12706 7.67367,0 4.39173,0.38397 7.61237,1.13515 10.09087,2.35359 1.23904,0.60912 1.83991,1.00454 2.54704,1.67617 0.64023,0.60809 0.97211,1.09274 1.22456,1.78825 l 0.18033,0.49681 v 13.22445 13.22444 l -0.19483,0.51764 c -0.47497,1.26187 -1.56454,2.27167 -3.4846,3.22948 -2.49108,1.24265 -5.78413,2.04993 -10.00782,2.45337 -1.18469,0.11315 -5.38213,0.20201 -6.53286,0.13829 z m 6.82957,-1.59062 c 4.38997,-0.47886 7.65417,-1.36808 9.89894,-2.69663 0.94047,-0.55661 1.50698,-1.08063 1.79813,-1.66327 l 0.23548,-0.47123 V 77.0918 c 0,-1.68147 -0.0292,-3.05721 -0.0648,-3.05721 -0.0357,0 -0.12503,0.0665 -0.19859,0.14779 -0.0736,0.0813 -0.36665,0.30405 -0.65131,0.49504 -2.48969,1.6704 -6.31983,2.74457 -11.43985,3.20832 -1.47484,0.13359 -6.64369,0.13314 -8.13409,-5.8e-4 -4.31574,-0.38757 -7.92239,-1.26927 -10.2654,-2.50955 -0.72189,-0.38214 -1.62728,-0.9738 -1.82577,-1.19312 -0.0736,-0.0813 -0.16293,-0.14779 -0.19859,-0.14779 -0.0357,0 -0.0648,1.37574 -0.0648,3.05721 v 3.05721 l 0.23548,0.47123 c 0.88664,1.77433 4.86949,3.42507 10.00886,4.14831 0.9304,0.13093 1.45901,0.18462 3.41478,0.34684 0.89899,0.0746 6.24162,-0.0251 7.25162,-0.13525 z m -0.95921,-8.49615 c 4.7385,-0.34979 9.09336,-1.52994 11.31633,-3.06668 0.70531,-0.48758 1.14526,-0.95595 1.38834,-1.47805 l 0.18559,-0.39861 8.7e-4,-3.06012 8.7e-4,-3.06012 -0.24939,0.19862 c -2.49268,1.98516 -6.62693,3.22841 -12.29339,3.69685 -1.93726,0.16016 -5.82048,0.16016 -7.75774,0 -5.67722,-0.46933 -9.79602,-1.70793 -12.29341,-3.69685 l -0.2494,-0.19862 8.7e-4,3.06012 8.7e-4,3.06012 0.18559,0.39861 c 1.12847,2.42373 7.27434,4.37133 14.69982,4.65831 0.98463,0.0381 3.89446,-0.0272 5.06462,-0.11358 z m -0.8441,-8.51416 c 6.05327,-0.37566 11.12334,-1.86615 12.98419,-3.81705 0.75616,-0.79276 0.71017,-0.53391 0.73568,-4.14042 l 0.0224,-3.16398 -0.55589,0.41819 c -1.91084,1.4375 -5.00166,2.53737 -8.74907,3.11338 -4.3765,0.6727 -9.86966,0.6727 -14.24616,0 -3.74741,-0.57601 -6.83823,-1.67588 -8.74907,-3.11338 l -0.55589,-0.41819 0.0224,3.16398 0.0224,3.16399 0.20365,0.34639 c 1.71283,2.9134 10.43781,4.97012 18.86541,4.44709 z m 1.76494,-8.70074 c 4.85648,-0.52059 8.60515,-1.63255 10.62262,-3.15094 1.79612,-1.35179 1.78023,-2.68124 -0.0483,-4.03698 -2.06972,-1.53461 -5.7637,-2.60214 -10.91968,-3.15571 -1.25171,-0.13439 -6.9591,-0.13439 -8.21082,0 -5.15598,0.55357 -8.84995,1.6211 -10.91968,3.15571 -1.82848,1.35574 -1.84438,2.68519 -0.0483,4.03698 2.08486,1.56912 6.37303,2.79951 11.08305,3.18004 0.56977,0.046 1.19133,0.0963 1.38126,0.11169 0.89979,0.073 6.01802,-0.0291 7.05977,-0.14079 z"
       style="fill:#000000;stroke-width:0.07673667" />
    <text
       id="text862-3-7-2"
       y="100.9961"
       x="479.64438"
       style="font-style:normal;font-weight:normal;font-size:10.58333302px;line-height:1.25;font-family:sans-serif;letter-spacing:0px;word-spacing:0px;fill:#000000;fill-opacity:1;stroke:none;stroke-width:0.26458332"
       xml:space="preserve"><tspan
         style="stroke-width:0.26458332"
         y="100.9961"
         x="479.64438"
         id="tspan860-6-5-7">Database</tspan></text>
    <rect
       y="-93.821289"
       x="276.35669"
       height="68.420998"
       width="28.33057"
       id="rect1038"
       style="opacity:1;fill:#ffffff;fill-opacity:1;stroke:#000000;stroke-width:1;stroke-linecap:round;stroke-linejoin:round;stroke-miterlimit:4;stroke-dasharray:none;stroke-dashoffset:0;stroke-opacity:1" />
    <text
       id="text862-3-7-0"
       y="-99.267227"
       x="274.77289"
       style="font-style:normal;font-weight:normal;font-size:10.58333302px;line-height:1.25;font-family:sans-serif;letter-spacing:0px;word-spacing:0px;fill:#000000;fill-opacity:1;stroke:none;stroke-width:0.26458332"
       xml:space="preserve"><tspan
         style="stroke-width:0.26458332"
         y="-99.267227"
         x="274.77289"
         id="tspan860-6-5-62">Plugin</tspan></text>
    <path
       id="path1040-0-6-8"
       d="m 254.39666,-46.606319 h 12.36557 l -10e-6,154.333429 h 96.51384"
       style="fill:none;stroke:#000000;stroke-width:2;stroke-linecap:round;stroke-linejoin:round;stroke-miterlimit:4;stroke-dasharray:none;stroke-opacity:1;marker-end:url(#Arrow1Mend-9-6)" />
    <path
       id="path1040-7"
       d="M 415.24418,106.03604 476.17357,76.64583"
       style="fill:none;stroke:#000000;stroke-width:2;stroke-linecap:round;stroke-linejoin:round;stroke-miterlimit:4;stroke-dasharray:none;stroke-opacity:1;marker-end:url(#marker6280)" />
    <path
       id="path1040-0-6-0"
       d="m 414.22384,-64.246109 h 165.77828 l -10e-6,99.271294 H 411.91912"
       style="fill:none;stroke:#000000;stroke-width:2;stroke-linecap:round;stroke-linejoin:round;stroke-miterlimit:4;stroke-dasharray:6, 6;stroke-dashoffset:0;stroke-opacity:1;marker-end:url(#Arrow1Mend-9-9)" />
    <text
       id="text862-3-7-5-2"
       y="-10.229509"
       x="583.42871"
       style="font-style:normal;font-weight:normal;font-size:10.58333302px;line-height:1.25;font-family:sans-serif;letter-spacing:0px;word-spacing:0px;fill:#000000;fill-opacity:1;stroke:none;stroke-width:0.26458332"
       xml:space="preserve"><tspan
         style="stroke-width:0.26458332"
         y="-10.229509"
         x="583.42871"
         id="tspan860-6-5-6-3">Reverse Engineering</tspan></text>
    <path
       id="path1040-7-9"
       d="m 501.59634,107.44447 v 61.32408"
       style="fill:none;stroke:#000000;stroke-width:2;stroke-linecap:round;stroke-linejoin:round;stroke-miterlimit:4;stroke-dasharray:none;stroke-opacity:1;marker-end:url(#marker6280-7)" />
    <text
       id="text862-3-7-2-2"
       y="186.01959"
       x="483.92896"
       style="font-style:normal;font-weight:normal;font-size:10.58333302px;line-height:1.25;font-family:sans-serif;letter-spacing:0px;word-spacing:0px;fill:#000000;fill-opacity:1;stroke:none;stroke-width:0.26458332"
       xml:space="preserve"><tspan
         style="stroke-width:0.26458332"
         y="186.01959"
         x="483.92896"
         id="tspan860-6-5-7-2">Analyze</tspan></text>
  </g>
</svg>
