<?xml version="1.0" encoding="UTF-8"?>
<!-- Created with Inkscape (http://www.inkscape.org/) -->
<svg width="158.5mm" height="102.65mm" version="1.1" viewBox="0 0 158.5 102.65" xmlns="http://www.w3.org/2000/svg">
 <g transform="translate(-20.169 -119.83)">
  <g transform="translate(11.796 110.37)">
   <g>
    <rect x="8.4227" y="9.5086" width="158.4" height="102.55" fill="#fff" stroke="#000" stroke-linecap="round" stroke-linejoin="round" stroke-width=".1" style="paint-order:fill markers stroke"/>
    <rect x="62.608" y="20.872" width="16.349" height="64.42" fill="#ffb98b" style="paint-order:fill markers stroke"/>
    <rect x="87.63" y="32.809" width="8" height="8" fill="#ffb98b" style="paint-order:fill markers stroke"/>
    <rect x="22.294" y="21.399" width="40.478" height="64.42" fill="#ff8bf3" style="paint-order:fill markers stroke"/>
    <rect x="87.63" y="68.429" width="8" height="8" fill="#ff8bf3" style="paint-order:fill markers stroke"/>
   </g>
   <g transform="translate(-3.1555 -30.747)" fill="#fff" stroke="#000" stroke-linecap="round" stroke-linejoin="round" stroke-width="2">
    <path d="m53.922 66.183h0.34477c2.9904 0 5.3979 3.9493 5.3979 8.855v17.964c0 4.9057-2.4074 8.855-5.3979 8.855h-0.34477c-2.9904 0-5.3979-3.9493-5.3979-8.855v-17.964c0-4.9057 2.4074-8.855 5.3979-8.855z" style="paint-order:stroke markers fill"/>
    <path d="m62.253 83.893a8.1579 8.1579 0 0 1-8.1579 8.1579 8.1579 8.1579 0 0 1-8.1579-8.1579 8.1579 8.1579 0 0 1 8.1579-8.1579 8.1579 8.1579 0 0 1 8.1579 8.1579z" style="paint-order:stroke markers fill"/>
   </g>
   <g transform="rotate(-90 54.061 95.333)" fill="#fff" opacity=".5" stroke="#000" stroke-linecap="round" stroke-linejoin="round" stroke-width="2">
    <path d="m53.922 66.183h0.34477c2.9904 0 5.3979 3.9493 5.3979 8.855v17.964c0 4.9057-2.4074 8.855-5.3979 8.855h-0.34477c-2.9904 0-5.3979-3.9493-5.3979-8.855v-17.964c0-4.9057 2.4074-8.855 5.3979-8.855z" style="paint-order:stroke markers fill"/>
    <path d="m62.253 83.893a8.1579 8.1579 0 0 1-8.1579 8.1579 8.1579 8.1579 0 0 1-8.1579-8.1579 8.1579 8.1579 0 0 1 8.1579-8.1579 8.1579 8.1579 0 0 1 8.1579 8.1579z" style="paint-order:stroke markers fill"/>
   </g>
   <path d="m63.275 20.669h15.676v65.343h-15.676" fill="none" stroke="#000" stroke-linecap="round" stroke-linejoin="round" stroke-width="2" style="paint-order:fill markers stroke"/>
   <g fill="#000000" font-family="Impact" font-size="11.289px" stroke-linecap="round" stroke-linejoin="round" stroke-width="2">
    <text x="45.478077" y="56.864628" style="paint-order:fill markers stroke" xml:space="preserve"><tspan x="45.478077" y="56.864628" fill="#000000" stroke-width="2">人</tspan></text>
    <text x="98.951424" y="40.8661" style="paint-order:fill markers stroke" xml:space="preserve"><tspan x="98.951424" y="40.8661" fill="#000000" stroke-width="2">儲藏空間</tspan></text>
    <text x="97.559204" y="76.485962" style="paint-order:fill markers stroke" xml:space="preserve"><tspan x="97.559204" y="76.485962" fill="#000000" stroke-width="2">人-櫃界面</tspan></text>
    <text x="37.08149" y="99.114731" style="paint-order:fill markers stroke" xml:space="preserve"><tspan x="37.08149" y="99.114731" fill="#000000" stroke-width="2">人</tspan></text>
   </g>
  </g>
 </g>
</svg>
