<?xml version="1.0" encoding="UTF-8"?>
<!-- Created with Inkscape (http://www.inkscape.org/) -->
<svg width="118.34mm" height="81.034mm" version="1.1" viewBox="0 0 118.34 81.034" xmlns="http://www.w3.org/2000/svg">
 <g transform="translate(-62.9 -91.623)">
  <g transform="translate(51.967 -35.83)">
   <rect x="10.983" y="127.5" width="118.24" height="80.934" fill="#fff" stroke="#000" stroke-linecap="round" stroke-linejoin="round" stroke-width=".1" style="paint-order:fill markers stroke"/>
   <g transform="translate(33.666 -46.928)">
    <rect x="58.81" y="186.28" width="18.366" height="29.229" fill="#ff8bf3" style="paint-order:fill markers stroke"/>
    <rect x="77.101" y="186.04" width="7.4177" height="29.229" fill="#ffb98b" style="paint-order:fill markers stroke"/>
    <path d="m77.404 185.95h7.1126v29.647h-7.1126" fill="none" stroke="#000" stroke-linecap="round" stroke-linejoin="round" stroke-width=".90744" style="paint-order:fill markers stroke"/>
   </g>
   <g transform="translate(33.666 -17.699)">
    <rect x="58.81" y="186.28" width="18.366" height="29.229" fill="#ff8bf3" style="paint-order:fill markers stroke"/>
    <rect x="77.101" y="186.04" width="7.4177" height="29.229" fill="#ffb98b" style="paint-order:fill markers stroke"/>
    <path d="m77.404 185.95h7.1126v29.647h-7.1126" fill="none" stroke="#000" stroke-linecap="round" stroke-linejoin="round" stroke-width=".90744" style="paint-order:fill markers stroke"/>
   </g>
   <g transform="rotate(-90 29.59 193.75)">
    <rect x="58.81" y="186.28" width="18.366" height="29.229" fill="#ff8bf3" style="paint-order:fill markers stroke"/>
    <rect x="77.101" y="186.04" width="7.4177" height="29.229" fill="#ffb98b" style="paint-order:fill markers stroke"/>
    <path d="m77.404 185.95h7.1126v29.647h-7.1126" fill="none" stroke="#000" stroke-linecap="round" stroke-linejoin="round" stroke-width=".90744" style="paint-order:fill markers stroke"/>
   </g>
   <g transform="rotate(-90 44.204 179.13)">
    <rect x="58.81" y="186.28" width="18.366" height="29.229" fill="#ff8bf3" style="paint-order:fill markers stroke"/>
    <rect x="77.101" y="186.04" width="7.4177" height="29.229" fill="#ffb98b" style="paint-order:fill markers stroke"/>
    <path d="m77.404 185.95h7.1126v29.647h-7.1126" fill="none" stroke="#000" stroke-linecap="round" stroke-linejoin="round" stroke-width=".90744" style="paint-order:fill markers stroke"/>
   </g>
   <g transform="rotate(-90 59.028 164.31)">
    <rect x="58.81" y="186.28" width="18.366" height="29.229" fill="#ff8bf3" style="paint-order:fill markers stroke"/>
    <rect x="77.101" y="186.04" width="7.4177" height="29.229" fill="#ffb98b" style="paint-order:fill markers stroke"/>
    <path d="m77.404 185.95h7.1126v29.647h-7.1126" fill="none" stroke="#000" stroke-linecap="round" stroke-linejoin="round" stroke-width=".90744" style="paint-order:fill markers stroke"/>
   </g>
   <g transform="matrix(0 1 1 0 -163.9 113.58)">
    <rect x="58.81" y="186.28" width="18.366" height="29.229" fill="#ff8bf3" style="paint-order:fill markers stroke"/>
    <rect x="77.101" y="186.04" width="7.4177" height="29.229" fill="#ffb98b" style="paint-order:fill markers stroke"/>
    <path d="m77.404 185.95h7.1126v29.647h-7.1126" fill="none" stroke="#000" stroke-linecap="round" stroke-linejoin="round" stroke-width=".90744" style="paint-order:fill markers stroke"/>
   </g>
   <g transform="matrix(0 1 1 0 -134.67 113.58)">
    <rect x="58.81" y="186.28" width="18.366" height="29.229" fill="#ff8bf3" style="paint-order:fill markers stroke"/>
    <rect x="77.101" y="186.04" width="7.4177" height="29.229" fill="#ffb98b" style="paint-order:fill markers stroke"/>
    <path d="m77.404 185.95h7.1126v29.647h-7.1126" fill="none" stroke="#000" stroke-linecap="round" stroke-linejoin="round" stroke-width=".90744" style="paint-order:fill markers stroke"/>
   </g>
   <g transform="matrix(0 1 1 0 -105.03 113.58)">
    <rect x="58.81" y="186.28" width="18.366" height="29.229" fill="#ff8bf3" style="paint-order:fill markers stroke"/>
    <rect x="77.101" y="186.04" width="7.4177" height="29.229" fill="#ffb98b" style="paint-order:fill markers stroke"/>
    <path d="m77.404 185.95h7.1126v29.647h-7.1126" fill="none" stroke="#000" stroke-linecap="round" stroke-linejoin="round" stroke-width=".90744" style="paint-order:fill markers stroke"/>
   </g>
   <g transform="translate(-3.8146 -32.547)" stroke-linecap="round" stroke-linejoin="round">
    <g transform="matrix(.45372 0 0 .45372 47.263 162.62)" fill="#fff" stroke="#000" stroke-width="2">
     <path d="m53.922 66.183h0.34477c2.9904 0 5.3979 3.9493 5.3979 8.855v17.964c0 4.9057-2.4074 8.855-5.3979 8.855h-0.34477c-2.9904 0-5.3979-3.9493-5.3979-8.855v-17.964c0-4.9057 2.4074-8.855 5.3979-8.855z" style="paint-order:stroke markers fill"/>
     <path d="m62.253 83.893a8.1579 8.1579 0 0 1-8.1579 8.1579 8.1579 8.1579 0 0 1-8.1579-8.1579 8.1579 8.1579 0 0 1 8.1579-8.1579 8.1579 8.1579 0 0 1 8.1579 8.1579z" style="paint-order:stroke markers fill"/>
    </g>
    <text x="69.329109" y="202.36775" fill="#000000" font-family="Impact" font-size="5.122px" stroke-width=".90744" style="paint-order:fill markers stroke" xml:space="preserve"><tspan x="69.329109" y="202.36775" fill="#000000" stroke-width=".90744">人</tspan></text>
   </g>
   <path d="m118.6 134.44v0.0638h-100.82v3.9718h0.11598v16.243h3.9718v-16.243h96.731v59.661h-96.879v-17.761h-3.9718v17.761h-0.02067v3.9718h100.87v0.0724h3.9718v-67.741z" fill="#fff" stroke="#000" stroke-linecap="round" stroke-linejoin="round" style="paint-order:fill markers stroke"/>
   <path d="m21.883 154.62 0.04934 26.663h23.883c-0.81198-13.972-9.1989-24.109-23.933-26.663z" fill="none" stroke="#000" stroke-linecap="round" stroke-linejoin="round" style="paint-order:fill markers stroke"/>
  </g>
 </g>
</svg>
