<?xml version="1.0" encoding="UTF-8" standalone="no"?>
<svg
   xmlns:dc="http://purl.org/dc/elements/1.1/"
   xmlns:cc="http://creativecommons.org/ns#"
   xmlns:rdf="http://www.w3.org/1999/02/22-rdf-syntax-ns#"
   xmlns:svg="http://www.w3.org/2000/svg"
   xmlns="http://www.w3.org/2000/svg"
   xmlns:sodipodi="http://sodipodi.sourceforge.net/DTD/sodipodi-0.dtd"
   xmlns:inkscape="http://www.inkscape.org/namespaces/inkscape"
   width="128.96057mm"
   height="123.68544mm"
   viewBox="0 0 128.96056 123.68544"
   version="1.1"
   id="svg8"
   sodipodi:docname="cat.svg"
   inkscape:version="0.92.5 (2060ec1f9f, 2020-04-08)">
  <defs
     id="defs2">
    <clipPath
       clipPathUnits="userSpaceOnUse"
       id="clipPath1017">
      <path
         style="fill:none;stroke:#000000;stroke-width:0.99999899px;stroke-linecap:butt;stroke-linejoin:miter;stroke-opacity:1"
         d="m -83.582522,192.89367 239.398792,138.68545 249.63711,67.3176 v 165.38305 l -489.035902,-2.32184 z"
         id="path1019"
         sodipodi:nodetypes="cccccc"
         inkscape:connector-curvature="0" />
    </clipPath>
  </defs>
  <sodipodi:namedview
     id="base"
     pagecolor="#ffffff"
     bordercolor="#666666"
     borderopacity="1.0"
     inkscape:pageopacity="0.0"
     inkscape:pageshadow="2"
     inkscape:zoom="0.70000001"
     inkscape:cx="167.6154"
     inkscape:cy="216.31076"
     inkscape:document-units="mm"
     inkscape:current-layer="layer1"
     inkscape:document-rotation="0"
     showgrid="false"
     inkscape:window-width="1440"
     inkscape:window-height="837"
     inkscape:window-x="0"
     inkscape:window-y="0"
     inkscape:window-maximized="1"
     inkscape:snap-object-midpoints="true"
     inkscape:snap-center="true" />
  <metadata
     id="metadata5">
    <rdf:RDF>
      <cc:Work
         rdf:about="">
        <dc:format>image/svg+xml</dc:format>
        <dc:type
           rdf:resource="http://purl.org/dc/dcmitype/StillImage" />
      </cc:Work>
    </rdf:RDF>
  </metadata>
  <g
     inkscape:label="Layer 1"
     inkscape:groupmode="layer"
     id="layer1"
     transform="translate(-13.794973)">
    <path
       id="path910"
       style="fill:#000000;stroke-width:0.23199899"
       d="m 52.250219,54.53876 -1.392163,3.73776 -1.392164,3.73775 -2.204,0.74983 c -1.212186,0.41228 -2.748597,1.0277 -3.414262,1.36788 -0.665655,0.34016 -1.313323,0.61856 -1.439188,0.61856 -0.125865,0 -1.873385,-0.78595 -3.883484,-1.74666 l -3.654557,-1.74667 -2.852023,2.84531 c -1.568652,1.56489 -2.852539,2.92717 -2.852539,3.02772 0,0.10052 0.77678,1.81401 1.725993,3.80752 l 1.725993,3.62458 -0.765328,1.53221 c -0.420828,0.84266 -1.054878,2.41957 -1.409216,3.50418 -0.354338,1.08458 -0.677696,2.01004 -0.717786,2.05724 -0.04032,0.047 -1.722425,0.68201 -3.738273,1.41077 l -3.665409,1.32498 -0.06304,4.16564 -0.06305,4.16615 3.793567,1.36943 3.793567,1.36942 0.51263,1.63814 c 0.282098,0.90098 0.926649,2.51391 1.432471,3.58428 l 0.919841,1.94614 -1.784388,3.69073 -1.784387,3.69124 2.881995,2.88872 c 1.585048,1.58887 2.956773,2.88874 3.048392,2.88871 0.09164,0 1.768613,-0.76548 3.726388,-1.70119 l 3.559473,-1.70119 2.0314,1.08883 c 1.117132,0.59898 2.73568,1.32933 3.597195,1.62264 l 1.566831,0.5333 1.379244,4.02611 1.37976,4.02662 4.154786,-0.0615 4.154784,-0.0615 0.540536,-1.6242 c 0.29727,-0.8932 0.91808,-2.69329 1.379762,-4.00027 l 0.839224,-2.37608 1.193726,-0.35088 c 0.656339,-0.19292 2.290286,-0.87858 3.631303,-1.52394 l 2.438093,-1.17357 3.445269,1.63866 c 1.894811,0.90117 3.565967,1.63815 3.713467,1.63814 0.147471,1e-5 1.552104,-1.28732 3.121774,-2.86081 l 2.854089,-2.8608 -1.745112,-3.70572 -1.745115,-3.7052 1.134816,-2.2624 c 0.6241,-1.24438 1.331754,-2.85717 1.572514,-3.58376 l 0.437698,-1.32136 3.988906,-1.39165 3.989935,-1.39216 -0.06201,-4.14807 -0.06201,-4.14858 -3.961513,-1.37718 -3.961,-1.37666 -0.527617,-1.66657 C 82.485908,79.07274 81.798629,77.46817 81.24897,76.42371 l -0.999421,-1.89911 1.760098,-3.74189 1.760617,-3.74189 -2.918685,-2.91868 -2.918685,-2.91817 -3.754294,1.77612 -3.754292,1.77612 -1.431438,-0.67852 c -1.4238,-0.6752 -4.884076,-1.87895 -5.40122,-1.87895 -0.149106,0 -0.716405,-1.22663 -1.260904,-2.72593 -0.544499,-1.49929 -1.170194,-3.19611 -1.390097,-3.77032 l -0.39946,-1.04386 -4.145484,-0.0599 z m 4.455025,23.20169 a 11.371819,11.371819 0 0 1 0.0677,0 11.371819,11.371819 0 0 1 11.371915,11.37191 11.371819,11.371819 0 0 1 -11.371915,11.3714 11.371819,11.371819 0 0 1 -11.371916,-11.3714 11.371819,11.371819 0 0 1 11.304219,-11.37191 z"
       inkscape:connector-curvature="0" />
    <circle
       style="fill:#ffffff;stroke:none;stroke-width:2;stroke-linecap:round;stroke-linejoin:round;paint-order:markers fill stroke"
       id="path973"
       cx="56.772907"
       cy="89.112114"
       r="2.4052207" />
    <path
       style="fill:#000000;stroke-width:0.19450501"
       d="m 106.20274,97.70772 c -0.36456,-0.10476 -0.96648,-0.42208 -1.3376,-0.70515 l -0.67477,-0.51467 0.1092,-1.30255 c 0.13449,-1.60412 0.56329,-2.63139 2.5361,-6.07566 l 1.5446,-2.69669 -0.41696,-0.85823 c -0.22933,-0.47203 -0.41696,-1.07163 -0.41696,-1.33245 0,-0.57541 -0.21657,-0.69832 -2.54881,-1.44648 -2.6635,-0.85444 -6.940959,-3.45838 -6.972249,-4.24443 -0.0256,-0.64241 -0.86811,-0.10683 -2.35628,1.49783 -0.88801,0.95753 -1.68583,1.86831 -1.77294,2.02397 -0.0889,0.1588 -0.6068,0.34148 -1.18013,0.41624 -0.56196,0.0733 -1.50314,0.35721 -2.09152,0.63096 -1.50575,0.70057 -3.33181,0.81313 -4.53772,0.2797 -0.89666,-0.39664 -0.90842,-0.41373 -0.90842,-1.32074 0,-0.5054 0.0958,-1.46934 0.21301,-2.1421 0.23408,-1.34415 0.12531,-1.24982 2.72894,-2.36675 0.64666,-0.27741 1.07861,-0.65184 1.53605,-1.3315 0.80806,-1.20062 1.55866,-2.01534 1.85672,-2.01534 0.41675,0 1.44548,-1.22347 1.44548,-1.71912 0,-0.60748 -1.47144,-3.31718 -2.65969,-4.8979 -0.5013,-0.66688 -1.59345,-1.94865 -2.427,-2.84838 -0.83354,-0.89972 -1.83454,-2.22341 -2.22444,-2.94153 -0.86739,-1.59758 -2.27272,-3.73053 -2.74536,-4.16679 -0.19224,-0.17743 -0.80904,-0.73422 -1.37068,-1.2373 -0.56163,-0.50308 -1.02115,-1.02305 -1.02115,-1.15549 0,-0.35637 -8.818588,-7.79289 -10.114248,-8.52912 -0.60976,-0.34648 -6.20558,-1.48561 -7.29787,-1.48561 -0.44637,0 -1.06572,0.12185 -1.37635,0.27078 -0.31062,0.14892 -1.51101,0.33019 -2.66753,0.40281 -1.75635,0.11028 -2.42924,0.0634 -4.0846,-0.28446 l -1.98185,-0.4165 -3.20933,1.30113 c -1.76513,0.71563 -3.89118,1.6627 -4.72455,2.10461 -0.83337,0.44192 -2.05325,1.08934 -2.71085,1.43871 -0.65759,0.34937 -1.59499,0.89078 -2.08311,1.20312 -0.48813,0.31235 -2.11288,1.06515 -3.61057,1.6729 -3.68344,1.4947 -4.1035,1.72758 -4.67558,2.59204 -0.27178,0.4107 -0.90645,1.04188 -1.41037,1.40264 -0.50393,0.36075 -1.54455,1.30369 -2.3125,2.09541 -1.1519,1.18755 -1.63929,1.53713 -2.78479,1.99736 -0.76368,0.30683 -1.56343,0.55786 -1.77722,0.55786 -1.63075,0 -2.196,-2.23938 -1.2453,-4.93354 0.51976,-1.47293 2.65475,-4.86423 3.34839,-5.31873 0.2426,-0.15895 0.65551,-0.73997 0.91758,-1.29115 0.47997,-1.00946 0.57898,-1.09559 3.96605,-3.45023 0.45866,-0.31885 0.92375,-0.81751 1.03353,-1.10813 0.10978,-0.29061 0.45661,-0.76415 0.77073,-1.05231 0.63714,-0.58448 0.7302,-1.14423 0.25569,-1.53804 -0.26868,-0.22299 -0.53544,-0.17997 -1.79917,0.29009 -2.62028,0.97464 -4.5383,1.48635 -5.91536,1.57817 -1.1294,0.0753 -1.62564,0.23736 -3.1141,1.01691 -1.11123,0.58199 -2.14489,1.30572 -2.77562,1.94338 -1.51606,1.53271 -2.55727,1.78843 -3.81155,0.93613 -0.77863,-0.5291 -1.52474,-1.86507 -1.52474,-2.73019 0,-0.91208 0.72474,-2.14035 2.18644,-3.70553 1.41751,-1.51785 2.29045,-2.07537 4.61434,-2.94703 2.85431,-1.07062 3.83095,-1.51091 4.93665,-2.22556 0.63811,-0.41243 1.27122,-0.74988 1.40691,-0.74988 0.13569,0 0.62803,-0.29107 1.09409,-0.64683 0.46606,-0.35575 1.1511,-0.75267 1.52231,-0.88205 1.04046,-0.36263 3.30074,-1.76471 3.30074,-2.04749 0,-0.15042 -0.72699,-0.46696 -1.79917,-0.78339 -4.61955,-1.36334 -6.45881,-2.14948 -7.08609,-3.02876 -0.12639,-0.17716 -0.57173,-0.42456 -0.98965,-0.54977 -0.54848,-0.16433 -0.847,-0.40394 -1.07317,-0.86143 -0.44658,-0.9033 -0.56969,-3.45607 -0.21665,-4.4922 0.26371,-0.77396 0.49127,-1.07085 1.57364,-2.05303 0.24182,-0.21945 0.60251,-1.00104 0.83453,-1.80838 1.33727,-4.65332 2.86104,-8.12258 3.96858,-9.03551 0.39636,-0.32671 1.54979,-0.92218 2.56318,-1.32328 2.27833,-0.90174 2.61657,-1.42843 1.95872,-3.05003 -0.14634,-0.36074 -0.32243,-1.02788 -0.39131,-1.48254 -0.12343,-0.81482 -0.11697,-0.82665 0.45151,-0.82665 0.39879,0 0.68455,0.15407 0.9262,0.49935 1.14894,1.64173 1.58917,2.14711 2.16136,2.48129 0.61262,0.35779 0.64974,0.35882 0.89396,0.0248 0.14013,-0.19165 0.67158,-1.51876 1.18099,-2.94913 0.50941,-1.43038 1.08328,-2.79407 1.27527,-3.03043 L 39.437423,0 l 0.55099,0.40624 c 0.77053,0.5681 1.30133,1.60124 2.51749,4.89996 1.43382,3.88914 1.53216,4.08159 2.32427,4.54895 0.38801,0.22893 1.10567,1.01714 1.6322,1.79263 0.51684,0.76123 1.75884,2.17824 2.76,3.14891 l 1.82029,1.76487 2.04231,0.23174 c 4.74748,0.53869 11.04548,2.76158 18.0583,6.37369 2.34194,1.20628 4.44917,1.88529 6.791358,2.18839 2.09934,0.27168 6.24899,1.65839 7.51532,2.51144 0.54594,0.36777 1.34272,0.84621 1.77063,1.06321 0.42791,0.217 1.30318,0.80907 1.94505,1.31571 1.58796,1.25342 3.26174,2.30096 4.21252,2.63641 1.25317,0.44215 3.03718,1.60946 4.42601,2.89601 0.70467,0.65278 1.50004,1.30206 1.76749,1.44284 0.26744,0.14078 0.923889,0.77631 1.458779,1.41228 0.68703,0.81688 1.68626,1.62133 3.40384,2.74033 1.33722,0.87121 3.28725,2.14313 4.33341,2.8265 1.26492,0.82628 2.06312,1.49758 2.38279,2.00398 0.26439,0.41881 0.91829,1.08816 1.45312,1.48745 0.53482,0.39929 0.97241,0.78077 0.97241,0.84775 0,0.067 0.52133,0.52662 1.15851,1.02144 0.63718,0.49481 1.30669,1.18719 1.48781,1.53862 0.41803,0.81112 1.43303,2.01497 3.82097,4.53195 1.10083,1.16031 1.89642,2.16214 1.89642,2.38802 0,0.49775 1.5132,1.80068 5.33363,4.59248 0.86421,0.63153 1.96097,1.48964 2.43724,1.90691 0.92609,0.81136 7.61325,5.31799 8.78415,5.91982 4.55593,2.34173 4.90344,2.78742 3.6013,4.61891 -0.92899,1.30663 -1.32971,1.52879 -2.94459,1.63243 -1.729,0.11096 -2.37964,-0.0848 -4.776,-1.43669 -1.02322,-0.57725 -1.97924,-1.04954 -2.1245,-1.04954 -0.50201,0 -11.94205,-7.47932 -15.18039,-9.92469 -2.55555,-1.92979 -4.07554,-3.42511 -5.84897,-5.75407 -0.64284,-0.84421 -1.31184,-1.64434 -1.48667,-1.77806 -0.47831,-0.36585 -1.16603,-0.29314 -1.6317,0.17252 -0.3803,0.3803 -0.40501,0.54988 -0.29051,1.99368 0.0688,0.86791 0.29848,2.40953 0.51035,3.42581 0.21187,1.01629 0.38923,2.3292 0.39414,2.91758 0.0149,1.78776 0.32922,3.67921 0.70412,4.2371 0.36468,0.54268 0.54544,1.0874 1.14347,3.44584 0.35484,1.39941 0.41526,1.58805 0.93436,2.91758 0.16708,0.42791 0.35899,0.97646 0.42647,1.21899 0.13555,0.48723 1.5502,1.98013 2.67829,2.82645 1.11396,0.83572 1.88563,2.33124 1.88785,3.65872 0.002,1.11682 -0.14718,1.48932 -1.70368,4.25789 -0.33079,0.58838 -0.91616,1.85229 -1.30082,2.80868 -0.38466,0.9564 -1.37544,2.83041 -2.20174,4.16446 -1.27629,2.06058 -1.61943,2.47875 -2.28038,2.77907 -0.8506,0.38649 -1.77565,0.43154 -2.80239,0.13649 z"
       id="path853"
       inkscape:connector-curvature="0" />
  </g>
</svg>
