<?xml version="1.0" encoding="UTF-8"?>
<svg width="240" height="160" version="1.1" viewBox="0 0 240 160" xmlns="http://www.w3.org/2000/svg" xmlns:xlink="http://www.w3.org/1999/xlink">
 <defs>
  <linearGradient id="a" x1="2.7452" x2="44.23" y1=".27803" y2=".27803" gradientTransform="scale(1.2932 .77329)" gradientUnits="userSpaceOnUse">
   <stop stop-color="#22b225" offset="0"/>
   <stop stop-color="#29fc2e" offset="1"/>
  </linearGradient>
  <style>@media (prefers-color-scheme:dark){#t{fill:#fff}}</style>
  <path id="b" d="m1 85.459c0-1.717 1.707-16.993 16.907-16.993 9.998-0.717 17.766 7.169 27.464 7.169 24.208-1.814 20.952-34.293-0.252-34.293-5.3-0.014-10.179 2.22-13.929 5.954l-24.452 24.451c-4.058 4.045-5.738 9.225-5.738 13.712"/>
 </defs>
 <g transform="translate(75)">
  <path d="m37.4 40.145c-16.22-1.73-32.56-13.99-33.85-39.93 25.17 0 38.63 14.9 39.93 38.51 4.76-28.32 27.07-25 27.07-25 1.06 16.05-12.12 25.78-27.07 26.59-4.2-8.85-29.36-30.56-29.36-30.56a0.07 0.07 0 0 0-0.11 0.08s24.28 21.15 23.39 30.31" fill="url(#a)"/>
  <use transform="rotate(180,45,85.3)" fill="#f60d1a" xlink:href="#b"/>
  <use transform="rotate(90,45,85.3)" fill="#96060c" xlink:href="#b"/>
  <use transform="rotate(-90,45,85.3)" fill="#96060c" xlink:href="#b"/>
  <use fill="#f60d1a" xlink:href="#b"/>
  <path id="t" d="m7.29 139.25a8.17 8.17 0 0 1 5 1.29 4.38 4.38 0 0 1 1.71 3.66 5.1 5.1 0 0 1-0.48 2.31 3.87 3.87 0 0 1-1.38 1.54 6.2 6.2 0 0 1-2.2 0.85 14.4 14.4 0 0 1-2.93 0.27h-2.18v6.16h-1.57v-15.64a12 12 0 0 1 2-0.33c0.74-0.07 1.39-0.11 2.03-0.11m0.07 1.36c-0.59 0-1.08 0-1.49 0.06l-1 0.1v7h2a16 16 0 0 0 2.28-0.15 5 5 0 0 0 1.75-0.55 2.75 2.75 0 0 0 1.1-1.07 3.7 3.7 0 0 0 0.39-1.81 3.2 3.2 0 0 0-0.43-1.75 3.1 3.1 0 0 0-1.12-1.09 5 5 0 0 0-1.6-0.57 11 11 0 0 0-1.88-0.17m12.35-0.76a1.12 1.12 0 0 1-0.32 0.84 1.15 1.15 0 0 1-1.57 0 1.12 1.12 0 0 1-0.32-0.84 1.11 1.11 0 1 1 2.21 0m-0.35 15.48h-1.49v-11.89h1.49zm3.71-7.33h5.19v1.45h-5.19zm8.65 7.33v-17.33l3.43-0.56v5.8a7 7 0 0 1 0.88-0.22 5.5 5.5 0 0 1 1-0.1 6.4 6.4 0 0 1 2.45 0.4 3.8 3.8 0 0 1 1.56 1.14 4.4 4.4 0 0 1 0.83 1.75 9.7 9.7 0 0 1 0.24 2.25v6.83h-3.37v-6.42a4.74 4.74 0 0 0-0.43-2.34 1.7 1.7 0 0 0-1.58-0.69 4.7 4.7 0 0 0-0.86 0.08c-0.27 0-0.51 0.11-0.72 0.17v9.2zm25.94-6.07a7.8 7.8 0 0 1-0.41 2.61 5.6 5.6 0 0 1-1.2 2 5.25 5.25 0 0 1-1.87 1.3 6.2 6.2 0 0 1-2.45 0.46 6.2 6.2 0 0 1-2.43-0.46 5.3 5.3 0 0 1-1.87-1.3 5.9 5.9 0 0 1-1.22-2 7.5 7.5 0 0 1-0.44-2.61 7.2 7.2 0 0 1 0.45-2.6 5.9 5.9 0 0 1 1.24-2 5.7 5.7 0 0 1 1.89-1.29 6.44 6.44 0 0 1 4.78 0 5.5 5.5 0 0 1 1.87 1.29 5.8 5.8 0 0 1 1.22 2 7.4 7.4 0 0 1 0.44 2.6m-3.49 0a4.34 4.34 0 0 0-0.63-2.5 2.28 2.28 0 0 0-3.63 0 4.27 4.27 0 0 0-0.64 2.5 4.35 4.35 0 0 0 0.64 2.52 2.24 2.24 0 0 0 3.63 0 4.43 4.43 0 0 0 0.63-2.52m12.05 6.3a8.4 8.4 0 0 1-2.43-0.32 3.6 3.6 0 0 1-1.47-0.84 2.8 2.8 0 0 1-0.73-1.31 7 7 0 0 1-0.2-1.74v-13.35l3.43-0.56v13.18a4 4 0 0 0 0.07 0.83 1.34 1.34 0 0 0 0.26 0.62 1.45 1.45 0 0 0 0.56 0.42 3.4 3.4 0 0 0 1 0.2zm2.94-6.19a7.3 7.3 0 0 1 0.5-2.81 6 6 0 0 1 1.3-2 5.3 5.3 0 0 1 1.85-1.21 5.7 5.7 0 0 1 2.15-0.42 5.35 5.35 0 0 1 4.04 1.56 6.46 6.46 0 0 1 1.5 4.63v1.29h-7.82a2.32 2.32 0 0 0 1 1.68 4 4 0 0 0 2.35 0.62 10.4 10.4 0 0 0 1.85-0.17 7.2 7.2 0 0 0 1.48-0.43l0.46 2.78a4 4 0 0 1-0.73 0.28 11 11 0 0 1-1 0.24c-0.37 0.07-0.77 0.13-1.2 0.17a11 11 0 0 1-1.29 0.07 7.6 7.6 0 0 1-2.84-0.48 5.5 5.5 0 0 1-2-1.32 5.3 5.3 0 0 1-1.18-2 8 8 0 0 1-0.42-2.48m8-1.31a3.1 3.1 0 0 0-0.15-0.85 2 2 0 0 0-0.39-0.73 2 2 0 0 0-0.62-0.48 2.2 2.2 0 0 0-1-0.21 2.3 2.3 0 0 0-1 0.2 2 2 0 0 0-0.69 0.51 2.3 2.3 0 0 0-0.43 0.75 5 5 0 0 0-0.22 0.86zm10.71-5.87a3.9 3.9 0 0 1-0.27 1.5 3.5 3.5 0 0 1-0.74 1.12 3.2 3.2 0 0 1-1.07 0.69 3.4 3.4 0 0 1-1.27 0.24 3.5 3.5 0 0 1-1.28-0.24 3.3 3.3 0 0 1-1.07-0.69 3.5 3.5 0 0 1-0.73-1.12 4.13 4.13 0 0 1 0-3 3.4 3.4 0 0 1 0.73-1.12 3.3 3.3 0 0 1 1.07-0.7 3.5 3.5 0 0 1 1.28-0.24 3.4 3.4 0 0 1 1.27 0.24 3.2 3.2 0 0 1 1.07 0.7 3.4 3.4 0 0 1 0.74 1.12 3.9 3.9 0 0 1 0.27 1.5m-0.71 0a3.4 3.4 0 0 0-0.16-1.19 2.9 2.9 0 0 0-0.54-0.92 2.35 2.35 0 0 0-0.84-0.58 2.6 2.6 0 0 0-1.06-0.21 2.7 2.7 0 0 0-1.07 0.21 2.3 2.3 0 0 0-0.83 0.58 2.9 2.9 0 0 0-0.54 0.92 3.4 3.4 0 0 0-0.2 1.18 3.4 3.4 0 0 0 0.2 1.18 2.7 2.7 0 0 0 0.54 0.92 2.3 2.3 0 0 0 0.83 0.59 2.7 2.7 0 0 0 1.07 0.21 2.6 2.6 0 0 0 1.06-0.21 2.4 2.4 0 0 0 0.84-0.59 2.7 2.7 0 0 0 0.54-0.92 3.4 3.4 0 0 0 0.16-1.17m-1.67 1.95a6.4 6.4 0 0 0-0.51-0.83 6 6 0 0 0-0.48-0.64h-0.66v1.47h-0.69v-3.8a5 5 0 0 1 0.55-0.09h0.54a2.2 2.2 0 0 1 1.29 0.32 1.08 1.08 0 0 1 0.44 1 1 1 0 0 1-0.19 0.63 1.25 1.25 0 0 1-0.55 0.42l0.23 0.29 0.26 0.39c0.1 0.15 0.19 0.3 0.28 0.45s0.17 0.32 0.24 0.47zm-1.65-2h0.37a2 2 0 0 0 0.79-0.14 0.48 0.48 0 0 0 0.29-0.5 0.53 0.53 0 0 0-0.29-0.5 1.5 1.5 0 0 0-0.67-0.14h-0.45z"/>
 </g>
</svg>
