<?xml version="1.0" encoding="UTF-8"?>
<!-- Created with Inkscape (http://www.inkscape.org/) -->
<svg width="245.17mm" height="109.5mm" version="1.1" viewBox="0 0 245.17 109.5" xml:space="preserve" xmlns="http://www.w3.org/2000/svg"><g transform="translate(-22.535 -1164.6)"><g transform="translate(-26.174 -12.696)"><rect x="48.758" y="1177.3" width="245.07" height="109.4" fill="#fff" stroke="#000" stroke-linecap="round" stroke-linejoin="round" stroke-width=".1" style="paint-order:stroke fill markers"/><g transform="translate(-197.56 896.14)"><ellipse cx="416.21" cy="358.36" rx="4.9585" ry="2.2098" style="paint-order:stroke fill markers"/><path d="m423.65 343.93c-5.4067 4.324-4.8077 9.3684-4.1043 14.425" fill="none" stroke="#000" stroke-linecap="round" stroke-linejoin="round" stroke-width="3"/><ellipse transform="scale(-1,1)" cx="-438.19" cy="358.69" rx="4.9585" ry="2.2098" style="paint-order:stroke fill markers"/><path d="m430.56 344.08c5.4067 4.324 4.8077 9.3684 4.1043 14.425" fill="none" stroke="#000" stroke-linecap="round" stroke-linejoin="round" stroke-width="3"/></g><g transform="translate(-450.2 1112.5)" fill="none" stroke="#000" stroke-width="3"><path d="m665.03 86-15.01 8.7588 15.01 8.7588"/><path d="m692.88 86 15.01 8.7588-15.01 8.7588"/><path d="m689.21 85.213-9.0188 19.091"/></g><g><path d="m87.923 1240.2c-2.0401-0.5571-3.7334-2.0301-4.6911-4.0806l-0.57233-1.2255v-40.644l0.57233-1.2254c0.624-1.3361 1.652-2.524 2.8488-3.2921 1.6247-1.0427 2.2994-1.099 13.156-1.099 6.9955 0 10.2 0.069 10.526 0.2283 0.57325 0.2789 12.374 13.051 12.882 13.942 0.34028 0.5972 0.35929 1.6117 0.30636 16.363l-0.0564 15.726-0.54737 1.1679c-0.76653 1.6354-2.1541 3.0473-3.6938 3.7585l-1.2733 0.5881-14.195 0.042c-11.76 0.034-14.378-0.01-15.263-0.25zm29.291-3.1746c0.77148-0.2914 1.6501-1.148 2.1254-2.0723 0.37222-0.7236 0.38977-1.3793 0.38977-14.552v-13.794h-3.0125c-1.8624 0-3.4024-0.1068-4.0337-0.2757-2.4855-0.6649-4.1639-2.0226-5.1805-4.1907-0.52274-1.1148-0.54017-1.2786-0.60633-5.6981l-0.0681-4.5502-9.261 0.057c-10.413 0.064-9.6153-0.057-11.015 1.672l-0.62454 0.7716-0.0591 19.639c-0.0325 10.802-8e-3 19.923 0.0541 20.27 0.0622 0.3468 0.42891 0.9995 0.81486 1.4504 1.3453 1.5716 0.39871 1.4834 15.975 1.4886 9.3538 0 14.115-0.067 14.501-0.2126zm-23.847-7.1196c-0.32835-0.3284-0.59701-0.795-0.59701-1.0369 0-0.242 0.26866-0.7086 0.59701-1.0369l0.59701-0.597h14.305l0.55603 0.4783c0.3973 0.3417 0.55603 0.6716 0.55603 1.1556s-0.15873 0.8139-0.55603 1.1556l-0.55603 0.4783h-14.305zm-2e-3 -7.9547c-0.34158-0.2766-0.47196-0.5942-0.47196-1.1496 0-0.5555 0.13038-0.8731 0.47196-1.1497 0.44426-0.3597 0.9718-0.3821 8.9917-0.3821h8.5198l0.44408 0.4727c0.56518 0.6016 0.58206 1.6359 0.0356 2.1824-0.39549 0.3954-0.6808 0.4085-8.9639 0.4085-8.0547 0-8.583-0.022-9.0273-0.3822zm0.0234-7.9864c-0.89383-0.8939-0.62905-2.229 0.52938-2.6695 0.2965-0.1127 4.0653-0.1938 8.9248-0.1921 9.0823 0 9.1911 0.015 9.7065 1.0905 0.34796 0.7257 0.0269 1.6098-0.70564 1.9436-0.35127 0.1601-3.1941 0.2307-9.2791 0.2307-8.4627 0-8.7869-0.014-9.1759-0.4032zm25.189-11.085c-0.34098-0.3651-2.3541-2.5479-4.4735-4.8507s-3.9363-4.2208-4.0374-4.2622c-0.10636-0.044-0.15 1.2905-0.10357 3.1657 0.0653 2.6362 0.15006 3.3744 0.45431 3.9559 1.0996 2.1014 2.3028 2.5931 6.4424 2.6327l2.3378 0.022z" stroke-width=".77193"/><circle cx="65.909" cy="1228.2" r="3.6904" style="paint-order:stroke fill markers"/><ellipse cx="91.755" cy="1253.5" rx="4.9585" ry="2.2098" style="paint-order:stroke fill markers"/></g><path d="m65.132 1228.7c4.5922-7.2232 10.737-10.985 18.653-10.797" fill="none" stroke="#000" stroke-linecap="round" stroke-linejoin="round" stroke-width="3"/><circle transform="scale(-1,1)" cx="-140.72" cy="1227.9" r="3.6904" style="paint-order:stroke fill markers"/><path d="m141.49 1228.4c-4.5922-7.2231-10.737-10.985-18.653-10.797" fill="none" stroke="#000" stroke-linecap="round" stroke-linejoin="round" stroke-width="3"/><path d="m99.196 1239.1c-5.4067 4.3239-4.8077 9.3683-4.1043 14.425" fill="none" stroke="#000" stroke-linecap="round" stroke-linejoin="round" stroke-width="3"/><ellipse transform="scale(-1,1)" cx="-113.73" cy="1253.8" rx="4.9585" ry="2.2098" style="paint-order:stroke fill markers"/><path d="m106.1 1239.2c5.4067 4.324 4.8077 9.3684 4.1043 14.425" fill="none" stroke="#000" stroke-linecap="round" stroke-linejoin="round" stroke-width="3"/><circle transform="matrix(-.86603 -.5 -.5 .86603 0 0)" cx="-849.3" cy="944" r="3.6904" style="paint-order:stroke fill markers"/><path d="m263.94 1243c-0.36538-8.5515-3.8058-14.882-10.755-18.677" fill="none" stroke="#000" stroke-linecap="round" stroke-linejoin="round" stroke-width="3"/><circle transform="rotate(-30)" cx="-453.07" cy="1173.5" r="3.6904" style="paint-order:stroke fill markers"/><g stroke="#000" stroke-linecap="round" stroke-linejoin="round"><path d="m193.95 1243.6c0.36538-8.5515 3.8058-14.882 10.755-18.677" fill="none" stroke-width="3"/><circle cx="89.369" cy="1204.2" r="9.1235" fill="#fff" style="paint-order:stroke fill markers"/><circle cx="115.71" cy="1204.2" r="9.1235" fill="#fff" style="paint-order:stroke fill markers"/></g><circle cx="89.369" cy="1204.2" r="3.6904" style="paint-order:stroke fill markers"/><circle cx="115.71" cy="1204.2" r="3.6904" style="paint-order:stroke fill markers"/><circle cx="216.68" cy="1218.5" r="9.1235" fill="#fff" stroke="#000" stroke-linecap="round" stroke-linejoin="round" style="paint-order:stroke fill markers"/><circle cx="243.02" cy="1218.5" r="9.1235" fill="#fff" stroke="#000" stroke-linecap="round" stroke-linejoin="round" style="paint-order:stroke fill markers"/><circle cx="216.68" cy="1218.5" r="3.6904" style="paint-order:stroke fill markers"/><circle cx="243.02" cy="1218.5" r="3.6904" style="paint-order:stroke fill markers"/><text x="82.61351" y="1274.9375" fill="#000000" font-family="sans-serif" font-size="18.901px" letter-spacing="0px" stroke-width=".47253" word-spacing="0px" style="line-height:1.25" xml:space="preserve"><tspan x="82.61351" y="1274.9375" stroke-width=".47253">Data</tspan></text><text x="207.34721" y="1274.5974" fill="#000000" font-family="sans-serif" font-size="18.901px" letter-spacing="0px" stroke-width=".47253" word-spacing="0px" style="line-height:1.25" xml:space="preserve"><tspan x="207.34721" y="1274.5974" stroke-width=".47253">DOM</tspan></text></g></g></svg>
