<?xml version="1.0" encoding="UTF-8"?>
<!-- Created with Inkscape (http://www.inkscape.org/) -->
<svg width="123.91mm" height="109.78mm" version="1.1" viewBox="0 0 123.91 109.78" xml:space="preserve" xmlns="http://www.w3.org/2000/svg"><g transform="translate(-33.324 -1549)"><g transform="translate(-17.752 -51.046)"><rect x="51.126" y="1600.1" width="123.81" height="109.68" fill="#fff" stroke="#000" stroke-linecap="round" stroke-linejoin="round" stroke-width=".1" style="paint-order:stroke fill markers"/><text x="82.304703" y="1697.6832" fill="#000000" font-family="sans-serif" font-size="18.901px" letter-spacing="0px" stroke-width=".47253" word-spacing="0px" style="line-height:1.25" xml:space="preserve"><tspan x="82.304703" y="1697.6832" stroke-width=".47253">Layer</tspan></text><circle transform="rotate(-16.306)" cx="-399.24" cy="1601.2" r="3.6904" style="paint-order:stroke fill markers"/><ellipse cx="98.913" cy="1674.4" rx="4.9585" ry="2.2098" style="paint-order:stroke fill markers"/><path d="m65.791 1649.6c2.3795-8.222 7.2207-13.558 14.871-15.6" fill="none" stroke="#000" stroke-linecap="round" stroke-linejoin="round" stroke-width="3"/><circle transform="matrix(-.95977 -.28077 -.28077 .95977 0 0)" cx="-607.56" cy="1541" r="3.6904" style="paint-order:stroke fill markers"/><path d="m151.06 1650.3c-2.3795-8.222-7.2207-13.558-14.871-15.6" fill="none" stroke="#000" stroke-linecap="round" stroke-linejoin="round" stroke-width="3"/><path d="m106.35 1660c-5.4067 4.324-4.8077 9.3684-4.1043 14.425" fill="none" stroke="#000" stroke-linecap="round" stroke-linejoin="round" stroke-width="3"/><ellipse transform="scale(-1,1)" cx="-120.89" cy="1674.7" rx="4.9585" ry="2.2098" style="paint-order:stroke fill markers"/><path d="m113.26 1660.1c5.4067 4.3239 4.8077 9.3683 4.1043 14.425" fill="none" stroke="#000" stroke-linecap="round" stroke-linejoin="round" stroke-width="3"/><path d="m106.6 1659.5c-3.7459-0.394-6.4588-1.1699-9.4504-2.7029-3.9793-2.0392-7.4904-5.2574-9.8425-9.0214-0.80835-1.2936-1.7638-3.2115-2.2484-4.5133-0.21683-0.5824-0.41504-1.0797-0.4405-1.1052-0.0251-0.025-1.1447 0.031-2.487 0.1249-1.3423 0.094-2.4494 0.1608-2.4602 0.1481-0.0191-0.023 1.3235-1.756 4.6538-6.0043 0.98001-1.2501 1.8171-2.2545 1.8603-2.2319 0.29339 0.153 7.4569 7.2148 7.3884 7.2834-0.0241 0.024-1.0593 0.1091-2.3009 0.1896l-2.2576 0.1462 0.0231 0.3324c0.0292 0.4222 1.1824 2.725 1.9186 3.8323 2.3629 3.5543 5.8747 6.4443 9.6814 7.9671 2.8242 1.1298 4.743 1.4901 7.9356 1.4901 2.5062 0 3.7777-0.1608 5.742-0.7265 6.2611-1.8029 11.382-6.4147 13.793-12.422l0.43195-1.076 2.0985-0.033c1.208-0.019 2.0986 0.013 2.0986 0.076 0 0.3417-1.0613 3.0989-1.6269 4.2267-1.3228 2.6375-2.5513 4.3718-4.5797 6.465-3.8449 3.9678-8.7054 6.4787-14.193 7.3319-1.1673 0.1815-4.7901 0.3215-5.7385 0.2218zm-1.3756-11.218v-2.2001l-0.32045-0.08c-0.17619-0.044-0.74507-0.2745-1.264-0.5117l-0.94358-0.4313-1.5479 1.5444-1.5479 1.5445-4.7217-4.7218 1.5444-1.5479 1.5445-1.5479-0.4227-0.935c-0.23242-0.5142-0.4579-1.083-0.50096-1.264l-0.0785-0.329h-4.4216v-6.699h2.205c2.1849 0 2.2056-1e-3 2.2794-0.2692 0.0413-0.148 0.26854-0.7172 0.5059-1.2648l0.43165-0.9957-1.5436-1.5471-1.5436-1.5469 4.7217-4.7218 1.5479 1.5444 1.5479 1.5445 0.94359-0.4314c0.51898-0.2372 1.0878-0.4674 1.264-0.5117l0.32045-0.08v-4.4002h6.699v4.4002l0.32046 0.08c0.17618 0.044 0.74507 0.2745 1.264 0.5117l0.94359 0.4314 1.5479-1.5445 1.5479-1.5444 4.7218 4.7218-3.0888 3.0957 0.42269 0.935c0.23243 0.5143 0.45791 1.0831 0.50098 1.264l0.0784 0.329h4.4216v6.7089l-2.0037-0.01c-1.1021-0.01-2.0938-0.01-2.2038 0-0.12431 0-0.25345 0.1751-0.34109 0.4538-0.0775 0.2467-0.30648 0.8152-0.50882 1.2633l-0.36775 0.8146 1.5452 1.5487 1.5452 1.5486-2.3609 2.3609-2.3609 2.3608-1.5479-1.5444-1.5479-1.5445-0.93503 0.4227c-0.51425 0.2325-1.083 0.4579-1.264 0.5011l-0.32902 0.078v4.4216h-6.699v-2.2001zm5.2084-5.998c2.7759-0.7133 4.8085-2.6075 5.8248-5.4282 0.34301-0.9523 0.42843-3.1509 0.16301-4.201-0.77457-3.0644-2.9391-5.2354-5.9891-6.0067-1.3408-0.3391-3.2192-0.2535-4.4675 0.2035-3.1807 1.1644-5.202 3.8264-5.3739 7.0771-0.0794 1.5087 0.10136 2.5463 0.66559 3.8133 0.93171 2.0922 2.5254 3.545 4.7127 4.2961 1.1581 0.3977 1.1677 0.3993 2.5503 0.4153 0.7336 0.01 1.4786-0.057 1.914-0.1694zm19.494-8.5134c-2.1246-2.0365-6.3953-6.3011-6.3527-6.3437 0.0241-0.024 1.0593-0.1091 2.3009-0.1895l2.2574-0.1463-0.0231-0.3324c-0.0312-0.4427-1.2162-2.7884-1.9758-3.9101-3.3275-4.9141-8.22-8.1091-14.031-9.1625-1.6736-0.3034-5.3843-0.3034-7.0579 0-7.2877 1.3211-13.294 6.1733-16.007 12.931l-0.43195 1.076-2.0985 0.033c-1.208 0.019-2.0986-0.013-2.0986-0.076 0-0.3417 1.0613-3.099 1.6269-4.2267 1.3227-2.6375 2.5513-4.3719 4.5797-6.4651 3.8593-3.9827 8.6308-6.4426 14.255-7.3492 1.722-0.2775 5.6829-0.2775 7.405 0 4.4663 0.7199 8.1282 2.2991 11.743 5.064 1.3198 1.0095 3.5624 3.2735 4.5438 4.5874 1.4127 1.8909 2.7654 4.3395 3.5257 6.3818 0.21673 0.5824 0.41496 1.0797 0.44051 1.1052 0.0251 0.026 1.1446-0.031 2.487-0.1249 1.3423-0.094 2.4493-0.1609 2.4599-0.1482 0.0191 0.023-0.78028 1.0543-4.4142 5.6972-1.0006 1.2785-1.8732 2.3936-1.939 2.4779-0.0905 0.1167-0.37803-0.094-1.1962-0.8786z" stroke-width=".11962"/><circle cx="95.498" cy="1623.8" r="9.1235" fill="#fff" stroke="#000" stroke-linecap="round" stroke-linejoin="round" style="paint-order:stroke fill markers"/><circle cx="121.84" cy="1623.9" r="9.1235" fill="#fff" stroke="#000" stroke-linecap="round" stroke-linejoin="round" style="paint-order:stroke fill markers"/><circle cx="95.498" cy="1623.8" r="3.6904" style="paint-order:stroke fill markers"/><circle cx="121.84" cy="1623.9" r="3.6904" style="paint-order:stroke fill markers"/></g></g></svg>
