<?xml version="1.0" encoding="UTF-8"?>
<!-- Created with Inkscape (http://www.inkscape.org/) -->
<svg width="541.15mm" height="433.92mm" version="1.1" viewBox="0 0 541.15 433.92" xml:space="preserve" xmlns="http://www.w3.org/2000/svg"><defs><marker id="Triangle-2-1-6-1" overflow="visible" markerHeight="1" markerWidth="1" orient="auto-start-reverse" preserveAspectRatio="xMidYMid" viewBox="0 0 1 1"><path transform="scale(.5)" d="m5.77 0-8.65 5v-10z" fill="context-stroke" fill-rule="evenodd" stroke="context-stroke" stroke-width="1pt"/></marker><marker id="Triangle-2-1-6-1-1" overflow="visible" markerHeight="1" markerWidth="1" orient="auto-start-reverse" preserveAspectRatio="xMidYMid" viewBox="0 0 1 1"><path transform="scale(.5)" d="m5.77 0-8.65 5v-10z" fill="context-stroke" fill-rule="evenodd" stroke="context-stroke" stroke-width="1pt"/></marker><marker id="Triangle-2-1-6-1-1-8" overflow="visible" markerHeight="1" markerWidth="1" orient="auto-start-reverse" preserveAspectRatio="xMidYMid" viewBox="0 0 1 1"><path transform="scale(.5)" d="m5.77 0-8.65 5v-10z" fill="context-stroke" fill-rule="evenodd" stroke="context-stroke" stroke-width="1pt"/></marker></defs><g transform="translate(-31.445 -1881.3)"><g transform="translate(8.7912 -167.09)"><rect x="22.704" y="2048.4" width="541.05" height="433.82" fill="#fff" stroke="#000" stroke-linecap="round" stroke-linejoin="round" stroke-width=".1" style="paint-order:stroke fill markers"/><path d="m236.37 2135.3c7.584 5.8696 5.6605 17.106 53.129 0.4603" fill="none" stroke="#000" stroke-linecap="round" stroke-linejoin="round" stroke-width="3"/><text x="432.16211" y="2446.5789" fill="#000000" font-family="sans-serif" font-size="18.901px" letter-spacing="0px" stroke-width=".47253" word-spacing="0px" style="line-height:1.25" xml:space="preserve"><tspan x="432.16211" y="2446.5789" stroke-width=".47253">Canvas</tspan></text><text x="391.32086" y="2464.4983" fill="#000000" font-family="sans-serif" font-size="18.901px" letter-spacing="0px" stroke-width=".47253" word-spacing="0px" style="line-height:1.25" xml:space="preserve"><tspan x="391.32086" y="2464.4983" stroke-width=".47253">(What user see)</tspan></text><g transform="translate(-245.89 426.91)"><path d="m312.71 1803.3c-1.6427-0.1912-3.1904-0.8974-3.5617-1.6252-0.18641-0.3654-0.17664-0.7113 0.0797-2.8219 0.18715-1.5411 0.2263-3.7215 0.0833-4.6386-0.16861-1.0813-0.44217-1.9642-0.88963-2.8715-0.53116-1.077-1.1627-1.9258-2.0986-2.8205l-0.70799-0.6769h-5.6009l-0.75613 0.7617c-1.192 1.2007-2.0202 2.5596-2.4374 3.9994-0.33247 1.1473-0.42637 2.101-0.37942 3.8534 0.0417 1.5564 0.24561 3.5127 0.40918 3.9255 0.1007 0.2542 0.10583 0.6412 0.0118 0.8885-0.27566 0.7251-1.5075 1.3663-3.1325 1.6306-0.86321 0.1404-2.636 0.1396-3.4451-1e-3 -3.4653-0.6043-4.3315-2.583-1.6122-3.6831 1.04-0.4207 1.6113-0.5088 3.317-0.5117h1.573l-0.0464-0.405c-0.10657-0.9306-0.13464-3.0874-0.0512-3.9391 0.2212-2.259 0.91503-4.2773 2.0249-5.8902l0.40533-0.5891-3.1206-0.051c-1.7164-0.028-3.4259-0.085-3.799-0.1263-2.0121-0.2246-3.9056-1.4954-5.058-3.3945-0.15957-0.263-0.46062-0.8453-0.669-1.2941l-0.37886-0.8159v-2.8003l-1.0736-0.051c-3.4191-0.1616-5.6179-0.7877-6.7855-1.9321-1.0741-1.0528-1.2673-2.4783-0.53306-3.9328 0.81042-1.6055 3.0231-3.5724 6.3874-5.678 1.028-0.6434 1.5115-0.8456 1.8305-0.7655l0.17418 0.044v-8.7081l-0.40922-0.442c-1.1155-1.2049-1.9204-2.7972-2.2802-4.5108-0.18216-0.8675-0.22066-2.4164-0.0825-3.3187 0.28126-1.8367 1.1694-3.7103 2.3941-5.0503l0.37785-0.4134 5.6e-4 -1.4622 5.5e-4 -1.4623 0.40217-0.8721c0.76219-1.6529 1.7401-2.8546 2.9834-3.6658 1.6267-1.0615 1.9231-1.0918 11.191-1.1441 7.071-0.04 12.062 0.039 12.484 0.197 0.28523 0.107 0.6492 0.4677 3.3504 3.3204l2.2728 2.4004 0.86799 0.042c2.5265 0.1212 4.6839 1.0987 6.4566 2.9255 1.375 1.417 2.2509 3.1358 2.589 5.0803 0.18061 1.0387 0.1134 2.8668-0.1421 3.8655-0.36243 1.4165-0.88386 2.4879-1.8071 3.7131l-0.30132 0.3998v9.3868l0.7915 0.5481c1.2932 0.8956 2.1406 1.5791 3.0268 2.4412 1.0407 1.0124 1.8172 2.0327 2.2895 3.0081 0.52762 1.0897 0.62593 1.5152 0.6242 2.7018-1e-3 0.8919-0.0223 1.0544-0.20479 1.583-0.78775 2.2818-2.9448 4.14-6.556 5.6477-0.56103 0.2342-0.59147 0.2598-0.88683 0.7453-0.98552 1.62-2.0406 2.5474-3.8702 3.4018l-0.62584 0.2922-7.9819 0.148 0.40394 0.5876c1.1363 1.6527 1.8495 3.6184 2.0977 5.7813 0.088 0.7668 0.0554 3.5958-0.0516 4.4842-0.0473 0.393-0.0458 0.3973 0.12819 0.3487 0.0969-0.027 0.60685-0.069 1.1333-0.094 3.5552-0.1665 6.302 1.3831 5.1436 2.9019-0.80561 1.0562-3.5109 1.6944-5.9693 1.4082zm-21.005-18.768c-0.14511-0.094-0.44177-0.094-0.44177 0 0 0.041 0.12425 0.073 0.27611 0.072 0.20537-9e-4 0.24781-0.019 0.16566-0.072zm16.382-1.2512c4.2123-0.2596 7.9772-0.8679 11.302-1.8262 0.44852-0.1293 0.48003-0.1526 0.5016-0.3704l0.023-0.2323-24.318-0.038-0.25204-0.2751-0.25203-0.275v-1.9282l-0.20248 0.043c-0.11136 0.023-0.66634 0.1083-1.2333 0.1886-0.56694 0.08-1.135 0.1642-1.2623 0.1862l-0.2315 0.04 0.3068 0.4583c0.4034 0.6026 0.56742 1.1206 0.61506 1.9425l0.0391 0.6744 0.78182 0.2266c1.9614 0.5686 4.5518 0.9791 7.4452 1.1796 1.245 0.086 5.3779 0.09 6.737 0.01zm13.584-8.1732v-4.8595l-1.3437 3e-4 -1.3437 2e-4 -0.01 0.5038c-0.0189 0.9626-0.38488 1.8206-1.0683 2.5039-0.39736 0.3974-0.9799 0.7716-1.3411 0.8616-0.22235 0.055-0.41544 0.3869-0.41544 0.7133 0 0.1444-0.0673 0.1901-0.44575 0.3024-0.41286 0.1226-0.47087 0.1238-0.78621 0.016-0.19007-0.065-0.58288-0.116-0.88925-0.116h-0.54879l0.0411 0.3066c0.0831 0.6192 0.52552 0.9448 1.2844 0.945 0.27365 0 0.60855-0.057 0.82832-0.1401l0.36893-0.1402v0.5631l-0.51153 0.1163c-0.63609 0.1447-0.97985 0.1467-1.4447 0.01-0.74325-0.2213-1.157-0.8386-1.1662-1.7396l-6e-3 -0.5593-0.44233-0.1586c-0.24328-0.087-0.46717-0.1586-0.49755-0.1586-0.0304 0-0.0552 0.5964-0.0552 1.3253v1.3253h-0.58902v-2.5565l-0.68106 0.2538c-0.37459 0.1395-0.72007 0.2923-0.76774 0.3395-0.0477 0.047-0.2891 0.5945-0.5365 1.2163-0.7731 1.9432-0.87395 2.0722-1.6188 2.0722-0.36402 0-0.3718-0.01-0.3718-0.2208 0-0.2017 0.0216-0.2209 0.24777-0.2209 0.3306 0 0.58519-0.2145 0.74199-0.625l0.12897-0.3378-0.23672-0.5872c-0.1302-0.323-0.26395-0.6041-0.29723-0.6247-0.0333-0.021-0.56268 0.1124-1.1764 0.2956-0.61377 0.1831-1.1313 0.3329-1.15 0.3329-0.0188 0-0.0136 0.033 0.0114 0.074s0.25891 0.074 0.51974 0.074h0.47424v0.5154h-0.34973c-0.4979 0-0.98607-0.1297-1.1734-0.3056l-0.16095-0.1512-1.4957 0.3744c-1.9394 0.4855-3.8349 0.899-5.7932 1.2637-0.86529 0.1612-1.5859 0.293-1.6014 0.293-0.0501 0-0.0298 1.6673 0.0209 1.718 0.027 0.027 5.8087 0.049 12.848 0.049h12.799zm2.1282 4.5896c1.4079-0.7823 2.5273-1.7663 2.9207-2.5677 0.19236-0.3917 0.21553-0.5141 0.21553-1.1384 0-0.6371-0.0215-0.7448-0.24037-1.207-0.48194-1.0177-1.5189-2.2094-2.852-3.2778-0.48454-0.3883-0.59165-0.4471-0.60385-0.3313-0.0586 0.5562-0.0557 8.792 3e-3 8.792 0.0392 0 0.28974-0.1214 0.55686-0.2698zm-37.544-0.3376c5.6e-4 -0.03-0.032-0.055-0.0725-0.055s-0.0731 0.074-0.0725 0.1656c8.4e-4 0.134 0.0148 0.1446 0.0725 0.055 0.0393-0.061 0.0719-0.1352 0.0725-0.1656zm-3.3858-6.1356v-3.1352l-0.2761 0.1668c-0.77365 0.4674-2.5012 1.6735-3.1844 2.2232-1.3819 1.1118-2.4673 2.3801-2.334 2.7274 0.21016 0.5477 2.6915 1.1147 5.003 1.1432l0.7915 0.01zm4.4545 3.0229c1.0595-0.056 3.5742-0.3082 3.6297-0.3637 0.0217-0.022-1.0595-0.039-2.4026-0.039h-2.442v0.2591c0 0.2298 0.0188 0.2553 0.16566 0.225 0.0911-0.019 0.56325-0.055 1.0492-0.081zm21.757-1.221c0-0.031-0.14732-0.01-0.32738 0.055-0.358 0.122-0.34816 0.061-0.10844 0.671 0.079 0.201 0.0809 0.1993 0.2577-0.2334 0.098-0.2397 0.17812-0.4614 0.17812-0.4925zm-10.639-0.3293c2.6104-0.5199 2.717-0.5483 2.7459-0.7303 0.0902-0.5677 0.4419-0.8447 1.1441-0.9011 0.61671-0.05 1.306 0.095 1.3554 0.2844 0.0233 0.089 0.0818 0.1291 0.15693 0.1069 0.0659-0.02 0.21084-0.057 0.3222-0.084s0.20248-0.094 0.20248-0.1508c0-0.065 0.0813-0.1024 0.22088-0.1024h0.22088v-1.0308h0.58903v0.4417c0 0.3043 0.0286 0.4418 0.092 0.4419 0.20076 3e-4 1.8227-0.5443 1.7691-0.594-0.0315-0.029-1.3381-0.5205-2.9036-1.0917l-2.8463-1.0386h-5.5357v4.9294l0.23929-0.043c0.13161-0.023 1.1339-0.2207 2.2272-0.4385zm-3.3501-1.3705v-1.6342l-0.1859-0.194c-0.23918-0.2497-0.32851-0.7839-0.32907-1.9677l-5.6e-4 -0.9019h-0.18407c-0.15544 0-0.18407-0.034-0.18407-0.2209 0-0.1865 0.0286-0.2209 0.18407-0.2209 0.15862 0 0.18405-0.033 0.1839-0.2393l-1.7e-4 -0.2393-1.9197-0.6964c-1.0558-0.383-1.987-0.7435-2.0692-0.8011-0.17605-0.1233-0.35484-0.5182-0.35484-0.7837v-0.1875l-2.2273 0.02-2.2272 0.019-0.0191 4.749c-0.0105 2.612-3e-3 4.7905 0.0161 4.8411 0.0276 0.072 1.0312 0.092 4.6761 0.092h4.6409zm-3.8103-1.6248c-0.30288-0.073-0.31292-0.085-0.31292-0.3671 0-0.2499 0.0185-0.284 0.12885-0.2369 0.27435 0.1172 0.87162 0.2552 1.1044 0.2552 0.34846 0 0.74654-0.186 0.81937-0.3829 0.0895-0.2418-0.0407-0.5472-0.27194-0.638-0.10873-0.043-0.41159-0.1313-0.67301-0.197-0.26143-0.066-0.56734-0.1669-0.67982-0.225-0.41205-0.2131-0.55821-0.8826-0.28903-1.324 0.21573-0.3538 0.60537-0.5014 1.2969-0.4913 0.8618 0.013 1.0255 0.076 1.0536 0.41 0.0126 0.1492 0.0126 0.2707 0 0.2701-0.0126-5e-4 -0.15539-0.049-0.31737-0.1072-0.38525-0.1388-1.0931-0.1412-1.3572-0.01-0.23243 0.1202-0.34123 0.4128-0.23045 0.6198 0.0843 0.1576 0.29974 0.2512 0.9585 0.4166 0.8909 0.2236 1.1077 0.426 1.1077 1.0342 0 0.4568-0.17742 0.7205-0.62006 0.9216-0.33695 0.153-1.1801 0.1759-1.7176 0.047zm11.32 2.071 0.62584-0.1668-0.32357-0.057c-0.38287-0.067-0.84545 0.022-1.0438 0.2016-0.17702 0.1602-0.18369 0.2748-0.0131 0.2258 0.0709-0.02 0.41048-0.112 0.75469-0.2037zm7.1966-2.2312c0.55711-0.2203 1.2034-0.4849 1.4363-0.5881 0.42072-0.1865 0.42336-0.1896 0.42336-0.5044 0-1.4472 1.2073-2.9411 2.6886-3.3269 1.0602-0.2761 2.2954-0.047 3.1736 0.5888 0.15353 0.1112 0.16293 0.094 0.60743-1.1104 0.24832-0.6727 0.4515-1.267 0.4515-1.3206 0-0.054-0.0911-0.1297-0.20248-0.1693-0.11136-0.04-3.4826-1.2735-7.4917-2.742l-7.2892-2.6701-5.4853 1.0901c-3.0169 0.5996-5.5225 1.1033-5.568 1.1193-0.11328 0.04-1.3991 3.5755-1.3122 3.6079 0.30621 0.1142 17.524 6.4192 17.537 6.4222 0.01 0 0.47369-0.1763 1.0308-0.3965zm0.10655-2.5529c-0.60291-0.1909-1.1372-0.6843-1.2667-1.1698-0.23305-0.8732 0.25157-1.9526 1.0647-2.3715 0.23639-0.1217 0.38417-0.1429 0.7929-0.1137 1.1918 0.085 1.7996 1.0061 1.413 2.1407-0.0645 0.1895-0.12925 0.3445-0.14379 0.3445-0.0145 0-0.57624-0.2028-1.2482-0.4506s-1.2416-0.4307-1.2658-0.4066c-0.0242 0.024-0.0587 0.2021-0.0767 0.3954-0.0263 0.2827 1e-3 0.4013 0.14126 0.6073 0.32188 0.4735 0.9252 0.738 1.6835 0.738 0.30198 0 0.34373 0.058 0.21467 0.2993-0.10251 0.1916-0.68106 0.1858-1.3087-0.013zm1.565-2.0212c0.14603-0.7784-0.63856-1.3926-1.405-1.0999-0.31039 0.1186-0.68207 0.509-0.58238 0.6118 0.0442 0.045 1.7751 0.7259 1.8912 0.7434 0.0258 0 0.0692-0.111 0.0962-0.2553zm-8.316 0.8906c-0.70919-0.2055-0.71048-0.2062-0.66131-0.4021 0.064-0.2552 0.0645-0.2554 0.38662-0.1736 0.35478 0.09 0.50107 0.034 0.83705-0.3215l0.26785-0.2833-0.0609-1.2885c-0.0335-0.7086-0.0629-1.5587-0.0654-1.889l-4e-3 -0.6006 0.24902 0.076c0.22352 0.069 0.25368 0.1105 0.29452 0.4084 0.025 0.1825 0.0455 0.8389 0.0455 1.4585 0 0.6197 0.0266 1.1431 0.0592 1.1632 0.0326 0.02 0.49838-0.4549 1.0352-1.0556l0.97598-1.0922 0.28476 0.1118 0.28476 0.1119-1.6039 1.7767c-0.88213 0.9772-1.6832 1.816-1.7801 1.8639-0.21603 0.1067-0.44603 0.164-0.54437 0.1355zm3.7209-0.048c-0.0998-0.04-0.19137-0.082-0.2036-0.094-0.0227-0.023 1.5745-4.4287 1.6621-4.5851 0.0361-0.064 0.10801-0.061 0.28746 0.015 0.13161 0.056 0.23742 0.1273 0.23513 0.1597-0.0127 0.1792-1.6648 4.5411-1.7262 4.5574-0.0404 0.011-0.15513-0.013-0.25489-0.053zm-5.2081-1.9136c-0.21051-0.081-0.48802-0.2455-0.61667-0.3656-0.21313-0.1991-0.23083-0.2495-0.19921-0.5669 0.0275-0.2758 0.39499-1.3996 0.75504-2.3089 0.0343-0.087-5e-3 -0.1328-0.14104-0.167-0.19039-0.048-0.24281-0.213-0.126-0.3971 0.0446-0.07 0.11032-0.076 0.25368-0.021 0.18742 0.071 0.19851 0.06 0.35431-0.3676 0.0885-0.2426 0.18668-0.4571 0.21826-0.4766 0.0446-0.028 0.34504 0.067 0.49498 0.1563 0.0119 0.01-0.0461 0.1908-0.12881 0.4084-0.0827 0.2176-0.1504 0.4337-0.15042 0.4803-2e-5 0.047 0.24556 0.1741 0.54573 0.2836 0.54223 0.1977 0.5453 0.2004 0.47378 0.4055l-0.072 0.2065-0.57606-0.2103-0.57606-0.2102-0.37764 1.0455c-0.48651 1.3468-0.48609 1.4054 0.0116 1.6371 0.2126 0.099 0.43183 0.1803 0.48717 0.1807 0.0683 5e-4 0.0864 0.054 0.0562 0.1664-0.0244 0.091-0.0448 0.1905-0.0454 0.2209-2e-3 0.092-0.23826 0.055-0.64146-0.1zm-3.4296-1.1676c-0.32016-0.1251-1.0839-0.5711-1.0839-0.6329 0-0.026 0.16305-0.416 0.19335-0.4626 9e-3 -0.014 0.19275 0.1075 0.40845 0.2696 0.51723 0.3886 1.0876 0.5785 1.3772 0.4586 0.26034-0.1078 0.39777-0.3814 0.30895-0.6151-0.0356-0.094-0.31937-0.3462-0.63062-0.5614-0.8028-0.5549-0.97422-0.8846-0.74512-1.4329 0.33975-0.8132 1.3139-0.8083 2.5308 0.013 0.0716 0.048 0.0742 0.1164 0.0112 0.297-0.0924 0.265-0.15246 0.2877-0.29759 0.1123-0.15477-0.187-0.95503-0.5404-1.2239-0.5405-0.2822 0-0.5338 0.219-0.5338 0.4648 0 0.1788 0.23046 0.4267 0.66265 0.7129 0.45911 0.3041 0.80684 0.6822 0.85285 0.9275 0.0674 0.3592-0.18121 0.8576-0.50431 1.0109-0.33814 0.1604-0.88427 0.1519-1.3262-0.021zm-2.4767 4.634c0.13782-0.039 0.52415-0.072 0.85851-0.072 0.33435 0 0.60792-0.014 0.60792-0.031s-0.0633-0.1783-0.14055-0.3586c-0.10623-0.2479-0.19974-0.3486-0.38289-0.4124-0.20104-0.07-0.25299-0.065-0.30488 0.027-0.0477 0.085-0.20108 0.1117-0.6479 0.1117h-0.58537v1.1301l0.17228-0.1618c0.0947-0.089 0.28505-0.1942 0.42288-0.2337zm3.0054-0.1036c-0.0532-0.053-1.0534-0.4049-1.0789-0.3793-0.0131 0.013 0.0158 0.1109 0.0643 0.2174 0.0821 0.1802 0.12144 0.1936 0.56724 0.1936 0.26347 0 0.46476-0.014 0.4473-0.032zm21.212-4.4307c0-4.2203-7e-3 -4.4596-0.12885-4.4112-2.1141 0.84-4.2543 1.0029-6.2933 0.4789-0.31277-0.08-0.60183-0.1462-0.64236-0.1462-0.0405 0-0.1246 0.099-0.18682 0.2188-0.14428 0.279-0.60097 0.5911-0.86491 0.5911-0.11208 0-0.20379 0.027-0.20379 0.06s1.3502 0.5515 3.0004 1.1523c4.3582 1.5868 4.4753 1.634 4.6909 1.8902 0.29128 0.3461 0.24712 0.6102-0.39295 2.3492l-0.57993 1.5756 0.19338 0.3508 0.19337 0.3508 1.2149 2e-3zm-24.499 3.2298c-0.23988-0.1194-0.37007-0.096-0.27988 0.05 0.0267 0.043 0.15426 0.076 0.28348 0.074l0.23495-0.01zm-4.7297-4.1239c0.458-1.2159 0.64903-1.7854 0.59883-1.7854-0.0307 0-0.96528 0.1834-2.0768 0.4077-1.2492 0.252-2.1102 0.3917-2.2546 0.3658-0.3488-0.062-0.65739-0.4576-0.75884-0.9716-0.0464-0.2353-0.0963-0.4609-0.11077-0.5014-0.0145-0.041-0.029 0.5973-0.0322 1.4173l-6e-3 1.491h4.4807zm12.368-5.0737c8.6458-1.7275 15.735-3.1542 15.755-3.1703 0.0643-0.054-1.8727-9.5924-1.9484-9.5942-0.091 0-31.578 6.2737-31.611 6.3007-0.0222 0.018 1.793 9.1987 1.8736 9.4759 0.0206 0.071 0.0766 0.1289 0.12455 0.1289 0.0479 0 7.1609-1.4134 15.807-3.141zm-13.565-1.8414c-0.26604-1.3295-0.47854-2.4211-0.47221-2.4259 6e-3 0 0.13148-0.03 0.27811-0.057 0.25507-0.046 0.26865-0.038 0.31414 0.1896l0.0476 0.2378 0.17835-0.2625c0.29561-0.4351 0.98091-0.6678 1.4807-0.5028 0.66961 0.221 1.132 0.9547 1.1942 1.895 0.0441 0.6675-0.0993 1.0831-0.49808 1.4434-0.4464 0.4033-1.1533 0.4537-1.6274 0.1161-0.11808-0.084-0.2133-0.1258-0.21162-0.093 2e-3 0.033 0.0817 0.4412 0.17786 0.9069 0.0961 0.4657 0.16929 0.8521 0.16259 0.8586-7e-3 0.01-0.13102 0.034-0.27627 0.061l-0.26408 0.049zm2.0516 0.2343c0.58101-0.3807 0.49738-1.785-0.1418-2.3815-0.40273-0.3758-1.1353-0.2281-1.3995 0.2822-0.17802 0.3438-0.13766 1.1647 0.0778 1.583 0.1543 0.2995 0.40818 0.5715 0.60783 0.6512 0.18006 0.072 0.65418 0 0.85568-0.1349zm2.1752-0.314c-0.29784-1.4145-0.61735-3.119-0.58982-3.1466 0.0183-0.018 0.14743-0.043 0.28703-0.054 0.22819-0.019 0.25616-2e-4 0.2771 0.1819 0.0299 0.2596 0.0934 0.2551 0.24851-0.017 0.14831-0.2607 0.4941-0.485 0.85089-0.5519 0.29711-0.056 0.35077-0.016 0.41037 0.3037 0.0368 0.1975 0.0236 0.2264-0.0899 0.1967-0.24274-0.063-0.72743 0.1202-0.91948 0.3485-0.2941 0.3495-0.30314 0.6112-0.0636 1.8398 0.14741 0.7561 0.19127 1.1226 0.13633 1.1389-0.4526 0.1348-0.47019 0.1271-0.54743-0.2398zm6.3046-2.0443-0.47871-2.3942 0.19176-0.042c0.10547-0.023 0.22993-0.053 0.27656-0.067 0.0474-0.014 0.10656 0.09 0.13419 0.2377l0.0494 0.2633 0.13463-0.2214c0.34295-0.5639 1.1491-0.7789 1.7574-0.4686 0.6387 0.3259 1.0133 1.1609 0.95164 2.1215-0.0288 0.4489-0.0723 0.5968-0.24817 0.8449-0.28585 0.4032-0.62488 0.5737-1.1406 0.5737-0.31909 0-0.47579-0.042-0.68221-0.1818-0.14739-0.1-0.2666-0.158-0.26491-0.1289 2e-3 0.029 0.0817 0.4339 0.17772 0.8993 0.18721 0.9072 0.17791 0.9543-0.18836 0.9565h-0.19163zm2.1303 0.1568c0.25494-0.2336 0.27391-0.2813 0.30003-0.7547 0.0344-0.6224-0.17481-1.2505-0.51051-1.533-0.48375-0.407-1.2629-0.1669-1.4672 0.4521-0.19635 0.595 0.13533 1.7307 0.57511 1.9693 0.11133 0.06 0.34372 0.1112 0.51642 0.1128 0.25646 0 0.36387-0.043 0.58615-0.2465zm-5.4682 1.441c-0.3829-0.1799-0.64649-0.4974-0.83796-1.0091-0.17933-0.4793-0.2059-1.3129-0.0534-1.6758 0.22572-0.5371 0.90872-0.939 1.5888-0.9348 0.60509 0 1.2208 0.5066 1.4375 1.1741 0.46345 1.4275-0.0997 2.4672-1.3835 2.5546-0.34137 0.023-0.52766 0-0.75145-0.109zm1.1794-0.4679c0.51938-0.2367 0.66469-1.1543 0.30664-1.9364-0.37955-0.829-1.2496-0.9594-1.7272-0.2588-0.15515 0.2277-0.17134 0.3191-0.14326 0.8089 0.0534 0.9315 0.44158 1.4725 1.0565 1.4725 0.17487 0 0.40314-0.039 0.50728-0.086zm7.0247-1.1151c-0.70518-0.2644-1.0983-0.8472-1.1537-1.7104-0.0401-0.6247 0.0576-0.975 0.37151-1.3325 0.28435-0.3239 0.70204-0.538 1.1537-0.5915 0.82638-0.098 1.4778 0.4293 1.6884 1.3664 0.0796 0.3541 0.22535 0.2898-1.3704 0.6041-0.65805 0.1297-1.1964 0.2655-1.1964 0.3018 0 0.1904 0.32321 0.6548 0.55575 0.7986 0.39495 0.244 1.0425 0.1777 1.6787-0.172l0.47471-0.2609 0.0383 0.2337c0.0476 0.2909-0.0906 0.4235-0.66559 0.6386-0.53556 0.2004-1.2263 0.2548-1.5749 0.1241zm0.49369-2.0828c0.52279-0.1055 0.96164-0.2022 0.97522-0.2149 0.0645-0.06-0.25008-0.5699-0.43169-0.6992-0.41651-0.2966-1.2205-0.1046-1.4889 0.3555-0.13172 0.2258-0.17855 0.7504-0.067 0.7504 0.034 0 0.4896-0.086 1.0124-0.1918zm8.2464 1.7656c-0.0881-0.2297-0.046-0.3958 0.10032-0.3958 0.39981 0 0.60583-0.239 0.70652-0.8197 0.0435-0.2512-0.0176-0.3634-0.99824-1.8319-1.0941-1.6385-1.1244-1.7188-0.63065-1.6748 0.19077 0.017 0.30178 0.1522 0.97058 1.182 0.41534 0.6396 0.78227 1.1631 0.81539 1.1633 0.0331 3e-4 0.17823-0.638 0.32248-1.4182l0.26227-1.4187 0.28265-0.059c0.15546-0.032 0.28896-0.05 0.29667-0.039 0.047 0.066-0.8752 4.6318-0.97799 4.8423-0.18695 0.3827-1.0483 0.7343-1.15 0.4693zm-5.3723-0.3774c-0.0207-0.071-0.17737-0.8359-0.3483-1.7001-0.33522-1.6947-0.33349-1.7304 0.0814-1.6875 0.14058 0.014 0.18961 0.067 0.20752 0.2232l0.0235 0.204 0.30787-0.3321c0.22553-0.2433 0.4008-0.3559 0.65525-0.4212 0.39169-0.1004 0.40496-0.094 0.49649 0.2248 0.0605 0.2111 0.0517 0.2309-0.10351 0.2309-0.61484 0-1.0326 0.3147-1.1109 0.8369-0.0333 0.222 0.0178 0.6448 0.16834 1.392l0.21615 1.0731-0.15424 0.041c-0.27 0.072-0.40096 0.047-0.43954-0.085zm2.9916-0.6095c-0.26425-0.1063-0.43233-0.4692-0.60688-1.3105-0.0897-0.4322-0.19634-0.9467-0.23703-1.1432-0.0704-0.3401-0.0839-0.3554-0.27997-0.3162-0.1761 0.035-0.21298 0.013-0.25422-0.151-0.0484-0.193 0.0416-0.3132 0.2364-0.3155 0.11024-1e-3 0.11488-0.2178 0.014-0.6551-0.0409-0.1775-0.065-0.3319-0.0534-0.3432 0.0115-0.011 0.14091-0.043 0.28752-0.07l0.26656-0.05 0.0915 0.485c0.10824 0.5736 0.0327 0.5539 1.1526 0.301 0.1288-0.029 0.16321 0 0.18936 0.1822 0.031 0.2114 0.0202 0.22-0.37829 0.3-0.69112 0.1386-0.74157 0.1562-0.74157 0.2593 0 0.2481 0.442 2.1887 0.51989 2.2826 0.0977 0.1178 0.4823 0.1338 0.89745 0.037 0.19549-0.045 0.2764-0.04 0.27711 0.02 5.6e-4 0.046 0.0199 0.1549 0.0431 0.2413 0.0383 0.1428-2.8e-4 0.1644-0.4304 0.2393-0.55254 0.096-0.76722 0.098-0.99381 0.01zm6.3928 6.9544c1.826-0.3463 3.5929-1.3218 4.9022-2.7065 4.224-4.4673 2.918-11.711-2.6094-14.474-1.1893-0.5944-2.528-0.8895-4.0362-0.8895-2.4813 0-4.7118 0.9182-6.4349 2.6489-0.71068 0.7138-1.516 1.816-1.2832 1.7563 0.0778-0.02 2.0985-0.4273 4.4905-0.9053 4.337-0.8665 4.3498-0.8686 4.6159-0.7423 0.14675 0.07 0.31999 0.2077 0.38498 0.3069 0.065 0.099 0.26081 0.8904 0.43518 1.7582 0.30034 1.4948 0.33026 1.5925 0.56849 1.8565 0.35388 0.3922 0.54252 0.7204 0.73144 1.2727 0.21947 0.6415 0.22639 1.6147 0.0161 2.2588l-0.14856 0.4549 0.25723 1.2754c0.2359 1.1695 0.24887 1.2992 0.15632 1.5631-0.0555 0.1583-0.18375 0.3489-0.28499 0.4234-0.12928 0.095-1.5539 0.4096-4.7858 1.0561-2.531 0.5062-4.6336 0.931-4.6725 0.9439-0.10369 0.034 0.72116 0.6713 1.3586 1.0492 1.0371 0.6149 2.3328 1.0485 3.597 1.2039 0.6889 0.085 1.989 0.032 2.7417-0.1104zm-31.887-0.8249c0-0.032-0.33026-1.7067-0.7339-3.7226-0.71663-3.5791-0.73122-3.6721-0.6196-3.9511 0.13633-0.3407 0.33841-0.4865 0.81504-0.5881 0.19491-0.042 0.42426-0.091 0.50966-0.1106 0.12332-0.028 0.16383-0.1074 0.19692-0.3868 0.10415-0.8794 0.68514-1.8416 1.4535-2.4072 0.63078-0.4644 1.1446-0.6413 1.991-0.6856 0.76754-0.04 1.2685 0.062 1.9146 0.3891 0.46049 0.2333 1.1341 0.86 1.3729 1.2773 0.107 0.187 0.20201 0.3506 0.21114 0.3635 0.018 0.026 5.3502-1.0257 5.3978-1.0642 0.0447-0.036-0.28065-0.897-0.52508-1.3891-0.87662-1.7647-2.5331-3.3922-4.2689-4.1942-0.74941-0.3463-1.5588-0.6027-2.3255-0.7368-0.8221-0.1438-2.316-0.1439-3.1525-2e-4 -3.058 0.5254-5.7036 2.642-6.8692 5.4958-1.3882 3.3987-0.6414 7.2763 1.8965 9.8478 0.72932 0.7389 1.2229 1.1232 2.0439 1.591 0.58514 0.3335 0.69194 0.3754 0.69194 0.272zm17.266-11.823 4.1232-0.8289-0.0183-1.4316c-0.0101-0.7874-0.0387-2.5482-0.0637-3.9129l-0.0453-2.4813-6.7838 0.037c-7.1521 0.04-10.691 0.117-11.422 0.25-0.95297 0.1732-1.1511 0.3129-2.1065 1.4862-0.55884 0.6862-0.58095 0.7279-0.58095 1.0946 0 0.3608 9e-3 0.3785 0.16567 0.3319 1.5468-0.4596 1.8313-0.5053 3.1844-0.5114 1.0293 0 1.4642 0.024 1.9473 0.1293 1.9125 0.4161 3.4028 1.1964 4.7563 2.4905 1.2385 1.1839 1.9523 2.3138 2.5607 4.0533 0.0248 0.071 0.071 0.1272 0.1026 0.1252 0.0316 0 1.913-0.3765 4.1807-0.8324zm7.5469-4.3224c0.18223-0.1235 0.557-0.3402 0.83283-0.4814l0.5015-0.2568-0.36693-0.4202c-0.54248-0.6212-1.2516-1.3017-1.3029-1.2504-0.0745 0.074-0.13487 2.6342-0.0622 2.6338 0.0365-2e-4 0.21546-0.1014 0.39769-0.225z" fill="#e6e6e6" stroke-width=".27828"/><path d="m321.45 1806.7c-1.6427-0.1912-3.1904-0.8975-3.5617-1.6253-0.18641-0.3654-0.17664-0.7113 0.0797-2.8219 0.18715-1.541 0.2263-3.7214 0.0833-4.6386-0.16861-1.0812-0.44217-1.9642-0.88963-2.8715-0.53116-1.077-1.1627-1.9258-2.0986-2.8205l-0.70799-0.6768h-5.6009l-0.75613 0.7616c-1.192 1.2007-2.0202 2.5596-2.4374 3.9995-0.33247 1.1473-0.42637 2.101-0.37942 3.8534 0.0417 1.5564 0.24561 3.5126 0.40918 3.9255 0.1007 0.2542 0.10583 0.6411 0.0118 0.8885-0.27566 0.725-1.5075 1.3662-3.1325 1.6305-0.86321 0.1404-2.636 0.1397-3.4451-1e-3 -3.4653-0.6043-4.3315-2.5829-1.6122-3.683 1.04-0.4207 1.6113-0.5089 3.317-0.5118h1.573l-0.0464-0.4049c-0.10657-0.9307-0.13464-3.0875-0.0512-3.9391 0.2212-2.2591 0.91503-4.2774 2.0249-5.8903l0.40533-0.589-3.1206-0.051c-1.7164-0.028-3.4259-0.085-3.799-0.1263-2.0121-0.2247-3.9056-1.4954-5.058-3.3946-0.15957-0.2629-0.46062-0.8453-0.669-1.294l-0.37886-0.816v-2.8003l-1.0736-0.051c-3.4191-0.1615-5.6179-0.7876-6.7855-1.932-1.0741-1.0528-1.2673-2.4784-0.53306-3.9329 0.81042-1.6054 3.0231-3.5724 6.3874-5.678 1.028-0.6434 1.5115-0.8456 1.8305-0.7655l0.17418 0.044v-8.7081l-0.40922-0.442c-1.1155-1.2048-1.9204-2.7971-2.2802-4.5107-0.18216-0.8675-0.22066-2.4164-0.0825-3.3187 0.28126-1.8367 1.1694-3.7103 2.3941-5.0503l0.37785-0.4134 5.6e-4 -1.4623 5.5e-4 -1.4622 0.40217-0.8722c0.76219-1.6529 1.7401-2.8545 2.9834-3.6658 1.6267-1.0615 1.9231-1.0918 11.191-1.144 7.071-0.04 12.062 0.039 12.484 0.1969 0.28523 0.107 0.6492 0.4677 3.3504 3.3205l2.2728 2.4003 0.86799 0.042c2.5265 0.1212 4.6839 1.0988 6.4566 2.9256 1.375 1.417 2.2509 3.1358 2.589 5.0802 0.18061 1.0388 0.1134 2.8669-0.1421 3.8655-0.36243 1.4166-0.88386 2.488-1.8071 3.7131l-0.30132 0.3999v9.3867l0.7915 0.5482c1.2932 0.8956 2.1406 1.579 3.0268 2.4411 1.0407 1.0124 1.8172 2.0327 2.2895 3.0081 0.52762 1.0898 0.62593 1.5153 0.6242 2.7018-1e-3 0.8919-0.0223 1.0545-0.20479 1.583-0.78775 2.2819-2.9448 4.1401-6.556 5.6477-0.56103 0.2343-0.59147 0.2598-0.88683 0.7453-0.98552 1.62-2.0406 2.5474-3.8702 3.4018l-0.62584 0.2923-7.9819 0.148 0.40394 0.5875c1.1363 1.6528 1.8495 3.6185 2.0977 5.7813 0.088 0.7669 0.0554 3.5958-0.0516 4.4843-0.0473 0.3929-0.0458 0.3972 0.12819 0.3486 0.0969-0.027 0.60685-0.069 1.1333-0.094 3.5552-0.1665 6.302 1.3832 5.1436 2.9019-0.80561 1.0562-3.5109 1.6944-5.9693 1.4082zm-21.005-18.768c-0.14511-0.094-0.44177-0.094-0.44177 0 0 0.041 0.12425 0.073 0.27611 0.072 0.20537-8e-4 0.24781-0.019 0.16566-0.072zm16.382-1.2512c4.2123-0.2595 7.9772-0.8679 11.302-1.8262 0.44852-0.1292 0.48003-0.1525 0.5016-0.3703l0.023-0.2324-24.318-0.038-0.25204-0.275-0.25203-0.275v-1.9282l-0.20248 0.043c-0.11136 0.023-0.66634 0.1082-1.2333 0.1886-0.56694 0.08-1.135 0.1641-1.2623 0.1861l-0.2315 0.04 0.3068 0.4583c0.4034 0.6026 0.56742 1.1206 0.61506 1.9426l0.0391 0.6743 0.78182 0.2267c1.9614 0.5686 4.5518 0.979 7.4452 1.1796 1.245 0.086 5.3779 0.09 6.737 0.01zm13.584-8.1732v-4.8595l-2.6874 6e-4 -0.01 0.5037c-0.0189 0.9627-0.38488 1.8206-1.0683 2.504-0.39736 0.3973-0.9799 0.7716-1.3411 0.8616-0.22235 0.055-0.41544 0.3869-0.41544 0.7132 0 0.1445-0.0673 0.1901-0.44575 0.3025-0.41286 0.1225-0.47087 0.1237-0.78621 0.016-0.19007-0.065-0.58288-0.116-0.88925-0.116h-0.54879l0.0411 0.3065c0.0831 0.6193 0.52552 0.9448 1.2844 0.945 0.27365 1e-4 0.60855-0.057 0.82832-0.14l0.36893-0.1402v0.5631l-0.51153 0.1163c-0.63609 0.1447-0.97985 0.1466-1.4447 0.01-0.74325-0.2213-1.157-0.8386-1.1662-1.7396l-6e-3 -0.5593-0.44233-0.1586c-0.24328-0.087-0.46717-0.1586-0.49755-0.1586-0.0304 0-0.0552 0.5964-0.0552 1.3253v1.3253h-0.58902v-2.5565l-0.68106 0.2537c-0.37459 0.1396-0.72007 0.2923-0.76774 0.3395-0.0477 0.047-0.2891 0.5945-0.5365 1.2164-0.7731 1.9431-0.87395 2.0722-1.6188 2.0722-0.36402 0-0.3718-0.01-0.3718-0.2209 0-0.2017 0.0216-0.2209 0.24777-0.2209 0.3306 0 0.58519-0.2144 0.74199-0.625l0.12897-0.3377-0.23672-0.5873c-0.1302-0.323-0.26395-0.6041-0.29723-0.6246-0.0333-0.021-0.56268 0.1124-1.1764 0.2955-0.61377 0.1831-1.1313 0.3329-1.15 0.3329-0.0188 0-0.0136 0.033 0.0114 0.074s0.25891 0.074 0.51974 0.074h0.47424v0.5154h-0.34973c-0.4979 0-0.98607-0.1297-1.1734-0.3056l-0.16095-0.1512-1.4957 0.3745c-1.9394 0.4855-3.8349 0.8989-5.7932 1.2637-0.86529 0.1611-1.5859 0.293-1.6014 0.293-0.0501 0-0.0298 1.6673 0.0209 1.718 0.027 0.027 5.8087 0.049 12.848 0.049h12.799zm2.1282 4.5896c1.4079-0.7822 2.5273-1.7663 2.9207-2.5676 0.19236-0.3918 0.21553-0.5142 0.21553-1.1385 0-0.637-0.0215-0.7447-0.24037-1.207-0.48194-1.0176-1.5189-2.2094-2.852-3.2777-0.48454-0.3883-0.59165-0.4471-0.60385-0.3314-0.0586 0.5562-0.0557 8.7921 3e-3 8.7921 0.0392 0 0.28974-0.1215 0.55686-0.2699zm-37.544-0.3376c5.6e-4 -0.03-0.032-0.055-0.0725-0.055s-0.0731 0.074-0.0725 0.1657c8.4e-4 0.134 0.0148 0.1445 0.0725 0.055 0.0393-0.061 0.0719-0.1353 0.0725-0.1657zm-3.3858-6.1355v-3.1352l-0.2761 0.1668c-0.77365 0.4674-2.5012 1.6735-3.1844 2.2231-1.3819 1.1119-2.4673 2.3802-2.334 2.7274 0.21016 0.5477 2.6915 1.1147 5.003 1.1433l0.7915 0.01zm4.4545 3.0229c1.0595-0.056 3.5742-0.3082 3.6297-0.3637 0.0217-0.022-1.0595-0.039-2.4026-0.039h-2.442v0.2591c0 0.2297 0.0188 0.2552 0.16566 0.225 0.0911-0.019 0.56325-0.055 1.0492-0.081zm21.757-1.2211c0-0.031-0.14732-0.01-0.32738 0.055-0.358 0.122-0.34816 0.061-0.10844 0.671 0.079 0.201 0.0809 0.1993 0.2577-0.2333 0.098-0.2398 0.17812-0.4614 0.17812-0.4926zm-10.639-0.3293c2.6104-0.5199 2.717-0.5482 2.7459-0.7302 0.0902-0.5678 0.4419-0.8448 1.1441-0.9011 0.61671-0.05 1.306 0.095 1.3554 0.2843 0.0233 0.089 0.0818 0.1291 0.15693 0.1069 0.0659-0.02 0.21084-0.057 0.3222-0.084 0.11136-0.026 0.20248-0.094 0.20248-0.1507 0-0.065 0.0813-0.1025 0.22088-0.1025h0.22088v-1.0308h0.58903v0.4418c0 0.3042 0.0286 0.4418 0.092 0.4419 0.20076 3e-4 1.8227-0.5443 1.7691-0.594-0.0315-0.029-1.3381-0.5205-2.9036-1.0918l-2.8463-1.0386h-5.5357v4.9294l0.23929-0.043c0.13161-0.023 1.1339-0.2207 2.2272-0.4384zm-3.3501-1.3705v-1.6342l-0.1859-0.194c-0.23918-0.2496-0.32851-0.7838-0.32907-1.9676l-5.6e-4 -0.902h-0.18407c-0.15544 0-0.18407-0.034-0.18407-0.2209 0-0.1865 0.0286-0.2209 0.18407-0.2209 0.15862 0 0.18405-0.033 0.1839-0.2392l-1.7e-4 -0.2393-1.9197-0.6964c-1.0558-0.3831-1.987-0.7436-2.0692-0.8012-0.17605-0.1233-0.35484-0.5181-0.35484-0.7836v-0.1875l-2.2273 0.019-2.2272 0.02-0.0191 4.749c-0.0105 2.6119-3e-3 4.7904 0.0161 4.841 0.0276 0.072 1.0312 0.092 4.6761 0.092h4.6409zm-3.8103-1.6247c-0.30288-0.073-0.31292-0.085-0.31292-0.3672 0-0.2499 0.0185-0.284 0.12885-0.2369 0.27435 0.1172 0.87162 0.2553 1.1044 0.2553 0.34846 0 0.74654-0.1861 0.81937-0.3829 0.0895-0.2419-0.0407-0.5472-0.27194-0.6381-0.10873-0.043-0.41159-0.1313-0.67301-0.1969-0.26143-0.066-0.56734-0.1669-0.67982-0.2251-0.41205-0.2131-0.55821-0.8826-0.28903-1.324 0.21573-0.3538 0.60537-0.5014 1.2969-0.4913 0.8618 0.013 1.0255 0.076 1.0536 0.41 0.0126 0.1492 0.0126 0.2708 0 0.2702s-0.15539-0.049-0.31737-0.1072c-0.38525-0.1388-1.0931-0.1413-1.3572 0-0.23243 0.1201-0.34123 0.4128-0.23045 0.6198 0.0843 0.1576 0.29974 0.2512 0.9585 0.4165 0.8909 0.2237 1.1077 0.4261 1.1077 1.0343 0 0.4568-0.17742 0.7205-0.62006 0.9215-0.33695 0.153-1.1801 0.176-1.7176 0.047zm11.32 2.0709 0.62584-0.1667-0.32357-0.057c-0.38287-0.067-0.84545 0.022-1.0438 0.2015-0.17702 0.1602-0.18369 0.2748-0.0131 0.2259 0.0709-0.02 0.41048-0.1121 0.75469-0.2038zm7.1966-2.2312c0.55711-0.2202 1.2034-0.4849 1.4363-0.5881 0.42072-0.1864 0.42336-0.1896 0.42336-0.5044 0-1.4471 1.2073-2.941 2.6886-3.3269 1.0602-0.2761 2.2954-0.047 3.1736 0.5889 0.15353 0.1111 0.16293 0.094 0.60743-1.1104 0.24832-0.6728 0.4515-1.2671 0.4515-1.3206 0-0.053-0.0911-0.1298-0.20248-0.1694-0.11136-0.04-3.4826-1.2735-7.4917-2.742l-7.2892-2.6701-5.4853 1.0902c-3.0169 0.5996-5.5225 1.1033-5.568 1.1193-0.11328 0.04-1.3991 3.5755-1.3122 3.6079 0.30621 0.1142 17.524 6.4192 17.537 6.4222 0.01 0 0.47369-0.1763 1.0308-0.3966zm0.10655-2.5528c-0.60291-0.191-1.1372-0.6844-1.2667-1.1699-0.23305-0.8732 0.25157-1.9525 1.0647-2.3714 0.23639-0.1218 0.38417-0.143 0.7929-0.1137 1.1918 0.085 1.7996 1.006 1.413 2.1407-0.0645 0.1894-0.12925 0.3444-0.14379 0.3444-0.0145 0-0.57624-0.2027-1.2482-0.4505s-1.2416-0.4308-1.2658-0.4066c-0.0242 0.024-0.0587 0.2021-0.0767 0.3953-0.0263 0.2827 1e-3 0.4014 0.14126 0.6073 0.32188 0.4736 0.9252 0.738 1.6835 0.738 0.30198 0 0.34373 0.058 0.21467 0.2994-0.10251 0.1915-0.68106 0.1858-1.3087-0.013zm1.565-2.0212c0.14603-0.7784-0.63856-1.3926-1.405-1.0999-0.31039 0.1185-0.68207 0.509-0.58238 0.6117 0.0442 0.046 1.7751 0.7259 1.8912 0.7434 0.0258 0 0.0692-0.1109 0.0962-0.2552zm-8.316 0.8905c-0.70919-0.2054-0.71048-0.2062-0.66131-0.4021 0.064-0.2551 0.0645-0.2553 0.38662-0.1736 0.35478 0.09 0.50107 0.034 0.83705-0.3215l0.26785-0.2832-0.0609-1.2885c-0.0335-0.7087-0.0629-1.5588-0.0654-1.8891l-4e-3 -0.6005 0.24902 0.076c0.22352 0.069 0.25368 0.1104 0.29452 0.4083 0.025 0.1826 0.0455 0.8389 0.0455 1.4586 0 0.6196 0.0266 1.143 0.0592 1.1632 0.0326 0.02 0.49838-0.455 1.0352-1.0557l0.97598-1.0922 0.28476 0.1119 0.28476 0.1118-1.6039 1.7768c-0.88213 0.9772-1.6832 1.8159-1.7801 1.8638-0.21603 0.1068-0.44603 0.1641-0.54437 0.1356zm3.7209-0.048c-0.0998-0.04-0.19137-0.082-0.2036-0.094-0.0227-0.023 1.5745-4.4286 1.6621-4.585 0.0361-0.064 0.10801-0.061 0.28746 0.015 0.13161 0.056 0.23742 0.1273 0.23513 0.1596-0.0127 0.1792-1.6648 4.5411-1.7262 4.5575-0.0404 0.011-0.15513-0.013-0.25489-0.053zm-5.2081-1.9135c-0.21051-0.081-0.48802-0.2455-0.61667-0.3657-0.21313-0.1991-0.23083-0.2494-0.19921-0.5669 0.0275-0.2757 0.39499-1.3996 0.75504-2.3088 0.0343-0.087-5e-3 -0.1328-0.14104-0.1671-0.19039-0.048-0.24281-0.213-0.126-0.3971 0.0446-0.07 0.11032-0.076 0.25368-0.021 0.18742 0.071 0.19851 0.06 0.35431-0.3675 0.0885-0.2426 0.18668-0.4571 0.21826-0.4766 0.0446-0.028 0.34504 0.067 0.49498 0.1562 0.0119 0.01-0.0461 0.1909-0.12881 0.4085-0.0827 0.2176-0.1504 0.4337-0.15042 0.4802-2e-5 0.047 0.24556 0.1741 0.54573 0.2836 0.54223 0.1978 0.5453 0.2004 0.47378 0.4056l-0.072 0.2064-1.1521-0.4204-0.37764 1.0454c-0.48651 1.3468-0.48609 1.4055 0.0116 1.6372 0.2126 0.099 0.43183 0.1802 0.48717 0.1806 0.0683 6e-4 0.0864 0.054 0.0562 0.1664-0.0244 0.091-0.0448 0.1905-0.0454 0.2209-2e-3 0.092-0.23826 0.055-0.64146-0.1zm-3.4296-1.1676c-0.32016-0.1252-1.0839-0.5711-1.0839-0.633 0-0.026 0.16305-0.4159 0.19335-0.4626 9e-3 -0.014 0.19275 0.1076 0.40845 0.2696 0.51723 0.3887 1.0876 0.5786 1.3772 0.4586 0.26034-0.1078 0.39777-0.3814 0.30895-0.615-0.0356-0.094-0.31937-0.3462-0.63062-0.5614-0.8028-0.555-0.97422-0.8847-0.74512-1.433 0.33975-0.8131 1.3139-0.8083 2.5308 0.013 0.0716 0.048 0.0742 0.1164 0.0112 0.2971-0.0924 0.265-0.15246 0.2876-0.29759 0.1123-0.15477-0.187-0.95503-0.5404-1.2239-0.5405-0.2822-1e-4 -0.5338 0.219-0.5338 0.4647 0 0.1788 0.23046 0.4268 0.66265 0.713 0.45911 0.304 0.80684 0.6822 0.85285 0.9274 0.0674 0.3593-0.18121 0.8576-0.50431 1.0109-0.33814 0.1605-0.88427 0.1519-1.3262-0.021zm-2.4767 4.6339c0.13782-0.039 0.52415-0.072 0.85851-0.072 0.33435 0 0.60792-0.014 0.60792-0.031s-0.0633-0.1783-0.14055-0.3586c-0.10623-0.2478-0.19974-0.3485-0.38289-0.4124-0.20104-0.07-0.25299-0.065-0.30488 0.027-0.0477 0.085-0.20108 0.1118-0.6479 0.1118h-0.58537v1.1301l0.17228-0.1619c0.0947-0.089 0.28505-0.1942 0.42288-0.2337zm3.0054-0.1036c-0.0532-0.053-1.0534-0.4048-1.0789-0.3793-0.0131 0.013 0.0158 0.111 0.0643 0.2175 0.0821 0.1801 0.12144 0.1935 0.56724 0.1935 0.26347 0 0.46476-0.014 0.4473-0.032zm21.212-4.4306c0-4.2204-7e-3 -4.4597-0.12885-4.4112-2.1141 0.84-4.2543 1.0028-6.2933 0.4788-0.31277-0.08-0.60183-0.1461-0.64236-0.1461-0.0405 0-0.1246 0.099-0.18682 0.2187-0.14428 0.279-0.60097 0.5912-0.86491 0.5912-0.11208 0-0.20379 0.027-0.20379 0.06s1.3502 0.5515 3.0004 1.1523c4.3582 1.5867 4.4753 1.6339 4.6909 1.8901 0.29128 0.3462 0.24712 0.6102-0.39295 2.3492l-0.57993 1.5757 0.19338 0.3508 0.19337 0.3508 1.2149 2e-3zm-24.499 3.2298c-0.23988-0.1194-0.37007-0.096-0.27988 0.05 0.0267 0.043 0.15426 0.076 0.28348 0.074h0.23495zm-4.7297-4.1239c0.458-1.2159 0.64903-1.7855 0.59883-1.7855-0.0307 0-0.96528 0.1835-2.0768 0.4077-1.2492 0.252-2.1102 0.3917-2.2546 0.3659-0.3488-0.062-0.65739-0.4576-0.75884-0.9716-0.0464-0.2353-0.0963-0.461-0.11077-0.5015-0.0145-0.041-0.029 0.5973-0.0322 1.4174l-6e-3 1.491h4.4807zm12.368-5.0737c8.6458-1.7275 15.735-3.1542 15.755-3.1704 0.0643-0.054-1.8727-9.5923-1.9484-9.5941-0.091 0-31.578 6.2737-31.611 6.3006-0.0222 0.018 1.793 9.1987 1.8736 9.476 0.0206 0.071 0.0766 0.1288 0.12455 0.1289 0.0479 0 7.1609-1.4135 15.807-3.141zm-13.565-1.8414c-0.26604-1.3295-0.47854-2.4212-0.47221-2.4259 6e-3 -0.01 0.13148-0.03 0.27811-0.057 0.25507-0.046 0.26865-0.038 0.31414 0.1896l0.0476 0.2377 0.17835-0.2625c0.29561-0.435 0.98091-0.6677 1.4807-0.5028 0.66961 0.221 1.132 0.9547 1.1942 1.8951 0.0441 0.6674-0.0993 1.0831-0.49808 1.4434-0.4464 0.4033-1.1533 0.4537-1.6274 0.116-0.11808-0.084-0.2133-0.1257-0.21162-0.093 2e-3 0.033 0.0817 0.4413 0.17786 0.907 0.0961 0.4657 0.16929 0.852 0.16259 0.8586-7e-3 0.01-0.13102 0.034-0.27627 0.061l-0.26408 0.049zm2.0516 0.2342c0.58101-0.3807 0.49738-1.785-0.1418-2.3814-0.40273-0.3758-1.1353-0.2281-1.3995 0.2821-0.17802 0.3438-0.13766 1.1648 0.0778 1.583 0.1543 0.2995 0.40818 0.5715 0.60783 0.6512 0.18006 0.072 0.65418 0 0.85568-0.1349zm2.1752-0.3139c-0.29784-1.4146-0.61735-3.1191-0.58982-3.1466 0.0183-0.018 0.14743-0.043 0.28703-0.054 0.22819-0.019 0.25616-2e-4 0.2771 0.1818 0.0299 0.2596 0.0934 0.2552 0.24851-0.017 0.14831-0.2607 0.4941-0.4849 0.85089-0.5519 0.29711-0.056 0.35077-0.016 0.41037 0.3038 0.0368 0.1975 0.0236 0.2264-0.0899 0.1967-0.24274-0.063-0.72743 0.1202-0.91948 0.3484-0.2941 0.3495-0.30314 0.6112-0.0636 1.8398 0.14741 0.7562 0.19127 1.1226 0.13633 1.139-0.4526 0.1347-0.47019 0.127-0.54743-0.2398zm6.3046-2.0444-0.47871-2.3942 0.19176-0.042c0.10547-0.023 0.22993-0.053 0.27656-0.067 0.0474-0.014 0.10656 0.09 0.13419 0.2378l0.0494 0.2633 0.13463-0.2214c0.34295-0.5639 1.1491-0.7789 1.7574-0.4686 0.6387 0.3258 1.0133 1.1609 0.95164 2.1214-0.0288 0.4489-0.0723 0.5969-0.24817 0.845-0.28585 0.4032-0.62488 0.5737-1.1406 0.5737-0.31909 0-0.47579-0.042-0.68221-0.1819-0.14739-0.1-0.2666-0.158-0.26491-0.1288 2e-3 0.029 0.0817 0.4338 0.17772 0.8993 0.18721 0.9071 0.17791 0.9543-0.18836 0.9565l-0.19163 1e-3zm2.1303 0.1569c0.25494-0.2337 0.27391-0.2814 0.30003-0.7547 0.0344-0.6225-0.17481-1.2506-0.51051-1.533-0.48375-0.4071-1.2629-0.167-1.4672 0.4521-0.19635 0.5949 0.13533 1.7307 0.57511 1.9693 0.11133 0.06 0.34372 0.1111 0.51642 0.1127 0.25646 0 0.36387-0.043 0.58615-0.2464zm-5.4682 1.441c-0.3829-0.18-0.64649-0.4974-0.83796-1.0092-0.17933-0.4793-0.2059-1.3129-0.0534-1.6758 0.22572-0.5371 0.90872-0.9389 1.5888-0.9347 0.60509 0 1.2208 0.5066 1.4375 1.1741 0.46345 1.4274-0.0997 2.4671-1.3835 2.5545-0.34137 0.023-0.52766 0-0.75145-0.1089zm1.1794-0.468c0.51938-0.2366 0.66469-1.1542 0.30664-1.9363-0.37955-0.829-1.2496-0.9594-1.7272-0.2588-0.15515 0.2276-0.17134 0.319-0.14326 0.8088 0.0534 0.9315 0.44158 1.4726 1.0565 1.4726 0.17487 0 0.40314-0.039 0.50728-0.086zm7.0247-1.115c-0.70518-0.2644-1.0983-0.8473-1.1537-1.7104-0.0401-0.6247 0.0576-0.975 0.37151-1.3326 0.28435-0.3238 0.70204-0.538 1.1537-0.5915 0.82638-0.098 1.4778 0.4294 1.6884 1.3664 0.0796 0.3541 0.22535 0.2898-1.3704 0.6042-0.65805 0.1296-1.1964 0.2654-1.1964 0.3017 0 0.1904 0.32321 0.6549 0.55575 0.7986 0.39495 0.2441 1.0425 0.1778 1.6787-0.1719l0.47471-0.261 0.0383 0.2338c0.0476 0.2908-0.0906 0.4234-0.66559 0.6386-0.53556 0.2003-1.2263 0.2548-1.5749 0.1241zm0.49369-2.0829c0.52279-0.1054 0.96164-0.2021 0.97522-0.2149 0.0645-0.06-0.25008-0.5699-0.43169-0.6992-0.41651-0.2966-1.2205-0.1046-1.4889 0.3556-0.13172 0.2257-0.17855 0.7503-0.067 0.7503 0.034 0 0.4896-0.086 1.0124-0.1918zm8.2464 1.7656c-0.0881-0.2296-0.046-0.3957 0.10032-0.3957 0.39981 0 0.60583-0.2391 0.70652-0.8198 0.0435-0.2511-0.0176-0.3634-0.99824-1.8319-1.0941-1.6385-1.1244-1.7187-0.63065-1.6748 0.19077 0.017 0.30178 0.1522 0.97058 1.1821 0.41534 0.6396 0.78227 1.1631 0.81539 1.1633 0.0331 2e-4 0.17823-0.638 0.32248-1.4183l0.26227-1.4186 0.28265-0.059c0.15546-0.032 0.28896-0.05 0.29667-0.039 0.047 0.066-0.8752 4.6317-0.97799 4.8422-0.18695 0.3828-1.0483 0.7343-1.15 0.4694zm-5.3723-0.3773c-0.0207-0.071-0.17737-0.8359-0.3483-1.7001-0.33522-1.6947-0.33349-1.7305 0.0814-1.6875 0.14058 0.014 0.18961 0.067 0.20752 0.2231l0.0235 0.204 0.30787-0.3321c0.22553-0.2432 0.4008-0.3559 0.65525-0.4211 0.39169-0.1004 0.40496-0.094 0.49649 0.2247 0.0605 0.2112 0.0517 0.2309-0.10351 0.2309-0.61484 0-1.0326 0.3147-1.1109 0.837-0.0333 0.222 0.0178 0.6447 0.16834 1.3919l0.21615 1.0732-0.15424 0.041c-0.27 0.072-0.40096 0.047-0.43954-0.085zm2.9916-0.6096c-0.26425-0.1062-0.43233-0.4692-0.60688-1.3104-0.0897-0.4322-0.19634-0.9467-0.23703-1.1433-0.0704-0.3401-0.0839-0.3554-0.27997-0.3162-0.1761 0.035-0.21298 0.013-0.25422-0.151-0.0484-0.193 0.0416-0.3131 0.2364-0.3155 0.11024-1e-3 0.11488-0.2177 0.014-0.6551-0.0409-0.1774-0.065-0.3319-0.0534-0.3431 0.0115-0.011 0.14091-0.043 0.28752-0.07l0.26656-0.05 0.0915 0.4849c0.10824 0.5737 0.0327 0.5539 1.1526 0.301 0.1288-0.029 0.16321 0 0.18936 0.1822 0.031 0.2115 0.0202 0.2201-0.37829 0.3-0.69112 0.1386-0.74157 0.1563-0.74157 0.2593 0 0.2482 0.442 2.1888 0.51989 2.2826 0.0977 0.1178 0.4823 0.1338 0.89745 0.037 0.19549-0.045 0.2764-0.04 0.27711 0.02 5.6e-4 0.046 0.0199 0.155 0.0431 0.2413 0.0383 0.1429-2.8e-4 0.1644-0.4304 0.2393-0.55254 0.096-0.76722 0.098-0.99381 0.01zm6.3928 6.9544c1.826-0.3462 3.5929-1.3217 4.9022-2.7065 4.224-4.4673 2.918-11.711-2.6094-14.474-1.1893-0.5945-2.528-0.8895-4.0362-0.8895-2.4813 0-4.7118 0.9181-6.4349 2.6489-0.71068 0.7138-1.516 1.8159-1.2832 1.7562 0.0778-0.02 2.0985-0.4273 4.4905-0.9052 4.337-0.8666 4.3498-0.8686 4.6159-0.7424 0.14675 0.07 0.31999 0.2078 0.38498 0.307 0.065 0.099 0.26081 0.8903 0.43518 1.7581 0.30034 1.4948 0.33026 1.5925 0.56849 1.8565 0.35388 0.3922 0.54252 0.7205 0.73144 1.2727 0.21947 0.6415 0.22639 1.6148 0.0161 2.2589l-0.14856 0.4549 0.25723 1.2753c0.2359 1.1695 0.24887 1.2992 0.15632 1.5632-0.0555 0.1583-0.18375 0.3488-0.28499 0.4234-0.12928 0.095-1.5539 0.4096-4.7858 1.056-2.531 0.5063-4.6336 0.931-4.6725 0.9439-0.10369 0.034 0.72116 0.6713 1.3586 1.0492 1.0371 0.6149 2.3328 1.0486 3.597 1.2039 0.6889 0.085 1.989 0.032 2.7417-0.1104zm-31.887-0.8248c0-0.032-0.33026-1.7067-0.7339-3.7227-0.71663-3.579-0.73122-3.6721-0.6196-3.951 0.13633-0.3408 0.33841-0.4866 0.81504-0.5882 0.19491-0.042 0.42426-0.091 0.50966-0.1106 0.12332-0.028 0.16383-0.1074 0.19692-0.3868 0.10415-0.8794 0.68514-1.8416 1.4535-2.4072 0.63078-0.4643 1.1446-0.6413 1.991-0.6855 0.76754-0.04 1.2685 0.062 1.9146 0.389 0.46049 0.2334 1.1341 0.8601 1.3729 1.2774 0.107 0.1869 0.20201 0.3505 0.21114 0.3635 0.018 0.026 5.3502-1.0258 5.3978-1.0643 0.0447-0.036-0.28065-0.897-0.52508-1.389-0.87662-1.7647-2.5331-3.3923-4.2689-4.1943-0.74941-0.3462-1.5588-0.6027-2.3255-0.7368-0.8221-0.1438-2.316-0.1438-3.1525-1e-4 -3.058 0.5254-5.7036 2.642-6.8692 5.4958-1.3882 3.3986-0.6414 7.2763 1.8965 9.8477 0.72932 0.739 1.2229 1.1232 2.0439 1.591 0.58514 0.3335 0.69194 0.3755 0.69194 0.2721zm17.266-11.823 4.1232-0.8288-0.0183-1.4316c-0.0101-0.7874-0.0387-2.5483-0.0637-3.913l-0.0453-2.4812-6.7838 0.037c-7.1521 0.04-10.691 0.1169-11.422 0.2499-0.95297 0.1732-1.1511 0.313-2.1065 1.4862-0.55884 0.6863-0.58095 0.7279-0.58095 1.0946 0 0.3608 9e-3 0.3786 0.16567 0.332 1.5468-0.4596 1.8313-0.5053 3.1844-0.5115 1.0293-0.01 1.4642 0.024 1.9473 0.1293 1.9125 0.4162 3.4028 1.1965 4.7563 2.4905 1.2385 1.184 1.9523 2.3138 2.5607 4.0533 0.0248 0.071 0.071 0.1272 0.1026 0.1253 0.0316 0 1.913-0.3766 4.1807-0.8325zm7.5469-4.3223c0.18223-0.1236 0.557-0.3403 0.83283-0.4815l0.5015-0.2568-0.36693-0.4202c-0.54248-0.6211-1.2516-1.3017-1.3029-1.2504-0.0745 0.074-0.13487 2.6342-0.0622 2.6339 0.0365-2e-4 0.21546-0.1015 0.39769-0.225z" fill="#999" stroke-width=".27828"/><text x="281.99197" y="1823.05" fill="#000000" font-family="sans-serif" font-size="18.901px" letter-spacing="0px" stroke-width=".47253" word-spacing="0px" style="line-height:1.25" xml:space="preserve"><tspan x="281.99197" y="1823.05" stroke-width=".47253">×1,000</tspan></text><path d="m304.45 1792.1c-1.9034-0.5198-3.4832-1.894-4.3767-3.8071l-0.53397-1.1433v-37.92l0.53397-1.1433c0.58219-1.2465 1.5412-2.3548 2.6578-3.0714 1.5158-0.9728 2.1453-1.0254 12.274-1.0254 6.5267 0 9.5165 0.065 9.821 0.213 0.53483 0.2602 11.545 12.177 12.019 13.008 0.31747 0.5571 0.33521 1.5037 0.28583 15.266l-0.0526 14.672-0.51069 1.0895c-0.71516 1.5259-2.0098 2.8432-3.4462 3.5066l-1.1879 0.5487-13.243 0.039c-10.972 0.032-13.414-0.01-14.24-0.2332zm27.328-2.9618c0.71978-0.2719 1.5395-1.0711 1.983-1.9334 0.34727-0.6751 0.36365-1.2869 0.36365-13.577v-12.87h-2.8106c-1.7376 0-3.1744-0.1-3.7634-0.2572-2.3189-0.6203-3.8849-1.8871-4.8333-3.9098-0.4877-1.0402-0.50396-1.1929-0.56569-5.3162l-0.0635-4.2454-8.6404 0.053c-9.7154 0.06-8.9709-0.053-10.277 1.56l-0.58268 0.7199-0.0551 18.323c-0.0303 10.078-7e-3 18.588 0.0505 18.911 0.058 0.3236 0.40017 0.9325 0.76025 1.3531 1.2551 1.4664 0.37199 1.3841 14.905 1.3889 8.7269 0 13.169-0.062 13.529-0.1983zm-22.249-6.6425c-0.30635-0.3063-0.557-0.7417-0.557-0.9674s0.25065-0.6611 0.557-0.9674l0.55699-0.557h13.347l0.51877 0.4462c0.37067 0.3189 0.51876 0.6266 0.51876 1.0782s-0.14809 0.7594-0.51876 1.0782l-0.51877 0.4462h-13.347zm-2e-3 -7.4216c-0.31869-0.258-0.44033-0.5543-0.44033-1.0725 0-0.5183 0.12164-0.8146 0.44033-1.0726 0.41449-0.3357 0.90667-0.3566 8.3891-0.3566h7.9488l0.41432 0.441c0.5273 0.5613 0.54305 1.5264 0.0332 2.0362-0.36898 0.3689-0.63517 0.3811-8.3631 0.3811-7.5149 0-8.0078-0.021-8.4224-0.3566zm0.0218-7.4512c-0.83393-0.8339-0.58689-2.0796 0.4939-2.4905 0.27663-0.1051 3.7928-0.1808 8.3266-0.1792 8.4736 0 8.5751 0.014 9.056 1.0174 0.32464 0.677 0.0251 1.5019-0.65835 1.8133-0.32773 0.1493-2.98 0.2153-8.6572 0.2153-7.8955 0-8.198-0.013-8.561-0.3763zm23.501-10.342c-0.31813-0.3406-2.1963-2.3771-4.1737-4.5256-1.9774-2.1484-3.6725-3.9379-3.7668-3.9766-0.0992-0.041-0.13995 1.204-0.0966 2.9535 0.0609 2.4596 0.14 3.1484 0.42386 3.6908 1.0259 1.9606 2.1484 2.4193 6.0106 2.4563l2.1811 0.021z" stroke-width=".72019"/><ellipse cx="308.02" cy="1804.4" rx="4.6262" ry="2.0617" style="paint-order:stroke fill markers"/><path d="m314.96 1791c-5.0444 4.0341-4.4855 8.7405-3.8292 13.458" fill="none" stroke="#000" stroke-linecap="round" stroke-linejoin="round" stroke-width="2.7989"/><ellipse transform="scale(-1,1)" cx="-328.53" cy="1804.7" rx="4.6262" ry="2.0617" style="paint-order:stroke fill markers"/><g stroke="#000" stroke-linecap="round" stroke-linejoin="round"><path d="m321.41 1791.1c5.0444 4.0341 4.4855 8.7405 3.8292 13.458" fill="none" stroke-width="2.7989"/><circle cx="305.8" cy="1758.4" r="8.512" fill="#fff" stroke-width=".93298" style="paint-order:stroke fill markers"/><circle cx="330.37" cy="1758.5" r="8.512" fill="#fff" stroke-width=".93298" style="paint-order:stroke fill markers"/></g><circle cx="305.8" cy="1758.4" r="3.4431" style="paint-order:stroke fill markers"/><circle cx="330.37" cy="1758.5" r="3.4431" style="paint-order:stroke fill markers"/><g transform="matrix(.93298 0 0 .93298 -127.12 1557.7)"><g transform="rotate(9.2708 -94.075 -90.413)"><rect x="512.92" y="137.49" width="32.283" height="9.8041" fill="#fff" stroke="#000" stroke-linecap="round" stroke-linejoin="round" stroke-width="1.8603" style="paint-order:stroke fill markers"/><text x="515.57892" y="143.96136" fill="#000000" font-family="sans-serif" font-size="6.5627px" letter-spacing="0px" stroke-width=".16407" word-spacing="0px" style="line-height:1.25" xml:space="preserve"><tspan x="515.57892" y="143.96136" stroke-width=".16407">property</tspan></text></g><g transform="rotate(-4.5323 1701.8 855.95)"><rect x="512.92" y="137.49" width="32.283" height="9.8041" fill="#fff" stroke="#000" stroke-linecap="round" stroke-linejoin="round" stroke-width="1.8603" style="paint-order:stroke fill markers"/><text x="515.57892" y="143.96136" fill="#000000" font-family="sans-serif" font-size="6.5627px" letter-spacing="0px" stroke-width=".16407" word-spacing="0px" style="line-height:1.25" xml:space="preserve"><tspan x="515.57892" y="143.96136" stroke-width=".16407">property</tspan></text></g><g transform="rotate(9.2708 -48.603 -130.88)"><rect x="512.92" y="137.49" width="32.283" height="9.8041" fill="#fff" stroke="#000" stroke-linecap="round" stroke-linejoin="round" stroke-width="1.8603" style="paint-order:stroke fill markers"/><text x="515.57892" y="143.96136" fill="#000000" font-family="sans-serif" font-size="6.5627px" letter-spacing="0px" stroke-width=".16407" word-spacing="0px" style="line-height:1.25" xml:space="preserve"><tspan x="515.57892" y="143.96136" stroke-width=".16407">property</tspan></text></g><g transform="rotate(-11.292 904.98 453.17)"><rect x="512.92" y="137.49" width="32.283" height="9.8041" fill="#fff" stroke="#000" stroke-linecap="round" stroke-linejoin="round" stroke-width="1.8603" style="paint-order:stroke fill markers"/><text x="515.57892" y="143.96136" fill="#000000" font-family="sans-serif" font-size="6.5627px" letter-spacing="0px" stroke-width=".16407" word-spacing="0px" style="line-height:1.25" xml:space="preserve"><tspan x="515.57892" y="143.96136" stroke-width=".16407">property</tspan></text></g></g><g transform="matrix(.93298 0 0 .93298 -65.252 1563.1)"><circle cx="423.38" cy="228.48" r="3.6904" style="paint-order:stroke fill markers"/><circle transform="scale(-1,1)" cx="-397.5" cy="239.11" r="3.6904" style="paint-order:stroke fill markers"/><path d="m397.95 239.87c11.997 7.0008 55.37 0.42001 31.618-13.977" fill="none" stroke="#000" stroke-linecap="round" stroke-linejoin="round" stroke-width="3"/><path d="m422.17 228.99c-11.997 7.0008-55.302 11.751-31.55-2.6464" fill="none" stroke="#000" stroke-linecap="round" stroke-linejoin="round" stroke-width="3"/></g></g><ellipse cx="207.19" cy="2163.1" rx="4.9585" ry="2.2098" style="paint-order:stroke fill markers"/><path d="m214.63 2148.7c-5.4067 4.324-4.8077 9.3684-4.1043 14.425" fill="none" stroke="#000" stroke-linecap="round" stroke-linejoin="round" stroke-width="3"/><ellipse transform="scale(-1,1)" cx="-229.17" cy="2163.4" rx="4.9585" ry="2.2098" style="paint-order:stroke fill markers"/><path d="m221.53 2148.8c5.4067 4.3239 4.8077 9.3683 4.1043 14.425" fill="none" stroke="#000" stroke-linecap="round" stroke-linejoin="round" stroke-width="3"/><path d="m214.87 2148.2c-3.7459-0.394-6.4588-1.1699-9.4504-2.703-3.9793-2.0391-7.4904-5.2573-9.8425-9.0214-0.80835-1.2935-1.7638-3.2114-2.2484-4.5133-0.21683-0.5823-0.41504-1.0796-0.4405-1.1051-0.0251-0.025-1.1447 0.031-2.487 0.1249-1.3423 0.094-2.4494 0.1608-2.4602 0.1481-0.0191-0.023 1.3235-1.756 4.6538-6.0044 0.98001-1.2501 1.8171-2.2544 1.8603-2.2319 0.29339 0.1531 7.4569 7.2149 7.3884 7.2835-0.0241 0.024-1.0593 0.1091-2.3009 0.1896l-2.2576 0.1462 0.0231 0.3324c0.0292 0.4222 1.1824 2.725 1.9186 3.8322 2.3629 3.5544 5.8747 6.4444 9.6814 7.9672 2.8242 1.1298 4.743 1.4901 7.9356 1.4901 2.5062 0 3.7777-0.1609 5.742-0.7265 6.2611-1.8029 11.382-6.4148 13.793-12.422l0.43195-1.0759 2.0985-0.033c1.208-0.019 2.0986 0.013 2.0986 0.077 0 0.3416-1.0613 3.0989-1.6269 4.2266-1.3228 2.6375-2.5513 4.3719-4.5797 6.4651-3.8449 3.9678-8.7054 6.4787-14.193 7.3319-1.1673 0.1815-4.7901 0.3215-5.7385 0.2217zm-1.3756-11.218v-2.2001l-0.32045-0.08c-0.17619-0.044-0.74507-0.2745-1.264-0.5117l-0.94358-0.4314-1.5479 1.5445-1.5479 1.5444-2.3609-2.3608-2.3609-2.3609 1.5444-1.5479 1.5445-1.5479-0.4227-0.935c-0.23242-0.5143-0.4579-1.0831-0.50096-1.264l-0.0785-0.329h-4.4216v-6.699h2.205c2.1849 0 2.2056 0 2.2794-0.2692 0.0413-0.148 0.26854-0.7172 0.5059-1.2649l0.43165-0.9957-1.5436-1.547-1.5436-1.547 4.7217-4.7218 1.5479 1.5445 1.5479 1.5444 0.94359-0.4313c0.51898-0.2372 1.0878-0.4675 1.264-0.5117l0.32045-0.08v-4.4002h6.699v4.4002l0.32046 0.08c0.17618 0.044 0.74507 0.2745 1.264 0.5117l0.94359 0.4313 1.5479-1.5444 1.5479-1.5445 4.7218 4.7218-1.5444 1.5479-1.5445 1.5479 0.42269 0.935c0.23243 0.5143 0.45791 1.0831 0.50098 1.264l0.0784 0.329h4.4216v6.7089l-2.0037-0.01c-1.1021-0.01-2.0938-0.01-2.2038 0-0.12431 0-0.25345 0.1751-0.34109 0.4538-0.0775 0.2467-0.30648 0.8152-0.50882 1.2632l-0.36775 0.8147 1.5452 1.5486 1.5452 1.5487-4.7218 4.7217-1.5479-1.5444-1.5479-1.5445-0.93503 0.4227c-0.51425 0.2325-1.083 0.4579-1.264 0.501l-0.32902 0.078v4.4216h-6.699v-2.2001zm5.2084-5.998c2.7759-0.7134 4.8085-2.6075 5.8248-5.4282 0.34301-0.9523 0.42843-3.151 0.16301-4.201-0.77457-3.0645-2.9391-5.2355-5.9891-6.0067-1.3408-0.3391-3.2192-0.2535-4.4675 0.2035-3.1807 1.1644-5.202 3.8264-5.3739 7.0771-0.0794 1.5087 0.10136 2.5463 0.66559 3.8133 0.93171 2.0922 2.5254 3.545 4.7127 4.2961 1.1581 0.3977 1.1677 0.3992 2.5503 0.4152 0.7336 0.01 1.4786-0.057 1.914-0.1693zm19.494-8.5134c-2.1246-2.0366-6.3953-6.3012-6.3527-6.3437 0.0241-0.024 1.0593-0.1091 2.3009-0.1896l2.2574-0.1462-0.0231-0.3324c-0.0312-0.4427-1.2162-2.7884-1.9758-3.9101-3.3275-4.9142-8.22-8.1091-14.031-9.1625-1.6736-0.3035-5.3843-0.3035-7.0579 0-7.2877 1.3211-13.294 6.1733-16.007 12.931l-0.43195 1.076-2.0985 0.033c-1.208 0.019-2.0986-0.013-2.0986-0.076 0-0.3417 1.0613-3.0989 1.6269-4.2267 1.3227-2.6375 2.5513-4.3718 4.5797-6.465 3.8593-3.9827 8.6308-6.4426 14.255-7.3492 1.722-0.2775 5.6829-0.2775 7.405 0 4.4663 0.7199 8.1282 2.299 11.743 5.064 1.3198 1.0094 3.5624 3.2735 4.5438 4.5873 1.4127 1.8909 2.7654 4.3395 3.5257 6.3819 0.21673 0.5823 0.41496 1.0796 0.44051 1.1051 0.0251 0.026 1.1446-0.031 2.487-0.1248 1.3423-0.094 2.4493-0.1609 2.4599-0.1482 0.0191 0.023-0.78028 1.0543-4.4142 5.6971-1.0006 1.2786-1.8732 2.3936-1.939 2.478-0.0905 0.1167-0.37803-0.094-1.1962-0.8786z" stroke-width=".11962"/><circle cx="203.77" cy="2112.5" r="9.1235" fill="#fff" stroke="#000" stroke-linecap="round" stroke-linejoin="round" style="paint-order:stroke fill markers"/><circle cx="230.11" cy="2112.6" r="9.1235" fill="#fff" stroke="#000" stroke-linecap="round" stroke-linejoin="round" style="paint-order:stroke fill markers"/><circle cx="203.77" cy="2112.5" r="3.6904" style="paint-order:stroke fill markers"/><circle cx="230.11" cy="2112.6" r="3.6904" style="paint-order:stroke fill markers"/><path d="m313.73 2175.9c-0.9449-0.5761-1.0549-0.9365-0.4797-1.572 0.5301-0.5857 0.2465-2.5934-0.4164-2.9482-0.5957-0.3188-0.6345-1.1062-0.095-1.9292 0.4099-0.6257 0.3863-1.308-0.308-8.8993l-0.2057-2.249-0.1935 2.2376c-0.1233 1.4247-0.095 2.3561 0.077 2.5637 0.1488 0.1793 0.2322 0.6569 0.1853 1.0613-0.1101 0.9496-1.3812 1.3886-2.5812 0.8916-0.9474-0.3925-1.3365-1.2957-0.7092-1.6467 0.4566-0.2556 0.5911-1.0065 0.1802-1.0065-0.5348 0-0.5642-1.057-0.049-1.7765 0.4755-0.6646 0.5716-1.5927 0.9779-9.4448 0.3397-6.5653 0.3764-8.8267 0.149-9.1907-0.3876-0.6206-0.3867-1.9531 0-2.6789 0.5983-1.118 0.4117-3.3674-0.2794-3.3674-0.1223 0-0.293 0.354-0.3796 0.7867-0.2749 1.3748-2.29 1.3452-2.29-0.034 0-0.6315-0.4255-0.7977-2.1684-0.8466-1.3638-0.038-1.3813-0.029-1.5629 0.8531-0.2398 1.1642-0.9698 1.8666-2.1366 2.056-1.2801 0.2077-2.2483-0.4557-2.6066-1.7861l-0.27722-1.0295h-3.9484v3.446l-19.976-0.138-0.13229-1.7198-0.1323-1.7198-1.6883-0.08c-1.4455-0.068-1.7785 0-2.3151 0.5092-0.85202 0.8004-0.84735 2.0133 9e-3 2.3388 0.34967 0.133 0.71937 0.377 0.82156 0.5424 0.22423 0.3628 0.19131 23.077-0.0343 23.665-0.24223 0.6312-0.90257 0.697-6.178 0.6159l-4.8872-0.075-0.33439-0.6615c-0.25353-0.5015-0.33533-3.3608-0.33828-11.824-2e-3 -7.1523-0.099-11.222-0.26849-11.326-0.16111-0.1-0.26458 0.2927-0.26458 1.0032 0 1.6348-0.46491 2.7864-1.299 3.2177-0.65687 0.3397-6.0793 0.5821-7.9346 0.3548-0.50465-0.062-0.68479 0.085-0.87924 0.7159-0.27233 0.8839-0.43702 1.2978-1.2255 3.0797-0.29874 0.6751-0.62468 1.5681-0.72431 1.9844-0.0996 0.4162-0.30239 0.9104-0.45058 1.0983-0.14819 0.1878-0.30566 1.0708-0.34992 1.9623-0.0859 1.7291-0.31457 2.0511-1.4615 2.0577-1.0108 0.01-5.7261-1.253-7.019-1.8739-1.961-0.9418-1.9599-0.9539 0.40852-4.2654 3.6296-5.0749 4.583-7.3802 3.5632-8.6159-0.27714-0.3359-0.82971-0.6128-1.2811-0.6421-0.43656-0.028-1.0577-0.327-1.3804-0.6637-0.53282-0.5561-0.80325-0.6093-2.9468-0.5805-2.2138 0.03-2.5055-0.033-4.705-1.0188-1.6826-0.7538-2.4424-1.2473-2.6901-1.7472-0.20221-0.4082-0.56617-0.6967-0.87879-0.6967-0.2935 0-0.714-0.1804-0.93445-0.4009-0.34643-0.3464-1.4479-0.3815-8.117-0.2586-8.2017 0.1511-9.249 0.2332-10.698 0.8384-1.3064 0.5459-4.749 2.7089-8.0704 5.0707-2.396 1.7038-2.828 2.1172-2.7132 2.5966 0.10693 0.4467-0.19271 0.8524-1.3836 1.8729-2.0159 1.7276-1.9826 1.7141-3.0795 1.2558-0.64182-0.2682-0.95415-0.5708-0.95415-0.9243 0-0.2891-0.1151-0.5256-0.25578-0.5256-0.16124 0-0.1951-1.7503-0.0916-4.7354 0.17542-5.0595-0.0695-7.5803-0.99915-10.282-0.80794-2.3483-0.69738-3.0562 0.71286-4.5638 0.67012-0.7164 1.4668-1.3814 1.7704-1.4778 0.77597-0.2463 1.6603 0.8601 1.885 2.3583 0.0983 0.6554 0.32181 1.2358 0.49673 1.2899 0.17492 0.054 7.741-0.013 16.813-0.1485l16.495-0.2468-0.1443-0.7215c-0.21264-1.0632 0.25815-1.4744 2.6076-2.2772 1.6834-0.5752 2.7395-0.7461 5.1594-0.8347 1.6735-0.061 3.1915-0.2325 3.3734-0.3807 0.1819-0.1481 0.33073-0.5483 0.33073-0.8892 0-0.8896 1.4638-2.432 2.6435-2.7855 2.0897-0.6261 5.8423 0.4547 6.5368 1.8827 0.17695 0.3638 0.38598 0.978 0.4645 1.365l0.14277 0.7036 11.907-0.042c11.148-0.039 11.907-0.072 11.907-0.5051 7e-5 -0.7348 0.93817-0.55 1.6792 0.3307 0.36735 0.4366 0.72187 0.7937 0.78783 0.7937 0.066 0 0.1981-0.4167 0.29365-0.926 0.16153-0.861 0.24257-0.9259 1.1539-0.9237 2.0074 0 3.7583 0.3289 3.7583 0.696 0 0.5709 5.7561 0.5082 6.584-0.072 1.0699-0.7494 2.4458-4.2657 1.532-3.9151-0.50506 0.1939-6.306-1.4585-6.8753-1.9583-0.29595-0.2598-0.89658-0.404-1.571-0.3771-0.80551 0.032-1.1841-0.088-1.4433-0.4582-0.28064-0.4006-0.64075-0.4915-1.7883-0.451-1.954 0.069-2.1777-0.1985-1.7292-2.0681 0.54089-2.2546 0.69796-2.3822 2.161-1.7551 0.67088 0.2876 1.2945 0.6438 1.3858 0.7915 0.0913 0.1478 0.52672 0.2584 0.96755 0.2459 0.44284-0.013 1.1554 0.2388 1.5923 0.5618 0.43492 0.3216 0.9949 0.5282 1.2444 0.4591 0.2495-0.069 1.9402 0.4318 3.757 1.1131l3.3034 1.2386 0.18609 1.0549c0.21499 1.2187-0.50544 3.7866-1.4611 5.208-0.84978 1.264-1.9404 1.5677-5.0029 1.3933-2.5799-0.1468-2.5818-0.1465-2.8377 0.5268-0.15983 0.4204-0.46068 0.6737-0.80016 0.6737-0.29921 0-0.61716 0.1906-0.70656 0.4235-0.18173 0.4736 0.31773 0.8892 1.076 0.8953 0.27499 0 0.65248 0.2124 0.83886 0.4671 0.31581 0.4315 1.4238 0.4651 16.284 0.4929 19.215 0.036 17.448 0.37 19.238-3.6359 0.6279-1.4047 0.7565-1.9973 0.6462-2.9765l-0.1378-1.2227h2.1091l0.1524 2.0158c0.084 1.1087 0.084 2.8286 0 3.8221-0.1464 1.7466-0.1305 1.8104 0.4811 1.9312 0.9999 0.1975 18.844 0.7484 19.286 0.5955 0.2183-0.076 1.647-0.1965 3.175-0.2685 1.5279-0.072 3.9356-0.214 5.3504-0.3156 3.0963-0.2223 3.3808-0.075 3.3808 1.7445 0 2.0181 0.086 1.998-6.9655 1.6328-7.48-0.3875-23.41-0.4169-24.388-0.045-0.5556 0.2112-0.6794 0.4117-0.6126 0.9922 0.07 0.6116 0.2252 0.741 0.9717 0.8124 0.6606 0.063 0.9861-0.055 1.2717-0.463 0.8921-1.2735 1.9414-0.1397 1.9414 2.0978 0 2.217-1.0487 3.3723-1.9252 2.1209-0.3094-0.4417-0.7951-0.5529-3.0642-0.7016-3.1999-0.2097-4.717 0.1414-4.9702 1.1504-0.4487 1.7878-0.1186 10.27 0.8989 23.095 0.5946 7.4943 1.1629 13.834 1.2628 14.089 0.1 0.2546 0.3177 0.4648 0.484 0.4671 0.5629 0.01 0.8967 0.3896 1.0805 1.2368 0.1634 0.7534 0.097 0.8884-0.6151 1.2568-1.074 0.5553-2.1035 0.5181-3.1396-0.1135zm-56.393-32.565c0.62492-0.331 1.0766-1.6174 0.98033-2.7919l-0.0842-1.0262-2.3099-0.049c-1.2704-0.027-2.3788 0.062-2.463 0.1984-0.0842 0.1363 0.0622 0.2526 0.3255 0.2585 0.37018 0.01 0.2754 0.1846-0.41824 0.7778-0.81667 0.6984-0.88384 0.8642-0.75104 1.8542 0.12544 0.9353 0.0915 1.0422-0.24289 0.7647-0.53873-0.4471-1.1519-1.9964-1.1519-2.9106 0-1.3111-0.71495-0.9033-1.1718 0.6684-0.55091 1.8951-0.52627 2.2442 0.17966 2.5453 0.68316 0.2914 6.4548 0.056 7.1075-0.2892zm-59.207-5.3625c1.2864-0.8738 2.4337-1.8381 2.5496-2.143 0.189-0.4971 0.39652-4.053 0.30642-5.2507-0.0322-0.428-0.32179-0.4646-3.1443-0.3969l-3.1088 0.075-0.0727 4.4629c-0.0723 4.4362 0.0939 5.4397 0.83026 5.0152 0.16542-0.095 1.3532-0.8883 2.6396-1.7621zm47.138-16.815c0-0.8892-0.78271-1.3439-1.3452-0.7815-0.65893 0.659-0.25637 1.5993 0.64025 1.4956 0.5442-0.063 0.7049-0.2257 0.7049-0.7141z" fill="#4d4d4d"/><path d="m187.11 2130.2c-25.817 13.962 39.2 9.4505 58.85 14.166" fill="none" stroke="#000" stroke-linecap="round" stroke-linejoin="round" stroke-width="3"/><circle transform="rotate(-16.306)" cx="-367.29" cy="2126" r="3.6904" style="paint-order:stroke fill markers"/><circle transform="rotate(-16.306)" cx="-329.77" cy="2130.7" r="3.6904" style="paint-order:stroke fill markers"/><path d="m268.93 2140v-1.3618h1.8582c3.0804 0 7.8363-0.9906 11.761-2.4495 2.2853-0.8496 5.6783-2.5436 6.5999-3.295 0.78364-0.639 0.70648-0.7288-1.8609-2.1664l-1.8609-1.042-2.0486 1.5955c-2.8915 2.252-5.0983 3.5256-7.5835 4.3765-1.8042 0.6177-2.529 0.7528-4.5073 0.8401l-2.3574 0.104v-1.9441h1.6381c0.90096 0 2.1501-0.152 2.7758-0.3379 2.6922-0.7994 5.8442-2.8363 8.6992-5.6216l1.8103-1.766-0.44722-0.6281c-0.64212-0.9017-2.8186-2.7557-4.524-3.8535-2.6082-1.679-5.1387-2.5391-8.2236-2.7951l-1.7285-0.1435v-3.0825h23.676v24.933h-23.676zm-2.408-1.9098c-1.7802-0.4303-4.3855-1.758-5.9398-3.027-0.73091-0.5967-1.9354-1.8514-2.6766-2.7882-1.4438-1.8248-3.3799-5.3143-3.0865-5.563 4.5394-3.8489 8.7591-6.0555 12.801-6.6942l1.1-0.1738v0.8134c0 0.4727-0.10966 0.8433-0.2619 0.885-0.14405 0.039-0.87475 0.1804-1.6238 0.3134-2.1463 0.3811-4.9056 1.8453-6.7849 3.6003-0.87773 0.8197-1.5959 1.6168-1.5959 1.7713s0.44633 1.1587 0.99184 2.2316c0.79351 1.5607 1.3486 2.3084 2.7761 3.7395 1.8877 1.8923 3.1877 2.6871 5.2414 3.2045 1.1469 0.2889 1.1527 0.2943 1.2168 1.1579 0.0752 1.0116-0.0431 1.0406-2.1582 0.5293zm0.70936-4.1357c-1.4725-0.6057-2.1458-1.0839-3.3722-2.3951-0.94465-1.0099-2.2622-3.282-2.2622-3.901 0-0.3007 1.2056-1.3629 2.3734-2.0911 0.76396-0.4764 2.9556-1.2904 3.9645-1.4726l0.7857-0.1419v0.8243c0 0.7844-0.0375 0.8312-0.77413 0.9695-1.0084 0.1891-2.5605 0.9856-3.1471 1.615l-0.46419 0.4979 0.50571 1.0916c0.60398 1.3036 2.1553 3.0219 3.1578 3.4976 0.64335 0.3053 0.72192 0.4327 0.72192 1.1708 0 0.4556-0.0707 0.826-0.15714 0.8233-0.0864 0-0.68585-0.2225-1.332-0.4883zm2.1701-1.1092c-0.46548-0.1015-0.47142-0.146-0.47142-3.5307v-3.4279l0.59936 0.1719c1.2794 0.3669 2.2408 1.2428 3.0625 2.7901 0.22787 0.4291 0.48141 0.7801 0.56344 0.7801 0.082 0 0.55934-0.3535 1.0607-0.7857 0.50137-0.4321 1.2361-1.0572 1.6327-1.3892l0.72113-0.6035-0.93903-0.841c-1.4291-1.28-3.3136-2.0848-5.1584-2.2032l-1.5424-0.099v-2.0401h0.99522c2.7058 0.01 5.6964 1.3369 8.1339 3.6132 0.85601 0.7995 1.5564 1.527 1.5564 1.6168 0 0.09-0.62587 0.8394-1.3908 1.6656-1.5555 1.68-3.4709 3.1315-4.994 3.7844-1.0192 0.4369-2.9513 0.6867-3.8293 0.4951z" fill="#77b900" stroke-width=".79188"/><g transform="translate(-254.1 1998.4)"><rect x="482.01" y="118.63" width="25.669" height="9.683" fill="#fff" stroke="#000" stroke-linecap="round" stroke-linejoin="round" stroke-width="1.8603" style="paint-order:stroke fill markers"/><text x="486.78601" y="125.10204" fill="#ff0000" font-family="sans-serif" font-size="6.5627px" letter-spacing="0px" stroke-width=".16407" word-spacing="0px" style="line-height:1.25" xml:space="preserve"><tspan x="486.78601" y="125.10204" fill="#ff0000" stroke-width=".16407">style</tspan></text></g><g transform="translate(-254.13 2009.6)"><rect x="482.01" y="118.63" width="25.669" height="9.683" fill="#fff" stroke="#000" stroke-linecap="round" stroke-linejoin="round" stroke-width="1.8603" style="paint-order:stroke fill markers"/><text x="487.38376" y="125.41598" fill="#000000" font-family="sans-serif" font-size="6.5627px" letter-spacing="0px" stroke-width=".16407" word-spacing="0px" style="line-height:1.25" xml:space="preserve"><tspan x="487.38376" y="125.41598" stroke-width=".16407">filter</tspan></text></g><g fill="none" stroke="#000" stroke-dasharray="2, 6" stroke-linecap="round" stroke-linejoin="round"><path d="m89.094 2157.3c49.604-118.08 160.56-106.7 174.28-44.589" marker-end="url(#Triangle-2-1-6-1)"/><path d="m98.611 2191.4c68.82-16.065 147.89-28.971 152.96 4.4701" marker-end="url(#Triangle-2-1-6-1-1)"/><path d="m102.99 2218.3c19.94 48.639 158.1 28.157 154.68 68.635" marker-end="url(#Triangle-2-1-6-1-1-8)"/></g><ellipse cx="393.89" cy="2128.4" rx="14.461" ry="1.2861" fill="#f00" style="paint-order:stroke fill markers"/><g transform="translate(.31143 278.37)"><rect transform="matrix(0 -1 -.96593 -.25882 0 0)" x="-1751.1" y="-512.51" width="41.174" height="68.254" fill="#fff" fill-opacity=".23981" stroke="#000" stroke-linecap="round" stroke-linejoin="round" stroke-width="1.0175" style="paint-order:fill markers stroke"/><g fill="#f00"><circle cx="440.13" cy="1840.5" r="1.2861" style="paint-order:stroke fill markers"/><circle cx="443.61" cy="1850.3" r="1.2861" style="paint-order:stroke fill markers"/><circle cx="452.87" cy="1846.8" r="1.2861" style="paint-order:stroke fill markers"/><circle cx="451.02" cy="1858.7" r="1.2861" style="paint-order:stroke fill markers"/><circle cx="471.39" cy="1859.8" r="1.2861" style="paint-order:stroke fill markers"/><circle cx="463.19" cy="1854.2" r="1.2861" style="paint-order:stroke fill markers"/><circle cx="465.31" cy="1868.2" r="1.2861" style="paint-order:stroke fill markers"/><circle cx="487.27" cy="1870.1" r="1.2861" style="paint-order:stroke fill markers"/><circle cx="474.83" cy="1851" r="1.2861" style="paint-order:stroke fill markers"/></g></g><path d="m234.78 2220.6c7.584 5.8696 5.6605 17.106 53.129 0.4603" fill="none" stroke="#000" stroke-linecap="round" stroke-linejoin="round" stroke-width="3"/><ellipse cx="205.6" cy="2248.4" rx="4.9585" ry="2.2098" style="paint-order:stroke fill markers"/><path d="m213.04 2233.9c-5.4067 4.324-4.8077 9.3684-4.1043 14.425" fill="none" stroke="#000" stroke-linecap="round" stroke-linejoin="round" stroke-width="3"/><ellipse transform="scale(-1,1)" cx="-227.58" cy="2248.7" rx="4.9585" ry="2.2098" style="paint-order:stroke fill markers"/><path d="m219.95 2234.1c5.4067 4.3239 4.8077 9.3683 4.1043 14.425" fill="none" stroke="#000" stroke-linecap="round" stroke-linejoin="round" stroke-width="3"/><path d="m213.29 2233.4c-3.7459-0.394-6.4588-1.1699-9.4504-2.703-3.9793-2.0391-7.4904-5.2573-9.8425-9.0214-0.80835-1.2935-1.7638-3.2114-2.2484-4.5133-0.21683-0.5823-0.41504-1.0796-0.4405-1.1051-0.0251-0.025-1.1447 0.031-2.487 0.1249-1.3423 0.094-2.4494 0.1608-2.4602 0.1481-0.0191-0.023 1.3235-1.756 4.6538-6.0044 0.98001-1.2501 1.8171-2.2544 1.8603-2.2319 0.29339 0.1531 7.4569 7.2149 7.3884 7.2835-0.0241 0.024-1.0593 0.1091-2.3009 0.1896l-2.2576 0.1462 0.0231 0.3324c0.0292 0.4222 1.1824 2.725 1.9186 3.8322 2.3629 3.5544 5.8747 6.4444 9.6814 7.9672 2.8242 1.1298 4.743 1.4901 7.9356 1.4901 2.5062 0 3.7777-0.1609 5.742-0.7265 6.2611-1.8029 11.382-6.4148 13.793-12.422l0.43195-1.0759 2.0985-0.033c1.208-0.019 2.0986 0.013 2.0986 0.077 0 0.3416-1.0613 3.0989-1.6269 4.2266-1.3228 2.6375-2.5513 4.3719-4.5797 6.4651-3.8449 3.9678-8.7054 6.4787-14.193 7.3319-1.1673 0.1815-4.7901 0.3215-5.7385 0.2217zm-1.3756-11.218v-2.2001l-0.32045-0.08c-0.17619-0.044-0.74507-0.2745-1.264-0.5117l-0.94358-0.4314-1.5479 1.5445-1.5479 1.5444-2.3609-2.3608-2.3609-2.3609 1.5444-1.5479 1.5445-1.5479-0.4227-0.935c-0.23242-0.5143-0.4579-1.0831-0.50096-1.264l-0.0785-0.329h-4.4216v-6.699h2.205c2.1849 0 2.2056 0 2.2794-0.2692 0.0413-0.148 0.26854-0.7172 0.5059-1.2649l0.43165-0.9957-1.5436-1.547-1.5436-1.547 4.7217-4.7218 1.5479 1.5445 1.5479 1.5444 0.94359-0.4313c0.51898-0.2372 1.0878-0.4675 1.264-0.5117l0.32045-0.08v-4.4002h6.699v4.4002l0.32046 0.08c0.17618 0.044 0.74507 0.2745 1.264 0.5117l0.94359 0.4313 1.5479-1.5444 1.5479-1.5445 4.7218 4.7218-1.5444 1.5479-1.5445 1.5479 0.42269 0.935c0.23243 0.5143 0.45791 1.0831 0.50098 1.264l0.0784 0.329h4.4216v6.7089l-2.0037-0.01c-1.1021-0.01-2.0938-0.01-2.2038 0-0.12431 0-0.25345 0.1751-0.34109 0.4538-0.0775 0.2467-0.30648 0.8152-0.50882 1.2632l-0.36775 0.8147 1.5452 1.5486 1.5452 1.5487-4.7218 4.7217-1.5479-1.5444-1.5479-1.5445-0.93503 0.4227c-0.51425 0.2325-1.083 0.4579-1.264 0.501l-0.32902 0.078v4.4216h-6.699v-2.2001zm5.2084-5.998c2.7759-0.7134 4.8085-2.6075 5.8248-5.4282 0.34301-0.9523 0.42843-3.151 0.16301-4.201-0.77457-3.0645-2.9391-5.2355-5.9891-6.0067-1.3408-0.3391-3.2192-0.2535-4.4675 0.2035-3.1807 1.1644-5.202 3.8264-5.3739 7.0771-0.0794 1.5087 0.10136 2.5463 0.66559 3.8133 0.93171 2.0922 2.5254 3.545 4.7127 4.2961 1.1581 0.3977 1.1677 0.3992 2.5503 0.4152 0.7336 0.01 1.4786-0.057 1.914-0.1693zm19.494-8.5134c-2.1246-2.0366-6.3953-6.3012-6.3527-6.3437 0.0241-0.024 1.0593-0.1091 2.3009-0.1896l2.2574-0.1462-0.0231-0.3324c-0.0312-0.4427-1.2162-2.7884-1.9758-3.9101-3.3275-4.9142-8.22-8.1091-14.031-9.1625-1.6736-0.3035-5.3843-0.3035-7.0579 0-7.2877 1.3211-13.294 6.1733-16.007 12.931l-0.43195 1.076-2.0985 0.033c-1.208 0.019-2.0986-0.013-2.0986-0.076 0-0.3417 1.0613-3.0989 1.6269-4.2267 1.3227-2.6375 2.5513-4.3718 4.5797-6.465 3.8593-3.9827 8.6308-6.4426 14.255-7.3492 1.722-0.2775 5.6829-0.2775 7.405 0 4.4663 0.7199 8.1282 2.299 11.743 5.064 1.3198 1.0094 3.5624 3.2735 4.5438 4.5873 1.4127 1.8909 2.7654 4.3395 3.5257 6.3819 0.21673 0.5823 0.41496 1.0796 0.44051 1.1051 0.0251 0.026 1.1446-0.031 2.487-0.1248 1.3423-0.094 2.4493-0.1609 2.4599-0.1482 0.0191 0.023-0.78028 1.0543-4.4142 5.6971-1.0006 1.2786-1.8732 2.3936-1.939 2.478-0.0905 0.1167-0.37803-0.094-1.1962-0.8786z" stroke-width=".11962"/><circle cx="202.19" cy="2197.8" r="9.1235" fill="#fff" stroke="#000" stroke-linecap="round" stroke-linejoin="round" style="paint-order:stroke fill markers"/><circle cx="228.53" cy="2197.9" r="9.1235" fill="#fff" stroke="#000" stroke-linecap="round" stroke-linejoin="round" style="paint-order:stroke fill markers"/><circle cx="202.19" cy="2197.8" r="3.6904" style="paint-order:stroke fill markers"/><circle cx="228.53" cy="2197.9" r="3.6904" style="paint-order:stroke fill markers"/><path d="m312.14 2261.2c-0.9449-0.5761-1.0549-0.9365-0.4797-1.572 0.5301-0.5857 0.2465-2.5934-0.4164-2.9482-0.5957-0.3188-0.6345-1.1062-0.095-1.9292 0.4099-0.6257 0.3863-1.308-0.308-8.8993l-0.2057-2.249-0.1935 2.2376c-0.1233 1.4247-0.095 2.3561 0.077 2.5637 0.1488 0.1793 0.2322 0.6569 0.1853 1.0613-0.1101 0.9496-1.3812 1.3886-2.5812 0.8916-0.9474-0.3925-1.3365-1.2957-0.7092-1.6467 0.4566-0.2556 0.5911-1.0065 0.1802-1.0065-0.5348 0-0.5642-1.057-0.049-1.7765 0.4755-0.6646 0.5716-1.5927 0.9779-9.4448 0.3397-6.5653 0.3764-8.8267 0.149-9.1907-0.3876-0.6206-0.3867-1.9531 0-2.6789 0.5983-1.118 0.4117-3.3674-0.2794-3.3674-0.1223 0-0.293 0.354-0.3796 0.7867-0.2749 1.3748-2.29 1.3452-2.29-0.034 0-0.6315-0.4255-0.7977-2.1684-0.8466-1.3638-0.038-1.3813-0.029-1.5629 0.8531-0.2398 1.1642-0.9698 1.8666-2.1366 2.056-1.2801 0.2077-2.2483-0.4557-2.6066-1.7861l-0.27722-1.0295h-3.9484v3.446l-19.976-0.138-0.13229-1.7198-0.1323-1.7198-1.6883-0.08c-1.4455-0.068-1.7785 0-2.3151 0.5092-0.85202 0.8004-0.84735 2.0133 9e-3 2.3388 0.34967 0.133 0.71937 0.377 0.82156 0.5424 0.22423 0.3628 0.19131 23.077-0.0343 23.665-0.24223 0.6312-0.90257 0.697-6.178 0.6159l-4.8872-0.075-0.33439-0.6615c-0.25353-0.5015-0.33533-3.3608-0.33828-11.824-2e-3 -7.1523-0.099-11.222-0.26849-11.326-0.16111-0.1-0.26458 0.2927-0.26458 1.0032 0 1.6348-0.46491 2.7864-1.299 3.2177-0.65687 0.3397-6.0793 0.5821-7.9346 0.3548-0.50465-0.062-0.68479 0.085-0.87924 0.7159-0.27233 0.8839-0.43702 1.2978-1.2255 3.0797-0.29874 0.6751-0.62468 1.5681-0.72431 1.9844-0.0996 0.4162-0.30239 0.9104-0.45058 1.0983-0.14819 0.1878-0.30566 1.0708-0.34992 1.9623-0.0859 1.7291-0.31457 2.0511-1.4615 2.0577-1.0108 0.01-5.7261-1.253-7.019-1.8739-1.961-0.9418-1.9599-0.9539 0.40852-4.2654 3.6296-5.0749 4.583-7.3802 3.5632-8.6159-0.27714-0.3359-0.82971-0.6128-1.2811-0.6421-0.43656-0.028-1.0577-0.327-1.3804-0.6637-0.53282-0.5561-0.80325-0.6093-2.9468-0.5805-2.2138 0.03-2.5055-0.033-4.705-1.0188-1.6826-0.7538-2.4424-1.2473-2.6901-1.7472-0.20221-0.4082-0.56617-0.6967-0.87879-0.6967-0.2935 0-0.714-0.1804-0.93445-0.4009-0.34643-0.3464-1.4479-0.3815-8.117-0.2586-8.2017 0.1511-9.249 0.2332-10.698 0.8384-1.3064 0.5459-4.749 2.7089-8.0704 5.0707-2.396 1.7038-2.828 2.1172-2.7132 2.5966 0.10693 0.4467-0.19271 0.8524-1.3836 1.8729-2.0159 1.7276-1.9826 1.7141-3.0795 1.2558-0.64182-0.2682-0.95415-0.5708-0.95415-0.9243 0-0.2891-0.1151-0.5256-0.25578-0.5256-0.16124 0-0.1951-1.7503-0.0916-4.7354 0.17542-5.0595-0.0695-7.5803-0.99915-10.282-0.80794-2.3483-0.69738-3.0562 0.71286-4.5638 0.67012-0.7164 1.4668-1.3814 1.7704-1.4778 0.77597-0.2463 1.6603 0.8601 1.885 2.3583 0.0983 0.6554 0.32181 1.2358 0.49673 1.2899 0.17492 0.054 7.741-0.013 16.813-0.1485l16.495-0.2468-0.1443-0.7215c-0.21264-1.0632 0.25815-1.4744 2.6076-2.2772 1.6834-0.5752 2.7395-0.7461 5.1594-0.8347 1.6735-0.061 3.1915-0.2325 3.3734-0.3807 0.1819-0.1481 0.33073-0.5483 0.33073-0.8892 0-0.8896 1.4638-2.432 2.6435-2.7855 2.0897-0.6261 5.8423 0.4547 6.5368 1.8827 0.17695 0.3638 0.38598 0.978 0.4645 1.365l0.14277 0.7036 11.907-0.042c11.148-0.039 11.907-0.072 11.907-0.5051 7e-5 -0.7348 0.93817-0.55 1.6792 0.3307 0.36735 0.4366 0.72187 0.7937 0.78783 0.7937 0.066 0 0.1981-0.4167 0.29365-0.926 0.16153-0.861 0.24257-0.9259 1.1539-0.9237 2.0074 0 3.7583 0.3289 3.7583 0.696 0 0.5709 5.7561 0.5082 6.584-0.072 1.0699-0.7494 2.4458-4.2657 1.532-3.9151-0.50506 0.1939-6.306-1.4585-6.8753-1.9583-0.29595-0.2598-0.89658-0.404-1.571-0.3771-0.80551 0.032-1.1841-0.088-1.4433-0.4582-0.28064-0.4006-0.64075-0.4915-1.7883-0.451-1.954 0.069-2.1777-0.1985-1.7292-2.0681 0.54089-2.2546 0.69796-2.3822 2.161-1.7551 0.67088 0.2876 1.2945 0.6438 1.3858 0.7915 0.0913 0.1478 0.52672 0.2584 0.96755 0.2459 0.44284-0.013 1.1554 0.2388 1.5923 0.5618 0.43492 0.3216 0.9949 0.5282 1.2444 0.4591 0.2495-0.069 1.9402 0.4318 3.757 1.1131l3.3034 1.2386 0.18609 1.0549c0.21499 1.2187-0.50544 3.7866-1.4611 5.208-0.84978 1.264-1.9404 1.5677-5.0029 1.3933-2.5799-0.1468-2.5818-0.1465-2.8377 0.5268-0.15983 0.4204-0.46068 0.6737-0.80016 0.6737-0.29921 0-0.61716 0.1906-0.70656 0.4235-0.18173 0.4736 0.31773 0.8892 1.076 0.8953 0.27499 0 0.65248 0.2124 0.83886 0.4671 0.31581 0.4315 1.4238 0.4651 16.284 0.4929 19.215 0.036 17.448 0.37 19.238-3.6359 0.6279-1.4047 0.7565-1.9973 0.6462-2.9765l-0.1378-1.2227h2.1091l0.1524 2.0158c0.084 1.1087 0.084 2.8286 0 3.8221-0.1464 1.7466-0.1305 1.8104 0.4811 1.9312 0.9999 0.1975 18.844 0.7484 19.286 0.5955 0.2183-0.076 1.647-0.1965 3.175-0.2685 1.5279-0.072 3.9356-0.214 5.3504-0.3156 3.0963-0.2223 3.3808-0.075 3.3808 1.7445 0 2.0181 0.086 1.998-6.9655 1.6328-7.48-0.3875-23.41-0.4169-24.388-0.045-0.5556 0.2112-0.6794 0.4117-0.6126 0.9922 0.07 0.6116 0.2252 0.741 0.9717 0.8124 0.6606 0.063 0.9861-0.055 1.2717-0.463 0.8921-1.2735 1.9414-0.1397 1.9414 2.0978 0 2.217-1.0487 3.3723-1.9252 2.1209-0.3094-0.4417-0.7951-0.5529-3.0642-0.7016-3.1999-0.2097-4.717 0.1414-4.9702 1.1504-0.4487 1.7878-0.1186 10.27 0.8989 23.095 0.5946 7.4943 1.1629 13.834 1.2628 14.089 0.1 0.2546 0.3177 0.4648 0.484 0.4671 0.5629 0.01 0.8967 0.3896 1.0805 1.2368 0.1634 0.7534 0.097 0.8884-0.6151 1.2568-1.074 0.5553-2.1035 0.5181-3.1396-0.1135zm-56.393-32.565c0.62492-0.331 1.0766-1.6174 0.98033-2.7919l-0.0842-1.0262-2.3099-0.049c-1.2704-0.027-2.3788 0.062-2.463 0.1984-0.0842 0.1363 0.0622 0.2526 0.3255 0.2585 0.37018 0.01 0.2754 0.1846-0.41824 0.7778-0.81667 0.6984-0.88384 0.8642-0.75104 1.8542 0.12544 0.9353 0.0915 1.0422-0.24289 0.7647-0.53873-0.4471-1.1519-1.9964-1.1519-2.9106 0-1.3111-0.71495-0.9033-1.1718 0.6684-0.55091 1.8951-0.52627 2.2442 0.17966 2.5453 0.68316 0.2914 6.4548 0.056 7.1075-0.2892zm-59.207-5.3625c1.2864-0.8738 2.4337-1.8381 2.5496-2.143 0.189-0.4971 0.39652-4.053 0.30642-5.2507-0.0322-0.428-0.32179-0.4646-3.1443-0.3969l-3.1088 0.075-0.0727 4.4629c-0.0723 4.4362 0.0939 5.4397 0.83026 5.0152 0.16542-0.095 1.3532-0.8883 2.6396-1.7621zm47.138-16.815c0-0.8892-0.78271-1.3439-1.3452-0.7815-0.65893 0.659-0.25637 1.5993 0.64025 1.4956 0.5442-0.063 0.7049-0.2257 0.7049-0.7141z" fill="#4d4d4d"/><path d="m185.53 2215.4c-25.817 13.962 39.2 9.4505 58.85 14.166" fill="none" stroke="#000" stroke-linecap="round" stroke-linejoin="round" stroke-width="3"/><circle transform="rotate(-16.306)" cx="-392.76" cy="2207.4" r="3.6904" style="paint-order:stroke fill markers"/><circle transform="rotate(-16.306)" cx="-355.24" cy="2212.1" r="3.6904" style="paint-order:stroke fill markers"/><path d="m267.35 2225.3v-1.3618h1.8582c3.0804 0 7.8363-0.9906 11.761-2.4495 2.2853-0.8496 5.6783-2.5436 6.5999-3.295 0.78364-0.639 0.70648-0.7288-1.8609-2.1664l-1.8609-1.042-2.0486 1.5955c-2.8915 2.252-5.0983 3.5256-7.5835 4.3765-1.8042 0.6177-2.529 0.7528-4.5073 0.8401l-2.3574 0.104v-1.9441h1.6381c0.90096 0 2.1501-0.152 2.7758-0.3379 2.6922-0.7994 5.8442-2.8363 8.6992-5.6216l1.8103-1.766-0.44722-0.6281c-0.64212-0.9017-2.8186-2.7557-4.524-3.8535-2.6082-1.679-5.1387-2.5391-8.2236-2.7951l-1.7285-0.1435v-3.0825h23.676v24.933h-23.676zm-2.408-1.9098c-1.7802-0.4303-4.3855-1.758-5.9398-3.027-0.73091-0.5967-1.9354-1.8514-2.6766-2.7882-1.4438-1.8248-3.3799-5.3143-3.0865-5.563 4.5394-3.8489 8.7591-6.0555 12.801-6.6942l1.1-0.1738v0.8134c0 0.4727-0.10966 0.8433-0.2619 0.885-0.14405 0.039-0.87475 0.1804-1.6238 0.3134-2.1463 0.3811-4.9056 1.8453-6.7849 3.6003-0.87773 0.8197-1.5959 1.6168-1.5959 1.7713s0.44633 1.1587 0.99184 2.2316c0.79351 1.5607 1.3486 2.3084 2.7761 3.7395 1.8877 1.8923 3.1877 2.6871 5.2414 3.2045 1.1469 0.2889 1.1527 0.2943 1.2168 1.1579 0.0752 1.0116-0.0431 1.0406-2.1582 0.5293zm0.70936-4.1357c-1.4725-0.6057-2.1458-1.0839-3.3722-2.3951-0.94465-1.0099-2.2622-3.282-2.2622-3.901 0-0.3007 1.2056-1.3629 2.3734-2.0911 0.76396-0.4764 2.9556-1.2904 3.9645-1.4726l0.7857-0.1419v0.8243c0 0.7844-0.0375 0.8312-0.77413 0.9695-1.0084 0.1891-2.5605 0.9856-3.1471 1.615l-0.46419 0.4979 0.50571 1.0916c0.60398 1.3036 2.1553 3.0219 3.1578 3.4976 0.64335 0.3053 0.72192 0.4327 0.72192 1.1708 0 0.4556-0.0707 0.826-0.15714 0.8233-0.0864 0-0.68585-0.2225-1.332-0.4883zm2.1701-1.1092c-0.46548-0.1015-0.47142-0.146-0.47142-3.5307v-3.4279l0.59936 0.1719c1.2794 0.3669 2.2408 1.2428 3.0625 2.7901 0.22787 0.4291 0.48141 0.7801 0.56344 0.7801 0.082 0 0.55934-0.3535 1.0607-0.7857 0.50137-0.4321 1.2361-1.0572 1.6327-1.3892l0.72113-0.6035-0.93903-0.841c-1.4291-1.28-3.3136-2.0848-5.1584-2.2032l-1.5424-0.099v-2.0401h0.99522c2.7058 0.01 5.6964 1.3369 8.1339 3.6132 0.85601 0.7995 1.5564 1.527 1.5564 1.6168 0 0.09-0.62587 0.8394-1.3908 1.6656-1.5555 1.68-3.4709 3.1315-4.994 3.7844-1.0192 0.4369-2.9513 0.6867-3.8293 0.4951z" fill="#77b900" stroke-width=".79188"/><g transform="translate(-255.68 2083.7)"><rect x="482.01" y="118.63" width="25.669" height="9.683" fill="#fff" stroke="#000" stroke-linecap="round" stroke-linejoin="round" stroke-width="1.8603" style="paint-order:stroke fill markers"/><text x="486.78601" y="125.10204" fill="#00dc00" font-family="sans-serif" font-size="6.5627px" letter-spacing="0px" stroke-width=".16407" word-spacing="0px" style="line-height:1.25" xml:space="preserve"><tspan x="486.78601" y="125.10204" fill="#00dc00" stroke-width=".16407">style</tspan></text></g><g transform="translate(-255.71 2094.9)"><rect x="482.01" y="118.63" width="25.669" height="9.683" fill="#fff" stroke="#000" stroke-linecap="round" stroke-linejoin="round" stroke-width="1.8603" style="paint-order:stroke fill markers"/><text x="487.38376" y="125.41598" fill="#000000" font-family="sans-serif" font-size="6.5627px" letter-spacing="0px" stroke-width=".16407" word-spacing="0px" style="line-height:1.25" xml:space="preserve"><tspan x="487.38376" y="125.41598" stroke-width=".16407">filter</tspan></text></g><ellipse cx="392.31" cy="2213.7" rx="14.461" ry="1.2861" fill="#51e751" style="paint-order:stroke fill markers"/><g transform="translate(1.8958 278.37)"><rect transform="matrix(0 -1 -.96593 -.25882 0 0)" x="-1836.8" y="-510.87" width="41.174" height="68.254" fill="#fff" fill-opacity=".23981" stroke="#000" stroke-linecap="round" stroke-linejoin="round" stroke-width="1.0175" style="paint-order:fill markers stroke"/><g fill="#51e751"><circle transform="matrix(-.97057 -.24082 -.24082 .97057 0 0)" cx="-936.78" cy="1757" r="1.2861" style="paint-order:stroke fill markers"/><circle transform="matrix(-.97057 -.24082 -.24082 .97057 0 0)" cx="-933.3" cy="1766.8" r="1.2861" style="paint-order:stroke fill markers"/><circle transform="matrix(-.97057 -.24082 -.24082 .97057 0 0)" cx="-924.04" cy="1763.4" r="1.2861" style="paint-order:stroke fill markers"/><circle transform="matrix(-.97057 -.24082 -.24082 .97057 0 0)" cx="-925.89" cy="1775.3" r="1.2861" style="paint-order:stroke fill markers"/><circle transform="matrix(-.97057 -.24082 -.24082 .97057 0 0)" cx="-905.52" cy="1776.3" r="1.2861" style="paint-order:stroke fill markers"/><circle transform="matrix(-.97057 -.24082 -.24082 .97057 0 0)" cx="-913.72" cy="1770.8" r="1.2861" style="paint-order:stroke fill markers"/><circle transform="matrix(-.97057 -.24082 -.24082 .97057 0 0)" cx="-911.6" cy="1784.8" r="1.2861" style="paint-order:stroke fill markers"/><circle transform="matrix(-.97057 -.24082 -.24082 .97057 0 0)" cx="-889.64" cy="1786.7" r="1.2861" style="paint-order:stroke fill markers"/><circle transform="matrix(-.97057 -.24082 -.24082 .97057 0 0)" cx="-902.08" cy="1767.6" r="1.2861" style="paint-order:stroke fill markers"/></g></g><path d="m234.78 2309.9c7.584 5.8696 5.6605 17.106 53.129 0.4603" fill="none" stroke="#000" stroke-linecap="round" stroke-linejoin="round" stroke-width="3"/><ellipse cx="205.59" cy="2337.7" rx="4.9585" ry="2.2098" style="paint-order:stroke fill markers"/><path d="m213.03 2323.3c-5.4067 4.324-4.8077 9.3684-4.1043 14.425" fill="none" stroke="#000" stroke-linecap="round" stroke-linejoin="round" stroke-width="3"/><ellipse transform="scale(-1,1)" cx="-227.57" cy="2338.1" rx="4.9585" ry="2.2098" style="paint-order:stroke fill markers"/><path d="m219.94 2323.4c5.4067 4.3239 4.8077 9.3683 4.1043 14.425" fill="none" stroke="#000" stroke-linecap="round" stroke-linejoin="round" stroke-width="3"/><path d="m213.28 2322.8c-3.7459-0.394-6.4588-1.1699-9.4504-2.703-3.9793-2.0391-7.4904-5.2573-9.8425-9.0214-0.80835-1.2935-1.7638-3.2114-2.2484-4.5133-0.21683-0.5823-0.41504-1.0796-0.4405-1.1051-0.0251-0.025-1.1447 0.031-2.487 0.1249-1.3423 0.094-2.4494 0.1608-2.4602 0.1481-0.0191-0.023 1.3235-1.756 4.6538-6.0044 0.98001-1.2501 1.8171-2.2544 1.8603-2.2319 0.29339 0.1531 7.4569 7.2149 7.3884 7.2835-0.0241 0.024-1.0593 0.1091-2.3009 0.1896l-2.2576 0.1462 0.0231 0.3324c0.0292 0.4222 1.1824 2.725 1.9186 3.8322 2.3629 3.5544 5.8747 6.4444 9.6814 7.9672 2.8242 1.1298 4.743 1.4901 7.9356 1.4901 2.5062 0 3.7777-0.1609 5.742-0.7265 6.2611-1.8029 11.382-6.4148 13.793-12.422l0.43195-1.0759 2.0985-0.033c1.208-0.019 2.0986 0.013 2.0986 0.077 0 0.3416-1.0613 3.0989-1.6269 4.2266-1.3228 2.6375-2.5513 4.3719-4.5797 6.4651-3.8449 3.9678-8.7054 6.4787-14.193 7.3319-1.1673 0.1815-4.7901 0.3215-5.7385 0.2217zm-1.3756-11.218v-2.2001l-0.32045-0.08c-0.17619-0.044-0.74507-0.2745-1.264-0.5117l-0.94358-0.4314-1.5479 1.5445-1.5479 1.5444-2.3609-2.3608-2.3609-2.3609 1.5444-1.5479 1.5445-1.5479-0.4227-0.935c-0.23242-0.5143-0.4579-1.0831-0.50096-1.264l-0.0785-0.329h-4.4216v-6.699h2.205c2.1849 0 2.2056 0 2.2794-0.2692 0.0413-0.148 0.26854-0.7172 0.5059-1.2649l0.43165-0.9957-1.5436-1.547-1.5436-1.547 4.7217-4.7218 1.5479 1.5445 1.5479 1.5444 0.94359-0.4313c0.51898-0.2372 1.0878-0.4675 1.264-0.5117l0.32045-0.08v-4.4002h6.699v4.4002l0.32046 0.08c0.17618 0.044 0.74507 0.2745 1.264 0.5117l0.94359 0.4313 1.5479-1.5444 1.5479-1.5445 4.7218 4.7218-1.5444 1.5479-1.5445 1.5479 0.42269 0.935c0.23243 0.5143 0.45791 1.0831 0.50098 1.264l0.0784 0.329h4.4216v6.7089l-2.0037-0.01c-1.1021-0.01-2.0938-0.01-2.2038 0-0.12431 0-0.25345 0.1751-0.34109 0.4538-0.0775 0.2467-0.30648 0.8152-0.50882 1.2632l-0.36775 0.8147 1.5452 1.5486 1.5452 1.5487-4.7218 4.7217-1.5479-1.5444-1.5479-1.5445-0.93503 0.4227c-0.51425 0.2325-1.083 0.4579-1.264 0.501l-0.32902 0.078v4.4216h-6.699v-2.2001zm5.2084-5.998c2.7759-0.7134 4.8085-2.6075 5.8248-5.4282 0.34301-0.9523 0.42843-3.151 0.16301-4.201-0.77457-3.0645-2.9391-5.2355-5.9891-6.0067-1.3408-0.3391-3.2192-0.2535-4.4675 0.2035-3.1807 1.1644-5.202 3.8264-5.3739 7.0771-0.0794 1.5087 0.10136 2.5463 0.66559 3.8133 0.93171 2.0922 2.5254 3.545 4.7127 4.2961 1.1581 0.3977 1.1677 0.3992 2.5503 0.4152 0.7336 0.01 1.4786-0.057 1.914-0.1693zm19.494-8.5134c-2.1246-2.0366-6.3953-6.3012-6.3527-6.3437 0.0241-0.024 1.0593-0.1091 2.3009-0.1896l2.2574-0.1462-0.0231-0.3324c-0.0312-0.4427-1.2162-2.7884-1.9758-3.9101-3.3275-4.9142-8.22-8.1091-14.031-9.1625-1.6736-0.3035-5.3843-0.3035-7.0579 0-7.2877 1.3211-13.294 6.1733-16.007 12.931l-0.43195 1.076-2.0985 0.033c-1.208 0.019-2.0986-0.013-2.0986-0.076 0-0.3417 1.0613-3.0989 1.6269-4.2267 1.3227-2.6375 2.5513-4.3718 4.5797-6.465 3.8593-3.9827 8.6308-6.4426 14.255-7.3492 1.722-0.2775 5.6829-0.2775 7.405 0 4.4663 0.7199 8.1282 2.299 11.743 5.064 1.3198 1.0094 3.5624 3.2735 4.5438 4.5873 1.4127 1.8909 2.7654 4.3395 3.5257 6.3819 0.21673 0.5823 0.41496 1.0796 0.44051 1.1051 0.0251 0.026 1.1446-0.031 2.487-0.1248 1.3423-0.094 2.4493-0.1609 2.4599-0.1482 0.0191 0.023-0.78028 1.0543-4.4142 5.6971-1.0006 1.2786-1.8732 2.3936-1.939 2.478-0.0905 0.1167-0.37803-0.094-1.1962-0.8786z" stroke-width=".11962"/><circle cx="202.18" cy="2287.2" r="9.1235" fill="#fff" stroke="#000" stroke-linecap="round" stroke-linejoin="round" style="paint-order:stroke fill markers"/><circle cx="228.52" cy="2287.2" r="9.1235" fill="#fff" stroke="#000" stroke-linecap="round" stroke-linejoin="round" style="paint-order:stroke fill markers"/><circle cx="202.18" cy="2287.2" r="3.6904" style="paint-order:stroke fill markers"/><circle cx="228.52" cy="2287.2" r="3.6904" style="paint-order:stroke fill markers"/><path d="m312.14 2350.5c-0.9449-0.5761-1.0549-0.9365-0.4797-1.572 0.5301-0.5857 0.2465-2.5934-0.4164-2.9482-0.5957-0.3188-0.6345-1.1062-0.095-1.9292 0.4099-0.6257 0.3863-1.308-0.308-8.8993l-0.2057-2.249-0.1935 2.2376c-0.1233 1.4247-0.095 2.3561 0.077 2.5637 0.1488 0.1793 0.2322 0.6569 0.1853 1.0613-0.1101 0.9496-1.3812 1.3886-2.5812 0.8916-0.9474-0.3925-1.3365-1.2957-0.7092-1.6467 0.4566-0.2556 0.5911-1.0065 0.1802-1.0065-0.5348 0-0.5642-1.057-0.049-1.7765 0.4755-0.6646 0.5716-1.5927 0.9779-9.4448 0.3397-6.5653 0.3764-8.8267 0.149-9.1907-0.3876-0.6206-0.3867-1.9531 0-2.6789 0.5983-1.118 0.4117-3.3674-0.2794-3.3674-0.1223 0-0.293 0.354-0.3796 0.7867-0.2749 1.3748-2.29 1.3452-2.29-0.034 0-0.6315-0.4255-0.7977-2.1684-0.8466-1.3638-0.038-1.3813-0.029-1.5629 0.8531-0.2398 1.1642-0.9698 1.8666-2.1366 2.056-1.2801 0.2077-2.2483-0.4557-2.6066-1.7861l-0.27722-1.0295h-3.9484v3.446l-19.976-0.138-0.13229-1.7198-0.1323-1.7198-1.6883-0.08c-1.4455-0.068-1.7785 0-2.3151 0.5092-0.85202 0.8004-0.84735 2.0133 9e-3 2.3388 0.34967 0.133 0.71937 0.377 0.82156 0.5424 0.22423 0.3628 0.19131 23.077-0.0343 23.665-0.24223 0.6312-0.90257 0.697-6.178 0.6159l-4.8872-0.075-0.33439-0.6615c-0.25353-0.5015-0.33533-3.3608-0.33828-11.824-2e-3 -7.1523-0.099-11.222-0.26849-11.326-0.16111-0.1-0.26458 0.2927-0.26458 1.0032 0 1.6348-0.46491 2.7864-1.299 3.2177-0.65687 0.3397-6.0793 0.5821-7.9346 0.3548-0.50465-0.062-0.68479 0.085-0.87924 0.7159-0.27233 0.8839-0.43702 1.2978-1.2255 3.0797-0.29874 0.6751-0.62468 1.5681-0.72431 1.9844-0.0996 0.4162-0.30239 0.9104-0.45058 1.0983-0.14819 0.1878-0.30566 1.0708-0.34992 1.9623-0.0859 1.7291-0.31457 2.0511-1.4615 2.0577-1.0108 0.01-5.7261-1.253-7.019-1.8739-1.961-0.9418-1.9599-0.9539 0.40852-4.2654 3.6296-5.0749 4.583-7.3802 3.5632-8.6159-0.27714-0.3359-0.82971-0.6128-1.2811-0.6421-0.43656-0.028-1.0577-0.327-1.3804-0.6637-0.53282-0.5561-0.80325-0.6093-2.9468-0.5805-2.2138 0.03-2.5055-0.033-4.705-1.0188-1.6826-0.7538-2.4424-1.2473-2.6901-1.7472-0.20221-0.4082-0.56617-0.6967-0.87879-0.6967-0.2935 0-0.714-0.1804-0.93445-0.4009-0.34643-0.3464-1.4479-0.3815-8.117-0.2586-8.2017 0.1511-9.249 0.2332-10.698 0.8384-1.3064 0.5459-4.749 2.7089-8.0704 5.0707-2.396 1.7038-2.828 2.1172-2.7132 2.5966 0.10693 0.4467-0.19271 0.8524-1.3836 1.8729-2.0159 1.7276-1.9826 1.7141-3.0795 1.2558-0.64182-0.2682-0.95415-0.5708-0.95415-0.9243 0-0.2891-0.1151-0.5256-0.25578-0.5256-0.16124 0-0.1951-1.7503-0.0916-4.7354 0.17542-5.0595-0.0695-7.5803-0.99915-10.282-0.80794-2.3483-0.69738-3.0562 0.71286-4.5638 0.67012-0.7164 1.4668-1.3814 1.7704-1.4778 0.77597-0.2463 1.6603 0.8601 1.885 2.3583 0.0983 0.6554 0.32181 1.2358 0.49673 1.2899 0.17492 0.054 7.741-0.013 16.813-0.1485l16.495-0.2468-0.1443-0.7215c-0.21264-1.0632 0.25815-1.4744 2.6076-2.2772 1.6834-0.5752 2.7395-0.7461 5.1594-0.8347 1.6735-0.061 3.1915-0.2325 3.3734-0.3807 0.1819-0.1481 0.33073-0.5483 0.33073-0.8892 0-0.8896 1.4638-2.432 2.6435-2.7855 2.0897-0.6261 5.8423 0.4547 6.5368 1.8827 0.17695 0.3638 0.38598 0.978 0.4645 1.365l0.14277 0.7036 11.907-0.042c11.148-0.039 11.907-0.072 11.907-0.5051 7e-5 -0.7348 0.93817-0.55 1.6792 0.3307 0.36735 0.4366 0.72187 0.7937 0.78783 0.7937 0.066 0 0.1981-0.4167 0.29365-0.926 0.16153-0.861 0.24257-0.9259 1.1539-0.9237 2.0074 0 3.7583 0.3289 3.7583 0.696 0 0.5709 5.7561 0.5082 6.584-0.072 1.0699-0.7494 2.4458-4.2657 1.532-3.9151-0.50506 0.1939-6.306-1.4585-6.8753-1.9583-0.29595-0.2598-0.89658-0.404-1.571-0.3771-0.80551 0.032-1.1841-0.088-1.4433-0.4582-0.28064-0.4006-0.64075-0.4915-1.7883-0.451-1.954 0.069-2.1777-0.1985-1.7292-2.0681 0.54089-2.2546 0.69796-2.3822 2.161-1.7551 0.67088 0.2876 1.2945 0.6438 1.3858 0.7915 0.0913 0.1478 0.52672 0.2584 0.96755 0.2459 0.44284-0.013 1.1554 0.2388 1.5923 0.5618 0.43492 0.3216 0.9949 0.5282 1.2444 0.4591 0.2495-0.069 1.9402 0.4318 3.757 1.1131l3.3034 1.2386 0.18609 1.0549c0.21499 1.2187-0.50544 3.7866-1.4611 5.208-0.84978 1.264-1.9404 1.5677-5.0029 1.3933-2.5799-0.1468-2.5818-0.1465-2.8377 0.5268-0.15983 0.4204-0.46068 0.6737-0.80016 0.6737-0.29921 0-0.61716 0.1906-0.70656 0.4235-0.18173 0.4736 0.31773 0.8892 1.076 0.8953 0.27499 0 0.65248 0.2124 0.83886 0.4671 0.31581 0.4315 1.4238 0.4651 16.284 0.4929 19.215 0.036 17.448 0.37 19.238-3.6359 0.6279-1.4047 0.7565-1.9973 0.6462-2.9765l-0.1378-1.2227h2.1091l0.1524 2.0158c0.084 1.1087 0.084 2.8286 0 3.8221-0.1464 1.7466-0.1305 1.8104 0.4811 1.9312 0.9999 0.1975 18.844 0.7484 19.286 0.5955 0.2183-0.076 1.647-0.1965 3.175-0.2685 1.5279-0.072 3.9356-0.214 5.3504-0.3156 3.0963-0.2223 3.3808-0.075 3.3808 1.7445 0 2.0181 0.086 1.998-6.9655 1.6328-7.48-0.3875-23.41-0.4169-24.388-0.045-0.5556 0.2112-0.6794 0.4117-0.6126 0.9922 0.07 0.6116 0.2252 0.741 0.9717 0.8124 0.6606 0.063 0.9861-0.055 1.2717-0.463 0.8921-1.2735 1.9414-0.1397 1.9414 2.0978 0 2.217-1.0487 3.3723-1.9252 2.1209-0.3094-0.4417-0.7951-0.5529-3.0642-0.7016-3.1999-0.2097-4.717 0.1414-4.9702 1.1504-0.4487 1.7878-0.1186 10.27 0.8989 23.095 0.5946 7.4943 1.1629 13.834 1.2628 14.089 0.1 0.2546 0.3177 0.4648 0.484 0.4671 0.5629 0.01 0.8967 0.3896 1.0805 1.2368 0.1634 0.7534 0.097 0.8884-0.6151 1.2568-1.074 0.5553-2.1035 0.5181-3.1396-0.1135zm-56.393-32.565c0.62492-0.331 1.0766-1.6174 0.98033-2.7919l-0.0842-1.0262-2.3099-0.049c-1.2704-0.027-2.3788 0.062-2.463 0.1984-0.0842 0.1363 0.0622 0.2526 0.3255 0.2585 0.37018 0.01 0.2754 0.1846-0.41824 0.7778-0.81667 0.6984-0.88384 0.8642-0.75104 1.8542 0.12544 0.9353 0.0915 1.0422-0.24289 0.7647-0.53873-0.4471-1.1519-1.9964-1.1519-2.9106 0-1.3111-0.71495-0.9033-1.1718 0.6684-0.55091 1.8951-0.52627 2.2442 0.17966 2.5453 0.68316 0.2914 6.4548 0.056 7.1075-0.2892zm-59.207-5.3625c1.2864-0.8738 2.4337-1.8381 2.5496-2.143 0.189-0.4971 0.39652-4.053 0.30642-5.2507-0.0322-0.428-0.32179-0.4646-3.1443-0.3969l-3.1088 0.075-0.0727 4.4629c-0.0723 4.4362 0.0939 5.4397 0.83026 5.0152 0.16542-0.095 1.3532-0.8883 2.6396-1.7621zm47.138-16.815c0-0.8892-0.78271-1.3439-1.3452-0.7815-0.65893 0.659-0.25637 1.5993 0.64025 1.4956 0.5442-0.063 0.7049-0.2257 0.7049-0.7141z" fill="#4d4d4d"/><path d="m185.52 2304.8c-25.817 13.962 39.2 9.4505 58.85 14.166" fill="none" stroke="#000" stroke-linecap="round" stroke-linejoin="round" stroke-width="3"/><circle transform="rotate(-16.306)" cx="-417.85" cy="2293.1" r="3.6904" style="paint-order:stroke fill markers"/><circle transform="rotate(-16.306)" cx="-380.34" cy="2297.9" r="3.6904" style="paint-order:stroke fill markers"/><path d="m267.34 2314.6v-1.3618h1.8582c3.0804 0 7.8363-0.9906 11.761-2.4495 2.2853-0.8496 5.6783-2.5436 6.5999-3.295 0.78364-0.639 0.70648-0.7288-1.8609-2.1664l-1.8609-1.042-2.0486 1.5955c-2.8915 2.252-5.0983 3.5256-7.5835 4.3765-1.8042 0.6177-2.529 0.7528-4.5073 0.8401l-2.3574 0.104v-1.9441h1.6381c0.90096 0 2.1501-0.152 2.7758-0.3379 2.6922-0.7994 5.8442-2.8363 8.6992-5.6216l1.8103-1.766-0.44722-0.6281c-0.64212-0.9017-2.8186-2.7557-4.524-3.8535-2.6082-1.679-5.1387-2.5391-8.2236-2.7951l-1.7285-0.1435v-3.0825h23.676v24.933h-23.676zm-2.408-1.9098c-1.7802-0.4303-4.3855-1.758-5.9398-3.027-0.73091-0.5967-1.9354-1.8514-2.6766-2.7882-1.4438-1.8248-3.3799-5.3143-3.0865-5.563 4.5394-3.8489 8.7591-6.0555 12.801-6.6942l1.1-0.1738v0.8134c0 0.4727-0.10966 0.8433-0.2619 0.885-0.14405 0.039-0.87475 0.1804-1.6238 0.3134-2.1463 0.3811-4.9056 1.8453-6.7849 3.6003-0.87773 0.8197-1.5959 1.6168-1.5959 1.7713s0.44633 1.1587 0.99184 2.2316c0.79351 1.5607 1.3486 2.3084 2.7761 3.7395 1.8877 1.8923 3.1877 2.6871 5.2414 3.2045 1.1469 0.2889 1.1527 0.2943 1.2168 1.1579 0.0752 1.0116-0.0431 1.0406-2.1582 0.5293zm0.70936-4.1357c-1.4725-0.6057-2.1458-1.0839-3.3722-2.3951-0.94465-1.0099-2.2622-3.282-2.2622-3.901 0-0.3007 1.2056-1.3629 2.3734-2.0911 0.76396-0.4764 2.9556-1.2904 3.9645-1.4726l0.7857-0.1419v0.8243c0 0.7844-0.0375 0.8312-0.77413 0.9695-1.0084 0.1891-2.5605 0.9856-3.1471 1.615l-0.46419 0.4979 0.50571 1.0916c0.60398 1.3036 2.1553 3.0219 3.1578 3.4976 0.64335 0.3053 0.72192 0.4327 0.72192 1.1708 0 0.4556-0.0707 0.826-0.15714 0.8233-0.0864 0-0.68585-0.2225-1.332-0.4883zm2.1701-1.1092c-0.46548-0.1015-0.47142-0.146-0.47142-3.5307v-3.4279l0.59936 0.1719c1.2794 0.3669 2.2408 1.2428 3.0625 2.7901 0.22787 0.4291 0.48141 0.7801 0.56344 0.7801 0.082 0 0.55934-0.3535 1.0607-0.7857 0.50137-0.4321 1.2361-1.0572 1.6327-1.3892l0.72113-0.6035-0.93903-0.841c-1.4291-1.28-3.3136-2.0848-5.1584-2.2032l-1.5424-0.099v-2.0401h0.99522c2.7058 0.01 5.6964 1.3369 8.1339 3.6132 0.85601 0.7995 1.5564 1.527 1.5564 1.6168 0 0.09-0.62587 0.8394-1.3908 1.6656-1.5555 1.68-3.4709 3.1315-4.994 3.7844-1.0192 0.4369-2.9513 0.6867-3.8293 0.4951z" fill="#77b900" stroke-width=".79188"/><g transform="translate(-255.69 2173)"><rect x="482.01" y="118.63" width="25.669" height="9.683" fill="#fff" stroke="#000" stroke-linecap="round" stroke-linejoin="round" stroke-width="1.8603" style="paint-order:stroke fill markers"/><text x="486.78601" y="125.10204" fill="#0000ff" font-family="sans-serif" font-size="6.5627px" letter-spacing="0px" stroke-width=".16407" word-spacing="0px" style="line-height:1.25" xml:space="preserve"><tspan x="486.78601" y="125.10204" fill="#0000ff" stroke-width=".16407">style</tspan></text></g><g transform="translate(-255.72 2184.3)"><rect x="482.01" y="118.63" width="25.669" height="9.683" fill="#fff" stroke="#000" stroke-linecap="round" stroke-linejoin="round" stroke-width="1.8603" style="paint-order:stroke fill markers"/><text x="487.38376" y="125.41598" fill="#000000" font-family="sans-serif" font-size="6.5627px" letter-spacing="0px" stroke-width=".16407" word-spacing="0px" style="line-height:1.25" xml:space="preserve"><tspan x="487.38376" y="125.41598" stroke-width=".16407">filter</tspan></text></g><ellipse cx="392.3" cy="2303.1" rx="14.461" ry="1.2861" fill="#00f" style="paint-order:stroke fill markers"/><g transform="translate(1.9045 278.37)"><rect transform="matrix(0 -1 -.96593 -.25882 0 0)" x="-1926.2" y="-510.86" width="41.174" height="68.254" fill="#fff" fill-opacity=".23981" stroke="#000" stroke-linecap="round" stroke-linejoin="round" stroke-width="1.0175" style="paint-order:fill markers stroke"/><g fill="#00f"><circle transform="rotate(38.567)" cx="1607.5" cy="1303.9" r="1.2861" style="paint-order:stroke fill markers"/><circle transform="rotate(38.567)" cx="1603" cy="1295.3" r="1.2861" style="paint-order:stroke fill markers"/><circle transform="rotate(38.567)" cx="1616" cy="1290.6" r="1.2861" style="paint-order:stroke fill markers"/><circle transform="rotate(38.567)" cx="1614.1" cy="1302.5" r="1.2861" style="paint-order:stroke fill markers"/><circle transform="rotate(38.567)" cx="1634.5" cy="1303.6" r="1.2861" style="paint-order:stroke fill markers"/><circle transform="rotate(38.567)" cx="1626.3" cy="1298" r="1.2861" style="paint-order:stroke fill markers"/><circle transform="rotate(38.567)" cx="1619.9" cy="1312" r="1.2861" style="paint-order:stroke fill markers"/><circle transform="rotate(38.567)" cx="1626" cy="1306.3" r="1.2861" style="paint-order:stroke fill markers"/><circle transform="rotate(38.567)" cx="1618.8" cy="1295.4" r="1.2861" style="paint-order:stroke fill markers"/></g></g><g transform="translate(7.1304 262.17)"><rect transform="matrix(0 -1 -.96593 -.25882 0 0)" x="-2031.7" y="-505.63" width="41.174" height="68.254" fill="#fff" fill-opacity=".23981" stroke="#000" stroke-linecap="round" stroke-linejoin="round" stroke-width="1.0175" style="paint-order:fill markers stroke"/><g fill="#f00"><circle cx="433.49" cy="2119.3" r="1.2861" style="paint-order:stroke fill markers"/><circle cx="436.96" cy="2129" r="1.2861" style="paint-order:stroke fill markers"/><circle cx="446.23" cy="2125.6" r="1.2861" style="paint-order:stroke fill markers"/><circle cx="444.37" cy="2137.5" r="1.2861" style="paint-order:stroke fill markers"/><circle cx="464.75" cy="2138.5" r="1.2861" style="paint-order:stroke fill markers"/><circle cx="456.54" cy="2133" r="1.2861" style="paint-order:stroke fill markers"/><circle cx="458.66" cy="2147" r="1.2861" style="paint-order:stroke fill markers"/><circle cx="480.62" cy="2148.9" r="1.2861" style="paint-order:stroke fill markers"/><circle cx="468.19" cy="2129.8" r="1.2861" style="paint-order:stroke fill markers"/></g><g fill="#51e751"><circle transform="matrix(-.97057 -.24082 -.24082 .97057 0 0)" cx="-978.46" cy="1946.1" r="1.2861" style="paint-order:stroke fill markers"/><circle transform="matrix(-.97057 -.24082 -.24082 .97057 0 0)" cx="-974.98" cy="1955.8" r="1.2861" style="paint-order:stroke fill markers"/><circle transform="matrix(-.97057 -.24082 -.24082 .97057 0 0)" cx="-965.72" cy="1952.4" r="1.2861" style="paint-order:stroke fill markers"/><circle transform="matrix(-.97057 -.24082 -.24082 .97057 0 0)" cx="-967.57" cy="1964.3" r="1.2861" style="paint-order:stroke fill markers"/><circle transform="matrix(-.97057 -.24082 -.24082 .97057 0 0)" cx="-947.2" cy="1965.3" r="1.2861" style="paint-order:stroke fill markers"/><circle transform="matrix(-.97057 -.24082 -.24082 .97057 0 0)" cx="-955.4" cy="1959.8" r="1.2861" style="paint-order:stroke fill markers"/><circle transform="matrix(-.97057 -.24082 -.24082 .97057 0 0)" cx="-953.29" cy="1973.8" r="1.2861" style="paint-order:stroke fill markers"/><circle transform="matrix(-.97057 -.24082 -.24082 .97057 0 0)" cx="-931.33" cy="1975.7" r="1.2861" style="paint-order:stroke fill markers"/><circle transform="matrix(-.97057 -.24082 -.24082 .97057 0 0)" cx="-943.76" cy="1956.6" r="1.2861" style="paint-order:stroke fill markers"/></g><g fill="#00f"><circle transform="rotate(38.567)" cx="1668.4" cy="1388.4" r="1.2861" style="paint-order:stroke fill markers"/><circle transform="rotate(38.567)" cx="1663.9" cy="1379.8" r="1.2861" style="paint-order:stroke fill markers"/><circle transform="rotate(38.567)" cx="1677" cy="1375.2" r="1.2861" style="paint-order:stroke fill markers"/><circle transform="rotate(38.567)" cx="1675.1" cy="1387.1" r="1.2861" style="paint-order:stroke fill markers"/><circle transform="rotate(38.567)" cx="1695.5" cy="1388.1" r="1.2861" style="paint-order:stroke fill markers"/><circle transform="rotate(38.567)" cx="1687.3" cy="1382.6" r="1.2861" style="paint-order:stroke fill markers"/><circle transform="rotate(38.567)" cx="1680.9" cy="1396.6" r="1.2861" style="paint-order:stroke fill markers"/><circle transform="rotate(38.567)" cx="1686.9" cy="1390.8" r="1.2861" style="paint-order:stroke fill markers"/><circle transform="rotate(38.567)" cx="1679.8" cy="1379.9" r="1.2861" style="paint-order:stroke fill markers"/></g></g></g></g></svg>
