<?xml version="1.0" encoding="UTF-8" standalone="no"?>
<!-- Created with Inkscape (http://www.inkscape.org/) -->
<svg xmlns:dc="http://purl.org/dc/elements/1.1/" xmlns:cc="http://creativecommons.org/ns#" xmlns:rdf="http://www.w3.org/1999/02/22-rdf-syntax-ns#" xmlns:svg="http://www.w3.org/2000/svg" xmlns="http://www.w3.org/2000/svg" xmlns:sodipodi="http://sodipodi.sourceforge.net/DTD/sodipodi-0.dtd" xmlns:inkscape="http://www.inkscape.org/namespaces/inkscape" id="svg2" sodipodi:version="0.32" inkscape:version="0.92.4 (5da689c313, 2019-01-14)" width="378.72299" height="395.23285" version="1.0" sodipodi:docname="Ospied-en.svg">
  <metadata id="metadata7">
    <rdf:RDF>
      <cc:Work rdf:about="">
        <dc:format>image/svg+xml</dc:format>
        <dc:type rdf:resource="http://purl.org/dc/dcmitype/StillImage"/>
        <dc:title/>
      </cc:Work>
      <cc:Work rdf:about="">
        <dc:format>image/svg+xml</dc:format>
        <dc:type rdf:resource="http://purl.org/dc/dcmitype/StillImage"/>
      </cc:Work>
    </rdf:RDF>
  </metadata>
  <defs id="defs5">
    <inkscape:perspective sodipodi:type="inkscape:persp3d" inkscape:vp_x="0 : 526.18109 : 1" inkscape:vp_y="0 : 1000 : 0" inkscape:vp_z="744.09448 : 526.18109 : 1" inkscape:persp3d-origin="372.04724 : 350.78739 : 1" id="perspective9"/>
  </defs>
  <sodipodi:namedview inkscape:window-height="807" inkscape:window-width="1188" inkscape:pageshadow="2" inkscape:pageopacity="0.0" guidetolerance="10.0" gridtolerance="10.0" objecttolerance="10.0" borderopacity="1.0" bordercolor="#666666" pagecolor="#ffffff" id="base" showgrid="false" inkscape:zoom="1.8844903" inkscape:cx="157.42488" inkscape:cy="108.10957" inkscape:window-x="767" inkscape:window-y="183" inkscape:current-layer="svg2" inkscape:window-maximized="0" showguides="true" inkscape:guide-bbox="true" fit-margin-top="0" fit-margin-left="0" fit-margin-right="0" fit-margin-bottom="0">
    <sodipodi:guide position="35.675688,264.01789" orientation="1,0" id="guide2027" inkscape:locked="false"/>
  </sodipodi:namedview>
  <path style="opacity:1;fill:#ffff00;fill-opacity:1;stroke:#000000;stroke-width:2;stroke-miterlimit:4;stroke-dasharray:none;stroke-opacity:1" d="m 219.59858,207.10406 c -0.11575,-0.1136 -0.21158,-0.32577 -0.21298,-0.47158 -0.004,-0.44268 -0.76946,-1.39024 -1.72915,-2.14113 -1.57223,-1.23015 -2.09559,-2.02576 -2.29307,-3.48599 -0.1448,-1.07064 -0.44971,-1.70626 -0.89789,-1.87179 -0.17956,-0.0663 -0.32616,-0.22651 -0.32579,-0.35603 0.001,-0.39421 0.44855,-1.27788 1.30668,-2.58071 1.89334,-2.8745 2.24702,-4.39373 2.67499,-11.4901 0.78399,-12.99961 -0.16594,-24.77501 -2.59162,-32.12723 -0.98564,-2.98738 -1.8118,-4.46511 -3.8108,-6.81618 -2.55618,-3.0064 -3.88132,-5.60337 -3.66096,-7.17466 0.0471,-0.33373 0.30748,-1.05983 0.57929,-1.6135 0.67671,-1.37846 0.89204,-2.19128 1.09125,-4.1193 0.13766,-1.33147 0.24743,-1.81098 0.56693,-2.47602 0.9052,-1.88377 2.84728,-2.98154 6.20817,-3.50922 1.66103,-0.2608 4.83869,-0.25363 6.50086,0.0146 3.04908,0.49213 5.63905,1.46162 7.42948,2.78102 1.12875,0.8318 1.67992,1.57841 2.12065,2.87259 0.48738,1.43117 0.91514,2.24539 2.08471,3.9681 1.60031,2.35714 2.11135,4.01544 2.01916,6.55201 -0.0842,2.3145 -0.76211,3.58215 -2.0378,3.81021 -0.97682,0.17459 -1.78813,1.45056 -2.71764,4.27402 -1.30269,3.95713 -1.88503,7.74727 -1.84741,12.02403 0.0326,3.73549 0.36382,5.68246 0.99969,5.88122 0.43708,0.13669 0.89494,0.99469 1.54747,2.90015 0.84637,2.47147 1.98951,5.11353 4.67751,10.81097 3.08619,6.54137 3.48934,7.84265 3.21489,10.37683 -0.29674,2.74009 -1.16044,6.07163 -2.03303,7.84189 -0.592,1.20102 -1.07364,1.46147 -1.08198,0.58507 -0.002,-0.21457 -0.0375,-0.38981 -0.0788,-0.38942 -0.26109,0.003 -0.67568,0.40736 -1.37055,1.33842 -0.50981,0.68311 -1.01573,1.1964 -1.41657,1.43717 -0.70568,0.42391 -1.28747,0.45974 -4.67072,0.2876 -2.22389,-0.11316 -3.01765,0.0621 -4.25336,0.9392 -2.25193,1.59836 -5.32093,2.58576 -5.99164,1.92769 v 1e-5 z" id="path2492" inkscape:connector-curvature="0" inkscape:transform-center-x="2.3994763" inkscape:transform-center-y="-33.7073"/>
  <path style="opacity:1;fill:#ffff00;fill-opacity:1;stroke:#000000;stroke-width:2;stroke-miterlimit:4;stroke-dasharray:none;stroke-opacity:1" d="m 261.31081,217.00105 c -0.31674,-0.12473 -1.32495,-0.79037 -2.24045,-1.47929 -2.68826,-2.02287 -4.03626,-2.49135 -7.90655,-2.74783 -2.32525,-0.15407 -3.45403,-0.70636 -4.14852,-2.0297 -0.65343,-1.24506 -0.92412,-2.81695 -0.84449,-4.90393 0.10747,-2.81689 0.67718,-4.65277 2.44103,-7.8663 2.22405,-4.05191 3.0426,-6.1358 3.63712,-9.2593 0.86343,-4.53628 0.92829,-9.30685 0.28795,-21.16844 -0.6942,-12.85848 -1.45797,-19.92832 -2.64512,-24.48403 -0.72366,-2.77707 -1.17675,-3.58559 -2.25704,-4.02743 -0.80131,-0.32774 -0.89094,-0.42734 -0.98144,-1.09042 -0.10765,-0.78902 0.23297,-2.05363 0.72248,-2.68259 0.16791,-0.21573 0.74949,-0.80883 1.29238,-1.31801 1.01567,-0.9526 1.41408,-1.65526 1.68756,-2.97617 0.1982,-0.95728 1.09817,-2.1889 1.87257,-2.56266 0.8366,-0.40377 1.86456,-0.11819 3.90697,1.0853 2.71274,1.59851 3.78573,2.44318 4.32549,3.40507 0.4699,0.83741 0.50474,1.06455 0.68142,4.4423 0.21378,4.09401 0.0724,4.8999 -1.28122,7.28542 -1.59879,2.81755 -1.51914,2.19853 -1.14289,8.8823 0.34546,6.1362 0.51718,11.73662 0.87521,28.53847 l 0.20997,9.85263 2.10633,3.07311 c 2.3741,3.46375 4.06394,6.48514 4.69626,8.39677 0.54654,1.65229 0.69558,4.37349 0.33335,6.08828 -0.33009,1.56318 -1.52668,4.44017 -2.30125,5.53297 -0.59956,0.84591 -2.17761,2.23019 -2.54975,2.23668 -0.11087,0.002 -0.46074,-0.0985 -0.77748,-0.22319 v 0 z" id="path2494" inkscape:connector-curvature="0" inkscape:transform-center-x="-1.5818185" inkscape:transform-center-y="-44.239862"/>
  <path style="opacity:1;fill:#ffff00;fill-opacity:1;stroke:#000000;stroke-width:2;stroke-miterlimit:4;stroke-dasharray:none;stroke-opacity:1" d="m 287.0668,218.53088 c -0.67895,-0.32111 -2.2337,-1.27317 -3.45498,-2.1157 -3.94685,-2.72279 -5.0029,-3.29024 -6.77743,-3.64175 -2.31463,-0.45849 -3.99727,-3.71918 -4.23274,-8.20234 -0.18045,-3.43487 0.28463,-5.53388 2.38021,-10.74311 1.4916,-3.70796 2.48913,-7.2078 2.96992,-10.42023 1.27845,-8.54236 0.70208,-21.87953 -1.38061,-31.94628 -0.68553,-3.31354 -1.41833,-5.61684 -2.59085,-8.14341 -0.51495,-1.10958 -1.05957,-2.61702 -1.21029,-3.34989 -0.54925,-2.67054 0.17154,-5.90434 1.66857,-7.48609 0.97952,-1.03496 2.68929,-1.58858 4.09988,-1.32756 1.2437,0.23013 2.78094,0.80458 4.22504,1.57883 1.62615,0.87184 1.92596,1.51951 2.08241,4.49828 0.14782,2.8136 -0.14747,5.43812 -1.00945,8.97302 -0.75458,3.09446 -0.99177,5.29775 -1.02473,9.5187 -0.0654,8.37603 1.02035,33.92012 1.58958,37.39674 0.42108,2.57184 0.6866,3.32461 2.14694,6.08698 2.38887,4.51869 2.59551,5.25136 2.8378,10.06032 0.27978,5.55226 -0.14061,9.83191 -0.96702,9.84539 -0.0648,0.001 -0.6733,-0.2608 -1.35225,-0.5819 z" id="path2496" inkscape:connector-curvature="0" inkscape:transform-center-y="-41.014676" inkscape:transform-center-x="0.29097313"/>
  <path style="opacity:1;fill:#ffff00;fill-opacity:1;stroke:#000000;stroke-width:2;stroke-miterlimit:4;stroke-dasharray:none;stroke-opacity:1" d="m 307.31358,239.69935 c -0.31216,-0.14309 -2.68403,-2.21897 -5.27081,-4.61307 -4.62889,-4.28407 -6.68052,-5.90834 -7.66529,-6.06858 -1.10327,-0.17953 -1.73318,-0.56379 -2.19205,-1.33724 -0.40031,-0.67471 -0.47691,-1.05721 -0.55111,-2.75169 -0.075,-1.70938 -0.024,-2.15596 0.38675,-3.39785 1.35546,-4.09813 1.32129,-3.90779 1.17192,-6.53195 -0.12766,-2.24172 -0.10512,-2.51262 0.28238,-3.40991 0.23155,-0.5361 0.94676,-1.62468 1.58937,-2.41909 1.90246,-2.35186 2.74483,-3.66968 3.51166,-5.49373 2.00573,-4.77107 2.64308,-11.91612 2.42208,-27.15259 -0.16326,-11.2557 -1.15043,-20.28469 -3.34072,-30.55526 -1.16289,-5.45283 -1.12856,-5.87969 0.56024,-6.97031 0.87866,-0.56743 1.09901,-0.62791 2.28698,-0.62761 1.76651,4.4e-4 3.52217,0.72858 4.98933,2.06931 1.31048,1.19753 1.99727,2.48655 2.2534,4.22919 0.28937,1.96878 0.42956,2.20636 1.19606,2.02653 0.36204,-0.085 0.68696,-0.0693 0.75922,0.0367 0.20399,0.2991 -0.31517,2.49472 -1.51493,6.40693 -2.78399,9.07811 -3.92003,18.48005 -3.81517,31.57464 0.0809,10.1048 1.06223,17.57255 3.28942,25.03252 1.57186,5.26486 2.01305,8.6051 2.28572,17.30435 l 0.18339,5.84917 -0.4897,2.05231 c -0.79504,3.33206 -1.11373,4.36682 -1.44639,4.69627 -0.28281,0.2801 -0.37074,0.28518 -0.88171,0.0509 v 0 z" id="path2498" inkscape:connector-curvature="0" inkscape:transform-center-x="-0.62339313" inkscape:transform-center-y="-45.320303"/>
  <path style="opacity:1;fill:#ffff00;fill-opacity:1;stroke:#000000;stroke-width:2;stroke-miterlimit:4;stroke-dasharray:none;stroke-opacity:1" d="m 320.84099,260.14957 c -0.63428,-0.53978 -1.34274,-1.62747 -4.79582,-7.36285 -5.05187,-8.3909 -5.12748,-8.65889 -3.698,-13.10502 0.93755,-2.91607 1.18985,-5.06451 1.39139,-11.84741 0.19267,-6.48548 0.27237,-7.31649 1.11346,-11.60979 1.31587,-6.7168 3.48107,-23.9479 4.24626,-33.79236 0.34573,-4.44784 0.27457,-7.14895 -0.30247,-11.48227 -0.90433,-6.79093 -0.56636,-15.43961 0.70492,-18.03965 0.31899,-0.65243 0.37503,-0.68225 1.22691,-0.65314 1.47714,0.0505 4.20105,1.73872 6.49763,4.02716 2.38924,2.38078 2.48303,4.22673 0.60887,11.98318 -1.49367,6.18168 -2.06893,10.10037 -2.93318,19.9807 -0.26174,2.99241 -0.91379,9.53539 -1.44899,14.53994 -0.92054,8.60778 -0.97329,9.37276 -0.97742,14.16473 -0.004,4.87254 0.0152,5.1481 0.50841,7.23311 0.28202,1.19217 0.98129,3.68272 1.55392,5.53456 2.27016,7.34147 2.3805,8.25928 1.37765,11.45813 -0.83405,2.66045 -0.8163,3.78645 0.0978,6.20017 0.47783,1.26173 0.68104,2.05728 0.60393,2.36446 -0.0639,0.25461 -0.62839,0.96107 -1.25443,1.5699 -1.40467,1.3661 -1.55765,1.89079 -1.27742,4.38159 0.2569,2.28338 0.0414,3.18886 -0.99359,4.17437 -0.86358,0.8223 -1.51741,0.90382 -2.24985,0.28048 z" id="path2500" inkscape:connector-curvature="0"/>
  <path style="opacity:1;fill:#99ff66;fill-opacity:1;stroke:#000000;stroke-width:2;stroke-miterlimit:4;stroke-dasharray:none;stroke-opacity:1" d="m 229.22795,124.89753 c -0.23729,-0.0654 -0.88682,-0.40871 -1.44337,-0.76298 -2.18794,-1.39269 -4.71308,-1.31657 -11.97351,0.36097 -2.76681,0.63928 -5.28458,1.16935 -5.59505,1.17795 -0.81261,0.0226 -1.51053,-0.57768 -1.54766,-1.33084 -0.039,-0.7863 1.03513,-2.85148 2.16396,-4.16135 2.27466,-2.63951 2.69818,-3.62287 2.49631,-5.79627 -0.0778,-0.83721 -0.10996,-2.70681 -0.0715,-4.15467 0.0385,-1.44786 0.0613,-3.19226 0.0518,-3.87643 -0.0545,-3.70571 -1.32281,-9.01718 -3.38026,-14.150411 -2.72382,-6.795842 -2.453,-9.231393 1.1344,-10.202236 1.37651,-0.372564 1.85614,-0.323932 1.99927,0.20251 0.33962,1.249258 3.96203,1.493789 8.61548,0.58159 1.92229,-0.376817 2.76173,-0.319207 3.38379,0.232221 1.11272,0.986434 1.05284,3.234344 -0.26374,9.897476 -1.8279,9.25128 -1.54466,11.58749 2.32022,19.1377 0.79887,1.56063 1.60949,3.35401 1.80136,3.98528 0.33319,1.09636 0.32785,1.17541 -0.10987,1.76232 -0.56857,0.76158 -0.47561,1.1713 0.70509,3.10788 1.21921,1.99973 1.38813,2.85354 0.73449,3.71237 -0.28481,0.3742 -0.4779,0.42656 -1.0212,0.27692 l -1e-5,1e-5 z" id="path2504" inkscape:connector-curvature="0" inkscape:transform-center-y="-20.681598" inkscape:transform-center-x="0.30926523"/>
  <path style="opacity:1;fill:#99ff66;fill-opacity:1;stroke:#000000;stroke-width:2;stroke-miterlimit:4;stroke-dasharray:none;stroke-opacity:1" d="m 258.4408,126.09311 c -3.90359,-2.68818 -5.26336,-2.76581 -8.24408,-0.47069 -0.81875,0.63043 -1.59213,1.1558 -1.71862,1.16749 -0.36303,0.0331 -0.5362,-0.76157 -0.59481,-2.73117 -0.0621,-2.08627 0.17293,-3.14603 1.10095,-4.96405 0.79984,-1.56692 1.39493,-3.4552 2.01081,-6.38051 1.44174,-6.84807 1.41576,-8.9862 -0.1604,-13.20029 -2.16821,-5.796995 -3.29688,-9.748013 -3.77563,-13.21704 -0.25253,-1.829801 -0.24679,-2.034525 0.0699,-2.490816 0.28182,-0.406023 0.51095,-0.509949 1.25009,-0.566995 1.10511,-0.08528 2.08174,0.214964 2.24628,0.690565 0.19255,0.556642 1.39335,0.830573 3.65679,0.834194 2.30479,0.0037 3.19739,0.13983 3.75765,0.573121 0.51483,0.398157 0.52176,1.057353 0.0152,1.448296 -0.6872,0.530384 -0.66734,1.151805 0.0856,2.678618 0.37134,0.753003 0.69304,1.599985 0.71488,1.882176 0.0618,0.798207 -0.31413,2.295963 -1.17272,4.67186 -0.43327,1.199013 -0.93909,2.996186 -1.12403,3.993711 -0.30354,1.63711 -0.30987,2.17804 -0.065,5.55615 0.23799,3.28236 0.34362,3.97828 0.85939,5.66053 0.86732,2.82903 1.76973,4.6748 3.43671,7.0295 1.96203,2.77147 2.37155,3.53652 2.28348,4.26611 -0.0757,0.62695 -2.54224,4.6541 -2.85446,4.66047 -0.10333,0.002 -0.90345,-0.48895 -1.77805,-1.09123 v -10e-6 z" id="path2506" inkscape:connector-curvature="0" inkscape:transform-center-x="-0.81892197" inkscape:transform-center-y="-21.736275"/>
  <path style="opacity:1;fill:#99ff66;fill-opacity:1;stroke:#000000;stroke-width:2;stroke-miterlimit:4;stroke-dasharray:none;stroke-opacity:1" d="m 284.12017,130.18402 c -0.21065,-0.0756 -0.73875,-0.47257 -1.17357,-0.88203 -1.2603,-1.18683 -2.4243,-1.61734 -4.36413,-1.61414 -1.44797,0.002 -1.81472,0.0732 -3.00812,0.58088 -1.67952,0.71445 -2.38962,0.71804 -2.50887,0.0127 -0.10257,-0.60693 0.21627,-1.34188 1.31709,-3.03546 1.81683,-2.79521 3.20187,-7.02136 3.72933,-11.37933 0.22988,-1.89952 0.26066,-3.20297 0.13533,-5.73717 -0.18626,-3.76601 -0.52081,-5.28683 -1.81834,-8.26475 -1.38467,-3.17798 -1.88389,-5.315623 -1.4548,-6.229612 0.19529,-0.416011 0.94915,-0.529978 1.76719,-0.267171 0.27814,0.08937 1.53613,0.193601 2.79549,0.231646 2.44895,0.07398 3.64231,0.335128 4.2375,0.927324 0.63819,0.634956 0.48051,3.460419 -0.50754,9.095363 -0.9536,5.43847 -1.25826,9.50614 -1.03503,13.81877 0.23223,4.48508 0.80618,6.733 2.06278,8.07813 1.28491,1.37545 2.26521,3.82036 1.78843,4.46041 -0.23671,0.31776 -1.33015,0.43165 -1.96274,0.20443 v 0 z" id="path2508" inkscape:connector-curvature="0" inkscape:transform-center-x="1.6838166" inkscape:transform-center-y="-104.3511"/>
  <path style="opacity:1;fill:#99ff66;fill-opacity:1;stroke:#000000;stroke-width:2;stroke-miterlimit:4;stroke-dasharray:none;stroke-opacity:1" d="m 305.98655,138.09827 c -0.24775,-0.10226 -0.89334,-0.7825 -1.43466,-1.51166 -1.40553,-1.89329 -1.5223,-1.94247 -3.9706,-1.67276 -2.41195,0.2657 -3.25974,0.0673 -3.70291,-0.86672 -0.35132,-0.74047 -0.20326,-1.88698 0.34867,-2.69962 2.44526,-3.60038 3.08731,-6.01845 2.86969,-10.80787 -0.17247,-3.78583 -1.38831,-9.56249 -2.98842,-14.19328 -1.20599,-3.49021 -1.63607,-7.193401 -0.95458,-8.219246 0.20618,-0.310381 0.30926,-0.302091 1.54407,0.124222 2.19766,0.758741 4.93196,2.048914 5.49199,2.591394 0.85881,0.8319 0.98887,1.38154 1.15744,4.89193 0.17679,3.68173 0.16664,4.63014 -0.13841,12.87474 -0.13349,3.60776 -0.15029,6.65707 -0.0441,7.99627 l 0.17175,2.16467 1.50572,2.80745 c 1.305,2.43313 1.52337,2.97245 1.63793,4.0452 0.14137,1.32347 -0.0397,1.96581 -0.67888,2.40878 -0.27305,0.18922 -0.47701,0.20587 -0.81468,0.0665 z" id="path2510" inkscape:connector-curvature="0" inkscape:transform-center-x="-1.4326219" inkscape:transform-center-y="-116.38874"/>
  <path style="opacity:1;fill:#99ff66;fill-opacity:1;stroke:#000000;stroke-width:2;stroke-miterlimit:4;stroke-dasharray:none;stroke-opacity:1" d="m 326.91881,151.97159 c -0.47211,-0.33536 -1.36882,-1.04991 -1.99269,-1.58789 -1.40833,-1.21449 -2.24251,-1.47336 -3.84714,-1.19393 -1.43262,0.24947 -1.78672,0.25343 -1.78672,0.0199 0,-0.10022 0.38882,-0.83894 0.86406,-1.64161 3.3359,-5.63426 3.83287,-9.22089 2.32398,-16.77199 -0.90129,-4.51031 -1.1175,-5.96369 -1.12102,-7.53521 -0.007,-2.96891 0.84787,-3.60474 3.81569,-2.83909 1.45801,0.37615 2.46275,0.93501 2.72813,1.51744 0.36755,0.80669 0.22265,2.19805 -0.53599,5.147 -1.1323,4.40135 -1.3659,6.13259 -1.37689,10.20468 -0.0144,5.34809 0.60798,8.16587 2.343,10.60762 0.47364,0.66657 1.00078,1.62676 1.17143,2.13375 0.75647,2.24759 -0.65818,3.30854 -2.58584,1.93929 z" id="path2512" inkscape:connector-curvature="0"/>
  <path style="opacity:1;fill:#99ccff;fill-opacity:1;stroke:#000000;stroke-width:2;stroke-miterlimit:4;stroke-dasharray:none;stroke-opacity:1" d="m 255.15628,81.538209 c -0.39434,-0.06439 -0.83301,-0.351091 -1.16541,-0.761714 -0.2523,-0.311669 -0.71949,-0.503931 -1.55437,-0.639669 -1.08777,-0.17686 -1.34368,-0.17649 -3.97796,0.0057 l -2.28631,0.158168 0.44884,-0.816474 c 1.09723,-1.995919 1.25743,-2.300749 1.43056,-2.722038 0.20882,-0.508174 0.36666,-1.052235 0.46893,-1.616381 0.13138,-0.724678 0.14188,-0.959229 0.0797,-1.785833 -0.0524,-0.702025 -0.0681,-0.802149 -0.19724,-1.298686 -0.12208,-0.469119 -0.14638,-0.618484 -0.18989,-1.166197 -0.0427,-0.538855 -0.0425,-0.677839 2.6e-4,-0.977353 0.0977,-0.681888 0.30425,-1.273724 0.65164,-1.867354 0.23039,-0.393718 0.35099,-0.560212 0.83345,-1.150514 0.55384,-0.670621 0.56686,-0.612885 1.43393,-0.680974 0.32083,-0.02435 0.42004,-0.04016 0.66407,-0.109837 0.0469,0.242247 0.31513,0.688974 0.62411,1.039676 0.35321,0.400917 0.91098,0.878689 1.61681,1.384915 1.66614,1.194983 2.54127,2.35786 2.69219,3.577434 0.0665,0.537385 0.007,0.872856 -0.22733,1.285743 -0.13135,0.231281 -0.24153,0.356657 -0.54545,0.620699 -0.3933,0.341691 -0.4751,0.561945 -0.40838,1.099753 0.048,0.387354 0.21952,0.827434 0.51019,1.309396 0.59332,0.983774 0.86754,1.713276 0.97156,2.584657 0.0691,0.578599 0.0355,0.889036 -0.14491,1.341414 -0.10527,0.263998 -0.17665,0.380959 -0.37502,0.614336 -0.4058,0.477376 -0.83064,0.656546 -1.35415,0.571074 v 0 z" id="path2520" inkscape:connector-curvature="0" inkscape:transform-center-x="2.4753139" inkscape:transform-center-y="-53.74427" sodipodi:nodetypes="ccsscsssccccscccssccscssccccc"/>
  <path style="opacity:1;fill:#99ccff;fill-opacity:1;stroke:#000000;stroke-width:2;stroke-miterlimit:4;stroke-dasharray:none;stroke-opacity:1" d="m 277.60574,90.641073 c -0.3862,-0.01351 -0.74549,-0.105828 -1.24562,-0.32007 -0.40019,-0.171428 -0.4898,-0.224973 -0.70288,-0.419937 -0.35998,-0.329385 -0.67062,-0.850419 -0.9821,-1.647345 -0.59423,-1.520256 -0.85307,-3.396832 -0.55339,-4.012108 0.11632,-0.238854 0.16585,-0.255494 1.01318,-0.3404 2.47487,-0.247993 3.78241,-0.163763 4.69395,0.302367 0.26364,0.134814 0.76489,0.58393 0.92997,0.833229 0.33974,0.513103 0.67967,1.362652 0.7799,1.949102 0.0881,0.515621 0.0187,1.001152 -0.2051,1.433661 -0.21849,0.422295 -0.95107,1.11029 -1.68306,1.580599 -0.71022,0.456327 -1.37399,0.664367 -2.04485,0.640902 z" id="path2522" inkscape:connector-curvature="0" inkscape:transform-center-x="3.5241447" inkscape:transform-center-y="-128.91239"/>
  <path style="opacity:1;fill:#99ccff;fill-opacity:1;stroke:#000000;stroke-width:2;stroke-miterlimit:4;stroke-dasharray:none;stroke-opacity:1" d="m 301.3851,96.352315 c -0.39557,-0.06958 -0.87792,-0.3221 -1.98641,-1.039914 -0.7277,-0.471234 -0.93219,-0.585905 -1.36859,-0.767427 -0.76093,-0.316521 -1.27062,-0.373499 -1.68003,-0.187817 -0.28323,0.12845 -0.41545,0.115314 -0.58616,-0.05823 -0.18298,-0.186019 -0.26594,-0.449214 -0.28449,-0.902643 -0.0226,-0.545933 0.0841,-0.835819 0.36468,-0.992625 0.29001,-0.162109 0.67036,-0.13121 1.55356,0.126209 0.67162,0.195758 0.91526,0.231032 0.98244,0.142243 0.0357,-0.04717 0.0279,-0.08114 -0.052,-0.227462 -0.0956,-0.175011 -0.40233,-0.565133 -0.7613,-0.968304 -0.72531,-0.814636 -1.08799,-1.405156 -1.11818,-1.820671 -0.0256,-0.345495 0.13402,-0.485813 0.56763,-0.500429 0.47772,-0.0161 1.11492,0.161015 2.03119,0.564587 1.02447,0.451228 1.65845,0.936433 2.20787,1.689766 0.48148,0.660171 0.75754,1.362758 0.89033,2.265995 0.0657,0.446767 0.11668,1.550928 0.0851,1.844753 -0.0732,0.683718 -0.31827,0.924756 -0.84571,0.831978 v 0 z" id="path2524" inkscape:connector-curvature="0" inkscape:transform-center-x="1.3865733" inkscape:transform-center-y="-141.6764"/>
  <path style="opacity:1;fill:#99ccff;fill-opacity:1;stroke:#000000;stroke-width:2;stroke-miterlimit:4;stroke-dasharray:none;stroke-opacity:1" d="m 326.89482,117.47743 c -0.12067,-0.0891 -0.19867,-0.18214 -0.46619,-0.55635 -0.25012,-0.34988 -0.4538,-0.54286 -0.76436,-0.72424 -0.46969,-0.27431 -0.96641,-0.41429 -1.64953,-0.46482 -0.60554,-0.0448 -0.85883,-0.14207 -1.11854,-0.42954 -0.36122,-0.39983 -0.52582,-1.04799 -0.57416,-2.26094 -0.0219,-0.54891 0.0208,-1.45911 0.0863,-1.84068 0.087,-0.50664 0.26338,-0.83702 0.50569,-0.94702 0.22972,-0.1043 0.41608,-0.0838 0.9516,0.10465 1.09991,0.38705 1.83946,0.60223 2.66968,0.77676 0.59964,0.12607 0.74828,0.18739 0.96344,0.39745 0.20983,0.20486 0.35088,0.47726 0.43706,0.8441 0.0962,0.40923 0.0797,1.48692 -0.0362,2.37277 -0.21558,1.64734 -0.39748,2.43013 -0.62487,2.68912 -0.11892,0.13544 -0.23308,0.14708 -0.37989,0.0387 z" id="path2526" inkscape:connector-curvature="0"/>
  <path style="opacity:1;fill:#ff850c;fill-opacity:1;stroke:#000000;stroke-width:2;stroke-miterlimit:4;stroke-dasharray:none;stroke-opacity:1" d="m 220.05724,76.804002 c -1.81581,0.622904 -4.10047,1.223549 -5.08447,1.336725 -0.43154,0.04963 -1.20208,0.04536 -1.7123,-0.0095 -1.00849,-0.108441 -2.05197,0.04104 -2.81134,0.40262 -0.86961,0.414102 -1.98388,0.677825 -2.26086,0.535056 -0.36728,-0.189337 -0.75913,-1.058359 -1.32744,-2.943946 -0.98599,-3.271619 -1.27988,-5.04843 -0.96264,-5.819814 0.20916,-0.50859 0.72462,-0.969201 1.50098,-1.34128 1.13062,-0.541845 1.96556,-1.200636 2.65608,-2.095685 1.37686,-1.784703 1.77136,-4.668871 0.89063,-6.511485 -0.42142,-0.881672 -0.24836,-1.947087 0.71256,-4.386912 0.48404,-1.228985 0.47211,-1.802777 -0.0502,-2.415634 -0.41641,-0.488595 -0.46501,-1.164457 -0.11682,-1.624778 0.21883,-0.28925 0.3324,-0.34524 0.81168,-0.400164 1.76205,-0.2019 5.46079,1.532236 6.85661,3.214677 0.7078,0.853158 0.75523,2.490829 0.12795,4.417725 -0.56833,1.745752 -0.47735,3.393305 0.29425,5.329995 0.78614,1.972939 1.77239,3.022519 3.44385,3.664954 1.41907,0.545428 1.70026,0.72721 1.95755,1.265516 0.2792,0.584118 0.25823,1.168171 -0.0809,2.24783 -0.47063,1.498638 -1.42962,3.084678 -2.38761,3.948758 -0.62812,0.566527 -0.5649,0.536041 -2.45775,1.185394 v 2e-6 z" id="path2530" inkscape:connector-curvature="0" inkscape:transform-center-x="4.1957164" inkscape:transform-center-y="-59.087466"/>
  <path style="opacity:1;fill:#ff850c;fill-opacity:1;stroke:#000000;stroke-width:2;stroke-miterlimit:4;stroke-dasharray:none;stroke-opacity:1" d="m 254.76307,64.909579 c -0.6771,-4.21e-4 -0.91328,-0.174901 -1.06497,-0.786756 -0.12521,-0.504419 -0.17258,-0.549529 -0.83654,-0.791888 -0.52046,-0.190007 -0.99167,-0.22685 -1.80771,-0.141342 -1.46473,0.153486 -1.97326,0.148678 -2.43822,-0.02304 -0.84854,-0.313411 -0.67557,-1.023063 0.55398,-2.272855 0.43183,-0.438929 0.8689,-1.025028 0.97128,-1.302442 0.18938,-0.513001 0.1736,-0.578236 -0.43531,-1.8007 -0.38811,-0.778996 -0.007,-1.650553 1.15296,-2.637744 1.04914,-0.892766 1.67141,-0.896794 2.62646,-0.01701 0.40016,0.368652 0.66877,0.755312 0.92498,1.331611 0.34353,0.77201 0.34916,0.844363 0.12042,1.466687 -0.13238,0.360015 -0.24982,0.800775 -0.26106,0.979466 -0.0285,0.45441 0.65105,1.959439 1.48919,3.297896 0.71918,1.148477 0.89059,1.703109 0.64067,2.073124 -0.16569,0.24534 -1.16027,0.625267 -1.63603,0.624975 l 1e-5,-2e-6 z" id="path2532" inkscape:connector-curvature="0" inkscape:transform-center-x="-0.0092039285" inkscape:transform-center-y="-7.6762823"/>
  <path style="opacity:1;fill:#ff850c;fill-opacity:1;stroke:#000000;stroke-width:2;stroke-miterlimit:4;stroke-dasharray:none;stroke-opacity:1" d="m 277.80303,81.160991 c -2.40766,-0.326154 -3.05632,-0.501385 -3.49457,-0.944033 -0.45608,-0.460644 -0.21195,-0.888691 0.90055,-1.57909 0.5508,-0.341813 1.03814,-0.752276 1.14149,-0.961416 0.16586,-0.335601 0.15265,-0.42021 -0.1641,-1.051955 -1.03412,-2.062492 -0.88044,-2.693113 1.54534,-6.340925 l 0.9898,-1.488463 0.50018,0.812406 c 1.56643,2.54436 1.76941,3.572516 1.14642,5.806556 -0.48608,1.74309 -0.41272,2.425902 0.37405,3.481555 0.42627,0.571965 0.56092,0.8748 0.59072,1.328535 0.0344,0.523833 -0.009,0.623537 -0.39548,0.917473 -0.23873,0.181377 -0.52987,0.32926 -0.64696,0.328629 -0.11709,-6.04e-4 -1.23644,-0.139804 -2.48744,-0.309271 z" id="path2534" inkscape:connector-curvature="0" inkscape:transform-center-x="3.5934822" inkscape:transform-center-y="-140.98356"/>
  <path style="opacity:1;fill:#ff850c;fill-opacity:1;stroke:#000000;stroke-width:2;stroke-miterlimit:4;stroke-dasharray:none;stroke-opacity:1" d="m 299.38285,86.145673 c -1.15881,-0.602511 -2.12894,-1.152743 -2.15582,-1.222744 -0.0269,-0.07 0.22418,-0.838843 0.55796,-1.708541 0.33376,-0.869694 0.60538,-1.776743 0.6036,-2.015659 -0.003,-0.443046 -0.37271,-1.099761 -0.61258,-1.08896 -0.073,0.0033 -0.19835,-0.145663 -0.27854,-0.331 -0.22642,-0.523364 0.17645,-1.356484 1.24694,-2.578608 0.82375,-0.940445 0.9776,-1.059499 1.28758,-0.996372 0.60204,0.122608 2.47226,2.600646 2.50458,3.318567 0.007,0.144882 -0.2457,0.537343 -0.56053,0.872139 -0.31482,0.334798 -0.6241,0.765591 -0.68728,0.957321 -0.19337,0.586828 -0.0649,1.825243 0.38259,3.686689 0.44363,1.845678 0.45199,2.181089 0.0546,2.194603 -0.12992,0.0044 -1.18432,-0.484928 -2.34312,-1.087435 v 3e-6 z" id="path2536" inkscape:connector-curvature="0" inkscape:transform-center-x="0.36409518" inkscape:transform-center-y="-152.72777"/>
  <path style="opacity:1;fill:#ff850c;fill-opacity:1;stroke:#000000;stroke-width:2;stroke-miterlimit:4;stroke-dasharray:none;stroke-opacity:1" d="m 324.403,106.41807 c -1.15324,-0.58585 -2.16888,-1.13806 -2.25696,-1.22712 -0.12552,-0.12695 0.11169,-0.39121 1.0981,-1.22323 1.97558,-1.66637 2.40936,-2.45253 2.23258,-4.046184 -0.16579,-1.49439 -0.14364,-2.83718 0.0528,-3.203732 0.62633,-1.16849 1.73772,-0.525003 2.21096,1.280135 0.50754,1.935904 0.81129,7.398351 0.47499,8.541801 -0.38515,1.30949 -1.03616,1.28872 -3.81251,-0.12167 z" id="path2538" inkscape:connector-curvature="0"/>
  <rect style="fill:#ff850c;fill-opacity:1;fill-rule:evenodd;stroke:#000000;stroke-width:1px;stroke-linecap:butt;stroke-linejoin:miter;stroke-opacity:1" id="rect2408" width="160.59604" height="23.263914" x="34.925228" y="35.541576"/>
  <rect style="fill:#99ccff;fill-rule:evenodd;stroke:#000000;stroke-width:1px;stroke-linecap:butt;stroke-linejoin:miter;stroke-opacity:1" id="rect2410" width="160.59604" height="23.263914" x="35.675678" y="62.932961"/>
  <g id="g2041" style="fill:#ccccff;fill-opacity:1" transform="translate(-53.473083,25.232232)">
    <path id="path2478" d="m 275.88428,254.60239 c -1.38018,-0.91266 -1.65537,-1.18951 -2.0643,-2.0767 -0.29519,-0.64046 -0.30377,-0.76368 -0.26771,-3.84554 0.0484,-4.13602 -0.0102,-4.73743 -0.51103,-5.24982 -0.49347,-0.50481 -0.58752,-0.86429 -0.58752,-2.24558 0,-1.36006 0.27982,-2.05065 1.54805,-3.82045 0.91739,-1.28023 4.42307,-4.86201 6.28949,-6.42604 6.50688,-5.45265 14.35133,-10.02321 19.07703,-11.11522 1.07979,-0.24952 1.51938,-0.28675 2.58216,-0.21869 4.13284,0.26469 11.59291,3.6857 17.19206,7.8839 1.53272,1.14924 4.50941,4.07056 5.43994,5.3388 1.42852,1.94697 1.71055,2.9846 1.64058,6.03612 -0.0459,2.00223 -0.0702,2.16977 -0.42924,2.95472 -0.47493,1.03841 -1.38518,1.90887 -3.73031,3.56723 -0.94536,0.66851 -1.75641,1.23564 -1.80235,1.26029 -0.0459,0.0246 -0.94141,-0.7404 -1.98993,-1.70009 -5.89999,-5.40016 -7.5981,-6.21667 -13.25032,-6.3712 -4.84813,-0.13254 -8.0216,0.43425 -11.67281,2.08481 -4.24069,1.91705 -7.22349,4.47956 -11.37534,9.77253 -1.01868,1.29867 -2.37087,2.94326 -3.00487,3.65466 -1.41735,1.59037 -1.45078,1.59597 -3.08358,0.51627 z" style="opacity:1;fill:#ccccff;fill-opacity:1;stroke:#000000;stroke-width:2;stroke-miterlimit:4;stroke-dasharray:none;stroke-opacity:1" inkscape:connector-curvature="0"/>
    <path id="path2480" d="m 345.68307,252.1766 c -2.50706,-0.27648 -4.79996,-1.08904 -6.40291,-2.26906 -1.01395,-0.74644 -2.46874,-1.36082 -4.20519,-1.77594 -1.54287,-0.36884 -3.46729,-0.87755 -4.74751,-1.25496 l -0.89547,-0.26399 0.006,-5.99733 0.006,-5.99733 0.73953,-0.46432 c 3.284,-2.06184 12.4298,-15.56929 15.22526,-22.48618 0.48069,-1.18941 1.00318,-2.95938 1.00318,-3.39839 0,-0.33677 0.36551,-0.6478 0.76126,-0.6478 1.17044,0 5.18922,3.06415 9.30515,7.09476 4.72442,4.62651 7.79543,8.96322 9.06121,12.79572 0.36446,1.10351 0.42017,1.45948 0.427,2.72837 0.007,1.27674 -0.0315,1.53914 -0.30658,2.09773 -0.61709,1.25306 -1.58148,1.94505 -3.35117,2.4047 -1.46239,0.37983 -1.78548,0.60517 -2.29903,1.60338 -0.3867,0.75166 -0.39799,0.82652 -0.39799,2.64036 0,1.69554 0.0338,1.96529 0.36888,2.94073 0.2029,0.59067 0.6753,1.60553 1.04981,2.25525 1.01181,1.75538 1.03386,1.80489 1.03473,2.3242 9.3e-4,0.5418 -0.22568,0.87602 -1.25219,1.84685 -1.26246,1.19399 -2.30377,1.8388 -4.11979,2.55112 -2.96121,1.16152 -7.38233,1.6723 -11.01093,1.27213 z" style="opacity:1;fill:#ccccff;fill-opacity:1;stroke:#000000;stroke-width:2;stroke-miterlimit:4;stroke-dasharray:none;stroke-opacity:1" inkscape:connector-curvature="0"/>
    <path id="path2482" d="m 273.27643,229.37284 c -1.00989,-0.48676 -1.15761,-3.75556 -0.3637,-8.04816 0.48844,-2.64091 1.08197,-4.65793 2.86963,-9.75192 l 1.03475,-2.94854 -0.25689,-0.27951 c -0.14128,-0.15373 -0.88572,-0.93647 -1.65429,-1.73942 -2.21041,-2.30924 -2.99322,-3.40465 -3.30681,-4.62729 -0.32028,-1.24875 -0.0156,-2.45509 1.3559,-5.36896 0.89451,-1.90044 1.19449,-2.76314 1.41906,-4.08101 0.18583,-1.09051 0.46941,-1.74784 1.15592,-2.6794 2.56056,-3.47452 9.05909,-7.44958 14.31734,-8.75771 1.62864,-0.40517 2.37038,-0.50792 3.72272,-0.51569 1.18438,-0.007 1.24443,0.002 1.77385,0.27438 0.88039,0.45215 1.22364,1.06502 1.89139,3.37702 1.05928,3.6676 0.8414,4.61713 -2.52924,11.02222 -2.30966,4.38895 -2.87199,5.78463 -3.16497,7.85529 -0.13594,0.96075 -0.0803,3.68051 0.15181,7.4232 0.29449,4.74841 -0.0124,6.46129 -1.40599,7.84858 -0.6939,0.69073 -1.5917,1.16938 -3.33657,1.77886 -2.98141,1.04138 -5.24359,2.57843 -8.76696,5.95673 -1.50074,1.43894 -3.09829,2.72816 -3.83979,3.0987 -0.59919,0.29941 -0.73914,0.32074 -1.06716,0.16263 z" style="opacity:1;fill:#ccccff;fill-opacity:1;stroke:#000000;stroke-width:2;stroke-miterlimit:4;stroke-dasharray:none;stroke-opacity:1" inkscape:connector-curvature="0"/>
    <path id="path2486" d="m 309.48063,217.99089 c -0.27451,-0.0739 -1.37204,-0.42911 -2.43896,-0.78942 -2.56548,-0.86639 -3.61592,-1.05427 -5.97352,-1.0684 -1.58817,-0.01 -1.9893,0.0224 -3.68247,0.29334 -1.04508,0.16722 -1.921,0.30404 -1.94647,0.30404 -0.0923,0 -0.0437,-7.96746 0.0547,-8.96565 0.30683,-3.11287 1.26995,-6.94478 2.47385,-9.84248 1.34117,-3.22812 3.15123,-5.7776 4.60131,-6.48101 0.54978,-0.26669 0.59658,-0.27288 2.01683,-0.2667 1.1506,0.005 1.63476,0.049 2.32029,0.21097 1.38106,0.32625 2.61911,0.75009 3.73881,1.27998 1.6868,0.79827 2.53094,1.46069 3.07016,2.40924 0.13622,0.23963 0.38078,0.54769 0.54346,0.68458 0.64119,0.53952 0.97434,0.63618 2.98291,0.86539 0.28841,0.0329 0.49464,0.12796 0.68009,0.31341 0.5785,0.5785 0.2713,1.57099 -1.53868,4.9709 -1.27532,2.39561 -1.89257,4.39027 -2.09002,6.75404 -0.20717,2.48006 -0.5295,4.31108 -1.12335,6.38142 -0.52352,1.8251 -0.95668,2.64365 -1.567,2.9612 -0.32687,0.17007 -1.46432,0.1621 -2.12192,-0.0149 z" style="opacity:1;fill:#ccccff;fill-opacity:1;stroke:#000000;stroke-width:2;stroke-miterlimit:4;stroke-dasharray:none;stroke-opacity:1" inkscape:connector-curvature="0"/>
    <path id="path2488" d="m 327.98847,230.24352 c -0.36368,-0.14749 -0.99451,-0.90688 -2.03023,-2.44395 -1.29219,-1.91772 -1.79182,-2.5372 -2.9583,-3.66801 -1.24058,-1.20263 -2.45859,-2.09766 -3.92101,-2.88126 -2.567,-1.37545 -3.70599,-2.1544 -3.70489,-2.53375 8.4e-4,-0.29151 0.80575,-1.9302 1.73582,-3.5339 1.34326,-2.31614 1.78784,-3.1485 2.14387,-4.01375 0.86224,-2.0955 1.2612,-4.3223 1.79347,-10.01027 0.41084,-4.39022 0.62404,-5.87241 1.14018,-7.92661 0.60424,-2.40486 1.61646,-4.17044 2.60678,-4.54696 0.41873,-0.1592 1.02347,-0.11195 1.46848,0.11474 0.22803,0.11615 1.78649,1.22826 3.46328,2.47135 4.31908,3.20198 6.49665,4.67976 9.59776,6.51339 1.38123,0.8167 2.03725,1.42618 2.45165,2.27772 0.79521,1.63407 0.63596,3.67791 -0.71039,9.1168 -0.97777,3.94991 -1.85661,6.01899 -3.40665,8.02042 -0.25973,0.33535 -1.38037,1.53941 -2.49033,2.67567 -2.65534,2.71827 -3.74559,4.25056 -3.89095,5.46855 -0.16801,1.40785 -0.82189,2.80829 -1.93666,4.14783 -0.38175,0.45873 -0.95018,0.87655 -1.13577,0.83486 -0.0146,-0.003 -0.1118,-0.0406 -0.21611,-0.0829 z" style="opacity:1;fill:#ccccff;fill-opacity:1;stroke:#000000;stroke-width:2;stroke-miterlimit:4;stroke-dasharray:none;stroke-opacity:1" inkscape:connector-curvature="0"/>
  </g>
  <rect style="fill:#ccccff;fill-rule:evenodd;stroke:#000000;stroke-width:1px;stroke-linecap:butt;stroke-linejoin:miter;stroke-opacity:1" id="rect2412" width="160.59604" height="23.263914" x="35.675686" y="228.26334"/>
  <rect style="fill:#99ff66;fill-rule:evenodd;stroke:#000000;stroke-width:1px;stroke-linecap:butt;stroke-linejoin:miter;stroke-opacity:1" id="rect2414" width="160.59604" height="23.263914" x="35.675686" y="89.949127"/>
  <rect style="fill:#ffff00;fill-opacity:1;fill-rule:evenodd;stroke:#000000;stroke-width:1px;stroke-linecap:butt;stroke-linejoin:miter;stroke-opacity:1" id="rect2416" width="160.59604" height="23.263914" x="35.675686" y="161.53967"/>
  <text xml:space="preserve" style="font-style:normal;font-weight:normal;line-height:0%;font-family:'Bitstream Vera Sans';opacity:1;fill:#000000;fill-opacity:1;stroke:none;stroke-width:1px;stroke-linecap:butt;stroke-linejoin:miter;stroke-opacity:1" x="224.80551" y="232.91342" id="text2418"><tspan sodipodi:role="line" id="tspan2420" x="224.80551" y="232.91342" style="font-size:18px;line-height:1.25">1</tspan></text>
  <text xml:space="preserve" style="font-style:normal;font-weight:normal;line-height:0%;font-family:'Bitstream Vera Sans';opacity:1;fill:#000000;fill-opacity:1;stroke:none;stroke-width:1px;stroke-linecap:butt;stroke-linejoin:miter;stroke-opacity:1" x="246.2123" y="235.3839" id="text2434"><tspan sodipodi:role="line" id="tspan2436" x="246.2123" y="235.3839" style="font-size:18px;line-height:1.25">2</tspan></text>
  <text xml:space="preserve" style="font-style:normal;font-weight:normal;line-height:0%;font-family:'Bitstream Vera Sans';opacity:1;fill:#000000;fill-opacity:1;stroke:none;stroke-width:1px;stroke-linecap:butt;stroke-linejoin:miter;stroke-opacity:1" x="241.96715" y="260.85498" id="text2446"><tspan sodipodi:role="line" id="tspan2448" x="241.96715" y="260.85498" style="font-size:18px;line-height:1.25">5</tspan></text>
  <text xml:space="preserve" style="font-style:normal;font-weight:normal;line-height:0%;font-family:'Bitstream Vera Sans';opacity:1;fill:#000000;fill-opacity:1;stroke:none;stroke-width:1px;stroke-linecap:butt;stroke-linejoin:miter;stroke-opacity:1" x="288.66415" y="264.56952" id="text2450"><tspan sodipodi:role="line" id="tspan2452" x="288.66415" y="264.56952" style="font-size:18px;line-height:1.25">4</tspan></text>
  <text xml:space="preserve" style="font-style:normal;font-weight:normal;line-height:0%;font-family:'Bitstream Vera Sans';opacity:1;fill:#000000;fill-opacity:1;stroke:none;stroke-width:1px;stroke-linecap:butt;stroke-linejoin:miter;stroke-opacity:1" x="270.35678" y="240.42505" id="text2454"><tspan sodipodi:role="line" id="tspan2456" x="270.35678" y="240.42505" style="font-size:18px;line-height:1.25">3</tspan></text>
  <text xml:space="preserve" style="font-style:normal;font-weight:normal;line-height:0%;font-family:'Bitstream Vera Sans';fill:#000000;fill-opacity:1;stroke:none;stroke-width:1px;stroke-linecap:butt;stroke-linejoin:miter;stroke-opacity:1" x="38" y="51.301003" id="text2458"><tspan sodipodi:role="line" id="tspan2460" x="42" y="51.301003" style="font-size:13px;line-height:1.25">Distal phalanges</tspan></text>
  <text xml:space="preserve" style="font-style:normal;font-weight:normal;line-height:0%;font-family:'Bitstream Vera Sans';fill:#000000;fill-opacity:1;stroke:none;stroke-width:1px;stroke-linecap:butt;stroke-linejoin:miter;stroke-opacity:1" x="38" y="76.450249" id="text2462" transform="scale(0.97616203,1.0244201)"><tspan sodipodi:role="line" id="tspan2464" x="42" y="76.450249" style="font-size:13px;line-height:1.25">Intermediate phalanges</tspan></text>
  <text xml:space="preserve" style="font-style:normal;font-weight:normal;line-height:0%;font-family:'Bitstream Vera Sans';fill:#000000;fill-opacity:1;stroke:none;stroke-width:1px;stroke-linecap:butt;stroke-linejoin:miter;stroke-opacity:1" x="38" y="102.02726" id="text2466" transform="scale(0.96861306,1.032404)"><tspan sodipodi:role="line" id="tspan2468" x="42" y="102.02726" style="font-size:13px;line-height:1.25">Proximal phalanges</tspan></text>
  <text xml:space="preserve" style="font-style:normal;font-weight:normal;line-height:0%;font-family:'Bitstream Vera Sans';fill:#000000;fill-opacity:1;stroke:none;stroke-width:1px;stroke-linecap:butt;stroke-linejoin:miter;stroke-opacity:1" x="38" y="165.70096" id="text2470" transform="scale(0.92868799,1.0767879)"><tspan sodipodi:role="line" id="tspan2472" x="42" y="165.70096" style="font-size:13px;line-height:1.25">Metatarsals</tspan></text>
  <text xml:space="preserve" style="font-style:normal;font-weight:normal;line-height:0%;font-family:'Bitstream Vera Sans';fill:#000000;fill-opacity:1;stroke:none;stroke-width:1px;stroke-linecap:butt;stroke-linejoin:miter;stroke-opacity:1" x="38" y="245.14844" id="text2474"><tspan sodipodi:role="line" id="tspan2476" x="42" y="245.14844" style="font-size:13px;line-height:1.25">Tarsals</tspan></text>
  <text xml:space="preserve" style="font-style:normal;font-weight:normal;line-height:0%;font-family:'Bitstream Vera Sans';fill:#000000;fill-opacity:1;stroke:none;stroke-width:1px;stroke-linecap:butt;stroke-linejoin:miter;stroke-opacity:1" x="37.471809" y="279.05542" id="text2478"><tspan sodipodi:role="line" x="45" y="279.05542" id="tspan2486" style="font-size:12px;line-height:1.25">1. Medial cuneiform</tspan><tspan sodipodi:role="line" x="45" y="294.05542" style="font-size:12px;line-height:1.25" id="tspan2047">2. Intermediate cuneiform</tspan><tspan sodipodi:role="line" x="45" y="309.05542" id="tspan2492" style="font-size:12px;line-height:1.25">3. Lateral cuneiform</tspan><tspan sodipodi:role="line" x="45" y="324.05542" id="tspan2494" style="font-size:12px;line-height:1.25">4. Cuboid</tspan><tspan sodipodi:role="line" x="45" y="339.05542" style="font-size:12px;line-height:1.25" id="tspan905">5. Navicular</tspan><tspan sodipodi:role="line" x="45" y="354.05542" style="font-size:12px;line-height:1.25" id="tspan907">6. Calcaneus</tspan><tspan sodipodi:role="line" x="45" y="369.05542" style="font-size:12px;line-height:1.25" id="tspan909">7. Talus</tspan></text>
  <text xml:space="preserve" style="font-style:normal;font-weight:normal;line-height:0%;font-family:'Bitstream Vera Sans';opacity:1;fill:#000000;fill-opacity:1;stroke:none" x="214.79805" y="46.162338" id="text2456"><tspan sodipodi:role="line" id="tspan2458" x="214.79805" y="46.162338" style="font-size:12px;line-height:1.25">I</tspan></text>
  <text xml:space="preserve" style="font-style:normal;font-weight:normal;line-height:0%;font-family:'Bitstream Vera Sans';opacity:1;fill:#000000;fill-opacity:1;stroke:none" x="248.8336" y="50.070007" id="text2460"><tspan sodipodi:role="line" id="tspan2462" x="248.8336" y="50.070007" style="font-size:12px;line-height:1.25">II</tspan></text>
  <text xml:space="preserve" style="font-style:normal;font-weight:normal;line-height:0%;font-family:'Bitstream Vera Sans';opacity:1;fill:#000000;fill-opacity:1;stroke:none" x="273.57822" y="61.868439" id="text2464"><tspan sodipodi:role="line" id="tspan2466" x="273.57822" y="61.868439" style="font-size:12px;line-height:1.25">III</tspan></text>
  <text xml:space="preserve" style="font-style:normal;font-weight:normal;line-height:0%;font-family:'Bitstream Vera Sans';opacity:1;fill:#000000;fill-opacity:1;stroke:none" x="294.49973" y="69.153122" id="text2468"><tspan sodipodi:role="line" id="tspan2470" x="294.49973" y="69.153122" style="font-size:12px;line-height:1.25">IV</tspan></text>
  <text xml:space="preserve" style="font-style:normal;font-weight:normal;line-height:0%;font-family:'Bitstream Vera Sans';opacity:1;fill:#000000;fill-opacity:1;stroke:none" x="323.42648" y="89.597336" id="text2472"><tspan sodipodi:role="line" id="tspan2474" x="323.42648" y="89.597336" style="font-size:12px;line-height:1.25">V</tspan></text>
  <text xml:space="preserve" style="font-style:normal;font-weight:normal;line-height:0%;font-family:'Bitstream Vera Sans';opacity:1;fill:#000000;fill-opacity:1;stroke:none" x="256" y="-58.8" id="text2467" transform="rotate(19.8)"><tspan sodipodi:role="line" id="tspan2469" x="256" y="-58.8" style="font-size:12px;line-height:1.25">Digits</tspan></text>
  <path style="opacity:1;fill:none;stroke:#000000;stroke-width:1px;stroke-linecap:butt;stroke-linejoin:miter;stroke-opacity:1" d="m 208.13612,31.718574 c 55.71798,-1.326618 121.25294,33.430791 129.47797,48.28892" id="path2471" inkscape:connector-curvature="0" sodipodi:nodetypes="cc"/>
  <path style="opacity:1;fill:#ccccff;fill-opacity:1;stroke:#000000;stroke-width:2;stroke-miterlimit:4;stroke-dasharray:none;stroke-opacity:1" d="m 274.83263,275.8705 c -1.19188,-0.005 -1.30042,0.0171 -1.75976,0.36718 -1.26729,0.9658 -2.14949,4.17084 -1.63477,5.94141 0.60075,2.06651 2.26187,3.03898 5.65235,3.31055 2.0133,0.16126 2.93099,0.39484 4.28907,1.08984 1.83696,0.94005 3.05388,2.7985 4.27343,6.52149 0.62115,1.8962 0.98693,3.90296 1.13672,6.24414 0.14214,2.22128 0.28176,3.14982 0.67774,4.51171 0.69877,2.40331 2.30532,4.97784 3.75586,6.01954 0.32179,0.23108 1.24867,0.71337 2.06054,1.07226 3.84179,1.69828 5.48668,3.46531 6.18164,6.63867 0.10387,0.47427 0.27476,2.41016 0.38086,4.30274 0.39473,2.55294 -2.33789,6.06055 -2.33789,6.06055 -1.02796,0.089 -2.39054,0.9653 -4.18945,2.67968 -3.31023,3.15469 -6.47724,8.12952 -8.46094,13.28906 -2.10582,5.47724 -2.89767,7.2106 -3.95508,8.64454 -0.62405,0.84629 -1.42787,1.48526 -2.19336,1.74609 -2.74834,0.93643 -10.4896,-1.11244 -10.93555,-2.89453 -0.22589,-0.90263 -1.25955,-1.62766 -3.01563,-2.11524 -2.91455,-0.80924 -6.54636,-0.23923 -7.57812,1.1875 -0.13192,0.18241 -0.29448,0.68918 -0.36328,1.12696 -0.20903,1.32953 -0.94744,2.36969 -2.50586,3.53125 -1.28935,0.96101 -2.36647,2.05678 -2.70899,2.75781 -0.37841,0.77438 -0.40625,2.15979 -0.0645,3.1543 0.52622,1.53087 2.2223,3.91218 4.79883,6.74022 4.13612,4.53984 5.35235,6.2105 5.57031,7.64649 0.19085,1.25737 2.03904,2.74106 4.23047,3.39453 0.76892,0.22928 2.16128,0.2692 3.75,0.10937 1.03804,-0.10442 1.11718,-0.093 1.92383,0.28906 0.53446,0.25313 1.37361,0.87026 2.30078,1.69141 2.15291,1.9067 3.07152,2.29518 5.77149,2.44141 0.83909,0.0457 1.91245,0.0683 2.38672,0.0508 3.18354,-0.1177 10.28802,-0.79804 12.7832,-1.22461 8.03949,-1.37442 12.31075,-4.41373 13.33399,-9.48828 0.38909,-1.92972 0.27217,-4.05037 -0.39453,-7.14452 -0.22255,-1.03285 -0.43742,-2.45314 -0.47852,-3.15821 l -0.0742,-1.2832 0.53907,-0.80859 c 1.00424,-1.50384 1.81264,-4.23237 2.16015,-7.29493 0.34683,-3.05667 -0.25538,-4.88494 -2.45898,-7.48242 -0.73889,-0.87097 -2.16701,-1.94726 -2.58399,-1.94726 -0.19165,0 -0.22225,-0.81647 -0.15429,-2.14453 l 1.81445,-4.22461 c 0.23734,-2.22269 0.86943,-6.26311 1.26758,-8.0918 0.73723,-3.38591 2.02548,-7.94127 3.77929,-13.37109 0.69022,-2.13694 1.21101,-3.95643 1.15821,-4.04493 -0.0529,-0.0885 -1.52378,-2.23786 -3.26953,-4.77539 l -3.17383,-4.61328 0.875,-3.14844 c 1.59776,-5.74347 1.73723,-6.3986 1.74023,-8.1875 l 0.002,-1.59179 -0.67969,-1.52539 c -0.71944,-1.61489 -1.32479,-3.39914 -1.70899,-5.04102 -0.28806,-1.23097 -0.63029,-1.87223 -1.17382,-2.20117 -0.72449,-0.43849 -3.83871,-0.34076 -8.50977,0.26758 -6.31195,0.82206 -7.21033,0.67658 -13.79687,-2.2461 -2.48839,-1.10418 -4.87566,-2.05705 -6.16993,-2.46289 -0.74565,-0.23377 -1.31177,-0.3124 -2.26368,-0.3164 z" id="path2468-6" inkscape:connector-curvature="0" sodipodi:nodetypes="cccscccccscccscccccccsccccccccccscccccccsccccccccccccccccc"/>
  <path inkscape:connector-curvature="0" style="opacity:1;fill:#ccccff;fill-opacity:1;stroke:#000000;stroke-width:2;stroke-miterlimit:4;stroke-dasharray:none;stroke-opacity:1" d="m 249.48302,266.79628 c -0.28425,-0.002 -0.56862,0.006 -0.84961,0.0215 -5.65461,0.3176 -11.45662,4.11348 -16.46288,10.77149 -1.59198,2.11725 -2.34011,3.47838 -2.90039,5.27539 -0.31265,1.00281 -0.35333,1.31942 -0.29883,2.32031 0.0736,1.35015 0.39667,2.30301 1.18164,3.47852 0.39402,0.59006 0.64139,0.82545 0.95313,0.90625 0.11111,0.0288 0.8976,1.15211 1.91797,2.64257 -0.0142,0.0658 -0.0336,0.13061 -0.043,0.19727 -0.0545,0.38559 -0.0984,1.92416 -0.0977,3.41992 0.002,4.40642 0.4677,7.06397 1.92188,10.94531 1.63687,4.36896 2.20978,6.69081 3.61132,14.66602 1.19978,6.82709 2.36347,10.78707 3.25585,11.07031 0.58896,0.18692 1.06814,1.26319 1.71876,3.86328 1.10213,4.40467 3.41254,9.10031 5.36328,10.89844 0.6008,0.5538 1.1284,0.73026 2.87109,0.96094 2.12462,0.28123 5.18867,0.0739 8.0918,-0.54492 0.98774,-0.21049 1.85747,-0.29678 2.98633,-0.30078 1.46091,-0.005 1.66179,0.0252 2.45312,0.36914 0.54116,0.23518 0.98899,0.37145 1.35352,0.42187 1.38157,1.59018 2.82098,2.90443 3.4414,3.26367 0.74877,0.43357 1.19305,0.57232 3.75781,1.17578 1.17003,0.27529 2.33643,0.50286 2.5918,0.50586 2.24968,0.0223 4.15109,-2.53405 6.95118,-9.33789 3.45318,-8.39085 4.90614,-10.34567 12.33985,-16.59961 2.50098,-2.10407 3.10384,-3.13384 3.22851,-5.52148 0.17298,-3.31273 -1.4221,-6.19431 -4.81054,-8.69336 -0.94268,-0.69525 -2.2012,-1.35547 -2.5879,-1.35547 -0.32724,0 -0.95953,-0.31071 -1.56054,-0.76758 -0.64495,-0.49026 -1.60101,-1.75057 -2.73047,-3.59765 -0.55322,-0.90471 -1.0313,-1.5614 -1.0625,-1.45899 -0.0827,0.27096 -0.92908,0.044 -1.9043,-0.25195 -0.14659,-3.58008 -0.36172,-6.43193 -0.64062,-8.29883 -0.56359,-3.7726 -1.58583,-6.36478 -2.83789,-7.19336 -1.25078,-0.82772 -4.14983,-1.49122 -8.36525,-1.91406 -1.98482,-0.19909 -3.38694,-0.36782 -4.54492,-0.54492 -0.17786,-0.93051 -0.27636,-1.52021 -0.24023,-1.51953 0.55916,0.01 0.59343,-0.0122 0.70507,-0.43946 0.12912,-0.49423 -0.16771,-3.32959 -0.49804,-4.7539 -0.25747,-1.11019 -0.85679,-2.40044 -1.59961,-3.44141 -2.04156,-2.86099 -7.84075,-7.76831 -11.15039,-9.4375 -1.49182,-0.75239 -3.52,-1.18853 -5.50977,-1.20117 z" id="path2470-75"/>
  <path style="opacity:1;fill:#ccccff;fill-opacity:1;stroke:#a9a9ff;stroke-width:2;stroke-miterlimit:4;stroke-dasharray:none;stroke-opacity:1" d="m 251.67622,348.15981 c -1.74269,-0.23068 -2.26963,-0.40707 -2.87043,-0.96087 -1.95074,-1.79813 -4.26169,-6.49346 -5.36383,-10.89813 -0.65061,-2.60009 -1.12946,-3.67676 -1.7184,-3.86368 -0.89239,-0.28324 -2.05711,-4.24156 -3.25689,-11.06865 -1.40154,-7.97521 -1.97324,-10.29784 -3.61011,-14.6668 -1.45418,-3.88134 -1.92108,-6.53818 -1.92335,-10.9446 -7.7e-4,-1.49576 0.0431,-3.03505 0.0976,-3.42064 0.31909,-2.26057 3.40096,-4.02344 8.66756,-4.95793 1.37938,-0.24476 2.1818,-0.2999 4.40609,-0.30275 3.27037,-0.004 4.19725,0.15149 7.01416,1.17822 2.51984,0.91846 3.69847,1.17606 5.09236,1.11299 1.29125,-0.0584 2.20064,-0.42435 3.19482,-1.28554 1.36997,-1.18672 2.34518,-1.40718 4.26628,-0.9645 1.53825,0.35447 3.32302,0.60618 6.69943,0.94486 4.21542,0.42284 7.11462,1.08612 8.3654,1.91384 1.25206,0.82858 2.2749,3.42062 2.83849,7.19322 0.34331,2.29803 0.59522,6.02709 0.73364,10.85945 0.2054,7.1706 0.53605,12.82141 0.94315,16.11842 0.25215,2.04218 0.35687,4.54912 0.22996,5.50546 -0.0752,0.56653 -0.30056,1.3067 -0.57797,1.89819 -0.75354,1.60669 -2.01093,2.68007 -5.27786,4.50549 -0.71603,0.40009 -1.77081,1.06311 -2.34396,1.47339 -2.80426,2.00738 -6.96153,6.32911 -9.04059,9.39822 -0.35689,0.52684 -0.77427,1.02498 -0.9275,1.107 -0.38752,0.20739 -1.09381,0.09 -2.1065,-0.3501 -0.79133,-0.34391 -0.99333,-0.37434 -2.45425,-0.36975 -1.12884,0.004 -1.99715,0.0914 -2.98489,0.30189 -2.90313,0.61878 -5.96775,0.82453 -8.09237,0.5433 z" id="path2470-7" inkscape:connector-curvature="0"/>
  <text xml:space="preserve" style="font-style:normal;font-weight:normal;line-height:0%;font-family:'Bitstream Vera Sans';opacity:1;fill:#010101;fill-opacity:1;stroke:none;stroke-width:1px;stroke-linecap:butt;stroke-linejoin:miter;stroke-opacity:1" x="252.85187" y="319.6669" id="text2438-3"><tspan sodipodi:role="line" id="tspan2440-5" x="252.85187" y="319.6669" style="font-size:18px;line-height:1.25;fill:#010101;fill-opacity:1;stroke:none">7</tspan></text>
  <text xml:space="preserve" style="font-style:normal;font-weight:normal;line-height:0%;font-family:'Bitstream Vera Sans';opacity:1;fill:#010101;fill-opacity:1;stroke:none;stroke-width:0.463;stroke-linecap:butt;stroke-linejoin:miter;stroke-miterlimit:4;stroke-dasharray:none;stroke-opacity:1" x="290.61441" y="301.05447" id="text2442-3"><tspan sodipodi:role="line" id="tspan2444-6" x="290.61441" y="301.05447" style="font-size:18px;line-height:1.25;fill:#010101;fill-opacity:1;stroke:none">6</tspan></text>
  <path inkscape:connector-curvature="0" style="opacity:1;fill:none;fill-opacity:1;stroke:#000000;stroke-width:2;stroke-miterlimit:4;stroke-dasharray:none;stroke-opacity:1" d="m 249.48302,266.79628 c -0.28425,-0.002 -0.56862,0.006 -0.84961,0.0215 -5.65461,0.3176 -11.45662,4.11348 -16.46288,10.77149 -1.59198,2.11725 -2.34011,3.47838 -2.90039,5.27539 -0.31265,1.00281 -0.35333,1.31942 -0.29883,2.32031 0.0736,1.35015 0.39667,2.30301 1.18164,3.47852 0.39402,0.59006 0.64139,0.82545 0.95313,0.90625 0.11111,0.0288 0.8976,1.15211 1.91797,2.64257 -0.0142,0.0658 -0.0336,0.13061 -0.043,0.19727 -0.0545,0.38559 -0.0984,1.92416 -0.0977,3.41992 0.002,4.40642 0.4677,7.06397 1.92188,10.94531 1.63687,4.36896 2.20978,6.69081 3.61132,14.66602 1.19978,6.82709 2.36347,10.78707 3.25585,11.07031 0.58896,0.18692 1.06814,1.26319 1.71876,3.86328 1.10213,4.40467 3.41254,9.10031 5.36328,10.89844 0.6008,0.5538 1.1284,0.73026 2.87109,0.96094 2.12462,0.28123 5.18867,0.0739 8.0918,-0.54492 0.98774,-0.21049 1.85747,-0.29678 2.98633,-0.30078 1.46091,-0.005 1.66179,0.0252 2.45312,0.36914 0.54116,0.23518 0.98899,0.37145 1.35352,0.42187 1.38157,1.59018 2.82098,2.90443 3.4414,3.26367 0.74877,0.43357 1.19305,0.57232 3.75781,1.17578 1.17003,0.27529 2.33643,0.50286 2.5918,0.50586 2.24968,0.0223 4.15109,-2.53405 6.95118,-9.33789 3.45318,-8.39085 4.90614,-10.34567 12.33985,-16.59961 2.50098,-2.10407 3.10384,-3.13384 3.22851,-5.52148 0.17298,-3.31273 -1.4221,-6.19431 -4.81054,-8.69336 -0.94268,-0.69525 -2.2012,-1.35547 -2.5879,-1.35547 -0.32724,0 -0.95953,-0.31071 -1.56054,-0.76758 -0.64495,-0.49026 -1.60101,-1.75057 -2.73047,-3.59765 -0.55322,-0.90471 -1.0313,-1.5614 -1.0625,-1.45899 -0.0827,0.27096 -0.92908,0.044 -1.9043,-0.25195 -0.14659,-3.58008 -0.36172,-6.43193 -0.64062,-8.29883 -0.56359,-3.7726 -1.58583,-6.36478 -2.83789,-7.19336 -1.25078,-0.82772 -4.14983,-1.49122 -8.36525,-1.91406 -1.98482,-0.19909 -3.38694,-0.36782 -4.54492,-0.54492 -0.17786,-0.93051 -0.27636,-1.52021 -0.24023,-1.51953 0.55916,0.01 0.59343,-0.0122 0.70507,-0.43946 0.12912,-0.49423 -0.16771,-3.32959 -0.49804,-4.7539 -0.25747,-1.11019 -0.85679,-2.40044 -1.59961,-3.44141 -2.04156,-2.86099 -7.84075,-7.76831 -11.15039,-9.4375 -1.49182,-0.75239 -3.52,-1.18853 -5.50977,-1.20117 z" id="path2470-5"/>
<script xmlns=""/></svg>