<?xml version="1.0" encoding="UTF-8"?>
<!-- Created with Inkscape (http://www.inkscape.org/) -->
<svg width="383.6mm" height="244.08mm" version="1.1" viewBox="0 0 383.6 244.08" xml:space="preserve" xmlns="http://www.w3.org/2000/svg" xmlns:xlink="http://www.w3.org/1999/xlink"><defs><marker id="marker4071" overflow="visible" markerHeight="6.155385" markerWidth="5.3244081" orient="auto-start-reverse" preserveAspectRatio="xMidYMid" viewBox="0 0 5.3244081 6.1553851"><path transform="scale(.5)" d="m5.77 0-8.65 5v-10z" fill="context-stroke" fill-rule="evenodd" stroke="context-stroke" stroke-width="1pt"/></marker><marker id="TriangleStart" overflow="visible" markerHeight="6.155385" markerWidth="5.3244081" orient="auto-start-reverse" preserveAspectRatio="xMidYMid" viewBox="0 0 5.3244081 6.1553851"><path transform="scale(.5)" d="m5.77 0-8.65 5v-10z" fill="context-stroke" fill-rule="evenodd" stroke="context-stroke" stroke-width="1pt"/></marker><linearGradient id="linearGradient2688" x1="67.452" x2="67.733" y1="40.321" y2="95.25" gradientTransform="matrix(.99997 0 0 .99997 279.87 270.78)" gradientUnits="userSpaceOnUse"><stop stop-color="#3680f0" offset="0"/><stop stop-color="#2678ec" offset="1"/></linearGradient><linearGradient id="linearGradient2962" x1=".018203" x2="1.7696" y1="-.5117" y2=".49943" gradientTransform="matrix(25.117 43.505 -43.505 25.117 305.68 316.71)" gradientUnits="userSpaceOnUse"><stop stop-color="#659cf6" offset="0"/><stop stop-color="#4285f4" offset="1"/></linearGradient><linearGradient id="linearGradient4633" x1=".46521" x2=".55656" y1="-.67391" y2=".8113" gradientTransform="matrix(61.284 0 0 61.284 309.26 313.11)" gradientUnits="userSpaceOnUse"><stop stop-color="#1972e7" offset="0"/><stop stop-color="#1969d5" offset="1"/></linearGradient><linearGradient id="linearGradient1331" x1="101.74" x2="101.6" y1="33.726" y2="135.47" gradientTransform="matrix(.99997 0 0 .99997 279.87 270.78)" gradientUnits="userSpaceOnUse"><stop stop-color="#afccfb" offset="0"/><stop stop-color="#8bb5f8" offset="1"/></linearGradient><marker id="TriangleStart-6" overflow="visible" markerHeight="6.155385" markerWidth="5.3244081" orient="auto-start-reverse" preserveAspectRatio="xMidYMid" viewBox="0 0 5.3244081 6.1553851"><path transform="scale(.5)" d="m5.77 0-8.65 5v-10z" fill="context-stroke" fill-rule="evenodd" stroke="context-stroke" stroke-width="1pt"/></marker><marker id="marker4071-2" overflow="visible" markerHeight="6.155385" markerWidth="5.3244081" orient="auto-start-reverse" preserveAspectRatio="xMidYMid" viewBox="0 0 5.3244081 6.1553851"><path transform="scale(.5)" d="m5.77 0-8.65 5v-10z" fill="context-stroke" fill-rule="evenodd" stroke="context-stroke" stroke-width="1pt"/></marker></defs><g transform="translate(-206.75 -291.75)"><rect x="207.25" y="292.25" width="382.6" height="243.08" fill="#fff" stop-color="#000000" stroke="#000" stroke-dasharray="1, 6" stroke-linecap="round" stroke-linejoin="round" style="paint-order:fill markers stroke"/><g transform="matrix(1.9685 0 0 1.9685 -171.61 -782.05)" stroke-width=".26458"><path class="cls-1" d="m380.66 563.86a16.256 16.256 0 1 0-16.256 16.256 16.256 16.256 0 0 0 16.256-16.256z" fill="#2b2e3a" fill-rule="evenodd"/><g fill="#9feaf9"><path class="cls-2" d="m360.91 556.71c-3.302-0.6006-5.9134 0.0291-6.9532 1.8309-0.77788 1.3467-0.55563 3.13 0.52917 5.0271a0.33867 0.33867 0 1 0 0.58737-0.33602c-0.98425-1.7171-1.1748-3.257-0.52917-4.3603 0.86519-1.4975 3.1935-2.0585 6.2468-1.5028l0.0556 0.0265a0.33867 0.33867 0 0 0 0.0661-0.67204zm-4.826 9.8504a21.201 21.201 0 0 0 5.0562 3.9846c4.789 2.7676 9.8901 3.519 12.406 1.7912a0.33338 0.33338 0 0 0 0.15346-0.2831 0.33867 0.33867 0 0 0-0.52917-0.26458c-2.2701 1.524-7.1041 0.8202-11.692-1.8283a20.46 20.46 0 0 1-4.8868-3.8576 0.3519 0.3519 0 0 0-0.26458-0.11112 0.33867 0.33867 0 0 0-0.33867 0.33866 0.3519 0.3519 0 0 0 0.0873 0.23019z"/><path class="cls-2" d="m372.86 565.48c2.1616-2.5532 2.9104-5.125 1.8786-6.9215-0.76465-1.3229-2.3812-2.0241-4.527-2.0505a0.33867 0.33867 0 0 0 0 0.67733c1.9314 0.0238 3.3232 0.62706 3.9476 1.7119 0.86254 1.4922 0.1905 3.7835-1.8098 6.1463a0.343 0.343 0 1 0 0.52917 0.43656zm-6.0854-9.0964a21.198 21.198 0 0 0-6.0352 2.3812c-4.9239 2.8628-8.1624 7.0776-7.7126 10.131a0.33957 0.33957 0 0 0 0.67204-0.0979c-0.40217-2.712 2.6458-6.7019 7.3898-9.435a20.436 20.436 0 0 1 5.8394-2.3151 0.33867 0.33867 0 0 0-0.0635-0.67204 0.35983 0.35983 0 0 0-0.0767 0z"/><path class="cls-2" d="m359.29 571.45c1.1298 3.1565 2.9792 5.1012 5.0615 5.1012 1.5161 0 2.9104-1.0345 4.0137-2.8549a0.32015 0.32015 0 0 0 0.0503-0.17727 0.33867 0.33867 0 0 0-0.6297-0.17198c-0.98425 1.6378-2.1934 2.5268-3.4396 2.5268-1.7277 0-3.3787-1.733-4.4238-4.6514a0.33867 0.33867 0 0 0-0.65881 0.10848 0.30692 0.30692 0 0 0 0.0212 0.11906zm10.964-0.84402a21.206 21.206 0 0 0 0.90752-6.2786c0-5.6092-1.9712-10.446-4.7625-11.695a0.35454 0.35454 0 0 0-0.12965-0.0265 0.33867 0.33867 0 0 0-0.14552 0.64559c2.4897 1.1139 4.355 5.7044 4.355 11.075a20.616 20.616 0 0 1-0.87047 6.0854 0.35454 0.35454 0 0 0-0.0159 0.10584 0.33867 0.33867 0 0 0 0.33867 0.33866 0.34131 0.34131 0 0 0 0.32543-0.24341zm5.7335-0.52917a1.6219 1.6219 0 1 0-1.6219 1.606 1.6192 1.6192 0 0 0 1.6219-1.6192zm-0.67733 0a0.94456 0.94456 0 1 1-0.94457-0.94456 0.94192 0.94192 0 0 1 0.94457 0.94456zm-21.008 2.0505a1.6219 1.6219 0 1 0-1.6219-1.6219 1.6219 1.6219 0 0 0 1.6219 1.6219zm0-0.67733a0.94456 0.94456 0 1 1 0.94456-0.94456 0.94456 0.94456 0 0 1-0.94456 0.94456z"/><path class="cls-2" d="m364.35 554.52a1.6219 1.6219 0 1 0-1.6219-1.6219 1.6192 1.6192 0 0 0 1.6219 1.6192zm0-0.67733a0.94456 0.94456 0 1 1 0.94192-0.94456 0.94192 0.94192 0 0 1-0.94192 0.94191zm0.24607 9.9721a1.1721 1.1721 0 0 1-1.3944-0.89693 1.3018 1.3018 0 0 1-0.0265-0.24871 1.1721 1.1721 0 1 1 1.4208 1.1456z"/></g></g><rect x="215.91" y="459.86" width="363.44" height="66.756" fill="#fff" stop-color="#000000" stroke="#000" stroke-dasharray="1, 6" stroke-linecap="round" stroke-linejoin="round" style="paint-order:fill markers stroke"/><path d="m214.04 316.24v119.26h244.5v0.50022h121.32v-72.348h-73.994v-47.408z" fill="#fff" stop-color="#000000" stroke="#000" stroke-dasharray="1, 6" stroke-linecap="round" stroke-linejoin="round" style="paint-order:fill markers stroke"/><g transform="matrix(.23623 0 0 .23623 401.77 304.67)" stroke-width=".26458"><path d="m347.6 338.51 29.329 16.932-29.329 50.798c37.407 0 67.731-30.324 67.731-67.731 0-12.341-3.3167-23.9-9.0834-33.866h-58.648z" fill="url(#linearGradient1331)"/><path d="m347.6 270.78c-25.069 0-46.941 13.63-58.652 33.874l29.323 50.79 29.329-16.932v-33.866h58.648c-11.714-20.239-33.582-33.866-58.648-33.866z" fill="url(#linearGradient4633)"/><path d="m279.87 338.51c0 37.407 30.323 67.731 67.731 67.731l29.329-50.798-29.329-16.932-29.329 16.932-29.323-50.79c-5.7635 9.9629-9.0792 21.518-9.0792 33.857" fill="url(#linearGradient2962)"/><path d="m381.46 338.51c0 18.703-15.163 33.866-33.866 33.866-18.703 0-33.866-15.163-33.866-33.866 0-18.703 15.163-33.866 33.866-33.866 18.703 0 33.866 15.163 33.866 33.866" fill="#fff"/><path d="m375.11 338.51c0 15.197-12.32 27.516-27.516 27.516s-27.516-12.32-27.516-27.516c0-15.197 12.32-27.516 27.516-27.516s27.516 12.32 27.516 27.516" fill="url(#linearGradient2688)"/></g><g font-size="9.8778px" stroke-linecap="round" stroke-linejoin="round"><text x="220.3784" y="329.85434" fill="#0000ff" font-family="Webdings" stop-color="#000000" style="paint-order:stroke markers fill" xml:space="preserve"><tspan x="220.3784" y="329.85434" fill="#000000" font-family="sans-serif">Browser Realm</tspan></text><text x="214.59033" y="305.83987" fill="#0000ff" font-family="Webdings" stop-color="#000000" style="paint-order:stroke markers fill" xml:space="preserve"><tspan x="214.59033" y="305.83987" fill="#000000" font-family="sans-serif">Electron Application</tspan></text><text x="293.90723" y="449.7655" fill="#0000ff" font-family="Webdings" stop-color="#000000" style="paint-order:stroke markers fill" xml:space="preserve"><tspan x="293.90723" y="449.7655" fill="#000000" font-family="sans-serif">IPC (Electron API)</tspan></text><text x="471.80011" y="415.59598" fill="#000000" font-family="sans-serif" stop-color="#000000" style="paint-order:stroke markers fill" xml:space="preserve"><tspan x="471.80011" y="415.59598">Web APIs</tspan><tspan x="471.80011" y="428.33868">ES Modules</tspan></text><text x="468.703" y="508.60397" fill="#000000" font-family="sans-serif" stop-color="#000000" style="paint-order:stroke markers fill" xml:space="preserve"><tspan x="468.703" y="508.60397">Node.js Modules</tspan><tspan x="468.703" y="521.34668">CommonJS Modules</tspan></text><text x="221.49663" y="503.75647" fill="#0000ff" font-family="Webdings" stop-color="#000000" style="paint-order:stroke markers fill" xml:space="preserve"><tspan x="221.49663" y="503.75647" fill="#000000" font-family="sans-serif">Nodejs Realm</tspan></text></g><g transform="translate(-54.255 23.12)" stroke-linecap="round" stroke-linejoin="round"><rect x="273.87" y="440.58" width="241.19" height="25.435" fill="#fff" stop-color="#000000" stroke="#000" style="paint-order:stroke markers fill"/><text x="362.12378" y="456.98044" fill="#0000ff" font-family="Webdings" font-size="9.8778px" stop-color="#000000" style="paint-order:stroke markers fill" xml:space="preserve"><tspan x="362.12378" y="456.98044" fill="#000000" font-family="sans-serif">Main Process</tspan></text></g><rect x="218.53" y="340.38" width="116.2" height="86.696" fill="#fff" stop-color="#000000" stroke="#000" stroke-linecap="round" stroke-linejoin="round" style="paint-order:stroke markers fill"/><text x="223.08281" y="351.92645" fill="#0000ff" font-family="Webdings" font-size="9.8778px" stop-color="#000000" stroke-linecap="round" stroke-linejoin="round" style="paint-order:stroke markers fill" xml:space="preserve"><tspan x="223.08281" y="351.92645" fill="#000000" font-family="sans-serif">BrowserWindow</tspan></text><g transform="translate(-48.345 21.879)" stroke-linecap="round" stroke-linejoin="round"><rect x="273.04" y="374.22" width="104.4" height="25.435" fill="#fff" stop-color="#000000" stroke="#000" style="paint-order:stroke markers fill"/><text x="287.10822" y="390.61777" fill="#0000ff" font-family="Webdings" font-size="9.8778px" stop-color="#000000" style="paint-order:stroke markers fill" xml:space="preserve"><tspan x="287.10822" y="390.61777" fill="#000000" font-family="sans-serif">Render Process</tspan></text></g><g transform="translate(-187.88 -16.159)" stroke-linecap="round" stroke-linejoin="round"><rect x="412.57" y="380.45" width="104.4" height="25.435" fill="#fff" stop-color="#000000" stroke="#000" style="paint-order:stroke markers fill"/><text x="450.57086" y="396.77121" fill="#0000ff" font-family="Webdings" font-size="9.8778px" stop-color="#000000" style="paint-order:stroke markers fill" xml:space="preserve"><tspan x="450.57086" y="396.77121" fill="#000000" font-family="sans-serif">HTML</tspan></text></g><rect x="344.05" y="340.68" width="116.2" height="86.696" fill="#fff" stop-color="#000000" stroke="#000" stroke-linecap="round" stroke-linejoin="round" style="paint-order:stroke markers fill"/><text x="348.60291" y="352.22702" fill="#0000ff" font-family="Webdings" font-size="9.8778px" stop-color="#000000" stroke-linecap="round" stroke-linejoin="round" style="paint-order:stroke markers fill" xml:space="preserve"><tspan x="348.60291" y="352.22702" fill="#000000" font-family="sans-serif">BrowserWindow</tspan></text><g transform="translate(77.175 22.18)" stroke-linecap="round" stroke-linejoin="round"><rect x="273.04" y="374.22" width="104.4" height="25.435" fill="#fff" stop-color="#000000" stroke="#000" style="paint-order:stroke markers fill"/><text x="287.10822" y="390.61777" fill="#0000ff" font-family="Webdings" font-size="9.8778px" stop-color="#000000" style="paint-order:stroke markers fill" xml:space="preserve"><tspan x="287.10822" y="390.61777" fill="#000000" font-family="sans-serif">Render Process</tspan></text></g><g transform="translate(-62.357 -15.858)" stroke-linecap="round" stroke-linejoin="round"><rect x="412.57" y="380.45" width="104.4" height="25.435" fill="#fff" stop-color="#000000" stroke="#000" style="paint-order:stroke markers fill"/><text x="450.57086" y="396.77121" fill="#0000ff" font-family="Webdings" font-size="9.8778px" stop-color="#000000" style="paint-order:stroke markers fill" xml:space="preserve"><tspan x="450.57086" y="396.77121" fill="#000000" font-family="sans-serif">HTML</tspan></text></g><g transform="matrix(.15118 0 0 .15118 482.42 323.36)" stroke-width=".82682"><path d="m388.99 299.48h211.67v211.67h-211.67z" fill="#f7df1e"/><path d="m444.64 476.37 16.197-9.8028c3.1254 5.5405 5.968 10.229 12.787 10.229 6.536 0 10.658-2.5565 10.658-12.502v-67.632h19.891v67.914c0 20.602-12.077 29.98-29.696 29.98-15.912 0-25.149-8.2409-29.838-18.187m70.338-2.1299 16.196-9.377c4.2639 6.9627 9.8053 12.077 19.608 12.077 8.2426 0 13.498-4.1209 13.498-9.8045 0-6.8196-5.3992-9.2356-14.493-13.213l-4.9717-2.1332c-14.351-6.1078-23.87-13.781-23.87-29.978 0-14.919 11.366-26.286 29.127-26.286 12.645 0 21.739 4.4053 28.274 15.914l-15.488 9.9467c-3.4106-6.1094-7.1032-8.5245-12.787-8.5245-5.8258 0-9.52 3.6942-9.52 8.5245 0 5.9672 3.6942 8.384 12.219 12.078l4.9725 2.1307c16.909 7.2471 26.428 14.635 26.428 31.257 0 17.904-14.066 27.707-32.963 27.707-18.47 0-30.406-8.809-36.231-20.318"/></g><g transform="matrix(.18864 0 0 .18864 422.51 306.37)" stroke-width=".58633"><path d="m594.54 330.09-13.627 152.66-61.254 16.981-61.085-16.958-13.613-152.68z" fill="#e44d26"/><path d="m519.75 486.75 49.497-13.722 11.645-130.45h-61.141z" fill="#f16529"/><path d="m493.26 380.02h26.491v-18.726h-46.955l0.44796 5.0237 4.6027 51.603h41.905v-18.726h-24.779zm4.2204 47.264h-18.798l2.6233 29.402 38.359 10.648 0.0862-0.0235v-19.483l-0.0821 0.0217-20.855-5.6312z" fill="#ebebeb"/><path d="m519.69 417.92h23.059l-2.1741 24.286-20.885 5.637v19.482l38.389-10.639 0.28144-3.1639 4.401-49.299 0.45675-5.0284h-43.528zm0-37.947v0.0457h45.232l0.37526-4.2087 0.8537-9.4933 0.44737-5.0237h-46.908v18.681z" fill="#fff"/></g><g><path d="m481.38 498.87c-2.1504-1.2462-4.0233-2.3835-4.1754-2.5357-0.10124-0.10124-0.0781-0.15211 0.0689-0.1522 0.12146-7e-5 0.66146-0.20852 1.1999-0.46323 0.53842-0.25472 1.087-0.42192 1.219-0.37158 0.13208 0.0503 0.97147 0.53307 1.8654 1.0727 0.89393 0.53967 1.67 0.98121 1.7245 0.98121 0.0545 0 1.4146-0.76248 3.0222-1.6944 1.6076-0.93193 3.2315-1.8668 3.6087-2.0775 0.37712-0.21068 0.75425-0.43514 0.83807-0.49879 0.0838-0.0637 0.40951-0.2602 0.72378-0.43675 0.31428-0.17654 0.79427-0.4504 1.0666-0.60856 3.463-2.0109 4.3215-2.53 4.4166-2.6706 0.0615-0.091 0.11302-3.6713 0.11433-7.9562 1e-3 -6.0522-0.0402-7.8246-0.18814-7.9426-0.23983-0.19133-13.185-7.6531-13.46-7.7588-0.16085-0.0618-10.929 6.0003-13.358 7.5198l-0.5714 0.35749 3e-3 7.8074c8.1e-4 4.2941 0.0526 7.8821 0.11433 7.9734 0.0615 0.0912 1.0802 0.72554 2.2635 1.4095 1.9272 1.1139 2.2328 1.2435 2.9309 1.2435 0.64564 0 0.86457-0.0762 1.2769-0.44455l0.49763-0.44456 0.0762-8.1266 0.0761-8.1267 1.1002-0.0447c1.0502-0.0426 1.1044-0.0282 1.1918 0.32023 0.0503 0.20069 0.0691 3.9921 0.0415 8.4254-0.0546 8.7874-0.0288 8.5269-0.95101 9.6206-0.9343 1.108-3.0743 1.4719-4.811 0.81806-1.096-0.41264-4.525-2.3556-5.0853-2.8815-0.86958-0.81614-0.85739-0.67941-0.85739-9.6297 0-8.9515-0.0116-8.8222 0.85739-9.6216 0.33939-0.31221 6.3989-3.8888 11.638-6.869 0.29332-0.16687 0.60189-0.35558 0.6857-0.41936 0.0838-0.0637 0.56379-0.34411 1.0666-0.62295 0.69741-0.38674 1.0991-0.50769 1.6935-0.50996 0.72619-3e-3 1.0306 0.14197 4.4708 2.1249 2.0304 1.1703 3.8739 2.2308 4.0968 2.3567 0.22287 0.12582 0.64521 0.3762 0.93853 0.55635 0.4837 0.29708 1.0603 0.62955 2.1333 1.2302 0.20952 0.11724 1.1009 0.6375 1.9809 1.156 1.4701 0.86626 1.634 1.01 2.019 1.7701l0.41905 0.8273v7.9694c0 9.6961 0.10502 9.1577-2.0361 10.442-0.59819 0.35886-1.2248 0.72849-1.3924 0.8214-0.16761 0.0929-0.54475 0.30943-0.83807 0.48116-4.4605 2.6114-10.242 5.9213-10.623 6.0816-0.95032 0.39965-1.8369 0.26817-3.0905-0.45833zm3.3716-10.1c-2.5984-0.51113-4.0757-1.917-4.1692-3.9677l-0.0404-0.8868 1.0958-0.0445 1.0958-0.0447 0.1605 0.57789c0.0883 0.31784 0.16086 0.63211 0.16133 0.69835 3e-3 0.38052 0.75653 1.0552 1.4826 1.3268 0.66806 0.24995 1.1878 0.30507 2.8766 0.30507 2.3536 0 3.296-0.26493 3.7647-1.0583 0.3088-0.52277 0.32906-1.5015 0.039-1.8841-0.35251-0.46493-1.6442-0.84525-3.6922-1.0871-4.4533-0.52585-5.8592-1.1662-6.3832-2.9073-0.46203-1.5352-0.17546-2.7309 0.91238-3.8066 1.1827-1.1695 2.3119-1.5142 4.9628-1.5148 2.741-5.7e-4 3.9695 0.36198 5.107 1.5077 0.7752 0.78076 1.2928 1.9332 1.2928 2.8783 0 0.40322-6e-3 0.40565-1.1428 0.40565-0.9274 0-1.1428-0.0442-1.1428-0.23465 0-0.43617-0.59972-1.4138-1.0748-1.7521-0.25974-0.18496-0.72413-0.39621-1.032-0.46948-0.8277-0.19696-3.1993-0.1868-4.003 0.0172-1.2602 0.31987-1.9205 1.3195-1.4815 2.2431 0.23765 0.50006 1.2156 0.87539 2.917 1.1195 5.1123 0.73347 6.6 1.2843 7.1772 2.6572 0.80833 1.9228 0.0612 4.1598-1.7219 5.1554-1.7126 0.95624-4.6152 1.2666-7.1614 0.76577z" fill="#539e43" stroke-width=".15238"/><path d="m276.83 423.94v37.096" fill="#fff" marker-end="url(#marker4071)" marker-start="url(#TriangleStart)" stop-color="#000000" stroke="#000" stroke-linecap="round" stroke-linejoin="round" style="paint-order:stroke markers fill"/><path d="m400.65 425.68v37.096" fill="#fff" marker-end="url(#marker4071-2)" marker-start="url(#TriangleStart-6)" stop-color="#000000" stroke="#000" stroke-linecap="round" stroke-linejoin="round" style="paint-order:stroke markers fill"/></g></g></svg>
