<?xml version="1.0" encoding="UTF-8"?>
<!-- Created with Inkscape (http://www.inkscape.org/) -->
<svg width="548.04mm" height="580.63mm" version="1.1" viewBox="0 0 548.04 580.63" xml:space="preserve" xmlns="http://www.w3.org/2000/svg" xmlns:xlink="http://www.w3.org/1999/xlink"><defs><marker id="Arrow1" overflow="visible" markerHeight="6.7071066" markerWidth="4.0606604" orient="auto-start-reverse" preserveAspectRatio="xMidYMid" viewBox="0 0 4.0606602 6.7071068"><path transform="rotate(180 .125 0)" d="m3-3-3 3 3 3" fill="none" stroke="context-stroke"/></marker><marker id="Arrow1-6" overflow="visible" markerHeight="6.7071066" markerWidth="4.0606604" orient="auto-start-reverse" preserveAspectRatio="xMidYMid" viewBox="0 0 4.0606602 6.7071068"><path transform="rotate(180 .125 0)" d="m3-3-3 3 3 3" fill="none" stroke="context-stroke"/></marker><linearGradient id="linearGradient1478" x1="26.649" x2="135.67" y1="20.604" y2="114.4" gradientTransform="matrix(.14884 0 0 .15028 171.52 514.74)" gradientUnits="userSpaceOnUse"><stop stop-color="#5a9fd4" offset="0"/><stop stop-color="#306998" offset="1"/></linearGradient><linearGradient id="linearGradient1475" x1="150.96" x2="112.03" y1="192.35" y2="137.27" gradientTransform="matrix(.14884 0 0 .15028 171.52 514.74)" gradientUnits="userSpaceOnUse"><stop stop-color="#ffd43b" offset="0"/><stop stop-color="#ffe873" offset="1"/></linearGradient><marker id="Arrow1-4" overflow="visible" markerHeight="6.7071066" markerWidth="4.0606604" orient="auto-start-reverse" preserveAspectRatio="xMidYMid" viewBox="0 0 4.0606602 6.7071068"><path transform="rotate(180 .125 0)" d="m3-3-3 3 3 3" fill="none" stroke="context-stroke"/></marker><marker id="Arrow1-1" overflow="visible" markerHeight="6.7071066" markerWidth="4.0606604" orient="auto-start-reverse" preserveAspectRatio="xMidYMid" viewBox="0 0 4.0606602 6.7071068"><path transform="rotate(180 .125 0)" d="m3-3-3 3 3 3" fill="none" stroke="context-stroke"/></marker><marker id="Arrow1-1-8" overflow="visible" markerHeight="6.7071066" markerWidth="4.0606604" orient="auto-start-reverse" preserveAspectRatio="xMidYMid" viewBox="0 0 4.0606602 6.7071068"><path transform="rotate(180 .125 0)" d="m3-3-3 3 3 3" fill="none" stroke="context-stroke"/></marker><marker id="Arrow1-1-8-8" overflow="visible" markerHeight="6.7071066" markerWidth="4.0606604" orient="auto-start-reverse" preserveAspectRatio="xMidYMid" viewBox="0 0 4.0606602 6.7071068"><path transform="rotate(180 .125 0)" d="m3-3-3 3 3 3" fill="none" stroke="context-stroke"/></marker><marker id="Arrow1-1-8-8-3" overflow="visible" markerHeight="6.7071066" markerWidth="4.0606604" orient="auto-start-reverse" preserveAspectRatio="xMidYMid" viewBox="0 0 4.0606602 6.7071068"><path transform="rotate(180 .125 0)" d="m3-3-3 3 3 3" fill="none" stroke="context-stroke"/></marker><marker id="Arrow1-1-8-8-3-3" overflow="visible" markerHeight="6.7071066" markerWidth="4.0606604" orient="auto-start-reverse" preserveAspectRatio="xMidYMid" viewBox="0 0 4.0606602 6.7071068"><path transform="rotate(180 .125 0)" d="m3-3-3 3 3 3" fill="none" stroke="context-stroke"/></marker><marker id="Arrow1-1-8-9" overflow="visible" markerHeight="6.7071066" markerWidth="4.0606604" orient="auto-start-reverse" preserveAspectRatio="xMidYMid" viewBox="0 0 4.0606602 6.7071068"><path transform="rotate(180 .125 0)" d="m3-3-3 3 3 3" fill="none" stroke="context-stroke"/></marker></defs><g transform="translate(-45.724 -78.959)"><rect x="46.224" y="79.459" width="547.04" height="579.63" fill="#fff" stop-color="#000000" stroke="#000" stroke-linecap="round" stroke-linejoin="round" style="paint-order:markers stroke fill"/><g fill="#f2f2f2"><rect x="178.3" y="98.964" width="376.64" height="275.58" stop-color="#000000" style="paint-order:markers stroke fill"/><rect x="178.15" y="384.22" width="376.64" height="83.1" stop-color="#000000" style="paint-order:markers stroke fill"/><rect x="178.3" y="472.42" width="376.64" height="136.24" stop-color="#000000" style="paint-order:markers stroke fill"/><rect x="178.91" y="613.76" width="376.64" height="34.965" stop-color="#000000" style="paint-order:markers stroke fill"/></g><g fill="#000000" font-family="sans-serif" font-size="9.8778px" stroke-linecap="round" stroke-linejoin="round" stroke-width="2"><text x="203.71098" y="117.3673" stop-color="#000000" style="paint-order:markers stroke fill" xml:space="preserve"><tspan x="203.71098" y="117.3673" fill="#000000" stroke-width="2">Demindiro/OwnWar</tspan></text><text x="233.57539" y="136.37912" stop-color="#000000" style="paint-order:markers stroke fill" xml:space="preserve"><tspan x="233.57539" y="136.37912" fill="#000000" stroke-width="2">gdn/</tspan></text><text x="250.96382" y="160.42749" stop-color="#000000" style="paint-order:markers stroke fill" xml:space="preserve"><tspan x="250.96382" y="160.42749" fill="#000000" stroke-width="2">gd_3d_batcher</tspan></text><text x="231.50584" y="359.37244" stop-color="#000000" style="paint-order:markers stroke fill" xml:space="preserve"><tspan x="231.50584" y="359.37244" fill="#000000" stroke-width="2">patch/godot/vehicle_body.patch</tspan></text><text x="225.17882" y="419.4772" stop-color="#000000" style="paint-order:markers stroke fill" xml:space="preserve"><tspan x="225.17882" y="419.4772" fill="#000000" stroke-width="2">scene/3d/vehicle_body.(h|(cpp))</tspan></text><text x="203.73549" y="491.1908" stop-color="#000000" style="paint-order:markers stroke fill" xml:space="preserve"><tspan x="203.73549" y="491.1908" fill="#000000" stroke-width="2">Demindiro/godot_rapier3d</tspan></text><text x="204.72862" y="398.99026" stop-color="#000000" style="paint-order:markers stroke fill" xml:space="preserve"><tspan x="204.72862" y="398.99026" fill="#000000" stroke-width="2">godotengine/godot 3.3</tspan></text></g><g stroke-width=".074701"><path d="m210.72 367.27c-0.74617-0.20376-1.3655-0.74251-1.7158-1.4925l-0.20934-0.44821v-14.866l0.20934-0.44821c0.22823-0.48867 0.60421-0.92317 1.0419-1.2041 0.59425-0.38138 0.84102-0.402 4.8117-0.402 2.5586 0 3.7308 0.0254 3.8501 0.0835 0.20968 0.10202 4.526 4.7736 4.7117 5.0995 0.12447 0.21842 0.13142 0.58949 0.11206 5.9848l-0.0206 5.752-0.20021 0.42715c-0.28036 0.59818-0.78788 1.1146-1.351 1.3747l-0.46571 0.2151-5.1917 0.0152c-4.3015 0.0126-5.2587-3e-3 -5.5823-0.0914zm10.713-1.1611c0.28216-0.10661 0.60351-0.41992 0.77739-0.75796 0.13614-0.26467 0.14257-0.50447 0.14257-5.3225v-5.0453l-1.1019-8.4e-4c-0.68119-5.7e-4 -1.2444-0.0391-1.4753-0.10081-0.90909-0.2432-1.523-0.7398-1.8948-1.5328-0.19119-0.40775-0.19757-0.46765-0.22177-2.0841l-0.0249-1.6643-3.3873 0.0209c-3.8087 0.0235-3.5168-0.0209-4.0287 0.61154l-0.22843 0.28221-0.0216 7.1831c-0.0119 3.9507-3e-3 7.2869 0.0198 7.4137 0.0227 0.12685 0.15687 0.36556 0.29803 0.53047 0.49205 0.57485 0.14584 0.54258 5.8431 0.54449 3.4212 8.4e-4 5.1625-0.0244 5.3038-0.0778zm-8.7223-2.604c-0.12009-0.12011-0.21835-0.29076-0.21835-0.37926s0.0983-0.25916 0.21835-0.37925l0.21836-0.21837h5.2323l0.20336 0.17494c0.14532 0.125 0.20337 0.24566 0.20337 0.42268 0 0.17703-0.0581 0.29769-0.20337 0.42268l-0.20336 0.17493h-5.2323zm-8.4e-4 -2.9095c-0.12494-0.10117-0.17262-0.21732-0.17262-0.42048s0.0477-0.31932 0.17262-0.42048c0.16249-0.13158 0.35544-0.13978 3.2888-0.13978h3.1162l0.16242 0.17289c0.20672 0.22004 0.21289 0.59836 0.0131 0.79823-0.14464 0.14464-0.249 0.1494-3.2786 0.1494-2.946 0-3.1393-8e-3 -3.3018-0.13978zm9e-3 -2.9211c-0.32692-0.32692-0.23008-0.81525 0.19363-0.97635 0.10844-0.0413 1.4869-0.0709 3.2643-0.0703 3.3219 8.4e-4 3.3617 6e-3 3.5502 0.39885 0.12727 0.26543 0.01 0.58879-0.25809 0.71088-0.12848 0.0585-1.1682 0.0844-3.3939 0.0844-3.0953 0-3.2138-5e-3 -3.3562-0.1475zm9.213-4.0544c-0.12471-0.13352-0.86101-0.93189-1.6362-1.7742-0.77521-0.84225-1.4397-1.5438-1.4767-1.559-0.0389-0.0159-0.0549 0.47201-0.0379 1.1579 0.0239 0.96423 0.0549 1.2342 0.16617 1.4469 0.40216 0.76859 0.84224 0.94844 2.3563 0.96293l0.85504 8e-3z"/><path d="m208.97 424.2c-0.74617-0.20376-1.3655-0.74251-1.7158-1.4925l-0.20934-0.44821v-14.866l0.20934-0.44821c0.22823-0.48867 0.60421-0.92317 1.0419-1.2041 0.59425-0.38138 0.84102-0.402 4.8117-0.402 2.5586 0 3.7308 0.0254 3.8501 0.0835 0.20968 0.10202 4.526 4.7736 4.7117 5.0995 0.12447 0.21842 0.13142 0.58949 0.11206 5.9848l-0.0206 5.752-0.20021 0.42715c-0.28036 0.59818-0.78788 1.1146-1.351 1.3747l-0.46571 0.2151-5.1917 0.0152c-4.3015 0.0126-5.2587-3e-3 -5.5823-0.0914zm10.713-1.1611c0.28216-0.10661 0.60351-0.41992 0.77739-0.75796 0.13614-0.26467 0.14257-0.50447 0.14257-5.3225v-5.0453l-1.1019-8.4e-4c-0.68119-5.7e-4 -1.2444-0.0391-1.4753-0.10081-0.90909-0.2432-1.523-0.7398-1.8948-1.5328-0.19119-0.40775-0.19757-0.46765-0.22177-2.0841l-0.0249-1.6643-3.3873 0.0209c-3.8087 0.0235-3.5168-0.0209-4.0287 0.61154l-0.22843 0.28221-0.0216 7.1831c-0.0119 3.9507-3e-3 7.2869 0.0198 7.4137 0.0227 0.12685 0.15687 0.36556 0.29803 0.53047 0.49205 0.57485 0.14584 0.54258 5.8431 0.54449 3.4212 8.4e-4 5.1625-0.0244 5.3038-0.0778zm-8.7223-2.604c-0.12009-0.12011-0.21835-0.29076-0.21835-0.37926s0.0983-0.25916 0.21835-0.37925l0.21836-0.21837h5.2323l0.20336 0.17494c0.14532 0.125 0.20337 0.24566 0.20337 0.42268 0 0.17703-0.0581 0.29769-0.20337 0.42268l-0.20336 0.17493h-5.2323zm-8.4e-4 -2.9095c-0.12494-0.10117-0.17262-0.21732-0.17262-0.42048s0.0477-0.31932 0.17262-0.42048c0.16249-0.13158 0.35544-0.13978 3.2888-0.13978h3.1162l0.16242 0.17289c0.20672 0.22004 0.21289 0.59836 0.0131 0.79823-0.14464 0.14464-0.249 0.1494-3.2786 0.1494-2.946 0-3.1393-8e-3 -3.3018-0.13978zm9e-3 -2.9211c-0.32692-0.32692-0.23008-0.81525 0.19363-0.97635 0.10844-0.0413 1.4869-0.0709 3.2643-0.0703 3.3219 8.4e-4 3.3617 6e-3 3.5502 0.39885 0.12727 0.26543 0.01 0.58879-0.25809 0.71088-0.12848 0.0585-1.1682 0.0844-3.3939 0.0844-3.0953 0-3.2138-5e-3 -3.3562-0.1475zm9.213-4.0544c-0.12471-0.13352-0.86101-0.93189-1.6362-1.7742-0.77521-0.84225-1.4397-1.5438-1.4767-1.559-0.0389-0.0159-0.0549 0.47201-0.0379 1.1579 0.0239 0.96423 0.0549 1.2342 0.16617 1.4469 0.40216 0.76859 0.84224 0.94844 2.3563 0.96293l0.85504 8e-3z"/><path d="m225.83 598.12c-0.74617-0.20376-1.3655-0.74251-1.7158-1.4925l-0.20934-0.44821v-14.866l0.20934-0.44821c0.22823-0.48867 0.60421-0.92317 1.0419-1.2041 0.59425-0.38138 0.84102-0.402 4.8117-0.402 2.5586 0 3.7308 0.0254 3.8501 0.0835 0.20968 0.10202 4.526 4.7736 4.7117 5.0995 0.12447 0.21842 0.13142 0.58949 0.11206 5.9848l-0.0206 5.752-0.20021 0.42715c-0.28036 0.59818-0.78788 1.1146-1.351 1.3747l-0.46571 0.2151-5.1917 0.0152c-4.3015 0.0126-5.2587-3e-3 -5.5823-0.0914zm10.713-1.1611c0.28216-0.10661 0.60351-0.41992 0.77739-0.75796 0.13614-0.26467 0.14257-0.50447 0.14257-5.3225v-5.0453l-1.1019-8.4e-4c-0.68119-5.7e-4 -1.2444-0.0391-1.4753-0.10081-0.90909-0.2432-1.523-0.7398-1.8948-1.5328-0.19119-0.40775-0.19757-0.46765-0.22177-2.0841l-0.0249-1.6643-3.3873 0.0209c-3.8087 0.0235-3.5168-0.0209-4.0287 0.61154l-0.22843 0.28221-0.0216 7.1831c-0.0119 3.9507-3e-3 7.2869 0.0198 7.4137 0.0227 0.12685 0.15687 0.36556 0.29803 0.53047 0.49205 0.57485 0.14584 0.54258 5.8431 0.54449 3.4212 8.4e-4 5.1625-0.0244 5.3038-0.0778zm-8.7223-2.604c-0.12009-0.12011-0.21835-0.29076-0.21835-0.37926s0.0983-0.25916 0.21835-0.37925l0.21836-0.21837h5.2323l0.20336 0.17494c0.14532 0.125 0.20337 0.24566 0.20337 0.42268 0 0.17703-0.0581 0.29769-0.20337 0.42268l-0.20336 0.17493h-5.2323zm-8.4e-4 -2.9095c-0.12494-0.10117-0.17262-0.21732-0.17262-0.42048s0.0477-0.31932 0.17262-0.42048c0.16249-0.13158 0.35544-0.13978 3.2888-0.13978h3.1162l0.16242 0.17289c0.20672 0.22004 0.21289 0.59836 0.0131 0.79823-0.14464 0.14464-0.249 0.1494-3.2786 0.1494-2.946 0-3.1393-8e-3 -3.3018-0.13978zm9e-3 -2.9211c-0.32692-0.32692-0.23008-0.81525 0.19363-0.97635 0.10844-0.0413 1.4869-0.0709 3.2643-0.0703 3.3219 8.4e-4 3.3617 6e-3 3.5502 0.39885 0.12727 0.26543 0.01 0.58879-0.25809 0.71088-0.12848 0.0585-1.1682 0.0844-3.3939 0.0844-3.0953 0-3.2138-5e-3 -3.3562-0.1475zm9.213-4.0544c-0.12471-0.13352-0.86101-0.93189-1.6362-1.7742-0.77521-0.84225-1.4397-1.5438-1.4767-1.559-0.0389-0.0159-0.0549 0.47201-0.0379 1.1579 0.0239 0.96423 0.0549 1.2342 0.16617 1.4469 0.40216 0.76859 0.84224 0.94844 2.3563 0.96293l0.85504 8e-3z" fill="#999"/></g><path d="m259.2 294.99c-0.19449-0.0618-0.13361-0.0301-4.3265-2.2528-3.5676-1.8912-3.7295-1.9813-3.9242-2.1842-0.16342-0.17032-0.2173-0.25776-0.27598-0.44773-0.0716-0.23188-0.0729-0.30609-0.0729-4.1812 0-3.8751 1e-3 -3.9493 0.0729-4.1812 0.0586-0.18987 0.11265-0.27753 0.27598-0.44796 0.19506-0.20356 0.35631-0.29313 4.101-2.2781 2.1439-1.1364 3.9703-2.0938 4.0586-2.1276 0.19346-0.0739 0.59988-0.0797 0.80327-0.0115 0.11205 0.0376 5.2711 2.6378 7.9312 3.9973 0.54629 0.27922 0.71663 0.4288 0.87639 0.76962l0.0947 0.20208v8.1545l-0.0938 0.20013c-0.12615 0.26903-0.3169 0.47197-0.57903 0.61603-0.82317 0.45239-8.148 4.1279-8.311 4.1703-0.24042 0.0626-0.43831 0.0633-0.63061 2e-3zm4.6716-3.1942c2.0918-1.0597 3.8234-1.9521 3.8479-1.9831 0.035-0.0443 0.0445-0.82459 0.0445-3.6283 0-1.9646-8e-3 -3.5719-0.0177-3.5719-0.01 0-0.71407 0.34807-1.5652 0.77348l-1.5474 0.77349-0.0105 1.2715c-0.0101 1.22-0.0135 1.2755-0.084 1.3698-0.12985 0.1738-0.25103 0.241-0.43459 0.241-0.21201 0-0.36911-0.0888-0.46789-0.2646-0.0706-0.12561-0.0746-0.18418-0.0746-1.0982 0-0.53101-0.012-0.96531-0.0267-0.96509-0.0147 2.7e-4 -0.80389 0.38881-1.7538 0.86353l-1.727 0.86311-9e-3 3.641c-5e-3 2.0026-1e-3 3.641 7e-3 3.641 9e-3 0 1.7274-0.86702 3.8192-1.9267zm-4.9118-1.7464-9e-3 -3.6375-7.2643-3.7888-9e-3 3.5619c-7e-3 2.8104 4e-4 3.5757 0.0356 3.6273 0.0375 0.0548 7.1488 3.8638 7.229 3.8719 0.0148 1e-3 0.0228-1.6342 0.0178-3.6348zm2.3141-5.414c0.96439-0.47446 1.7416-0.87362 1.727-0.88702-0.0463-0.0427-7.2535-3.8505-7.2915-3.8523-0.0754-4e-3 -3.4359 1.8044-3.4072 1.8331 0.0292 0.0292 7.1646 3.7617 7.2004 3.7665 0.01 1e-3 0.80686-0.38582 1.7713-0.86028zm5.8441-2.9297c-0.0437-0.0425-7.5519-3.8292-7.5925-3.8292-0.0503 0-2.5752 1.3274-2.6308 1.383-0.0163 0.0163 1.6241 0.90424 3.6453 1.9733l3.6748 1.9437 1.458-0.72916c0.80189-0.40104 1.4522-0.73478 1.4452-0.74163z" fill="#999" stroke-width=".035609"/><path d="m233.64 165.95-4.608-2.6754v-10.587l4.608-2.6741c2.5344-1.4708 4.6684-2.6744 4.7422-2.6748 0.0738-3.3e-4 2.2078 1.2033 4.7422 2.6747l4.608 2.6754v10.586l-4.608 2.6754c-2.5344 1.4714-4.6684 2.6754-4.7422 2.6754-0.0738 0-2.2078-1.2039-4.7422-2.6754zm3.7366-3.7271-0.0234-3.543-3.0869-1.7913c-1.6978-0.9852-3.1377-1.8112-3.1998-1.8355-0.0899-0.0352-0.10812 0.67828-0.0895 3.511l0.0234 3.5552 3.1316 1.821c1.7224 1.0016 3.1623 1.822 3.1998 1.8233 0.0374 2e-3 0.0576-1.5921 0.0448-3.5408zm5.2557 1.7192 3.1316-1.8187 0.0234-3.5573c0.0186-2.8343 3.4e-4 -3.5484-0.0895-3.5134-0.0621 0.0242-1.502 0.84984-3.1998 1.8349l-3.0869 1.791-0.0234 3.5436c-0.0129 1.949 7e-3 3.5425 0.0448 3.5411 0.0374-2e-3 1.4774-0.82097 3.1998-1.8212zm-1.0429-8.8171c1.7326-1.0051 3.1189-1.8576 3.0808-1.8944-0.0382-0.0368-1.4686-0.87798-3.1787-1.8693l-3.1093-1.8025-3.1328 1.8179c-1.723 0.99982-3.123 1.8581-3.1111 1.9073 0.0221 0.0911 6.1572 3.7047 6.25 3.6813 0.028-7e-3 1.4684-0.8352 3.201-1.8403z" stroke-width=".089475"/><text x="250.61174" y="184.64917" fill="#000000" font-family="sans-serif" font-size="9.8778px" stop-color="#000000" stroke-linecap="round" stroke-linejoin="round" stroke-width="2" style="paint-order:markers stroke fill" xml:space="preserve"><tspan x="250.61174" y="184.64917" fill="#000000" stroke-width="2">hterrain</tspan></text><path d="m233.64 190.17-4.608-2.6754v-10.587l4.608-2.6741c2.5344-1.4708 4.6684-2.6744 4.7422-2.6748 0.0738-3.3e-4 2.2078 1.2033 4.7422 2.6747l4.608 2.6754v10.586l-4.608 2.6754c-2.5344 1.4714-4.6684 2.6754-4.7422 2.6754-0.0738 0-2.2078-1.2039-4.7422-2.6754zm3.7366-3.7271-0.0234-3.543-3.0869-1.7913c-1.6978-0.9852-3.1377-1.8112-3.1998-1.8355-0.0899-0.0352-0.10812 0.67828-0.0895 3.511l0.0234 3.5552 3.1316 1.821c1.7224 1.0016 3.1623 1.822 3.1998 1.8233 0.0374 2e-3 0.0576-1.5921 0.0448-3.5408zm5.2557 1.7192 3.1316-1.8187 0.0234-3.5573c0.0186-2.8343 3.4e-4 -3.5484-0.0895-3.5134-0.0621 0.0242-1.502 0.84984-3.1998 1.8349l-3.0869 1.791-0.0234 3.5436c-0.0129 1.949 7e-3 3.5425 0.0448 3.5411 0.0374-2e-3 1.4774-0.82097 3.1998-1.8212zm-1.0429-8.8171c1.7326-1.0051 3.1189-1.8576 3.0808-1.8944-0.0382-0.0368-1.4686-0.87798-3.1787-1.8693l-3.1093-1.8025-3.1328 1.8179c-1.723 0.99982-3.123 1.8581-3.1111 1.9073 0.0221 0.0911 6.1572 3.7047 6.25 3.6813 0.028-7e-3 1.4684-0.8352 3.201-1.8403z" stroke-width=".089475"/><text x="250.96382" y="209.58273" fill="#000000" font-family="sans-serif" font-size="9.8778px" stop-color="#000000" stroke-linecap="round" stroke-linejoin="round" stroke-width="2" style="paint-order:markers stroke fill" xml:space="preserve"><tspan x="250.96382" y="209.58273" fill="#000000" stroke-width="2">ownwar</tspan></text><path d="m233.64 215.1-4.608-2.6754v-10.587l4.608-2.6741c2.5344-1.4708 4.6684-2.6744 4.7422-2.6748 0.0738-3.3e-4 2.2078 1.2033 4.7422 2.6747l4.608 2.6754v10.586l-4.608 2.6754c-2.5344 1.4714-4.6684 2.6754-4.7422 2.6754-0.0738 0-2.2078-1.2039-4.7422-2.6754zm3.7366-3.7271-0.0234-3.543-3.0869-1.7913c-1.6978-0.9852-3.1377-1.8112-3.1998-1.8355-0.0899-0.0352-0.10812 0.67828-0.0895 3.511l0.0234 3.5552 3.1316 1.821c1.7224 1.0016 3.1623 1.822 3.1998 1.8233 0.0374 2e-3 0.0576-1.5921 0.0448-3.5408zm5.2557 1.7192 3.1316-1.8187 0.0234-3.5573c0.0186-2.8343 3.4e-4 -3.5484-0.0895-3.5134-0.0621 0.0242-1.502 0.84984-3.1998 1.8349l-3.0869 1.791-0.0234 3.5436c-0.0129 1.949 7e-3 3.5425 0.0448 3.5411 0.0374-2e-3 1.4774-0.82097 3.1998-1.8212zm-1.0429-8.8171c1.7326-1.0051 3.1189-1.8576 3.0808-1.8944-0.0382-0.0368-1.4686-0.87798-3.1787-1.8693l-3.1093-1.8025-3.1328 1.8179c-1.723 0.99982-3.123 1.8581-3.1111 1.9073 0.0221 0.0911 6.1572 3.7047 6.25 3.6813 0.028-7e-3 1.4684-0.8352 3.201-1.8403z" stroke-width=".089475"/><g fill="#000000" font-family="sans-serif" font-size="9.8778px" stroke-linecap="round" stroke-linejoin="round" stroke-width="2"><text x="226.35429" y="513.1922" stop-color="#000000" style="paint-order:markers stroke fill" xml:space="preserve"><tspan x="226.35429" y="513.1922" fill="#000000" stroke-width="2">rapier3d</tspan></text><text x="225.75641" y="539.27856" stop-color="#000000" style="paint-order:markers stroke fill" xml:space="preserve"><tspan x="225.75641" y="539.27856" fill="#000000" stroke-width="2">module/</tspan></text><text x="244.44717" y="561.73761" stop-color="#000000" style="paint-order:markers stroke fill" xml:space="preserve"><tspan x="244.44717" y="561.73761" fill="#000000" stroke-width="2">generate.py</tspan></text><text x="243.79218" y="582.06964" stop-color="#000000" style="paint-order:markers stroke fill" xml:space="preserve"><tspan x="243.79218" y="582.06964" fill="#000000" stroke-width="2">api.gen.h</tspan></text><text x="243.79218" y="591.7934" stop-color="#000000" style="paint-order:markers stroke fill" xml:space="preserve"><tspan x="243.79218" y="591.7934" fill="#000000" stroke-width="2">api.json</tspan></text><text x="243.85005" y="601.51715" stop-color="#000000" style="paint-order:markers stroke fill" xml:space="preserve"><tspan x="243.85005" y="601.51715" fill="#000000" stroke-width="2">server.gen.cpp</tspan></text><text x="130.60414" y="583.20917" stop-color="#000000" style="paint-order:markers stroke fill" xml:space="preserve"><tspan x="130.60414" y="583.20917" fill="#000000" stroke-width="2">import</tspan></text><text x="83.711464" y="492.63464" stop-color="#000000" style="paint-order:markers stroke fill" xml:space="preserve"><tspan x="83.711464" y="492.63464" fill="#000000" stroke-width="2">copy to here</tspan></text><text x="102.82622" y="381.00854" stop-color="#000000" style="paint-order:markers stroke fill" xml:space="preserve"><tspan x="102.82622" y="381.00854" fill="#000000" stroke-width="2">patch files</tspan></text><text x="117.47114" y="221.38452" stop-color="#000000" style="paint-order:markers stroke fill" xml:space="preserve"><tspan x="117.47114" y="221.38452" fill="#000000" stroke-width="2">complie</tspan></text></g><path d="m209.03 518.71-4.608-2.6754v-10.587l4.608-2.6741c2.5344-1.4708 4.6684-2.6744 4.7422-2.6748 0.0738-3.3e-4 2.2078 1.2033 4.7422 2.6747l4.608 2.6754v10.586l-4.608 2.6754c-2.5344 1.4714-4.6684 2.6754-4.7422 2.6754-0.0738 0-2.2078-1.2039-4.7422-2.6754zm3.7366-3.7271-0.0234-3.543-3.0869-1.7913c-1.6978-0.9852-3.1377-1.8112-3.1998-1.8355-0.0899-0.0352-0.10812 0.67828-0.0895 3.511l0.0234 3.5552 3.1316 1.821c1.7224 1.0016 3.1623 1.822 3.1998 1.8233 0.0374 2e-3 0.0576-1.5921 0.0448-3.5408zm5.2557 1.7192 3.1316-1.8187 0.0234-3.5573c0.0186-2.8343 3.4e-4 -3.5484-0.0895-3.5134-0.0621 0.0242-1.502 0.84984-3.1998 1.8349l-3.0869 1.791-0.0234 3.5436c-0.0129 1.949 7e-3 3.5425 0.0448 3.5411 0.0374-2e-3 1.4774-0.82097 3.1998-1.8212zm-1.0429-8.8171c1.7326-1.0051 3.1189-1.8576 3.0808-1.8944-0.0382-0.0368-1.4686-0.87798-3.1787-1.8693l-3.1093-1.8025-3.1328 1.8179c-1.723 0.99982-3.123 1.8581-3.1111 1.9073 0.0221 0.0911 6.1572 3.7047 6.25 3.6813 0.028-7e-3 1.4684-0.8352 3.201-1.8403z" stroke-width=".089475"/><g fill="#000000" font-family="sans-serif" font-size="9.8778px" stroke-linecap="round" stroke-linejoin="round" stroke-width="2"><text x="272.53598" y="230.97508" stop-color="#000000" style="paint-order:markers stroke fill" xml:space="preserve"><tspan x="272.53598" y="230.97508" fill="#000000" stroke-width="2">../../../../game-assets/godot/godot_rapier3d/rapier3d</tspan></text><text x="412.10074" y="504.27841" stop-color="#000000" style="paint-order:markers stroke fill" xml:space="preserve"><tspan x="412.10074" y="504.27841" fill="#000000" stroke-width="2">posible actually is import from</tspan></text><text x="333.74454" y="556.78546" stop-color="#000000" style="paint-order:markers stroke fill" xml:space="preserve"><tspan x="333.74454" y="556.78546" fill="#000000" stroke-width="2">create files</tspan></text></g><path d="m255.21 236.5-4.608-2.6754v-10.587l4.608-2.6741c2.5344-1.4708 4.6684-2.6744 4.7422-2.6748 0.0738-3.3e-4 2.2078 1.2033 4.7422 2.6747l4.608 2.6754v10.586l-4.608 2.6754c-2.5344 1.4714-4.6684 2.6754-4.7422 2.6754-0.0738 0-2.2078-1.2039-4.7422-2.6754zm3.7366-3.7271-0.0234-3.543-3.0869-1.7913c-1.6978-0.9852-3.1377-1.8112-3.1998-1.8355-0.0899-0.0352-0.10812 0.67828-0.0895 3.511l0.0234 3.5552 3.1316 1.821c1.7224 1.0016 3.1623 1.822 3.1998 1.8233 0.0374 2e-3 0.0576-1.5921 0.0448-3.5408zm5.2557 1.7192 3.1316-1.8187 0.0234-3.5573c0.0186-2.8343 3.4e-4 -3.5484-0.0895-3.5134-0.0621 0.0242-1.502 0.84984-3.1998 1.8349l-3.0869 1.791-0.0234 3.5436c-0.0129 1.949 7e-3 3.5425 0.0448 3.5411 0.0374-2e-3 1.4774-0.82097 3.1998-1.8212zm-1.0429-8.8171c1.7326-1.0051 3.1189-1.8576 3.0808-1.8944-0.0382-0.0368-1.4686-0.87798-3.1787-1.8693l-3.1093-1.8025-3.1328 1.8179c-1.723 0.99982-3.123 1.8581-3.1111 1.9073 0.0221 0.0911 6.1572 3.7047 6.25 3.6813 0.028-7e-3 1.4684-0.8352 3.201-1.8403z" fill="#999" stroke-width=".089475"/><path d="m211.06 140.99c-0.33257-0.0237-0.65898-0.14077-0.92545-0.33189-0.39719-0.28489-0.64899-0.71332-0.69046-1.1748-4e-3 -0.0475-5e-3 -1.2878-4e-3 -4.6511 2e-3 -4.2635 2e-3 -4.5901 0.0104-4.6385 0.0324-0.19459 0.0795-0.34212 0.15898-0.49794 0.15926-0.3124 0.41145-0.56452 0.73661-0.7364 0.10003-0.0529 0.21108-0.0974 0.34115-0.13692l0.0544-0.0165 7.6131-6e-3 0.0799-0.11136c0.044-0.0612 0.24507-0.3421 0.44687-0.62412 0.20181-0.28202 0.5029-0.70272 0.6691-0.93489l0.30218-0.42212h5.961l0.0737 0.0115c0.32559 0.0507 0.59361 0.1698 0.839 0.37284 0.0602 0.0498 0.16025 0.15149 0.21046 0.21391 0.0894 0.11116 0.1832 0.27284 0.23336 0.40236 0.0381 0.0983 0.0737 0.23732 0.0837 0.32665 2e-3 0.0178 6e-3 0.0324 8e-3 0.0324 7e-3 0 6e-3 11.33-8.1e-4 11.405-0.0332 0.37045-0.18856 0.70489-0.45554 0.98066-0.28559 0.29499-0.64802 0.47249-1.0826 0.53017-0.0669 9e-3 -0.38248 9e-3 -7.3367 0.01-3.9967 2.7e-4 -7.2936-1e-3 -7.3263-4e-3z" stroke-width=".0051794"/><text x="234.40051" y="252.00444" fill="#000000" font-family="sans-serif" font-size="9.8778px" stop-color="#000000" stroke-linecap="round" stroke-linejoin="round" stroke-width="2" style="paint-order:markers stroke fill" xml:space="preserve"><tspan x="234.40051" y="252.00444" fill="#000000" stroke-width="2">gd/</tspan></text><path d="m211.88 256.62c-0.33257-0.0237-0.65898-0.14077-0.92545-0.33189-0.39719-0.28489-0.64899-0.71332-0.69046-1.1748-4e-3 -0.0475-5e-3 -1.2878-4e-3 -4.6511 2e-3 -4.2635 2e-3 -4.5901 0.0104-4.6385 0.0324-0.19459 0.0795-0.34212 0.15898-0.49794 0.15926-0.3124 0.41145-0.56452 0.73661-0.7364 0.10003-0.0529 0.21108-0.0974 0.34115-0.13692l0.0544-0.0165 7.6131-6e-3 0.0799-0.11136c0.044-0.0612 0.24507-0.3421 0.44687-0.62412 0.20181-0.28202 0.5029-0.70272 0.6691-0.93489l0.30218-0.42212h5.961l0.0737 0.0115c0.32559 0.0507 0.59361 0.1698 0.839 0.37284 0.0602 0.0498 0.16025 0.15149 0.21046 0.21391 0.0894 0.11116 0.1832 0.27284 0.23336 0.40236 0.0381 0.0983 0.0737 0.23732 0.0837 0.32665 2e-3 0.0178 6e-3 0.0324 8e-3 0.0324 7e-3 0 6e-3 11.33-8.1e-4 11.405-0.0332 0.37045-0.18856 0.70489-0.45554 0.98066-0.28559 0.29499-0.64802 0.47249-1.0826 0.53017-0.0669 9e-3 -0.38248 9e-3 -7.3367 0.01-3.9967 2.7e-4 -7.2936-1e-3 -7.3263-4e-3z" stroke-width=".0051794"/><text x="257.12463" y="268.39944" fill="#000000" font-family="sans-serif" font-size="9.8778px" stop-color="#000000" stroke-linecap="round" stroke-linejoin="round" stroke-width="2" style="paint-order:markers stroke fill" xml:space="preserve"><tspan x="257.12463" y="268.39944" fill="#000000" stroke-width="2">lib/</tspan></text><text x="272.66138" y="289.56744" fill="#000000" font-family="sans-serif" font-size="9.8778px" stop-color="#000000" stroke-linecap="round" stroke-linejoin="round" stroke-width="2" style="paint-order:markers stroke fill" xml:space="preserve"><tspan x="272.66138" y="289.56744" fill="#000000" stroke-width="2">libownwar.so</tspan></text><path d="m259.2 335.64c-0.19449-0.0618-0.13361-0.0301-4.3265-2.2528-3.5676-1.8912-3.7295-1.9813-3.9242-2.1842-0.16342-0.17032-0.2173-0.25776-0.27598-0.44773-0.0716-0.23188-0.0729-0.30609-0.0729-4.1812 0-3.8751 1e-3 -3.9493 0.0729-4.1812 0.0586-0.18987 0.11265-0.27753 0.27598-0.44796 0.19506-0.20356 0.35631-0.29313 4.101-2.2781 2.1439-1.1364 3.9703-2.0938 4.0586-2.1276 0.19346-0.0739 0.59988-0.0797 0.80327-0.0115 0.11205 0.0376 5.2711 2.6378 7.9312 3.9973 0.54629 0.27922 0.71663 0.4288 0.87639 0.76962l0.0947 0.20208v8.1545l-0.0938 0.20013c-0.12615 0.26903-0.3169 0.47197-0.57903 0.61603-0.82317 0.45239-8.148 4.1279-8.311 4.1703-0.24042 0.0626-0.43831 0.0633-0.63061 2e-3zm4.6716-3.1942c2.0918-1.0597 3.8234-1.9521 3.8479-1.9831 0.035-0.0443 0.0445-0.82459 0.0445-3.6283 0-1.9646-8e-3 -3.5719-0.0177-3.5719-0.01 0-0.71407 0.34807-1.5652 0.77348l-1.5474 0.77349-0.0105 1.2715c-0.0101 1.22-0.0135 1.2755-0.084 1.3698-0.12985 0.1738-0.25103 0.241-0.43459 0.241-0.21201 0-0.36911-0.0888-0.46789-0.2646-0.0706-0.12561-0.0746-0.18418-0.0746-1.0982 0-0.53101-0.012-0.96531-0.0267-0.96509-0.0147 2.7e-4 -0.80389 0.38881-1.7538 0.86353l-1.727 0.86311-9e-3 3.641c-5e-3 2.0026-1e-3 3.641 7e-3 3.641 9e-3 0 1.7274-0.86702 3.8192-1.9267zm-4.9118-1.7464-9e-3 -3.6375-7.2643-3.7888-9e-3 3.5619c-7e-3 2.8104 4e-4 3.5757 0.0356 3.6273 0.0375 0.0548 7.1488 3.8638 7.229 3.8719 0.0148 1e-3 0.0228-1.6342 0.0178-3.6348zm2.3141-5.414c0.96439-0.47446 1.7416-0.87362 1.727-0.88702-0.0463-0.0427-7.2535-3.8505-7.2915-3.8523-0.0754-4e-3 -3.4359 1.8044-3.4072 1.8331 0.0292 0.0292 7.1646 3.7617 7.2004 3.7665 0.01 1e-3 0.80686-0.38582 1.7713-0.86028zm5.8441-2.9297c-0.0437-0.0425-7.5519-3.8292-7.5925-3.8292-0.0503 0-2.5752 1.3274-2.6308 1.383-0.0163 0.0163 1.6241 0.90424 3.6453 1.9733l3.6748 1.9437 1.458-0.72916c0.80189-0.40104 1.4522-0.73478 1.4452-0.74163z" fill="#999" stroke-width=".035609"/><text x="272.66138" y="330.22272" fill="#000000" font-family="sans-serif" font-size="9.8778px" stop-color="#000000" stroke-linecap="round" stroke-linejoin="round" stroke-width="2" style="paint-order:markers stroke fill" xml:space="preserve"><tspan x="272.66138" y="330.22272" fill="#000000" stroke-width="2">libgd_3d_batcher.so</tspan></text><path d="m259.2 315.35c-0.19449-0.0618-0.13361-0.0301-4.3265-2.2528-3.5676-1.8912-3.7295-1.9813-3.9242-2.1842-0.16342-0.17032-0.2173-0.25776-0.27598-0.44773-0.0716-0.23188-0.0729-0.30609-0.0729-4.1812 0-3.8751 1e-3 -3.9493 0.0729-4.1812 0.0586-0.18987 0.11265-0.27753 0.27598-0.44796 0.19506-0.20356 0.35631-0.29313 4.101-2.2781 2.1439-1.1364 3.9703-2.0938 4.0586-2.1276 0.19346-0.0739 0.59988-0.0797 0.80327-0.0115 0.11205 0.0376 5.2711 2.6378 7.9312 3.9973 0.54629 0.27922 0.71663 0.4288 0.87639 0.76962l0.0947 0.20208v8.1545l-0.0938 0.20013c-0.12615 0.26903-0.3169 0.47197-0.57903 0.61603-0.82317 0.45239-8.148 4.1279-8.311 4.1703-0.24042 0.0626-0.43831 0.0633-0.63061 2e-3zm4.6716-3.1942c2.0918-1.0597 3.8234-1.9521 3.8479-1.9831 0.035-0.0443 0.0445-0.82459 0.0445-3.6283 0-1.9646-8e-3 -3.5719-0.0177-3.5719-0.01 0-0.71407 0.34807-1.5652 0.77348l-1.5474 0.77349-0.0105 1.2715c-0.0101 1.22-0.0135 1.2755-0.084 1.3698-0.12985 0.1738-0.25103 0.241-0.43459 0.241-0.21201 0-0.36911-0.0888-0.46789-0.2646-0.0706-0.12561-0.0746-0.18418-0.0746-1.0982 0-0.53101-0.012-0.96531-0.0267-0.96509-0.0147 2.7e-4 -0.80389 0.38881-1.7538 0.86353l-1.727 0.86311-9e-3 3.641c-5e-3 2.0026-1e-3 3.641 7e-3 3.641 9e-3 0 1.7274-0.86702 3.8192-1.9267zm-4.9118-1.7464-9e-3 -3.6375-7.2643-3.7888-9e-3 3.5619c-7e-3 2.8104 4e-4 3.5757 0.0356 3.6273 0.0375 0.0548 7.1488 3.8638 7.229 3.8719 0.0148 1e-3 0.0228-1.6342 0.0178-3.6348zm2.3141-5.414c0.96439-0.47446 1.7416-0.87362 1.727-0.88702-0.0463-0.0427-7.2535-3.8505-7.2915-3.8523-0.0754-4e-3 -3.4359 1.8044-3.4072 1.8331 0.0292 0.0292 7.1646 3.7617 7.2004 3.7665 0.01 1e-3 0.80686-0.38582 1.7713-0.86028zm5.8441-2.9297c-0.0437-0.0425-7.5519-3.8292-7.5925-3.8292-0.0503 0-2.5752 1.3274-2.6308 1.383-0.0163 0.0163 1.6241 0.90424 3.6453 1.9733l3.6748 1.9437 1.458-0.72916c0.80189-0.40104 1.4522-0.73478 1.4452-0.74163z" fill="#999" stroke-width=".035609"/><text x="272.66138" y="309.92865" fill="#000000" font-family="sans-serif" font-size="9.8778px" stop-color="#000000" stroke-linecap="round" stroke-linejoin="round" stroke-width="2" style="paint-order:markers stroke fill" xml:space="preserve"><tspan x="272.66138" y="309.92865" fill="#000000" stroke-width="2">libhterrain.so</tspan></text><path d="m234.61 273.01c-0.33257-0.0237-0.65898-0.14077-0.92545-0.33189-0.39719-0.28489-0.64899-0.71332-0.69046-1.1748-4e-3 -0.0475-5e-3 -1.2878-4e-3 -4.6511 2e-3 -4.2635 2e-3 -4.5901 0.0104-4.6385 0.0324-0.19459 0.0795-0.34212 0.15898-0.49794 0.15926-0.3124 0.41145-0.56452 0.73661-0.7364 0.10003-0.0529 0.21108-0.0974 0.34115-0.13692l0.0544-0.0165 7.6131-6e-3 0.0799-0.11136c0.044-0.0612 0.24507-0.3421 0.44687-0.62412 0.20181-0.28202 0.5029-0.70272 0.6691-0.93489l0.30218-0.42212h5.961l0.0737 0.0115c0.32559 0.0507 0.59361 0.1698 0.839 0.37284 0.0602 0.0498 0.16025 0.15149 0.21046 0.21391 0.0894 0.11116 0.1832 0.27284 0.23336 0.40236 0.0381 0.0983 0.0737 0.23732 0.0837 0.32665 2e-3 0.0178 6e-3 0.0324 8e-3 0.0324 7e-3 0 6e-3 11.33-8.1e-4 11.405-0.0332 0.37045-0.18856 0.70489-0.45554 0.98066-0.28559 0.29499-0.64802 0.47249-1.0826 0.53017-0.0669 9e-3 -0.38248 9e-3 -7.3367 0.01-3.9967 2.7e-4 -7.2936-1e-3 -7.3263-4e-3z" stroke-width=".0051794"/><path d="m206.46 542.89c-0.33257-0.0237-0.65898-0.14077-0.92545-0.33189-0.39719-0.28489-0.64899-0.71332-0.69046-1.1748-4e-3 -0.0475-5e-3 -1.2878-4e-3 -4.6511 2e-3 -4.2635 2e-3 -4.5901 0.0104-4.6385 0.0324-0.19459 0.0795-0.34212 0.15898-0.49794 0.15926-0.3124 0.41145-0.56452 0.73661-0.7364 0.10003-0.0529 0.21108-0.0974 0.34115-0.13692l0.0544-0.0165 7.6131-6e-3 0.0799-0.11136c0.044-0.0612 0.24507-0.3421 0.44687-0.62412 0.20181-0.28202 0.5029-0.70272 0.6691-0.93489l0.30218-0.42212h5.961l0.0737 0.0115c0.32559 0.0507 0.59361 0.1698 0.839 0.37284 0.0602 0.0498 0.16025 0.15149 0.21046 0.21391 0.0894 0.11116 0.1832 0.27284 0.23336 0.40236 0.0381 0.0983 0.0737 0.23732 0.0837 0.32665 2e-3 0.0178 6e-3 0.0324 8e-3 0.0324 7e-3 0 6e-3 11.33-8.1e-4 11.405-0.0332 0.37045-0.18856 0.70489-0.45554 0.98066-0.28559 0.29499-0.64802 0.47249-1.0826 0.53017-0.0669 9e-3 -0.38248 9e-3 -7.3367 0.01-3.9967 2.7e-4 -7.2936-1e-3 -7.3263-4e-3z" stroke-width=".0051794"/><text x="227.44418" y="439.63223" fill="#000000" font-family="sans-serif" font-size="9.8778px" stop-color="#000000" stroke-linecap="round" stroke-linejoin="round" stroke-width="2" style="paint-order:markers stroke fill" xml:space="preserve"><tspan x="227.44418" y="439.63223" fill="#000000" stroke-width="2">module/</tspan></text><text x="247.39606" y="457.47406" fill="#000000" font-family="sans-serif" font-size="9.8778px" stop-color="#000000" stroke-linecap="round" stroke-linejoin="round" stroke-width="2" style="paint-order:markers stroke fill" xml:space="preserve"><tspan x="247.39606" y="457.47406" fill="#000000" stroke-width="2">pluggable_physics/</tspan></text><path d="m208.15 443.24c-0.33257-0.0237-0.65898-0.14077-0.92545-0.33189-0.39719-0.28489-0.64899-0.71332-0.69046-1.1748-4e-3 -0.0475-5e-3 -1.2878-4e-3 -4.6511 2e-3 -4.2635 2e-3 -4.5901 0.0104-4.6385 0.0324-0.19459 0.0795-0.34212 0.15898-0.49794 0.15926-0.3124 0.41145-0.56452 0.73661-0.7364 0.10003-0.0529 0.21108-0.0974 0.34115-0.13692l0.0544-0.0165 7.6131-6e-3 0.0799-0.11136c0.044-0.0612 0.24507-0.3421 0.44687-0.62412 0.20181-0.28202 0.5029-0.70272 0.6691-0.93489l0.30218-0.42212h5.961l0.0737 0.0115c0.32559 0.0507 0.59361 0.1698 0.839 0.37284 0.0602 0.0498 0.16025 0.15149 0.21046 0.21391 0.0894 0.11116 0.1832 0.27284 0.23336 0.40236 0.0381 0.0983 0.0737 0.23732 0.0837 0.32665 2e-3 0.0178 6e-3 0.0324 8e-3 0.0324 7e-3 0 6e-3 11.33-8.1e-4 11.405-0.0332 0.37045-0.18856 0.70489-0.45554 0.98066-0.28559 0.29499-0.64802 0.47249-1.0826 0.53017-0.0669 9e-3 -0.38248 9e-3 -7.3367 0.01-3.9967 2.7e-4 -7.2936-1e-3 -7.3263-4e-3z" stroke-width=".0051794"/><path d="m227.06 461.44c-0.33257-0.0237-0.65898-0.14077-0.92545-0.33189-0.39719-0.28489-0.64899-0.71332-0.69046-1.1748-4e-3 -0.0475-5e-3 -1.2878-4e-3 -4.6511 2e-3 -4.2635 2e-3 -4.5901 0.0104-4.6385 0.0324-0.19459 0.0795-0.34212 0.15898-0.49794 0.15926-0.3124 0.41145-0.56452 0.73661-0.7364 0.10003-0.0529 0.21108-0.0974 0.34115-0.13692l0.0544-0.0165 7.6131-6e-3 0.0799-0.11136c0.044-0.0612 0.24507-0.3421 0.44687-0.62412 0.20181-0.28202 0.5029-0.70272 0.6691-0.93489l0.30218-0.42212h5.961l0.0737 0.0115c0.32559 0.0507 0.59361 0.1698 0.839 0.37284 0.0602 0.0498 0.16025 0.15149 0.21046 0.21391 0.0894 0.11116 0.1832 0.27284 0.23336 0.40236 0.0381 0.0983 0.0737 0.23732 0.0837 0.32665 2e-3 0.0178 6e-3 0.0324 8e-3 0.0324 7e-3 0 6e-3 11.33-8.1e-4 11.405-0.0332 0.37045-0.18856 0.70489-0.45554 0.98066-0.28559 0.29499-0.64802 0.47249-1.0826 0.53017-0.0669 9e-3 -0.38248 9e-3 -7.3367 0.01-3.9967 2.7e-4 -7.2936-1e-3 -7.3263-4e-3z" fill="#999" stroke-width=".0051794"/><g stroke-width=".045041"><path d="m192.61 122.99c-0.0896-0.032-0.22129-0.10072-0.29276-0.15269-0.0715-0.052-1.8656-1.8338-3.9869-3.9597-4.2702-4.2794-4.0403-4.0165-3.9907-4.5637 0.0157-0.17359 0.0652-0.33831 0.13848-0.46138 0.0627-0.10527 1.2909-1.3669 2.7292-2.8036l2.6152-2.6122 1.9483 1.9483-0.0565 0.23552c-0.0721 0.30056-0.035 0.61001 0.10647 0.8893 0.11744 0.23174 0.40331 0.52231 0.56407 0.57333l0.0951 0.0302v4.7609l-0.15634 0.0966c-0.91786 0.56728-0.83551 1.8824 0.146 2.3318 0.212 0.0971 0.29177 0.10948 0.58943 0.0918 0.38211-0.0227 0.54891-0.0914 0.82313-0.33913 0.60282-0.54462 0.54451-1.5358-0.11783-2.0027l-0.20341-0.14338v-4.6886l0.90129 0.9004c0.63299 0.63236 0.89247 0.9205 0.87168 0.96795-0.0163 0.0371-0.039 0.19239-0.0505 0.34496-0.028 0.37165 0.0756 0.67222 0.32873 0.95376 0.52427 0.58313 1.4083 0.58362 1.9321 7.6e-4 0.45798-0.50939 0.45798-1.2344 0-1.7438-0.30977-0.34453-0.83044-0.52326-1.2148-0.41701l-0.1786 0.0494-0.95712-0.95625c-0.95706-0.95619-0.95711-0.95626-0.92337-1.1143 0.19902-0.93216-0.65721-1.774-1.5876-1.561-0.12875 0.0295-0.18184-0.0158-1.1256-0.96078l-0.99047-0.99171 0.8103-0.81377c0.44567-0.44758 0.89644-0.86502 1.0017-0.92766 0.12292-0.0731 0.288-0.12263 0.46138-0.13835 0.54732-0.0496 0.28193-0.28186 4.5862 4.0132 2.1382 2.1337 3.9384 3.9646 4.0004 4.0687 0.15324 0.25743 0.18546 0.60698 0.0847 0.9193-0.0746 0.23124-0.26233 0.42669-4.003 4.167-3.5909 3.5904-3.9437 3.9305-4.1468 3.9974-0.26402 0.0869-0.52827 0.0907-0.75159 0.0109z"/><path d="m194.28 405.03c-0.0896-0.032-0.22129-0.10072-0.29276-0.15269-0.0715-0.052-1.8656-1.8339-3.9869-3.9597-4.2702-4.2794-4.0403-4.0165-3.9907-4.5637 0.0157-0.17359 0.0652-0.33831 0.13848-0.46138 0.0627-0.10527 1.2909-1.3669 2.7292-2.8036l2.6152-2.6122 1.9483 1.9483-0.0565 0.23552c-0.0721 0.30056-0.035 0.61001 0.10647 0.8893 0.11744 0.23174 0.40331 0.52231 0.56407 0.57333l0.0951 0.0302v4.7609l-0.15634 0.0966c-0.91786 0.56728-0.83551 1.8824 0.146 2.3318 0.212 0.0971 0.29177 0.10948 0.58943 0.0918 0.38211-0.0227 0.54891-0.0914 0.82313-0.33913 0.60282-0.54462 0.54451-1.5358-0.11783-2.0027l-0.20341-0.14338v-4.6886l0.90129 0.9004c0.63299 0.63236 0.89247 0.9205 0.87169 0.96795-0.0163 0.0371-0.039 0.19239-0.0505 0.34496-0.028 0.37165 0.0756 0.67222 0.32872 0.95376 0.52427 0.58313 1.4083 0.58362 1.9321 7.6e-4 0.45798-0.50939 0.45798-1.2344 0-1.7438-0.30977-0.34453-0.83044-0.52326-1.2148-0.41701l-0.1786 0.0494-0.95712-0.95625c-0.95706-0.95619-0.95711-0.95626-0.92337-1.1143 0.19902-0.93216-0.65721-1.774-1.5876-1.561-0.12875 0.0295-0.18184-0.0158-1.1256-0.96078l-0.99047-0.99171 0.81031-0.81377c0.44566-0.44758 0.89643-0.86502 1.0017-0.92766 0.12292-0.0731 0.288-0.12263 0.46138-0.13835 0.54732-0.0496 0.28194-0.28186 4.5862 4.0132 2.1382 2.1337 3.9384 3.9646 4.0004 4.0687 0.15324 0.25743 0.18546 0.60698 0.0847 0.9193-0.0746 0.23124-0.26233 0.42669-4.003 4.167-3.5909 3.5904-3.9437 3.9306-4.1468 3.9974-0.26402 0.0869-0.52827 0.0907-0.75158 0.0109z"/><path d="m193.42 496.25c-0.0896-0.032-0.22129-0.10072-0.29276-0.15269-0.0715-0.052-1.8656-1.8339-3.9869-3.9597-4.2702-4.2794-4.0403-4.0165-3.9907-4.5637 0.0157-0.17359 0.0652-0.33831 0.13848-0.46138 0.0627-0.10527 1.2909-1.3669 2.7292-2.8036l2.6152-2.6122 1.9483 1.9483-0.0565 0.23552c-0.0721 0.30056-0.035 0.61001 0.10647 0.8893 0.11743 0.23174 0.4033 0.52231 0.56407 0.57333l0.0951 0.0302v4.7609l-0.15634 0.0966c-0.91786 0.56728-0.83552 1.8824 0.146 2.3318 0.212 0.0971 0.29176 0.10948 0.58943 0.0918 0.3821-0.0227 0.5489-0.0914 0.82312-0.33913 0.60283-0.54462 0.54451-1.5358-0.11782-2.0027l-0.20341-0.14338v-4.6886l0.90128 0.9004c0.63299 0.63236 0.89248 0.9205 0.87169 0.96795-0.0163 0.0371-0.039 0.19239-0.0505 0.34496-0.028 0.37165 0.0756 0.67222 0.32873 0.95376 0.52427 0.58313 1.4083 0.58362 1.9321 7.6e-4 0.45799-0.50939 0.45799-1.2344 0-1.7438-0.30976-0.34453-0.83043-0.52326-1.2148-0.41701l-0.17859 0.0494-0.95712-0.95625c-0.95706-0.95619-0.95712-0.95626-0.92338-1.1143 0.19903-0.93216-0.65721-1.774-1.5876-1.561-0.12875 0.0295-0.18185-0.0158-1.1256-0.96078l-0.99047-0.99171 0.81031-0.81377c0.44567-0.44758 0.89644-0.86502 1.0017-0.92766 0.12293-0.0731 0.28801-0.12263 0.46138-0.13835 0.54733-0.0496 0.28194-0.28186 4.5862 4.0132 2.1382 2.1337 3.9384 3.9646 4.0004 4.0687 0.15324 0.25743 0.18546 0.60698 0.0847 0.9193-0.0746 0.23124-0.26233 0.42669-4.003 4.167-3.5908 3.5904-3.9437 3.9306-4.1468 3.9974-0.26402 0.0869-0.52828 0.0907-0.75159 0.0109z"/></g><text x="202.15813" y="631.74896" fill="#000000" font-family="sans-serif" font-size="9.8778px" stop-color="#000000" stroke-linecap="round" stroke-linejoin="round" stroke-width="2" style="paint-order:markers stroke fill" xml:space="preserve"><tspan x="202.15813" y="631.74896" fill="#000000" stroke-width="2">Demindiro/rapier godot-0.10</tspan></text><path d="m191.84 636.81c-0.0895-0.032-0.22129-0.10072-0.29276-0.15269-0.0715-0.052-1.8656-1.8338-3.9869-3.9597-4.2702-4.2794-4.0403-4.0165-3.9907-4.5637 0.0157-0.17359 0.0652-0.33831 0.13848-0.46139 0.0627-0.10527 1.2909-1.3669 2.7292-2.8036l2.6152-2.6122 1.9483 1.9483-0.0565 0.23552c-0.0721 0.30057-0.035 0.61001 0.10647 0.8893 0.11744 0.23174 0.40331 0.52231 0.56407 0.57333l0.0951 0.0302v4.7609l-0.15634 0.0966c-0.91786 0.56728-0.83551 1.8824 0.146 2.3318 0.212 0.0971 0.29177 0.10948 0.58943 0.0918 0.38211-0.0227 0.54891-0.0914 0.82313-0.33913 0.60282-0.54462 0.54451-1.5358-0.11783-2.0027l-0.20341-0.14338v-4.6886l0.90129 0.9004c0.63299 0.63236 0.89247 0.9205 0.87169 0.96795-0.0163 0.0371-0.039 0.19239-0.0505 0.34496-0.028 0.37165 0.0756 0.67222 0.32872 0.95376 0.52427 0.58313 1.4083 0.58362 1.9321 7.6e-4 0.45798-0.50939 0.45798-1.2344 0-1.7438-0.30977-0.34453-0.83044-0.52326-1.2148-0.41701l-0.1786 0.0494-0.95712-0.95625c-0.95706-0.95619-0.95711-0.95626-0.92337-1.1143 0.19902-0.93216-0.65721-1.774-1.5876-1.561-0.12875 0.0295-0.18184-0.0158-1.1256-0.96078l-0.99047-0.99171 0.81031-0.81377c0.44566-0.44758 0.89643-0.86502 1.0017-0.92766 0.12292-0.0731 0.288-0.12263 0.46138-0.13835 0.54732-0.0496 0.28194-0.28186 4.5862 4.0132 2.1382 2.1337 3.9384 3.9646 4.0004 4.0687 0.15324 0.25743 0.18546 0.60698 0.0847 0.9193-0.0746 0.23124-0.26233 0.42669-4.003 4.167-3.5909 3.5904-3.9437 3.9306-4.1468 3.9974-0.26402 0.0869-0.52827 0.0907-0.75158 0.0109z" stroke-width=".045041"/><rect x="164.4" y="526.52" width="6.7715" height="6.7333" fill="#fff" stop-color="#000000" style="paint-order:markers stroke fill"/><g fill="none" stroke="#000" stroke-linecap="round" stroke-linejoin="round"><path d="m220.2 456.02h-71.76v73.331h44.514" marker-start="url(#Arrow1-1)" stop-color="#000000" style="paint-order:markers stroke fill"/><path d="m200.36 416.91h-42.378v-58.911h44.514" marker-start="url(#Arrow1-1-8)" stop-color="#000000" style="paint-order:markers stroke fill"/><path d="m245.43 286.66h-74.385v-79.609h51.455" marker-start="url(#Arrow1-1-8-8)" stop-color="#000000" style="paint-order:markers stroke fill"/><path d="m245.82 306.33h-79.497v-123.06h56.567" marker-start="url(#Arrow1-1-8-8-3)" stop-color="#000000" style="paint-order:markers stroke fill"/><path d="m246.21 326.66h-85.07v-168.67h62.141" marker-start="url(#Arrow1-1-8-8-3-3)" stop-color="#000000" style="paint-order:markers stroke fill"/><path d="m321.46 591.31h59.47v-31.551h-69.317" marker-start="url(#Arrow1-4)" stop-color="#000000" style="paint-order:markers stroke fill"/><path d="m538.98 227.16h30.104v283.09h-296.36" marker-start="url(#Arrow1-6)" stop-color="#000000" style="paint-order:markers stroke fill"/></g><g transform="translate(52.537 79.811)"><path d="m173.01 488.36c-0.74617-0.20376-1.3655-0.74251-1.7158-1.4925l-0.20934-0.44821v-14.866l0.20934-0.44821c0.22823-0.48867 0.60421-0.92317 1.0419-1.2041 0.59425-0.38138 0.84102-0.402 4.8117-0.402 2.5586 0 3.7308 0.0254 3.8501 0.0835 0.20968 0.10202 4.526 4.7736 4.7117 5.0995 0.12447 0.21842 0.13142 0.58949 0.11206 5.9848l-0.0206 5.752-0.20021 0.42715c-0.28036 0.59818-0.78788 1.1146-1.351 1.3747l-0.46571 0.2151-5.1917 0.0152c-4.3015 0.0126-5.2587-3e-3 -5.5823-0.0914zm10.713-1.1611c0.28216-0.10661 0.60351-0.41992 0.77739-0.75796 0.13614-0.26467 0.14257-0.50447 0.14257-5.3225v-5.0453l-1.1019-8.4e-4c-0.68119-5.7e-4 -1.2444-0.0391-1.4753-0.10081-0.90909-0.2432-1.523-0.7398-1.8948-1.5328-0.19119-0.40775-0.19757-0.46765-0.22177-2.0841l-0.0249-1.6643-3.3873 0.0209c-3.8087 0.0235-3.5168-0.0209-4.0287 0.61154l-0.22843 0.28221-0.0216 7.1831c-0.0119 3.9507-3e-3 7.2869 0.0198 7.4137 0.0227 0.12685 0.15687 0.36556 0.29803 0.53047 0.49205 0.57485 0.14584 0.54258 5.8431 0.54449 3.4212 8.4e-4 5.1625-0.0244 5.3038-0.0778zm0.49891-12.489c-0.12471-0.13352-0.86101-0.93189-1.6362-1.7742-0.77521-0.84225-1.4397-1.5438-1.4767-1.559-0.0389-0.0159-0.0549 0.47201-0.0379 1.1579 0.0239 0.96423 0.0549 1.2342 0.16617 1.4469 0.40216 0.76859 0.84224 0.94844 2.3563 0.96293l0.85504 8e-3z" stroke-width=".074701"/><g transform="matrix(.38798 0 0 .38798 109.19 277.3)" stroke-width=".26458"><path d="m190.01 517.84c-1.2128 6e-3 -2.3709 0.10906-3.39 0.28938-3.002 0.53036-3.5471 1.6404-3.5471 3.6876v2.7037h7.0941v0.90123h-9.7565c-2.0618 0-3.8671 1.2392-4.4318 3.5967-0.65135 2.7022-0.68024 4.3884 0 7.2099 0.50428 2.1002 1.7086 3.5967 3.7703 3.5967h2.4391v-3.2412c0-2.3415 2.026-4.407 4.4318-4.407h7.0859c1.9724 0 3.5471-1.6241 3.5471-3.605v-6.7551c0-1.9226-1.6219-3.3668-3.5471-3.6876-1.2187-0.20286-2.4831-0.29502-3.6959-0.28938zm-3.8365 2.1745c0.73278 0 1.3312 0.60818 1.3312 1.356-1e-5 0.74516-0.59841 1.3477-1.3312 1.3477-0.7354 0-1.3312-0.60256-1.3312-1.3477 0-0.74781 0.59578-1.356 1.3312-1.356z" fill="url(#linearGradient1478)"/><path d="m198.14 525.42v3.1502c0 2.4423-2.0706 4.4979-4.4318 4.4979h-7.0859c-1.9409 0-3.5471 1.6612-3.5471 3.605v6.7552c0 1.9226 1.6718 3.0534 3.5471 3.6049 2.2456 0.6603 4.399 0.77963 7.0859 0 1.786-0.5171 3.5471-1.5578 3.5471-3.6049v-2.7037h-7.0859v-0.90124h10.633c2.0618 0 2.83-1.4381 3.5471-3.5967 0.74065-2.2222 0.70914-4.3592 0-7.2099-0.50953-2.0525-1.4827-3.5967-3.5471-3.5967zm-3.9853 17.107c0.7354 0 1.3312 0.60257 1.3312 1.3477 0 0.7478-0.59579 1.356-1.3312 1.356-0.73278 0-1.3312-0.60819-1.3312-1.356 0-0.74515 0.5984-1.3477 1.3312-1.3477z" fill="url(#linearGradient1475)"/></g></g><g transform="matrix(.055907 0 0 .055907 201.6 492.55)" stroke-width=".26458"><g fill="#8f1f1d"><path d="m346.71 425.01c-34.828 0-66.471 4.187-89.897 11.011v58.287c23.427 6.8236 55.07 11.01 89.897 11.01 39.861 0 75.548-5.4846 99.519-14.129v-52.048c-23.971-8.6455-59.657-14.131-99.519-14.131"/><path d="m447.79 477.76c-1.0202-2.8212-1.2248-6.3907-0.35983-9.8324 1.5478-6.1619 5.9322-9.5774 9.793-7.6287 0.95726 0.48339 1.792 1.2515 2.4836 2.2273 0.0632-2.6e-4 0.12674 0 0.18918 4e-3 0 0 11.788 14.051 0.87657 30.692-0.23707 0.9443-20.25 24.267-24.882 25.009-3.0324 0.48577 3.9396-23.812 11.9-40.472"/><path d="m254.39 475.01c1.4023-2.5482 1.8939-6.0293 1.1158-9.6377-1.3933-6.4601-6.3262-10.877-11.018-9.865-1.1636 0.25082-2.2026 0.8128-3.0866 1.6137-0.0746-0.0156-0.14922-0.0299-0.22357-0.0405 0 0-14.894 11.1-3.1901 30.142 0.21299 0.98981 22.186 28.797 27.599 30.629 3.543 1.1988-2.9758-24.481-11.197-42.842"/></g><path d="m234.02 477.13 2e-3 4e-3c0.049 0.0384 0.0945 0.073-2e-3 -4e-3" fill="#e23a26"/><path d="m470.46 456.72c-0.23283-0.81068-0.4646-1.6208-0.70432-2.4241l8.1182-11.761c0.82815-1.1964 0.99775-2.7511 0.45773-4.1156-0.53975-1.3573-1.7171-2.331-3.1115-2.5691l-13.728-2.3297c-0.53129-1.0853-1.0888-2.1542-1.6481-3.2147l5.7671-13.204c0.59346-1.3459 0.46805-2.9091-0.31829-4.1296-0.78343-1.2266-2.114-1.9431-3.5319-1.8873l-13.932 0.50615c-0.72152-0.93927-1.4542-1.8701-2.2019-2.7837l3.202-14.153c0.32411-1.4375-0.0852-2.9416-1.0858-3.9857-0.99536-1.0403-2.4418-1.4708-3.8169-1.1332l-13.57 3.3359c-0.87868-0.77655-1.7724-1.5433-2.676-2.2947l0.48922-14.529c0.0521-1.4708-0.63342-2.8686-1.8111-3.6843-1.1761-0.82127-2.6704-0.94536-3.9568-0.33497l-12.66 6.0185c-1.0197-0.58473-2.0447-1.1642-3.0808-1.7243l-2.237-14.318c-0.22675-1.4507-1.1605-2.6826-2.4675-3.2454-1.3025-0.56541-2.7961-0.38285-3.9399 0.47837l-11.287 8.4685c-1.1112-0.36909-2.2275-0.72284-3.3581-1.0612l-4.8646-13.577c-0.49477-1.3835-1.6356-2.4-3.0263-2.6858-1.3859-0.28363-2.8125 0.19632-3.7738 1.2705l-9.5004 10.629c-1.1488-0.13229-2.2979-0.25294-3.451-0.35216l-7.335-12.359c-0.74375-1.252-2.0561-2.014-3.4703-2.014-1.4113 0-2.7263 0.762-3.4634 2.014l-7.3377 12.359c-1.1531 0.0992-2.3077 0.21987-3.4544 0.35216l-9.5012-10.629c-0.96203-1.0742-2.3937-1.5542-3.7751-1.2705-1.3904 0.28893-2.5328 1.3023-3.025 2.6858l-4.8689 13.577c-1.1271 0.3384-2.2439 0.69506-3.3578 1.0612l-11.283-8.4685c-1.1472-0.86413-2.6405-1.0464-3.9465-0.47837-1.3015 0.56277-2.2386 1.7947-2.4641 3.2454l-2.2386 14.318c-1.0356 0.56012-2.0608 1.1361-3.0832 1.7243l-12.658-6.0185c-1.2854-0.61277-2.7858-0.4863-3.9566 0.33497-1.1761 0.81571-1.8632 2.2135-1.8098 3.6843l0.48551 14.529c-0.90091 0.75141-1.7923 1.5182-2.6755 2.2947l-13.568-3.3359c-1.3787-0.3347-2.8231 0.0929-3.8208 1.1332-1.0041 1.044-1.4108 2.5482-1.0882 3.9857l3.1959 14.153c-0.74137 0.91731-1.4751 1.8444-2.1942 2.7837l-13.932-0.50615c-1.406-0.0415-2.748 0.66067-3.5338 1.8873-0.78687 1.2205-0.9062 2.7837-0.32041 4.1296l5.7716 13.204c-0.56066 1.0604-1.1176 2.1294-1.6534 3.2147l-13.727 2.3297c-1.3946 0.23495-2.5704 1.2081-3.1128 2.5691-0.53896 1.3645-0.3638 2.9192 0.45905 4.1156l8.1201 11.761c-0.0624 0.20743-0.12038 0.41698-0.18256 0.62547l-4.4617 4.739 11.996 16.947s115.13 53.11 221.93 0.89852c12.199-2.1889 15.043-20.785 15.043-20.785" fill="#e33b26"/><path d="m368.47 451s14.316-12.33 25.301 3.0427c0 0 7.7187 19.666-3.3319 27.704 0 0-17.82 10.973-25.301-3.0427 0 0-9.6216-11.463 3.3322-27.704"/><path d="m383.02 458.43c-0.64876 5.3935-4.354 9.384-8.2751 8.9122-3.9203-0.47122-6.5738-5.2268-5.9253-10.62 0.64875-5.3935 4.3542-9.3842 8.2746-8.913 3.9211 0.47201 6.5746 5.2276 5.9259 10.621" fill="#fff"/><path d="m311.4 441.22s22.856-6.998 26.199 15.16c0 0 3.1978 25.742-20.996 24.264-2.7e-4 0-29.926-9.5851-5.203-39.423"/><rect x="207.7" y="347.47" width="280.46" height="206.9" fill="none"/><path d="m321.71 452.33c-0.66886 5.5618-4.4897 9.6787-8.5347 9.1922-4.0431-0.48604-6.7797-5.3917-6.1106-10.953 0.66913-5.5631 4.4908-9.6787 8.5336-9.1924 4.0447 0.48657 6.7808 5.3906 6.1116 10.954" fill="#fff"/><path d="m237.23 479.55c2.9017-3.2975 9.9512-7.2911 9.4112-12.245-0.96652-8.8704-8.3227-15.346-16.43-14.462-2.0106 0.21881-3.8783 0.87101-5.5359 1.8613-0.1225-0.028-0.24474-0.0558-0.36724-0.0778 0 0-27.419 13.46-11.791 40.39 0.14737 1.3592 31.18 41.187 39.896 44.22 5.7042 1.9849-5.2681-34.036-15.183-59.687" fill="#e33b26"/><path d="m459.99 478.35c-3.3581-2.831-12.214-5.4023-12.414-10.382-0.35851-8.9157 5.9563-16.41 14.105-16.738 2.0209-0.0815 3.9642 0.28654 5.7504 1.0205 0.11695-0.046 0.23389-0.0918 0.35163-0.1315 0 0 29.111 9.2474 17.646 38.197 0.0556 1.366-24.73 45.354-32.9 49.645-5.3467 2.8086 1.4571-34.774 7.4599-61.612" fill="#e33b26"/><rect x="207.71" y="347.55" width="280.39" height="206.82" fill="none"/><path d="m258.27 479.91s-0.36592 36.326 35.234 44.432l7.4226-14.913s-25.796 2.4953-27.78-29.519h-14.876" fill="#e33b26"/><rect x="207.7" y="347.47" width="280.46" height="206.9" fill="none"/><g fill="#e33b26"><path d="m439.57 477.71s0.36565 36.326-35.234 44.432l-7.4229-14.913s25.796 2.4953 27.78-29.519h14.877"/><path d="m413.85 514.76c-5.3578-12.949-22.647-18.09-38.616-11.483-14.056 5.8155-22.394 18.794-20.538 30.651 11.098-0.17251 23.003-0.89191 34.591-2.5712 0 0-6.836 11.05-16.896 20.693 6.7643 1.746 14.653 1.2615 22.245-1.8796 15.969-6.6074 24.572-22.461 19.214-35.411"/><path d="m314.79 532.94s14.606 1.9301 34.573 2.4223c1.7489-12.571-7.7735-25.874-22.966-31.02-16.785-5.6854-34.128 0.73871-38.739 14.349-4.6104 13.61 5.2589 29.253 22.044 34.938 7.4403 2.5204 14.989 2.6588 21.492 0.84852-9.766-9.6584-16.404-21.537-16.404-21.537"/></g><rect x="207.71" y="347.55" width="280.39" height="206.82" fill="none"/></g><g transform="matrix(.055907 0 0 .055907 225.36 140.32)" stroke-width=".26458"><g fill="#8f1f1d"><path d="m346.71 425.01c-34.828 0-66.471 4.187-89.897 11.011v58.287c23.427 6.8236 55.07 11.01 89.897 11.01 39.861 0 75.548-5.4846 99.519-14.129v-52.048c-23.971-8.6455-59.657-14.131-99.519-14.131"/><path d="m447.79 477.76c-1.0202-2.8212-1.2248-6.3907-0.35983-9.8324 1.5478-6.1619 5.9322-9.5774 9.793-7.6287 0.95726 0.48339 1.792 1.2515 2.4836 2.2273 0.0632-2.6e-4 0.12674 0 0.18918 4e-3 0 0 11.788 14.051 0.87657 30.692-0.23707 0.9443-20.25 24.267-24.882 25.009-3.0324 0.48577 3.9396-23.812 11.9-40.472"/><path d="m254.39 475.01c1.4023-2.5482 1.8939-6.0293 1.1158-9.6377-1.3933-6.4601-6.3262-10.877-11.018-9.865-1.1636 0.25082-2.2026 0.8128-3.0866 1.6137-0.0746-0.0156-0.14922-0.0299-0.22357-0.0405 0 0-14.894 11.1-3.1901 30.142 0.21299 0.98981 22.186 28.797 27.599 30.629 3.543 1.1988-2.9758-24.481-11.197-42.842"/></g><path d="m234.02 477.13 2e-3 4e-3c0.049 0.0384 0.0945 0.073-2e-3 -4e-3" fill="#e23a26"/><path d="m470.46 456.72c-0.23283-0.81068-0.4646-1.6208-0.70432-2.4241l8.1182-11.761c0.82815-1.1964 0.99775-2.7511 0.45773-4.1156-0.53975-1.3573-1.7171-2.331-3.1115-2.5691l-13.728-2.3297c-0.53129-1.0853-1.0888-2.1542-1.6481-3.2147l5.7671-13.204c0.59346-1.3459 0.46805-2.9091-0.31829-4.1296-0.78343-1.2266-2.114-1.9431-3.5319-1.8873l-13.932 0.50615c-0.72152-0.93927-1.4542-1.8701-2.2019-2.7837l3.202-14.153c0.32411-1.4375-0.0852-2.9416-1.0858-3.9857-0.99536-1.0403-2.4418-1.4708-3.8169-1.1332l-13.57 3.3359c-0.87868-0.77655-1.7724-1.5433-2.676-2.2947l0.48922-14.529c0.0521-1.4708-0.63342-2.8686-1.8111-3.6843-1.1761-0.82127-2.6704-0.94536-3.9568-0.33497l-12.66 6.0185c-1.0197-0.58473-2.0447-1.1642-3.0808-1.7243l-2.237-14.318c-0.22675-1.4507-1.1605-2.6826-2.4675-3.2454-1.3025-0.56541-2.7961-0.38285-3.9399 0.47837l-11.287 8.4685c-1.1112-0.36909-2.2275-0.72284-3.3581-1.0612l-4.8646-13.577c-0.49477-1.3835-1.6356-2.4-3.0263-2.6858-1.3859-0.28363-2.8125 0.19632-3.7738 1.2705l-9.5004 10.629c-1.1488-0.13229-2.2979-0.25294-3.451-0.35216l-7.335-12.359c-0.74375-1.252-2.0561-2.014-3.4703-2.014-1.4113 0-2.7263 0.762-3.4634 2.014l-7.3377 12.359c-1.1531 0.0992-2.3077 0.21987-3.4544 0.35216l-9.5012-10.629c-0.96203-1.0742-2.3937-1.5542-3.7751-1.2705-1.3904 0.28893-2.5328 1.3023-3.025 2.6858l-4.8689 13.577c-1.1271 0.3384-2.2439 0.69506-3.3578 1.0612l-11.283-8.4685c-1.1472-0.86413-2.6405-1.0464-3.9465-0.47837-1.3015 0.56277-2.2386 1.7947-2.4641 3.2454l-2.2386 14.318c-1.0356 0.56012-2.0608 1.1361-3.0832 1.7243l-12.658-6.0185c-1.2854-0.61277-2.7858-0.4863-3.9566 0.33497-1.1761 0.81571-1.8632 2.2135-1.8098 3.6843l0.48551 14.529c-0.90091 0.75141-1.7923 1.5182-2.6755 2.2947l-13.568-3.3359c-1.3787-0.3347-2.8231 0.0929-3.8208 1.1332-1.0041 1.044-1.4108 2.5482-1.0882 3.9857l3.1959 14.153c-0.74137 0.91731-1.4751 1.8444-2.1942 2.7837l-13.932-0.50615c-1.406-0.0415-2.748 0.66067-3.5338 1.8873-0.78687 1.2205-0.9062 2.7837-0.32041 4.1296l5.7716 13.204c-0.56066 1.0604-1.1176 2.1294-1.6534 3.2147l-13.727 2.3297c-1.3946 0.23495-2.5704 1.2081-3.1128 2.5691-0.53896 1.3645-0.3638 2.9192 0.45905 4.1156l8.1201 11.761c-0.0624 0.20743-0.12038 0.41698-0.18256 0.62547l-4.4617 4.739 11.996 16.947s115.13 53.11 221.93 0.89852c12.199-2.1889 15.043-20.785 15.043-20.785" fill="#e33b26"/><path d="m368.47 451s14.316-12.33 25.301 3.0427c0 0 7.7187 19.666-3.3319 27.704 0 0-17.82 10.973-25.301-3.0427 0 0-9.6216-11.463 3.3322-27.704"/><path d="m383.02 458.43c-0.64876 5.3935-4.354 9.384-8.2751 8.9122-3.9203-0.47122-6.5738-5.2268-5.9253-10.62 0.64875-5.3935 4.3542-9.3842 8.2746-8.913 3.9211 0.47201 6.5746 5.2276 5.9259 10.621" fill="#fff"/><path d="m311.4 441.22s22.856-6.998 26.199 15.16c0 0 3.1978 25.742-20.996 24.264-2.7e-4 0-29.926-9.5851-5.203-39.423"/><rect x="207.7" y="347.47" width="280.46" height="206.9" fill="none"/><path d="m321.71 452.33c-0.66886 5.5618-4.4897 9.6787-8.5347 9.1922-4.0431-0.48604-6.7797-5.3917-6.1106-10.953 0.66913-5.5631 4.4908-9.6787 8.5336-9.1924 4.0447 0.48657 6.7808 5.3906 6.1116 10.954" fill="#fff"/><path d="m237.23 479.55c2.9017-3.2975 9.9512-7.2911 9.4112-12.245-0.96652-8.8704-8.3227-15.346-16.43-14.462-2.0106 0.21881-3.8783 0.87101-5.5359 1.8613-0.1225-0.028-0.24474-0.0558-0.36724-0.0778 0 0-27.419 13.46-11.791 40.39 0.14737 1.3592 31.18 41.187 39.896 44.22 5.7042 1.9849-5.2681-34.036-15.183-59.687" fill="#e33b26"/><path d="m459.99 478.35c-3.3581-2.831-12.214-5.4023-12.414-10.382-0.35851-8.9157 5.9563-16.41 14.105-16.738 2.0209-0.0815 3.9642 0.28654 5.7504 1.0205 0.11695-0.046 0.23389-0.0918 0.35163-0.1315 0 0 29.111 9.2474 17.646 38.197 0.0556 1.366-24.73 45.354-32.9 49.645-5.3467 2.8086 1.4571-34.774 7.4599-61.612" fill="#e33b26"/><rect x="207.71" y="347.55" width="280.39" height="206.82" fill="none"/><path d="m258.27 479.91s-0.36592 36.326 35.234 44.432l7.4226-14.913s-25.796 2.4953-27.78-29.519h-14.876" fill="#e33b26"/><rect x="207.7" y="347.47" width="280.46" height="206.9" fill="none"/><g fill="#e33b26"><path d="m439.57 477.71s0.36565 36.326-35.234 44.432l-7.4229-14.913s25.796 2.4953 27.78-29.519h14.877"/><path d="m413.85 514.76c-5.3578-12.949-22.647-18.09-38.616-11.483-14.056 5.8155-22.394 18.794-20.538 30.651 11.098-0.17251 23.003-0.89191 34.591-2.5712 0 0-6.836 11.05-16.896 20.693 6.7643 1.746 14.653 1.2615 22.245-1.8796 15.969-6.6074 24.572-22.461 19.214-35.411"/><path d="m314.79 532.94s14.606 1.9301 34.573 2.4223c1.7489-12.571-7.7735-25.874-22.966-31.02-16.785-5.6854-34.128 0.73871-38.739 14.349-4.6104 13.61 5.2589 29.253 22.044 34.938 7.4403 2.5204 14.989 2.6588 21.492 0.84852-9.766-9.6584-16.404-21.537-16.404-21.537"/></g><rect x="207.71" y="347.55" width="280.39" height="206.82" fill="none"/></g><g transform="matrix(.055907 0 0 .055907 225.97 163.37)" stroke-width=".26458"><g fill="#8f1f1d"><path d="m346.71 425.01c-34.828 0-66.471 4.187-89.897 11.011v58.287c23.427 6.8236 55.07 11.01 89.897 11.01 39.861 0 75.548-5.4846 99.519-14.129v-52.048c-23.971-8.6455-59.657-14.131-99.519-14.131"/><path d="m447.79 477.76c-1.0202-2.8212-1.2248-6.3907-0.35983-9.8324 1.5478-6.1619 5.9322-9.5774 9.793-7.6287 0.95726 0.48339 1.792 1.2515 2.4836 2.2273 0.0632-2.6e-4 0.12674 0 0.18918 4e-3 0 0 11.788 14.051 0.87657 30.692-0.23707 0.9443-20.25 24.267-24.882 25.009-3.0324 0.48577 3.9396-23.812 11.9-40.472"/><path d="m254.39 475.01c1.4023-2.5482 1.8939-6.0293 1.1158-9.6377-1.3933-6.4601-6.3262-10.877-11.018-9.865-1.1636 0.25082-2.2026 0.8128-3.0866 1.6137-0.0746-0.0156-0.14922-0.0299-0.22357-0.0405 0 0-14.894 11.1-3.1901 30.142 0.21299 0.98981 22.186 28.797 27.599 30.629 3.543 1.1988-2.9758-24.481-11.197-42.842"/></g><path d="m234.02 477.13 2e-3 4e-3c0.049 0.0384 0.0945 0.073-2e-3 -4e-3" fill="#e23a26"/><path d="m470.46 456.72c-0.23283-0.81068-0.4646-1.6208-0.70432-2.4241l8.1182-11.761c0.82815-1.1964 0.99775-2.7511 0.45773-4.1156-0.53975-1.3573-1.7171-2.331-3.1115-2.5691l-13.728-2.3297c-0.53129-1.0853-1.0888-2.1542-1.6481-3.2147l5.7671-13.204c0.59346-1.3459 0.46805-2.9091-0.31829-4.1296-0.78343-1.2266-2.114-1.9431-3.5319-1.8873l-13.932 0.50615c-0.72152-0.93927-1.4542-1.8701-2.2019-2.7837l3.202-14.153c0.32411-1.4375-0.0852-2.9416-1.0858-3.9857-0.99536-1.0403-2.4418-1.4708-3.8169-1.1332l-13.57 3.3359c-0.87868-0.77655-1.7724-1.5433-2.676-2.2947l0.48922-14.529c0.0521-1.4708-0.63342-2.8686-1.8111-3.6843-1.1761-0.82127-2.6704-0.94536-3.9568-0.33497l-12.66 6.0185c-1.0197-0.58473-2.0447-1.1642-3.0808-1.7243l-2.237-14.318c-0.22675-1.4507-1.1605-2.6826-2.4675-3.2454-1.3025-0.56541-2.7961-0.38285-3.9399 0.47837l-11.287 8.4685c-1.1112-0.36909-2.2275-0.72284-3.3581-1.0612l-4.8646-13.577c-0.49477-1.3835-1.6356-2.4-3.0263-2.6858-1.3859-0.28363-2.8125 0.19632-3.7738 1.2705l-9.5004 10.629c-1.1488-0.13229-2.2979-0.25294-3.451-0.35216l-7.335-12.359c-0.74375-1.252-2.0561-2.014-3.4703-2.014-1.4113 0-2.7263 0.762-3.4634 2.014l-7.3377 12.359c-1.1531 0.0992-2.3077 0.21987-3.4544 0.35216l-9.5012-10.629c-0.96203-1.0742-2.3937-1.5542-3.7751-1.2705-1.3904 0.28893-2.5328 1.3023-3.025 2.6858l-4.8689 13.577c-1.1271 0.3384-2.2439 0.69506-3.3578 1.0612l-11.283-8.4685c-1.1472-0.86413-2.6405-1.0464-3.9465-0.47837-1.3015 0.56277-2.2386 1.7947-2.4641 3.2454l-2.2386 14.318c-1.0356 0.56012-2.0608 1.1361-3.0832 1.7243l-12.658-6.0185c-1.2854-0.61277-2.7858-0.4863-3.9566 0.33497-1.1761 0.81571-1.8632 2.2135-1.8098 3.6843l0.48551 14.529c-0.90091 0.75141-1.7923 1.5182-2.6755 2.2947l-13.568-3.3359c-1.3787-0.3347-2.8231 0.0929-3.8208 1.1332-1.0041 1.044-1.4108 2.5482-1.0882 3.9857l3.1959 14.153c-0.74137 0.91731-1.4751 1.8444-2.1942 2.7837l-13.932-0.50615c-1.406-0.0415-2.748 0.66067-3.5338 1.8873-0.78687 1.2205-0.9062 2.7837-0.32041 4.1296l5.7716 13.204c-0.56066 1.0604-1.1176 2.1294-1.6534 3.2147l-13.727 2.3297c-1.3946 0.23495-2.5704 1.2081-3.1128 2.5691-0.53896 1.3645-0.3638 2.9192 0.45905 4.1156l8.1201 11.761c-0.0624 0.20743-0.12038 0.41698-0.18256 0.62547l-4.4617 4.739 11.996 16.947s115.13 53.11 221.93 0.89852c12.199-2.1889 15.043-20.785 15.043-20.785" fill="#e33b26"/><path d="m368.47 451s14.316-12.33 25.301 3.0427c0 0 7.7187 19.666-3.3319 27.704 0 0-17.82 10.973-25.301-3.0427 0 0-9.6216-11.463 3.3322-27.704"/><path d="m383.02 458.43c-0.64876 5.3935-4.354 9.384-8.2751 8.9122-3.9203-0.47122-6.5738-5.2268-5.9253-10.62 0.64875-5.3935 4.3542-9.3842 8.2746-8.913 3.9211 0.47201 6.5746 5.2276 5.9259 10.621" fill="#fff"/><path d="m311.4 441.22s22.856-6.998 26.199 15.16c0 0 3.1978 25.742-20.996 24.264-2.7e-4 0-29.926-9.5851-5.203-39.423"/><rect x="207.7" y="347.47" width="280.46" height="206.9" fill="none"/><path d="m321.71 452.33c-0.66886 5.5618-4.4897 9.6787-8.5347 9.1922-4.0431-0.48604-6.7797-5.3917-6.1106-10.953 0.66913-5.5631 4.4908-9.6787 8.5336-9.1924 4.0447 0.48657 6.7808 5.3906 6.1116 10.954" fill="#fff"/><path d="m237.23 479.55c2.9017-3.2975 9.9512-7.2911 9.4112-12.245-0.96652-8.8704-8.3227-15.346-16.43-14.462-2.0106 0.21881-3.8783 0.87101-5.5359 1.8613-0.1225-0.028-0.24474-0.0558-0.36724-0.0778 0 0-27.419 13.46-11.791 40.39 0.14737 1.3592 31.18 41.187 39.896 44.22 5.7042 1.9849-5.2681-34.036-15.183-59.687" fill="#e33b26"/><path d="m459.99 478.35c-3.3581-2.831-12.214-5.4023-12.414-10.382-0.35851-8.9157 5.9563-16.41 14.105-16.738 2.0209-0.0815 3.9642 0.28654 5.7504 1.0205 0.11695-0.046 0.23389-0.0918 0.35163-0.1315 0 0 29.111 9.2474 17.646 38.197 0.0556 1.366-24.73 45.354-32.9 49.645-5.3467 2.8086 1.4571-34.774 7.4599-61.612" fill="#e33b26"/><rect x="207.71" y="347.55" width="280.39" height="206.82" fill="none"/><path d="m258.27 479.91s-0.36592 36.326 35.234 44.432l7.4226-14.913s-25.796 2.4953-27.78-29.519h-14.876" fill="#e33b26"/><rect x="207.7" y="347.47" width="280.46" height="206.9" fill="none"/><g fill="#e33b26"><path d="m439.57 477.71s0.36565 36.326-35.234 44.432l-7.4229-14.913s25.796 2.4953 27.78-29.519h14.877"/><path d="m413.85 514.76c-5.3578-12.949-22.647-18.09-38.616-11.483-14.056 5.8155-22.394 18.794-20.538 30.651 11.098-0.17251 23.003-0.89191 34.591-2.5712 0 0-6.836 11.05-16.896 20.693 6.7643 1.746 14.653 1.2615 22.245-1.8796 15.969-6.6074 24.572-22.461 19.214-35.411"/><path d="m314.79 532.94s14.606 1.9301 34.573 2.4223c1.7489-12.571-7.7735-25.874-22.966-31.02-16.785-5.6854-34.128 0.73871-38.739 14.349-4.6104 13.61 5.2589 29.253 22.044 34.938 7.4403 2.5204 14.989 2.6588 21.492 0.84852-9.766-9.6584-16.404-21.537-16.404-21.537"/></g><rect x="207.71" y="347.55" width="280.39" height="206.82" fill="none"/></g><g transform="matrix(.055907 0 0 .055907 224.92 188.96)" stroke-width=".26458"><g fill="#8f1f1d"><path d="m346.71 425.01c-34.828 0-66.471 4.187-89.897 11.011v58.287c23.427 6.8236 55.07 11.01 89.897 11.01 39.861 0 75.548-5.4846 99.519-14.129v-52.048c-23.971-8.6455-59.657-14.131-99.519-14.131"/><path d="m447.79 477.76c-1.0202-2.8212-1.2248-6.3907-0.35983-9.8324 1.5478-6.1619 5.9322-9.5774 9.793-7.6287 0.95726 0.48339 1.792 1.2515 2.4836 2.2273 0.0632-2.6e-4 0.12674 0 0.18918 4e-3 0 0 11.788 14.051 0.87657 30.692-0.23707 0.9443-20.25 24.267-24.882 25.009-3.0324 0.48577 3.9396-23.812 11.9-40.472"/><path d="m254.39 475.01c1.4023-2.5482 1.8939-6.0293 1.1158-9.6377-1.3933-6.4601-6.3262-10.877-11.018-9.865-1.1636 0.25082-2.2026 0.8128-3.0866 1.6137-0.0746-0.0156-0.14922-0.0299-0.22357-0.0405 0 0-14.894 11.1-3.1901 30.142 0.21299 0.98981 22.186 28.797 27.599 30.629 3.543 1.1988-2.9758-24.481-11.197-42.842"/></g><path d="m234.02 477.13 2e-3 4e-3c0.049 0.0384 0.0945 0.073-2e-3 -4e-3" fill="#e23a26"/><path d="m470.46 456.72c-0.23283-0.81068-0.4646-1.6208-0.70432-2.4241l8.1182-11.761c0.82815-1.1964 0.99775-2.7511 0.45773-4.1156-0.53975-1.3573-1.7171-2.331-3.1115-2.5691l-13.728-2.3297c-0.53129-1.0853-1.0888-2.1542-1.6481-3.2147l5.7671-13.204c0.59346-1.3459 0.46805-2.9091-0.31829-4.1296-0.78343-1.2266-2.114-1.9431-3.5319-1.8873l-13.932 0.50615c-0.72152-0.93927-1.4542-1.8701-2.2019-2.7837l3.202-14.153c0.32411-1.4375-0.0852-2.9416-1.0858-3.9857-0.99536-1.0403-2.4418-1.4708-3.8169-1.1332l-13.57 3.3359c-0.87868-0.77655-1.7724-1.5433-2.676-2.2947l0.48922-14.529c0.0521-1.4708-0.63342-2.8686-1.8111-3.6843-1.1761-0.82127-2.6704-0.94536-3.9568-0.33497l-12.66 6.0185c-1.0197-0.58473-2.0447-1.1642-3.0808-1.7243l-2.237-14.318c-0.22675-1.4507-1.1605-2.6826-2.4675-3.2454-1.3025-0.56541-2.7961-0.38285-3.9399 0.47837l-11.287 8.4685c-1.1112-0.36909-2.2275-0.72284-3.3581-1.0612l-4.8646-13.577c-0.49477-1.3835-1.6356-2.4-3.0263-2.6858-1.3859-0.28363-2.8125 0.19632-3.7738 1.2705l-9.5004 10.629c-1.1488-0.13229-2.2979-0.25294-3.451-0.35216l-7.335-12.359c-0.74375-1.252-2.0561-2.014-3.4703-2.014-1.4113 0-2.7263 0.762-3.4634 2.014l-7.3377 12.359c-1.1531 0.0992-2.3077 0.21987-3.4544 0.35216l-9.5012-10.629c-0.96203-1.0742-2.3937-1.5542-3.7751-1.2705-1.3904 0.28893-2.5328 1.3023-3.025 2.6858l-4.8689 13.577c-1.1271 0.3384-2.2439 0.69506-3.3578 1.0612l-11.283-8.4685c-1.1472-0.86413-2.6405-1.0464-3.9465-0.47837-1.3015 0.56277-2.2386 1.7947-2.4641 3.2454l-2.2386 14.318c-1.0356 0.56012-2.0608 1.1361-3.0832 1.7243l-12.658-6.0185c-1.2854-0.61277-2.7858-0.4863-3.9566 0.33497-1.1761 0.81571-1.8632 2.2135-1.8098 3.6843l0.48551 14.529c-0.90091 0.75141-1.7923 1.5182-2.6755 2.2947l-13.568-3.3359c-1.3787-0.3347-2.8231 0.0929-3.8208 1.1332-1.0041 1.044-1.4108 2.5482-1.0882 3.9857l3.1959 14.153c-0.74137 0.91731-1.4751 1.8444-2.1942 2.7837l-13.932-0.50615c-1.406-0.0415-2.748 0.66067-3.5338 1.8873-0.78687 1.2205-0.9062 2.7837-0.32041 4.1296l5.7716 13.204c-0.56066 1.0604-1.1176 2.1294-1.6534 3.2147l-13.727 2.3297c-1.3946 0.23495-2.5704 1.2081-3.1128 2.5691-0.53896 1.3645-0.3638 2.9192 0.45905 4.1156l8.1201 11.761c-0.0624 0.20743-0.12038 0.41698-0.18256 0.62547l-4.4617 4.739 11.996 16.947s115.13 53.11 221.93 0.89852c12.199-2.1889 15.043-20.785 15.043-20.785" fill="#e33b26"/><path d="m368.47 451s14.316-12.33 25.301 3.0427c0 0 7.7187 19.666-3.3319 27.704 0 0-17.82 10.973-25.301-3.0427 0 0-9.6216-11.463 3.3322-27.704"/><path d="m383.02 458.43c-0.64876 5.3935-4.354 9.384-8.2751 8.9122-3.9203-0.47122-6.5738-5.2268-5.9253-10.62 0.64875-5.3935 4.3542-9.3842 8.2746-8.913 3.9211 0.47201 6.5746 5.2276 5.9259 10.621" fill="#fff"/><path d="m311.4 441.22s22.856-6.998 26.199 15.16c0 0 3.1978 25.742-20.996 24.264-2.7e-4 0-29.926-9.5851-5.203-39.423"/><rect x="207.7" y="347.47" width="280.46" height="206.9" fill="none"/><path d="m321.71 452.33c-0.66886 5.5618-4.4897 9.6787-8.5347 9.1922-4.0431-0.48604-6.7797-5.3917-6.1106-10.953 0.66913-5.5631 4.4908-9.6787 8.5336-9.1924 4.0447 0.48657 6.7808 5.3906 6.1116 10.954" fill="#fff"/><path d="m237.23 479.55c2.9017-3.2975 9.9512-7.2911 9.4112-12.245-0.96652-8.8704-8.3227-15.346-16.43-14.462-2.0106 0.21881-3.8783 0.87101-5.5359 1.8613-0.1225-0.028-0.24474-0.0558-0.36724-0.0778 0 0-27.419 13.46-11.791 40.39 0.14737 1.3592 31.18 41.187 39.896 44.22 5.7042 1.9849-5.2681-34.036-15.183-59.687" fill="#e33b26"/><path d="m459.99 478.35c-3.3581-2.831-12.214-5.4023-12.414-10.382-0.35851-8.9157 5.9563-16.41 14.105-16.738 2.0209-0.0815 3.9642 0.28654 5.7504 1.0205 0.11695-0.046 0.23389-0.0918 0.35163-0.1315 0 0 29.111 9.2474 17.646 38.197 0.0556 1.366-24.73 45.354-32.9 49.645-5.3467 2.8086 1.4571-34.774 7.4599-61.612" fill="#e33b26"/><rect x="207.71" y="347.55" width="280.39" height="206.82" fill="none"/><path d="m258.27 479.91s-0.36592 36.326 35.234 44.432l7.4226-14.913s-25.796 2.4953-27.78-29.519h-14.876" fill="#e33b26"/><rect x="207.7" y="347.47" width="280.46" height="206.9" fill="none"/><g fill="#e33b26"><path d="m439.57 477.71s0.36565 36.326-35.234 44.432l-7.4229-14.913s25.796 2.4953 27.78-29.519h14.877"/><path d="m413.85 514.76c-5.3578-12.949-22.647-18.09-38.616-11.483-14.056 5.8155-22.394 18.794-20.538 30.651 11.098-0.17251 23.003-0.89191 34.591-2.5712 0 0-6.836 11.05-16.896 20.693 6.7643 1.746 14.653 1.2615 22.245-1.8796 15.969-6.6074 24.572-22.461 19.214-35.411"/><path d="m314.79 532.94s14.606 1.9301 34.573 2.4223c1.7489-12.571-7.7735-25.874-22.966-31.02-16.785-5.6854-34.128 0.73871-38.739 14.349-4.6104 13.61 5.2589 29.253 22.044 34.938 7.4403 2.5204 14.989 2.6588 21.492 0.84852-9.766-9.6584-16.404-21.537-16.404-21.537"/></g><rect x="207.71" y="347.55" width="280.39" height="206.82" fill="none"/></g><g transform="matrix(.047908 0 0 .047908 210.73 241.1)" stroke-width=".32031"><g transform="matrix(1.1014 0 0 -1.1014 409.86 337.09)"><path d="m0 0s-0.325 1.994-0.515 1.976l-36.182-3.491c-2.879-0.278-5.115-2.574-5.317-5.459l-0.994-14.247-27.992-1.997-1.904 12.912c-0.424 2.872-2.932 5.037-5.835 5.037h-38.188c-2.902 0-5.41-2.165-5.834-5.037l-1.905-12.912-27.992 1.997-0.994 14.247c-0.202 2.886-2.438 5.182-5.317 5.46l-36.2 3.49c-0.187 0.018-0.324-1.978-0.511-1.978l-0.049-7.83 30.658-4.944 1.004-14.374c0.203-2.91 2.551-5.263 5.463-5.472l38.551-2.75c0.146-0.01 0.29-0.016 0.434-0.016 2.897 0 5.401 2.166 5.825 5.038l1.959 13.286h28.005l1.959-13.286c0.423-2.871 2.93-5.037 5.831-5.037 0.142 0 0.284 5e-3 0.423 0.015l38.556 2.75c2.911 0.209 5.26 2.562 5.463 5.472l1.003 14.374 30.645 4.966z" fill="#fff"/></g><g transform="matrix(1.1014 0 0 -1.1014 194.34 272.07)"><path d="m0 0v-59.041c0.108-1e-3 0.216-5e-3 0.323-0.015l36.196-3.49c1.896-0.183 3.382-1.709 3.514-3.609l1.116-15.978 31.574-2.253 2.175 14.747c0.282 1.912 1.922 3.329 3.856 3.329h38.188c1.933 0 3.573-1.417 3.855-3.329l2.175-14.747 31.575 2.253 1.115 15.978c0.133 1.9 1.618 3.425 3.514 3.609l36.182 3.49c0.107 0.01 0.214 0.014 0.322 0.015v4.711l0.015 5e-3v54.325h0.134c4.795 6.12 9.232 12.569 13.487 19.449-5.651 9.62-12.575 18.217-19.976 26.182-6.864-3.455-13.531-7.369-19.828-11.534-3.151 3.132-6.7 5.694-10.186 8.372-3.425 2.751-7.285 4.768-10.946 7.118 1.09 8.117 1.629 16.108 1.846 24.448-9.446 4.754-19.519 7.906-29.708 10.17-4.068-6.837-7.788-14.241-11.028-21.479-3.842 0.642-7.702 0.88-11.567 0.926v6e-3c-0.027 0-0.052-6e-3 -0.075-6e-3 -0.024 0-0.049 6e-3 -0.073 6e-3v-6e-3c-3.872-0.046-7.729-0.284-11.572-0.926-3.238 7.238-6.956 14.642-11.03 21.479-10.184-2.264-20.258-5.416-29.703-10.17 0.216-8.34 0.755-16.331 1.848-24.448-3.668-2.35-7.523-4.367-10.949-7.118-3.481-2.678-7.036-5.24-10.188-8.372-6.297 4.165-12.962 8.079-19.828 11.534-7.401-7.965-14.321-16.562-19.974-26.182 4.253-6.88 8.693-13.329 13.487-19.449z" fill="#478cbf"/></g><g transform="matrix(1.1014 0 0 -1.1014 374.1 349.15)"><path d="m0 0-1.121-16.063c-0.135-1.936-1.675-3.477-3.611-3.616l-38.555-2.751c-0.094-7e-3 -0.188-0.01-0.281-0.01-1.916 0-3.569 1.406-3.852 3.33l-2.211 14.994h-31.459l-2.211-14.994c-0.297-2.018-2.101-3.469-4.133-3.32l-38.555 2.751c-1.936 0.139-3.476 1.68-3.611 3.616l-1.121 16.063-32.547 3.138c0.015-3.498 0.06-7.33 0.06-8.093 0-34.374 43.605-50.896 97.781-51.086h0.133c54.176 0.19 97.766 16.712 97.766 51.086 0 0.777 0.047 4.593 0.063 8.093z" fill="#478cbf"/></g><g transform="matrix(1.1014 0 0 -1.1014 269.62 298.46)"><path d="m0 0c0-12.052-9.765-21.815-21.813-21.815-12.042 0-21.81 9.763-21.81 21.815 0 12.044 9.768 21.802 21.81 21.802 12.048 0 21.813-9.758 21.813-21.802" fill="#fff"/></g><g transform="matrix(1.1014 0 0 -1.1014 263.84 299.89)"><path d="m0 0c0-7.994-6.479-14.473-14.479-14.473-7.996 0-14.479 6.479-14.479 14.473s6.483 14.479 14.479 14.479c8 0 14.479-6.485 14.479-14.479" fill="#414042"/></g><g transform="matrix(1.1014 0 0 -1.1014 302.11 324.67)"><path d="m0 0c-3.878 0-7.021 2.858-7.021 6.381v20.081c0 3.52 3.143 6.381 7.021 6.381s7.028-2.861 7.028-6.381v-20.081c0-3.523-3.15-6.381-7.028-6.381" fill="#fff"/></g><g transform="matrix(1.1014 0 0 -1.1014 334.6 298.46)"><path d="m0 0c0-12.052 9.765-21.815 21.815-21.815 12.041 0 21.808 9.763 21.808 21.815 0 12.044-9.767 21.802-21.808 21.802-12.05 0-21.815-9.758-21.815-21.802" fill="#fff"/></g><g transform="matrix(1.1014 0 0 -1.1014 340.38 299.89)"><path d="m0 0c0-7.994 6.477-14.473 14.471-14.473 8.002 0 14.479 6.479 14.479 14.473s-6.477 14.479-14.479 14.479c-7.994 0-14.471-6.485-14.471-14.479" fill="#414042"/></g></g><text transform="scale(.26458)" fill="#999999" font-family="sans-serif" font-size="37.333px" stop-color="#000000" style="paint-order:markers stroke fill;shape-inside:url(#rect9081);white-space:pre" xml:space="preserve"/><path d="m198.01 509.61h-30.104v118.92h11.16" fill="none" marker-start="url(#Arrow1)" stop-color="#000000" stroke="#000" stroke-linecap="round" stroke-linejoin="round" style="paint-order:markers stroke fill"/><rect x="155.65" y="249.86" width="18.138" height="6.5642" fill="#fff" stop-color="#000000" style="paint-order:markers stroke fill"/><path d="m201.64 252.7h-112.96v147.34h93.867" fill="none" marker-start="url(#Arrow1-1-8-9)" stop-color="#000000" stroke="#000" stroke-linecap="round" stroke-linejoin="round" style="paint-order:markers stroke fill"/><rect x="84.335" y="307.13" width="11.001" height="25.86" fill="#fff" stop-color="#000000" style="paint-order:markers stroke fill"/><text x="61.232529" y="316.75778" fill="#000000" font-family="sans-serif" font-size="9.8778px" stop-color="#000000" stroke-linecap="round" stroke-linejoin="round" stroke-width="2" style="paint-order:markers stroke fill" xml:space="preserve"><tspan x="61.232529" y="316.75778">build game engine</tspan><tspan x="61.232529" y="329.10498">to open project</tspan></text></g></svg>
