<?xml version="1.0" encoding="UTF-8"?>
<!-- Created with Inkscape (http://www.inkscape.org/) -->
<svg width="600mm" height="400mm" version="1.1" viewBox="0 0 600 400" xmlns="http://www.w3.org/2000/svg" xmlns:cc="http://creativecommons.org/ns#" xmlns:dc="http://purl.org/dc/elements/1.1/" xmlns:rdf="http://www.w3.org/1999/02/22-rdf-syntax-ns#">
 <defs>
  <marker id="marker4351" overflow="visible" orient="auto">
   <path transform="matrix(-.4 0 0 -.4 -4 0)" d="m0 0 5-5-17.5 5 17.5 5z" fill="#00f" fill-rule="evenodd" stroke="#00f" stroke-width="1pt"/>
  </marker>
  <marker id="marker7316" overflow="visible" orient="auto">
   <path transform="matrix(-.4 0 0 -.4 -4 0)" d="m0 0 5-5-17.5 5 17.5 5z" fill="#7a6b91" fill-rule="evenodd" stroke="#7a6b91" stroke-width="1pt"/>
  </marker>
  <marker id="marker7276" overflow="visible" orient="auto">
   <path transform="matrix(.4 0 0 .4 4 0)" d="m0 0 5-5-17.5 5 17.5 5z" fill="#f00" fill-rule="evenodd" stroke="#f00" stroke-width="1pt"/>
  </marker>
  <marker id="Arrow1Mend" overflow="visible" orient="auto">
   <path transform="matrix(-.4 0 0 -.4 -4 0)" d="m0 0 5-5-17.5 5 17.5 5z" fill-rule="evenodd" stroke="#000" stroke-width="1pt"/>
  </marker>
  <marker id="Arrow1Mstart" overflow="visible" orient="auto">
   <path transform="matrix(.4 0 0 .4 4 0)" d="m0 0 5-5-17.5 5 17.5 5z" fill-rule="evenodd" stroke="#000" stroke-width="1pt"/>
  </marker>
  <marker id="Arrow1Mstart-3" overflow="visible" orient="auto">
   <path transform="matrix(.4 0 0 .4 4 0)" d="m0 0 5-5-17.5 5 17.5 5z" fill="#f00" fill-rule="evenodd" stroke="#f00" stroke-width="1pt"/>
  </marker>
  <marker id="Arrow1Mstart-3-1" overflow="visible" orient="auto">
   <path transform="matrix(.4 0 0 .4 4 0)" d="m0 0 5-5-17.5 5 17.5 5z" fill="#00f" fill-rule="evenodd" stroke="#00f" stroke-width="1pt"/>
  </marker>
  <marker id="Arrow1Mstart-2" overflow="visible" orient="auto">
   <path transform="matrix(.4 0 0 .4 4 0)" d="m0 0 5-5-17.5 5 17.5 5z" fill="#7a6b91" fill-rule="evenodd" stroke="#7a6b91" stroke-width="1pt"/>
  </marker>
  <marker id="Arrow1Mend-9" overflow="visible" orient="auto">
   <path transform="matrix(-.4 0 0 -.4 -4 0)" d="m0 0 5-5-17.5 5 17.5 5z" fill="#7a6b91" fill-rule="evenodd" stroke="#7a6b91" stroke-width="1pt"/>
  </marker>
  <marker id="Arrow1Mend-5" overflow="visible" orient="auto">
   <path transform="matrix(-.4 0 0 -.4 -4 0)" d="m0 0 5-5-17.5 5 17.5 5z" fill-rule="evenodd" stroke="#000" stroke-width="1pt"/>
  </marker>
 </defs>
 <metadata>
  <rdf:RDF>
   <cc:Work rdf:about="">
    <dc:format>image/svg+xml</dc:format>
    <dc:type rdf:resource="http://purl.org/dc/dcmitype/StillImage"/>
   </cc:Work>
  </rdf:RDF>
 </metadata>
 <rect transform="translate(-54.939 233.98)" x="55.943" y="-232.98" width="597.99" height="397.99" fill="#fff" stroke="#000" stroke-linecap="round" stroke-linejoin="round" stroke-width="2.0086" style="paint-order:normal"/>
 <g transform="translate(-54.939 233.98)">
  <g fill="none">
   <g stroke="#000">
    <path d="m193.11-162.37 76.779 311.61" marker-end="url(#Arrow1Mend)" marker-start="url(#Arrow1Mstart)" stroke-width="2.0116"/>
    <g stroke-width="2.5144">
     <path d="m225.28-33.526 72.707-113.64"/>
     <path d="m104.13-93.735 120.82 60.419"/>
     <path d="m260.39 107.82 73.765-115.29"/>
     <path d="m139 47.775 120.82 60.419"/>
    </g>
   </g>
   <path d="m168.04 62.298c9.1358-29.147-30.89-50.713-14.528-69.302 16.362-18.59-27.072-46.202-14.528-69.302" stroke="#f00" stroke-width="2.5144"/>
   <path d="m304.65 38.463c9.1358-29.147-21.818 12.378-14.528-69.302 7.2904-81.68-18.111-36.716-20.308-73.582" stroke="#00f" stroke-width="2.5144"/>
   <path d="m119.32-155.57 19.667 79.268" marker-start="url(#Arrow1Mstart-3)" stroke="#f00" stroke-dasharray="8.04622936, 8.04622936" stroke-width="2.0116"/>
   <path d="m323.25 116.65-18.598-78.186" marker-start="url(#Arrow1Mstart-3-1)" stroke="#00f" stroke-dasharray="8.04622945, 8.04622945" stroke-width="2.0116"/>
  </g>
  <g>
   <text transform="scale(.99424 1.0058)" x="135.85292" y="98.319656" fill="#ff0000" font-family="sans-serif" font-size="27.132px" letter-spacing="0px" stroke-width=".6783" word-spacing="0px" style="line-height:1.25" xml:space="preserve"><tspan x="135.85292" y="98.319656" fill="#ff0000" stroke-width=".6783">f(0)</tspan></text>
   <text transform="scale(.99424 1.0058)" x="234.66585" y="-128.50989" fill="#0000ff" font-family="sans-serif" font-size="27.132px" letter-spacing="0px" stroke-width=".6783" word-spacing="0px" style="line-height:1.25" xml:space="preserve"><tspan x="234.66585" y="-128.50989" fill="#0000ff" stroke-width=".6783">g(0)</tspan></text>
   <g>
    <ellipse cx="269.55" cy="-104.83" rx="5.1026" ry="5.1619" fill="#00f" style="paint-order:normal"/>
    <ellipse cx="167.69" cy="61.688" rx="5.1026" ry="5.1619" fill="#f00" style="paint-order:normal"/>
    <ellipse cx="137.07" cy="-76.728" rx="5.1026" ry="5.1619" fill="#f00" style="paint-order:normal"/>
    <ellipse cx="304.65" cy="38.463" rx="5.1026" ry="5.1619" fill="#00f" style="paint-order:normal"/>
   </g>
   <text transform="scale(.99424 1.0058)" x="318.01086" y="45.234337" fill="#0000ff" font-family="sans-serif" font-size="27.132px" letter-spacing="0px" stroke-width=".6783" word-spacing="0px" style="line-height:1.25" xml:space="preserve"><tspan x="318.01086" y="45.234337" fill="#0000ff" stroke-width=".6783">g(t)</tspan></text>
   <text transform="scale(.99424 1.0058)" x="78.226982" y="-57.883026" fill="#ff0000" font-family="sans-serif" font-size="27.132px" letter-spacing="0px" stroke-width=".6783" word-spacing="0px" style="line-height:1.25" xml:space="preserve"><tspan x="78.226982" y="-57.883026" fill="#ff0000" stroke-width=".6783">f(t)</tspan></text>
  </g>
  <path d="m269.78-103.05-87.104-48.983-47.161 73.99 89.438 44.724z" fill="#aa87de" opacity=".452" stroke="#a100ff" stroke-dasharray="4.02311461, 4.02311461" stroke-width="2.0116"/>
  <g>
   <text transform="scale(.99424 1.0058)" x="190.28493" y="-53.865402" fill="#0000ff" font-family="sans-serif" font-size="27.132px" letter-spacing="0px" stroke-width=".6783" word-spacing="0px" style="line-height:1.25" xml:space="preserve"><tspan x="190.28493" y="-53.865402" fill="#0000ff" stroke-width=".6783">o<tspan baseline-shift="sub" font-size="65%">g</tspan></tspan></text>
   <ellipse cx="223.6" cy="-35.48" rx="5.1026" ry="5.1619" fill="#00f" style="paint-order:normal"/>
   <text transform="scale(.99424 1.0058)" x="99.458641" y="-166.10611" fill="#ff0000" font-family="sans-serif" font-size="27.132px" letter-spacing="0px" stroke-width=".6783" word-spacing="0px" style="line-height:1.25" xml:space="preserve"><tspan x="99.458641" y="-166.10611" fill="#ff0000" stroke-width=".6783">f(x)</tspan></text>
   <text transform="scale(.99424 1.0058)" x="323.67145" y="143.59627" fill="#0000ff" font-family="sans-serif" font-size="27.132px" letter-spacing="0px" stroke-width=".6783" word-spacing="0px" style="line-height:1.25" xml:space="preserve"><tspan x="323.67145" y="143.59627" fill="#0000ff" stroke-width=".6783">g(x)</tspan></text>
  </g>
  <path d="m331.57-199.15 34.867 141.51" fill="none" marker-end="url(#Arrow1Mend-9)" marker-start="url(#Arrow1Mstart-2)" stroke="#7a6b91" stroke-width="2.0116"/>
  <text transform="scale(.99424 1.0058)" x="359.06863" y="-132.20688" fill="#7a6b91" font-family="sans-serif" font-size="27.132px" letter-spacing="0px" stroke-width=".6783" word-spacing="0px" style="line-height:1.25" xml:space="preserve"><tspan x="359.06863" y="-132.20688" fill="#7a6b91" stroke-width=".6783">t</tspan></text>
  <path d="m291.43-54.97-81.228-47.946-53.233 89.124 83.562 43.688z" fill="#aa87de" opacity=".452" stroke="#a100ff" stroke-dasharray="4.02311461, 4.02311461" stroke-width="2.0116"/>
  <path d="m304.65 38.463-89.448-50.155-47.161 73.99 91.782 45.896z" fill="#aa87de" opacity=".452" stroke="#a100ff" stroke-dasharray="4.02311457, 4.02311457" stroke-width="2.0116"/>
  <g fill="none" stroke-width="2.5144">
   <path d="m254.17-27.959c105.9 22.245 138.78-29.364 195.24-51.797" marker-end="url(#marker7316)" stroke="#7a6b91" stroke-linecap="round"/>
   <path d="m333.57-7.0837 47.035-73.512" stroke="#000" stroke-dasharray="2.51444661, 5.02889321"/>
   <path d="m297.98-147.16 47.035-73.512" stroke="#000" stroke-dasharray="2.51444664, 5.02889326"/>
  </g>
  <g fill="#7a6b91">
   <path d="m481.79-101.62c-1.4744-1.6246-2.8183-4.2252-3.5722-6.9127-0.84929-3.0275-0.85463-8.4391-0.0113-11.443 0.80477-2.8669 1.9714-5.0948 3.5545-6.7882 1.7127-1.832 2.1289-1.8463 0.69518-0.0239-1.3104 1.6657-2.3601 3.9119-3.0332 6.4906-0.375 1.4366-0.48905 2.8412-0.48905 6.0222 0 3.1811 0.11405 4.5856 0.48905 6.0222 0.67313 2.5788 1.7228 4.8249 3.0332 6.4906 1.3752 1.7481 0.88595 1.8526-0.66622 0.14235zm18.957 1.028c0-0.12918 0.19912-0.40018 0.44251-0.60222 0.92722-0.76972 2.4264-3.5088 3.1598-5.7732 0.73541-2.2705 0.76269-2.5412 0.74995-7.4416-0.0126-4.845-0.0479-5.1867-0.7461-7.2267-0.78032-2.2798-1.9079-4.3526-3.0197-5.5511-1.087-1.1718-0.41143-1.224 0.73166-0.0565 1.4374 1.468 2.8063 3.881 3.6369 6.4106 0.64707 1.9708 0.70303 2.4928 0.70303 6.5576 0 4.0647-0.056 4.5868-0.70303 6.5575-0.80918 2.4645-2.1838 4.9121-3.5701 6.3568-0.94837 0.9883-1.3849 1.2306-1.3849 0.76882zm31.048-1.028c-1.4744-1.6246-2.8183-4.2252-3.5722-6.9127-0.8493-3.0275-0.85464-8.4391-0.0113-11.443 0.80476-2.8669 1.9714-5.0948 3.5545-6.7882 1.7127-1.832 2.1289-1.8463 0.69518-0.0239-1.3104 1.6657-2.3601 3.9119-3.0332 6.4906-0.375 1.4366-0.48906 2.8412-0.48906 6.0222 0 3.1811 0.11406 4.5856 0.48906 6.0222 0.67314 2.5788 1.7228 4.8249 3.0332 6.4906 1.3753 1.7481 0.88596 1.8526-0.66622 0.14235zm62.083 1.028c0-0.12918 0.19913-0.40018 0.44251-0.60222 0.92721-0.76972 2.4264-3.5088 3.1599-5.7732 0.73542-2.2705 0.76269-2.5412 0.74994-7.4416-0.0127-4.845-0.0479-5.1867-0.74608-7.2267-0.78033-2.2798-1.9079-4.3526-3.0197-5.5511-1.087-1.1718-0.41145-1.224 0.73163-0.0565 1.4374 1.468 2.8063 3.881 3.6369 6.4106 0.64705 1.9708 0.70304 2.4928 0.70304 6.5576 0 4.0647-0.056 4.5868-0.70304 6.5575-0.80919 2.4645-2.1838 4.9121-3.5701 6.3568-0.94835 0.9883-1.3849 1.2306-1.3849 0.76882zm-131.23-1.4481c-1.2335-0.62815-0.93256-2.5995 0.39686-2.5995 0.95347 0 1.339 0.66774 0.83499 1.446-0.37573 0.5801-0.37671 0.66183-0.01 0.80431 0.63195 0.24532 1.8412 0.18807 2.6631-0.12608 1.3557-0.51816 2.1897-1.6012 2.7642-3.5896 0.93849-3.248 0.92124-3.0386 0.19624-2.3821-1.9919 1.8036-4.4133 1.4976-5.5203-0.69746-1.5388-3.0514 0.45324-8.2528 3.7857-9.8848 1.5389-0.75364 2.6025-0.71463 3.597 0.13195 0.73982 0.62976 0.84849 0.6534 1.2298 0.26765 0.54084-0.54713 1.1465-0.54008 1.3573 0.0158 0.0916 0.24142-0.58348 3.5133-1.5001 7.2708-1.6596 6.8032-1.6712 6.8365-2.7544 7.9307-0.61978 0.62605-1.5564 1.2404-2.1768 1.428-1.4045 0.42453-4.0162 0.41618-4.864-0.0156zm6.097-6.6228c1.2787-0.9211 1.7386-1.8711 2.4816-5.1258 0.6737-2.9514 0.68986-3.1735 0.28808-3.9595-1.32-2.5823-4.0975-1.0797-5.4298 2.9377-0.31736 0.95687-0.63852 2.5829-0.7137 3.6133-0.12117 1.6608-0.0688 1.96 0.4612 2.6352 0.49031 0.62459 0.73765 0.73333 1.3748 0.60442 0.42732-0.0865 1.1194-0.40387 1.5379-0.70534zm42.441 6.3105c-0.83627-0.846-0.82328-1.5747 0.0403-2.2619 0.5293-0.4212 0.80622-0.48578 1.1906-0.27767 0.65439 0.3543 0.63531 1.0099-0.0509 1.7488l-0.55178 0.59417 0.54179 0.17396c0.82932 0.26627 1.5302-0.26794 2.0014-1.5255 0.23506-0.62732 0.99886-4.1761 1.6974-7.8861l1.27-6.7455-1.2113-0.0797c-1.5603-0.10266-1.4603-0.5756 0.15831-0.74884l1.2503-0.13383 0.44513-2.295c0.5184-2.6727 0.96963-3.6657 2.105-4.6322 1.1423-0.97239 3.0456-0.8665 3.7554 0.20893 0.67947 1.0294-0.30182 2.7835-1.366 2.4418-0.722-0.23182-0.71986-1.2955 4e-3 -1.9777l0.5521-0.52033-0.5521-0.17727c-1.4091-0.45242-1.9187 0.27304-2.5332 3.606-0.23068 1.2513-0.47688 2.5461-0.54711 2.8773-0.12031 0.56739-0.0432 0.60223 1.3325 0.60223 1.1216 0 1.4602 0.0931 1.4602 0.40148 0 0.31044-0.34586 0.40149-1.5253 0.40149h-1.5253l-1.1167 5.8544c-1.2659 6.6369-1.8807 8.5229-3.2543 9.9837-1.1997 1.2758-2.5364 1.4133-3.5705 0.36718zm-21.991-5.1146c-0.0873-0.23015 0.49074-2.6089 1.2845-5.2862l1.4433-4.8677-1.4511-0.0815c-1.798-0.10106-2.7516 0.28255-3.7508 1.5089-0.42652 0.52346-0.8565 0.86982-0.95548 0.76969-0.30149-0.305 1.315-2.6831 2.2632-3.3295 0.84284-0.57459 1.1434-0.60727 5.5858-0.60727 3.6813 0 4.7244 0.0775 4.8311 0.35884 0.32552 0.85817-0.29328 1.1118-3.0428 1.2471l-2.7196 0.13383-0.94263 4.9585c-0.51845 2.7272-1.0327 5.106-1.1428 5.2862-0.28479 0.46616-1.2142 0.40603-1.4026-0.0907zm48.242-0.12845c-1.0847-0.86317-1.0924-1.8513-0.0479-6.1445 0.51935-2.1346 1.0082-4.0918 1.0864-4.3494 0.12472-0.41091-0.0576-0.46839-1.4852-0.46839-1.1837 0-1.5976-0.0912-1.5182-0.33457 0.0673-0.20616 0.7245-0.36486 1.7123-0.41349l1.6031-0.0789 0.57614-2.3239c0.63097-2.545 0.88217-3.0052 1.6402-3.0052 0.7867 0 0.83952 0.60237 0.24503 2.7945-0.30267 1.1161-0.55031 2.1484-0.55031 2.2939 0 0.14556 0.65483 0.26466 1.4552 0.26466 1.1171 0 1.4552 0.0933 1.4552 0.40148 0 0.31198-0.35164 0.40149-1.5773 0.40149h-1.5773l-0.26064 1.0037c-1.9718 7.5932-2.2582 9.5711-1.4325 9.8916 0.80285 0.31166 2.281-0.83786 3.1274-2.4321 0.43682-0.82276 0.88352-1.4978 0.99265-1.5001 0.4487-9e-3 0.14661 1.0539-0.64135 2.2573-1.4356 2.1925-3.3598 2.8903-4.8031 1.7418zm44.89 0.12845c-0.0873-0.23015 0.49074-2.6089 1.2846-5.2862l1.4433-4.8677-1.4511-0.0815c-1.798-0.10106-2.7516 0.28255-3.7508 1.5089-0.42652 0.52346-0.85648 0.86982-0.95547 0.76969-0.30149-0.305 1.315-2.6831 2.2632-3.3295 0.84284-0.57459 1.1434-0.60727 5.5858-0.60727 3.6813 0 4.7244 0.0775 4.8311 0.35884 0.32552 0.85817-0.29328 1.1118-3.0428 1.2471l-2.7196 0.13383-0.94262 4.9585c-0.51845 2.7272-1.0327 5.106-1.1428 5.2862-0.28478 0.46616-1.2142 0.40603-1.4026-0.0907zm23.326 0.16311c-1.3286-0.55594-2.2489-2.3188-2.2489-4.308 0-1.6942 1.0138-4.1613 2.3087-5.6183 2.1986-2.4739 4.5039-3.0998 5.8896-1.5991l0.73782 0.79902 0.84994-3.4579c0.46743-1.9018 0.77145-3.5863 0.67559-3.7432-0.0959-0.15693-0.52447-0.28532-0.95243-0.28532-1.3006 0-0.94793-0.70666 0.44941-0.90041 2.0093-0.27861 2.7411-0.21508 2.7411 0.23793 0 0.22447-0.89295 4.0155-1.9843 8.4245-2.0456 8.2637-2.2786 9.7317-1.5875 10 0.93327 0.36229 1.6448-0.50072 2.2314-2.7064 0.38017-1.4295 0.94672-1.5503 0.68634-0.14628-0.2479 1.3369-1.0854 2.9438-1.7106 3.2823-1.1653 0.63088-2.789-0.0409-3.2499-1.3445-0.10642-0.30106-0.30475-0.23112-0.89896 0.31707-1.3806 1.2736-2.6144 1.6023-3.9374 1.0487zm2.4605-0.65755c1.5873-0.83888 2.1764-1.8303 2.9788-5.0126 0.97955-3.8851 0.97762-4.3526-0.022-5.364-1.0426-1.0547-1.8684-0.88114-3.3207 0.69785-1.3511 1.469-2.3306 4.4723-2.3488 7.202-0.0109 1.6079 0.0635 1.8918 0.61236 2.342 0.74524 0.61116 1.1498 0.63709 2.1005 0.13465zm12.577 0.49444c-0.0873-0.23015 0.49074-2.6089 1.2846-5.2862l1.4433-4.8677-1.4511-0.0815c-1.798-0.10106-2.7516 0.28255-3.7508 1.5089-0.4265 0.52346-0.85646 0.86982-0.95544 0.76969-0.30152-0.305 1.315-2.6831 2.2632-3.3295 0.84285-0.57459 1.1435-0.60727 5.5858-0.60727 3.6813 0 4.7244 0.0775 4.8311 0.35884 0.32551 0.85817-0.29328 1.1118-3.0428 1.2471l-2.7196 0.13383-0.94264 4.9585c-0.51841 2.7272-1.0327 5.106-1.1428 5.2862-0.28482 0.46616-1.2142 0.40603-1.4027-0.0907zm-67.821-6.8082c0-0.53541 0.11469-0.54196 8.2681-0.47221 7.1419 0.0611 8.2681 0.12541 8.2681 0.47221s-1.1261 0.41112-8.2681 0.47221c-8.1534 0.0698-8.2681 0.0632-8.2681-0.47221z" stroke="#443266" stroke-width=".26611"/>
   <path d="m482.85-38.04c-1.4744-1.6246-2.8183-4.2252-3.5722-6.9127-0.84929-3.0275-0.85463-8.4391-0.0113-11.443 0.80477-2.8669 1.9714-5.0949 3.5545-6.7882 1.7127-1.832 2.1289-1.8463 0.69518-0.02387-1.3104 1.6657-2.3601 3.9119-3.0332 6.4906-0.375 1.4366-0.48905 2.8411-0.48905 6.0222 0 3.1811 0.11405 4.5856 0.48905 6.0223 0.67313 2.5788 1.7228 4.8249 3.0332 6.4906 1.3752 1.7481 0.88595 1.8527-0.66622 0.14236zm62.083 1.0279c0-0.12917 0.19913-0.40017 0.44251-0.60222 0.92723-0.76971 2.4264-3.5088 3.1598-5.7731 0.73542-2.2705 0.76271-2.5412 0.74997-7.4417-0.0126-4.845-0.0479-5.1867-0.74611-7.2267-0.78031-2.2798-1.9079-4.3526-3.0197-5.551-1.087-1.1718-0.41144-1.224 0.73165-0.05655 1.4374 1.468 2.8063 3.881 3.6369 6.4106 0.64707 1.9708 0.70303 2.4928 0.70303 6.5576 0 4.0648-0.056 4.5868-0.70303 6.5576-0.80918 2.4645-2.1838 4.9121-3.5701 6.3568-0.94837 0.98829-1.3849 1.2307-1.3849 0.76882zm31.048-1.0279c-1.4744-1.6246-2.8183-4.2252-3.5722-6.9127-0.84929-3.0275-0.85464-8.4391-0.0113-11.443 0.80477-2.8669 1.9714-5.0949 3.5545-6.7882 1.7127-1.832 2.1289-1.8463 0.69518-0.02387-1.3104 1.6657-2.3601 3.9119-3.0332 6.4906-0.375 1.4366-0.48906 2.8411-0.48906 6.0222 0 3.1811 0.11406 4.5856 0.48906 6.0223 0.67314 2.5788 1.7228 4.8249 3.0332 6.4906 1.3752 1.7481 0.88594 1.8527-0.66624 0.14236zm18.957 1.0279c0-0.12917 0.19912-0.40017 0.44251-0.60222 0.92721-0.76971 2.4264-3.5088 3.1599-5.7731 0.73541-2.2705 0.76269-2.5412 0.74994-7.4417-0.0127-4.845-0.0479-5.1867-0.74608-7.2267-0.78033-2.2798-1.9079-4.3526-3.0197-5.551-1.087-1.1718-0.41146-1.224 0.73163-0.05655 1.4374 1.468 2.8063 3.881 3.6369 6.4106 0.64705 1.9708 0.70304 2.4928 0.70304 6.5576 0 4.0648-0.056 4.5868-0.70304 6.5576-0.80919 2.4645-2.1838 4.9121-3.5701 6.3568-0.94835 0.98829-1.3849 1.2307-1.3849 0.76882zm-131.23-1.4481c-1.2335-0.62814-0.93256-2.5995 0.39686-2.5995 0.95346 0 1.339 0.66775 0.83499 1.446-0.37573 0.5801-0.37671 0.66183-0.01 0.8043 0.63195 0.24534 1.8412 0.18808 2.6631-0.12607 1.3557-0.51817 2.1897-1.6012 2.7642-3.5896 0.93848-3.248 0.92123-3.0386 0.19624-2.3821-1.9919 1.8036-4.4133 1.4976-5.5203-0.69747-1.5388-3.0514 0.45324-8.2529 3.7857-9.8848 1.5389-0.75365 2.6025-0.71463 3.597 0.13194 0.73982 0.62976 0.84849 0.65341 1.2298 0.26766 0.54084-0.54713 1.1465-0.54008 1.3573 0.01578 0.0916 0.24141-0.58348 3.5133-1.5001 7.2708-1.6596 6.8032-1.6712 6.8365-2.7544 7.9307-0.61977 0.62607-1.5564 1.2405-2.1768 1.428-1.4045 0.42452-4.0162 0.41618-4.864-0.01558zm6.097-6.6228c1.2787-0.9211 1.7386-1.8711 2.4816-5.1258 0.6737-2.9514 0.68986-3.1735 0.28808-3.9595-1.32-2.5823-4.0975-1.0797-5.4299 2.9377-0.31735 0.95686-0.63851 2.5829-0.71369 3.6133-0.12117 1.6609-0.0688 1.9601 0.4612 2.6352 0.49031 0.62458 0.73765 0.73332 1.3748 0.60442 0.42731-0.08649 1.1194-0.40386 1.5379-0.70534zm85.567 6.3105c-0.83627-0.846-0.82329-1.5747 0.0403-2.2619 0.5293-0.42119 0.80623-0.48577 1.1906-0.27768 0.6544 0.35431 0.63532 1.0099-0.0509 1.7488l-0.55178 0.59418 0.54179 0.17396c0.82931 0.26627 1.5302-0.26794 2.0014-1.5255 0.23506-0.62732 0.99887-4.1761 1.6974-7.8861l1.27-6.7455-1.2113-0.07971c-1.5602-0.10266-1.4603-0.57559 0.1583-0.74884l1.2503-0.13383 0.44513-2.295c0.51839-2.6727 0.96962-3.6657 2.105-4.6321 1.1423-0.97239 3.0456-0.8665 3.7554 0.20893 0.67945 1.0294-0.30184 2.7835-1.366 2.4418-0.722-0.23182-0.71986-1.2955 4e-3 -1.9777l0.5521-0.52034-0.5521-0.17726c-1.4091-0.45242-1.9187 0.27303-2.5331 3.606-0.23068 1.2513-0.47688 2.5461-0.54712 2.8773-0.1203 0.56738-0.0432 0.60222 1.3325 0.60222 1.1216 0 1.4602 0.09307 1.4602 0.40148 0 0.31045-0.34585 0.40149-1.5253 0.40149h-1.5253l-1.1166 5.8544c-1.2659 6.6369-1.8807 8.5229-3.2543 9.9837-1.1997 1.2759-2.5364 1.4133-3.5705 0.36717zm-66.881-5.243c-1.0847-0.86319-1.0924-1.8513-0.0479-6.1445 0.51935-2.1345 1.0082-4.0918 1.0864-4.3494 0.12471-0.41092-0.0576-0.4684-1.4852-0.4684-1.1837 0-1.5976-0.09125-1.5182-0.33457 0.0673-0.20616 0.72451-0.36486 1.7123-0.41348l1.6031-0.07891 0.57614-2.3239c0.63096-2.545 0.88217-3.0053 1.6402-3.0053 0.78672 0 0.83954 0.60237 0.24505 2.7945-0.30268 1.1161-0.55032 2.1483-0.55032 2.2939 0 0.14557 0.65483 0.26467 1.4552 0.26467 1.1171 0 1.4552 0.09327 1.4552 0.40149 0 0.31198-0.56273-0.29418-1.5773 0.40148h-1.5773l-0.26063 1.0037c-1.9718 7.5932-2.2582 9.5711-1.4325 9.8916 0.80284 0.31167 2.281-0.83787 3.1274-2.4321 0.43682-0.82276 0.88351-1.4978 0.99265-1.5001 0.4487-0.0091 0.1466 1.0539-0.64136 2.2573-1.4355 2.1925-3.3598 2.8903-4.8031 1.7418zm44.625 0.12846c-0.0873-0.23015 0.49074-2.609 1.2846-5.2862l1.4433-4.8677-1.4511-0.08154c-1.798-0.10106-2.7516 0.28254-3.7508 1.5089-0.42652 0.52346-0.85648 0.86981-0.95548 0.76967-0.30149-0.305 1.315-2.6831 2.2632-3.3295 0.84284-0.57458 1.1434-0.60727 5.5858-0.60727 3.6813 0 4.7244 0.07749 4.8311 0.35884 0.32554 0.85817-0.52476 0.12188-3.0428 1.2471l-2.7196 0.13383-0.94263 4.9585c-0.51845 2.7272-1.0327 5.106-1.1428 5.2862-0.28479 0.46616-1.2142 0.40602-1.4026-0.09074zm50.27 0c-0.0873-0.23015 0.29044-2.6783 1.2846-5.2862l1.4433-4.8677-1.4511-0.08154c-1.798-0.10106-2.7516 0.28254-3.7508 1.5089-0.42652 0.52346-0.85648 0.86981-0.95547 0.76967-0.30149-0.305 1.315-2.6831 2.2632-3.3295 0.84284-0.57458 1.1434-0.60727 5.5858-0.60727 3.6813 0 4.7244 0.07749 4.8311 0.35884 0.32552 0.85817-0.29328 1.1118-3.0428 1.2471l-2.7196 0.13383-0.94262 4.9585c-0.51845 2.7272-1.0327 5.106-1.1428 5.2862-0.28478 0.46616-1.2142 0.40602-1.4026-0.09074zm23.326 0.1631c-1.3286-0.55594-2.2489-2.3189-2.2489-4.308 0-1.6943 1.0138-4.1613 2.3087-5.6183 2.1986-2.4739 4.5039-3.0998 5.8896-1.5991l0.73782 0.79903 0.84994-3.4579c0.46743-1.9019 0.77145-3.5863 0.67559-3.7432-0.0959-0.15693-0.52447-0.28532-0.95243-0.28532-1.3006 0-0.94793-0.70665 0.44941-0.90041 2.0093-0.2786 2.7411-0.21508 2.7411 0.23793 0 0.22448-0.89295 4.0155-1.9843 8.4245-2.0456 8.2638-2.2786 9.7317-1.5875 10 0.93327 0.3623 1.6448-0.50071 2.2314-2.7064 0.38017-1.4296 0.94672-1.5503 0.68634-0.14628-0.2479 1.3369-1.0854 2.9438-1.7106 3.2823-1.1652 0.63088-2.789-0.04087-3.2499-1.3445-0.10642-0.30106-0.30475-0.23113-0.89896 0.31707-1.3806 1.2736-2.6144 1.6023-3.9374 1.0487zm2.4605-0.65755c1.5873-0.83889 2.1764-1.8303 2.9788-5.0126 0.97955-3.8851 0.97762-4.3526-0.022-5.364-1.0426-1.0547-1.8684-0.88113-3.3207 0.69786-1.3511 1.469-2.3306 4.4723-2.3488 7.202-0.0109 1.6079 0.0635 1.8918 0.61236 2.342 0.74524 0.61115 1.1498 0.63709 2.1005 0.13464zm12.577 0.49444c-0.0873-0.23015 0.49074-2.609 1.2846-5.2862l1.4433-4.8677-1.4511-0.08154c-1.798-0.10106-2.7516 0.28254-3.7508 1.5089-0.4265 0.52346-0.85646 0.86981-0.95544 0.76967-0.30152-0.305 1.315-2.6831 2.2632-3.3295 0.84285-0.57458 1.1435-0.60727 5.5858-0.60727 3.6813 0 4.7244 0.07749 4.8311 0.35884 0.32551 0.85817-0.29328 1.1118-3.0428 1.2471l-2.7196 0.13383-0.94264 4.9585c-0.51841 2.7272-1.0327 5.106-1.1428 5.2862-0.28482 0.46616-1.2142 0.40602-1.4027-0.09074zm-117.83-6.8082c0-0.5354 0.1147-0.54195 8.2681-0.47221 7.1419 0.0611 8.2681 0.12541 8.2681 0.47221 0 0.3468-1.1261 0.41112-8.2681 0.47221-8.1534 0.0697-8.2681 0.06323-8.2681-0.47221z" stroke="#443266" stroke-width=".26611"/>
   <text transform="scale(.99424 1.0058)" x="531.1983" y="-71.116631" font-family="sans-serif" font-size="28.602px" letter-spacing="0px" stroke-width=".71506" word-spacing="0px" style="line-height:1.25" xml:space="preserve"><tspan x="531.1983" y="-71.116631" fill="#7a6b91" stroke-width=".71506">or</tspan></text>
  </g>
  <g fill="none" stroke-width="1.51">
   <path d="m571.07 100.62 8.3473 32.751" marker-end="url(#Arrow1Mend-5)" stroke="#000"/>
   <path d="m571.09 100.6 27.111-42.373" marker-end="url(#marker4351)" stroke="#00f"/>
   <path d="m524.07 77.11 47.006 23.505" marker-start="url(#marker7276)" stroke="#f00"/>
  </g>
  <g>
   <g font-family="sans-serif" font-size="20.484px" letter-spacing="0px" stroke-width=".51211" word-spacing="0px">
    <text transform="scale(.99424 1.0058)" x="605.67047" y="65.81559" fill="#0000ff" style="line-height:1.25" xml:space="preserve"><tspan x="605.67047" y="65.81559" fill="#0000ff" stroke-width=".51211">g</tspan></text>
    <text transform="scale(.99424 1.0058)" x="537.6665" y="76.543388" fill="#ff0000" style="line-height:1.25" xml:space="preserve"><tspan x="537.6665" y="76.543388" fill="#ff0000" stroke-width=".51211">f</tspan></text>
    <text transform="scale(.99424 1.0058)" x="560.18573" y="134.97667" fill="#000000" style="line-height:1.25" xml:space="preserve"><tspan x="560.18573" y="134.97667" fill="#000000" stroke-width=".51211">x</tspan></text>
   </g>
   <ellipse cx="259.61" cy="106.44" rx="5.1026" ry="5.1619" fill="#f00" style="paint-order:normal"/>
   <text transform="scale(.99424 1.0058)" x="267.5336" y="123.55923" fill="#ff0000" font-family="sans-serif" font-size="27.132px" letter-spacing="0px" stroke-width=".6783" word-spacing="0px" style="line-height:1.25" xml:space="preserve"><tspan x="267.5336" y="123.55923" fill="#ff0000" stroke-width=".6783">o<tspan baseline-shift="sub" font-size="65%">f</tspan></tspan></text>
  </g>
 </g>
</svg>
