<?xml version="1.0" encoding="UTF-8"?>
<!-- Created with Inkscape (http://www.inkscape.org/) -->
<svg width="1080" height="232.61" version="1.1" viewBox="0 0 285.75 61.544" xml:space="preserve" xmlns="http://www.w3.org/2000/svg"><g transform="translate(0 -12.86)"><path d="m0 12.86h285.75v61.544h-285.75z" fill="#fff" stop-color="#000000" stroke-dasharray="3.35919, 3.35919" stroke-linecap="round" stroke-linejoin="round" stroke-width="1.6796" style="paint-order:fill markers stroke"/><g transform="matrix(.26935 0 0 .26935 -133.66 -596.16)"><g transform="matrix(-1 0 0 1 2011 298.55)"><g transform="translate(596.63 136.16)"><path d="m366.28 1893.2-27.955 16.14-27.955-16.14 27.955-16.14z" fill="#fff"/><path d="m338.32 1941.6-6e-5 -32.279 27.955-16.14 9e-5 32.279z"/><path d="m338.32 1941.6-27.955-16.14v-32.279l27.955 16.14z" fill="#fff"/><g transform="rotate(-60 556.16 2053.5)" fill="none" stroke="#000" stroke-linecap="round" stroke-linejoin="round" stroke-width="4"><path d="m572.12 1825.1 27.955-16.14"/><path d="m600.07 1808.9-2e-5 -32.279"/><path d="m600.07 1776.7-27.955-16.14"/><path d="m572.12 1760.5-27.955 16.14"/><path d="m572.12 1825.1-27.955-16.14"/><path d="m544.16 1808.9 1e-5 -32.279"/><path d="m572.12 1792.8-2e-5 -32.279"/><path d="m600.07 1808.9-27.955-16.14"/><path d="m544.16 1808.9 27.955-16.14"/></g></g><g transform="translate(695.4 136.16)"><path d="m366.28 1893.2-27.955 16.14-27.955-16.14 27.955-16.14z" fill="#fff"/><path d="m338.32 1941.6-6e-5 -32.279 27.955-16.14 9e-5 32.279z"/><path d="m338.32 1941.6-27.955-16.14v-32.279l27.955 16.14z" fill="#fff"/><g transform="rotate(-60 556.16 2053.5)" fill="none" stroke="#000" stroke-linecap="round" stroke-linejoin="round" stroke-width="4"><path d="m572.12 1825.1 27.955-16.14"/><path d="m600.07 1808.9-2e-5 -32.279"/><path d="m600.07 1776.7-27.955-16.14"/><path d="m572.12 1760.5-27.955 16.14"/><path d="m572.12 1825.1-27.955-16.14"/><path d="m544.16 1808.9 1e-5 -32.279"/><path d="m572.12 1792.8-2e-5 -32.279"/><path d="m600.07 1808.9-27.955-16.14"/><path d="m544.16 1808.9 27.955-16.14"/></g></g><g transform="translate(646.14 227.26)"><path d="m366.28 1893.2-27.955 16.14-27.955-16.14 27.955-16.14z" fill="#fff"/><path d="m338.32 1941.6-6e-5 -32.279 27.955-16.14 9e-5 32.279z" fill="#1a1a1a"/><path d="m338.32 1941.6-27.955-16.14v-32.279l27.955 16.14z" fill="#fff"/><g transform="rotate(-60 556.16 2053.5)" fill="none" stroke="#000" stroke-linecap="round" stroke-linejoin="round" stroke-width="4"><path d="m572.12 1825.1 27.955-16.14"/><path d="m600.07 1808.9-2e-5 -32.279"/><path d="m600.07 1776.7-27.955-16.14"/><path d="m572.12 1760.5-27.955 16.14"/><path d="m572.12 1825.1-27.955-16.14"/><path d="m544.16 1808.9 1e-5 -32.279"/><path d="m572.12 1792.8-2e-5 -32.279"/><path d="m600.07 1808.9-27.955-16.14"/><path d="m544.16 1808.9 27.955-16.14"/></g></g><g transform="translate(646.01 167.41)"><path d="m366.28 1893.2-27.955 16.14-27.955-16.14 27.955-16.14z" fill="#fff"/><path d="m338.32 1941.6-6e-5 -32.279 27.955-16.14 9e-5 32.279z"/><path d="m338.32 1941.6-27.955-16.14v-32.279l27.955 16.14z" fill="#fff"/><g transform="rotate(-60 556.16 2053.5)" fill="none" stroke="#000" stroke-linecap="round" stroke-linejoin="round" stroke-width="4"><path d="m572.12 1825.1 27.955-16.14"/><path d="m600.07 1808.9-2e-5 -32.279"/><path d="m600.07 1776.7-27.955-16.14"/><path d="m572.12 1760.5-27.955 16.14"/><path d="m572.12 1825.1-27.955-16.14"/><path d="m544.16 1808.9 1e-5 -32.279"/><path d="m572.12 1792.8-2e-5 -32.279"/><path d="m600.07 1808.9-27.955-16.14"/><path d="m544.16 1808.9 27.955-16.14"/></g></g><g transform="translate(646.14 107.57)"><path d="m366.28 1893.2-27.955 16.14-27.955-16.14 27.955-16.14z" fill="#fff"/><path d="m338.32 1941.6-6e-5 -32.279 27.955-16.14 9e-5 32.279z"/><path d="m338.32 1941.6-27.955-16.14v-32.279l27.955 16.14z" fill="#fff"/><g transform="rotate(-60 556.16 2053.5)" fill="none" stroke="#000" stroke-linecap="round" stroke-linejoin="round" stroke-width="4"><path d="m572.12 1825.1 27.955-16.14"/><path d="m600.07 1808.9-2e-5 -32.279"/><path d="m600.07 1776.7-27.955-16.14"/><path d="m572.12 1760.5-27.955 16.14"/><path d="m572.12 1825.1-27.955-16.14"/><path d="m544.16 1808.9 1e-5 -32.279"/><path d="m572.12 1792.8-2e-5 -32.279"/><path d="m600.07 1808.9-27.955-16.14"/><path d="m544.16 1808.9 27.955-16.14"/></g></g><g transform="translate(596.63 194.6)"><path d="m366.28 1893.2-27.955 16.14-27.955-16.14 27.955-16.14z" fill="#fff"/><path d="m338.32 1941.6-6e-5 -32.279 27.955-16.14 9e-5 32.279z" fill="#1a1a1a"/><path d="m338.32 1941.6-27.955-16.14v-32.279l27.955 16.14z" fill="#fff"/><g transform="rotate(-60 556.16 2053.5)" fill="none" stroke="#000" stroke-linecap="round" stroke-linejoin="round" stroke-width="4"><path d="m572.12 1825.1 27.955-16.14"/><path d="m600.07 1808.9-2e-5 -32.279"/><path d="m600.07 1776.7-27.955-16.14"/><path d="m572.12 1760.5-27.955 16.14"/><path d="m572.12 1825.1-27.955-16.14"/><path d="m544.16 1808.9 1e-5 -32.279"/><path d="m572.12 1792.8-2e-5 -32.279"/><path d="m600.07 1808.9-27.955-16.14"/><path d="m544.16 1808.9 27.955-16.14"/></g></g><g transform="translate(695.4 194.6)"><path d="m366.28 1893.2-27.955 16.14-27.955-16.14 27.955-16.14z" fill="#fff"/><path d="m338.32 1941.6-6e-5 -32.279 27.955-16.14 9e-5 32.279z"/><path d="m338.32 1941.6-27.955-16.14v-32.279l27.955 16.14z" fill="#fff"/><g transform="rotate(-60 556.16 2053.5)" fill="none" stroke="#000" stroke-linecap="round" stroke-linejoin="round" stroke-width="4"><path d="m572.12 1825.1 27.955-16.14"/><path d="m600.07 1808.9-2e-5 -32.279"/><path d="m600.07 1776.7-27.955-16.14"/><path d="m572.12 1760.5-27.955 16.14"/><path d="m572.12 1825.1-27.955-16.14"/><path d="m544.16 1808.9 1e-5 -32.279"/><path d="m572.12 1792.8-2e-5 -32.279"/><path d="m600.07 1808.9-27.955-16.14"/><path d="m544.16 1808.9 27.955-16.14"/></g></g></g></g><rect x="178.66" y="40.633" width="107.09" height="5.9984" fill="#ccc" stop-color="#000000" stroke="#999" stroke-linecap="round" stroke-linejoin="round" stroke-width=".1" style="paint-order:markers stroke fill"/><rect y="40.633" width="107.42" height="5.9984" fill="#ccc" stop-color="#000000" stroke="#999" stroke-linecap="round" stroke-linejoin="round" stroke-width=".1" style="paint-order:markers stroke fill"/></g></svg>
