<?xml version="1.0" encoding="UTF-8"?>
<!-- Created with Inkscape (http://www.inkscape.org/) -->
<svg width="414.97mm" height="316.22mm" version="1.1" viewBox="0 0 414.97 316.22" xml:space="preserve" xmlns="http://www.w3.org/2000/svg"><g transform="translate(-31.883 -33.27)"><g fill="#fff" stroke="#000" stroke-linecap="round" stroke-linejoin="round"><rect x="31.933" y="33.32" width="414.87" height="316.12" stop-color="#000000" stroke-width=".1" style="paint-order:fill markers stroke"/><g><ellipse cx="271.12" cy="250.44" rx="126.09" ry="22.548" stop-color="#000000" style="paint-order:fill markers stroke"/><ellipse cx="267.93" cy="305.9" rx="126.09" ry="22.548" stop-color="#000000" style="paint-order:fill markers stroke"/><ellipse cx="267.91" cy="76.954" rx="126.09" ry="22.548" stop-color="#000000" style="paint-order:fill markers stroke"/><ellipse cx="267.91" cy="126.18" rx="126.09" ry="22.548" stop-color="#000000" style="paint-order:fill markers stroke"/><ellipse cx="267.91" cy="176.55" rx="126.09" ry="22.548" stop-color="#000000" style="paint-order:fill markers stroke"/></g></g><path d="m80.145 145.34c-0.1173-0.0616-3.5148-1.9648-7.55-4.2293-5.1326-2.8804-7.4307-4.2145-7.6496-4.4408-0.17211-0.17792-0.35424-0.47232-0.40475-0.65421-0.12824-0.46188-0.12824-17.006 0-17.468 0.0505-0.18189 0.23264-0.47624 0.40475-0.65409 0.2182-0.22549 2.5725-1.5945 7.7776-4.5226 7.4261-4.1776 7.4675-4.1994 8.0192-4.2354 0.4296-0.028 0.62179-8e-5 0.85311 0.1238 0.16422 0.0879 3.5617 1.993 7.55 4.2334 5.1196 2.8759 7.3434 4.1691 7.5643 4.3988 0.17211 0.17894 0.35424 0.47418 0.40475 0.65607 0.12824 0.46188 0.12824 17.006 0 17.468-0.0505 0.18189-0.23264 0.47712-0.40475 0.65607-0.22093 0.2297-2.4447 1.5229-7.5643 4.3988-3.9883 2.2404-7.3843 4.143-7.5467 4.228-0.35038 0.18329-1.1405 0.20582-1.4536 0.0414zm-1.109-10.914v-6.0794l-5.3861-3.0275c-2.9624-1.6651-5.4193-3.0403-5.4599-3.0559-0.0411-0.0158-0.0738 2.671-0.0738 6.0625v6.0909l5.3959 3.0419c2.9677 1.6731 5.4247 3.043 5.4599 3.0444 0.0352 1e-3 0.064-2.7332 0.064-6.0769zm9.1008 3.0387 5.402-3.0408v-6.0946c0-3.352-0.0315-6.0818-0.0701-6.0661-0.0385 0.0156-2.4953 1.3913-5.4594 3.057l-5.3893 3.0285-6.4e-4 6.0784c-2.6e-4 3.3431 0.0256 6.0784 0.0574 6.0784s2.4888-1.3683 5.4599-3.0408zm-1.8938-15.312c2.9335-1.648 5.3336-3.0248 5.3336-3.0594 0-0.0702-10.62-6.0583-10.744-6.0583-0.1456 0-10.711 5.9747-10.711 6.0571 0 0.0877 10.509 6.0396 10.683 6.0504 0.0577 4e-3 2.505-1.3418 5.4385-2.9899z" stroke-width=".08531"/><g fill="#000000" font-family="'Noto Sans Arabic'" font-size="13.742px" stroke-linecap="round" stroke-linejoin="round" stroke-width="1.3912"><text x="43.035477" y="161.40904" stop-color="#000000" style="paint-order:fill markers stroke" xml:space="preserve"><tspan x="43.035477" y="161.40904" stroke-width="1.3912">Polis Node</tspan></text><text x="67.127869" y="310.38931" stop-color="#000000" style="paint-order:fill markers stroke" xml:space="preserve"><tspan x="67.127869" y="310.38931" stroke-width="1.3912">Client</tspan></text><text x="157.13324" y="81.536751" stop-color="#000000" style="paint-order:fill markers stroke" xml:space="preserve"><tspan x="157.13324" y="81.536751" stroke-width="1.3912">Create/Connect to Polis network</tspan></text><text x="198.25583" y="131.3029" stop-color="#000000" style="paint-order:fill markers stroke" xml:space="preserve"><tspan x="198.25583" y="131.3029" stroke-width="1.3912">Render visualization</tspan></text><text x="200.59682" y="254.23512" stop-color="#000000" style="paint-order:fill markers stroke" xml:space="preserve"><tspan x="200.59682" y="254.23512" stroke-width="1.3912">Display visualization</tspan></text><text x="220.34596" y="309.69394" stop-color="#000000" style="paint-order:fill markers stroke" xml:space="preserve"><tspan x="220.34596" y="309.69394" stroke-width="1.3912">Control Agent</tspan></text><text x="187.61368" y="181.66992" stop-color="#000000" style="paint-order:fill markers stroke" xml:space="preserve"><tspan x="187.61368" y="181.66992" stroke-width="1.3912">Be Connect from Client</tspan></text></g><path d="m66.981 293.22c-0.70384-0.16588-1.3631-0.70114-1.6979-1.3785l-0.18815-0.38072v-31.15l0.20252-0.39993c0.24986-0.49339 0.74779-0.96926 1.2706-1.2143l0.39581-0.18552 19.832-0.0215c14.789-0.0161 19.951-1e-3 20.301 0.0586 0.89054 0.15201 1.6408 0.8273 1.92 1.7281 0.13826 0.44608 0.1393 0.58152 0.12104 15.748l-0.0184 15.298-0.16193 0.40127c-0.17881 0.44308-0.72273 1.0553-1.1204 1.261-0.623 0.32231 0.26973 0.30929-20.765 0.30279-11.233-3e-3 -19.945-0.0327-20.092-0.0674zm39.532-14.963 0.0233-12.373h-38.845v24.782l38.799-0.0348zm-20.555 9.2731c-0.31617-0.21283-0.38285-0.37927-0.47738-1.1915-0.0443-0.38072-0.1014-0.71054-0.12686-0.73293-0.0255-0.0224-0.24877-0.11205-0.49624-0.19924-0.24746-0.0872-0.59686-0.2324-0.77644-0.3227s-0.35597-0.16417-0.39199-0.16417c-0.036 0-0.3217 0.20187-0.63487 0.4486-0.60827 0.47923-0.90819 0.58974-1.2342 0.45471-0.10838-0.0449-0.59068-0.47944-1.0718-0.96566l-0.87472-0.88405v-0.35293c0-0.3275 0.0307-0.3919 0.42564-0.89393 0.2341-0.29755 0.45392-0.57748 0.48849-0.62206 0.0404-0.0521-4e-3 -0.21298-0.12423-0.44994-0.10289-0.20289-0.25788-0.57136-0.34442-0.81883l-0.15733-0.44994-0.74977-0.0902c-1.2678-0.1525-1.3525-0.28274-1.3237-2.034l0.0202-1.2243 0.20437-0.21316c0.23373-0.24379 0.47674-0.32032 1.229-0.38703l0.53351-0.0473 0.11512-0.35556c0.0633-0.19556 0.22282-0.60958 0.35445-0.92005l0.23932-0.56448-0.44846-0.56715c-0.72811-0.9208-0.69948-1.0565 0.46669-2.2121 0.47448-0.47017 0.90347-0.88071 0.95332-0.91232 0.0498-0.0316 0.22029-0.058 0.37878-0.0585 0.25075-1e-3 0.36251 0.0575 0.86103 0.45029 0.31509 0.24825 0.59036 0.44141 0.61173 0.42924 0.25134-0.14307 1.1617-0.54092 1.4579-0.63714 0.20939-0.068 0.39118-0.13254 0.40397-0.14337 0.0128-0.0108 0.0653-0.3414 0.1167-0.73459 0.0889-0.68026 0.10533-0.72581 0.33913-0.94008l0.24571-0.2252h2.6345l0.24822 0.22747c0.23796 0.21808 0.25173 0.25667 0.33307 0.93401 0.0467 0.38859 0.0981 0.7181 0.11418 0.73223 0.0161 0.0142 0.2318 0.0927 0.47927 0.17456 0.24747 0.0819 0.65623 0.24962 0.90837 0.3728l0.45842 0.22396 0.57299-0.43263c0.61591-0.46506 0.85689-0.53058 1.2306-0.3346 0.10281 0.0539 0.56851 0.48501 1.0349 0.95798 0.8387 0.85053 0.84797 0.86343 0.84797 1.1806 0 0.28791-0.0458 0.38068-0.448 0.90783l-0.448 0.58715 0.21584 0.43502c0.11871 0.23926 0.28418 0.63764 0.36772 0.88527l0.15188 0.45025 0.65648 0.0759c0.73037 0.0844 1.0465 0.22647 1.1705 0.5258 0.0506 0.12228 0.0802 0.65297 0.0802 1.4403 0 1.0345-0.0191 1.2759-0.11253 1.4185-0.15115 0.23067-0.41477 0.35423-0.87267 0.40902-1.0225 0.12232-0.94538 0.0877-1.0738 0.48214-0.0638 0.19603-0.22212 0.58663-0.35179 0.86801-0.12967 0.28139-0.23577 0.53188-0.23577 0.55667 0 0.0248 0.20215 0.30853 0.44923 0.63055 0.40983 0.53416 0.44928 0.61491 0.44994 0.92093l7.8e-4 0.33543-0.8781 0.89432c-0.90896 0.92574-1.1828 1.1017-1.5653 1.0057-0.14711-0.0369-0.52325-0.30015-1.1848-0.8292-0.1557-0.1245-0.16664-0.12353-0.49785 0.0439-0.18626 0.0942-0.58786 0.25856-0.89243 0.36536-0.30458 0.10681-0.57381 0.22368-0.59829 0.25973-0.0245 0.036-0.0666 0.33386-0.0936 0.66181-0.0601 0.73112-0.16611 1.0016-0.46345 1.1829-0.20686 0.12612-0.34759 0.13972-1.4476 0.13995-1.155 2.7e-4 -1.2307-8e-3 -1.4536-0.15807zm2.4622-5.4163c1.4145-0.36842 2.5404-1.4797 2.9113-2.8735 0.13039-0.48996 0.12983-1.4535-1e-3 -1.9563-0.33983-1.3047-1.4336-2.4729-2.631-2.8101-1.2398-0.34913-2.3885-0.17764-3.4248 0.51127-1.6578 1.1021-2.203 3.2295-1.3041 5.0889 0.44262 0.91557 1.4986 1.7594 2.5484 2.0363 0.50528 0.13331 1.3965 0.13491 1.9013 3e-3zm4.3942-18.069c0.89732-0.48839 1.2665-1.5958 0.84763-2.5427-0.45599-1.0308-1.6679-1.4803-2.6697-0.99021-1.6041 0.78483-1.473 3.0559 0.21278 3.6841 0.42775 0.15941 1.166 0.09 1.6093-0.15119zm6.2763 0.0535c0.65853-0.33759 1.0519-0.90307 1.1154-1.6035 0.13956-1.539-1.4659-2.6578-2.8454-1.9829-1.6144 0.78986-1.4222 3.1538 0.30245 3.7193 0.30813 0.10103 1.1184 0.0256 1.4276-0.13286zm6.2106 0.0741c1.0274-0.36826 1.5479-1.5447 1.1518-2.6034-0.3984-1.0648-1.6796-1.5564-2.7239-1.045-0.69963 0.34257-1.0945 0.97559-1.0981 1.7603-6e-3 1.4052 1.3472 2.3623 2.6702 1.8881z" stroke-width=".069222"/><g fill="#fff" stroke="#000" stroke-linecap="round" stroke-linejoin="round"><path d="m141.52 79.694-38.565 33.836" stop-color="#000000" style="paint-order:fill markers stroke"/><path d="m142.48 123.94-33.141 2.7684" stop-color="#000000" style="paint-order:fill markers stroke"/><path d="m142.83 176.28-31.671-34.145" stop-color="#000000" style="paint-order:fill markers stroke"/><path d="m144.63 249.33-27.318 23.197" stop-color="#000000" style="paint-order:fill markers stroke"/><path d="m141.47 307.17-21.195-21.582" stop-color="#000000" style="paint-order:fill markers stroke"/></g></g></svg>
