<?xml version="1.0" encoding="UTF-8"?>
<!-- Created with Inkscape (http://www.inkscape.org/) -->
<svg width="323.5mm" height="201.61mm" version="1.1" viewBox="0 0 323.5 201.61" xml:space="preserve" xmlns="http://www.w3.org/2000/svg"><defs><marker id="TriangleStart-9-5-3-2" overflow="visible" markerHeight="6.155385" markerWidth="5.3244081" orient="auto-start-reverse" preserveAspectRatio="xMidYMid" viewBox="0 0 5.3244081 6.1553851"><path transform="scale(.5)" d="m5.77 0-8.65 5v-10z" fill="context-stroke" fill-rule="evenodd" stroke="context-stroke" stroke-width="1pt"/></marker><marker id="TriangleStart-9-5-3-2-2" overflow="visible" markerHeight="6.155385" markerWidth="5.3244081" orient="auto-start-reverse" preserveAspectRatio="xMidYMid" viewBox="0 0 5.3244081 6.1553851"><path transform="scale(.5)" d="m5.77 0-8.65 5v-10z" fill="context-stroke" fill-rule="evenodd" stroke="context-stroke" stroke-width="1pt"/></marker><marker id="TriangleStart-9-5-3-2-1" overflow="visible" markerHeight="6.155385" markerWidth="5.3244081" orient="auto-start-reverse" preserveAspectRatio="xMidYMid" viewBox="0 0 5.3244081 6.1553851"><path transform="scale(.5)" d="m5.77 0-8.65 5v-10z" fill="context-stroke" fill-rule="evenodd" stroke="context-stroke" stroke-width="1pt"/></marker></defs><g transform="translate(-814.28 -1513.9)"><rect x="814.33" y="1513.9" width="323.4" height="201.51" fill="#fff" stop-color="#000000" stroke="#000" stroke-linecap="round" stroke-linejoin="round" stroke-width=".1" style="paint-order:fill markers stroke"/><g fill="#000000" font-family="'Noto Sans Arabic'" font-size="13.742px" stroke-linecap="round" stroke-linejoin="round" stroke-width="1.3912"><text x="855.51929" y="1588.1025" stop-color="#000000" style="paint-order:fill markers stroke" xml:space="preserve"><tspan x="855.51929" y="1588.1025" stroke-width="1.3912">Node-Media-Server</tspan></text><text x="1064.7841" y="1576.85" stop-color="#000000" style="paint-order:fill markers stroke" xml:space="preserve"><tspan x="1064.7841" y="1576.85" stroke-width="1.3912">FFMpeg</tspan></text><text x="986.06665" y="1547.1083" stop-color="#000000" style="paint-order:fill markers stroke" xml:space="preserve"><tspan x="986.06665" y="1547.1083" stroke-width="1.3912">RTMP</tspan></text><text x="831.99231" y="1696.3041" stop-color="#000000" style="paint-order:fill markers stroke" xml:space="preserve"><tspan x="831.99231" y="1696.3041" stroke-width="1.3912">Node-Media-Server-Admin</tspan></text></g><path d="m1079.1 1685.2c-3.0822-0.6706-5.2872-2.9545-5.7653-5.9715-0.3573-2.2552-0.071-5.9399 0.7005-9.0045 0.5324-2.1158 1.7861-4.5242 3.0018-5.7665 1.533-1.5668 3.6902-2.5124 5.7314-2.5124 0.834 0 1.1733 0.105 2.0167 0.6238 0.5578 0.343 1.4476 0.8905 1.9774 1.2166 2.0763 1.2783 5.1881 1.8559 7.3882 1.3712 1.1775-0.2594 3.2386-1.1742 4.3302-1.922 2.0055-1.3739 3.0071-1.5608 5.1618-0.9633 2.6189 0.7262 4.3451 2.3525 5.767 5.4335 1.0863 2.3539 1.6861 5.6082 1.6969 9.2073 0.01 3.343-0.5055 4.7867-2.3132 6.4775-1.0954 1.0246-2.3669 1.635-3.9292 1.8861-1.8174 0.2922-24.378 0.2258-25.764-0.076zm10.084-23.714c-3.828-1.0053-7.0633-4.2737-7.9433-8.0246-0.3975-1.6939-0.2635-4.7243 0.2765-6.2557 1.51-4.2822 5.8616-7.3485 10.429-7.3485 4.6161 0 8.8983 3.1248 10.369 7.5664 0.641 1.936 0.6834 4.7295 0.1002 6.5925-1.1248 3.5932-4.3536 6.6397-7.9308 7.4831-1.4001 0.3301-4.0174 0.3235-5.2999-0.013z" stroke-width=".17818"/><text x="1075.9103" y="1698.9866" fill="#000000" font-family="'Noto Sans Arabic'" font-size="13.742px" stop-color="#000000" stroke-linecap="round" stroke-linejoin="round" stroke-width="1.3912" style="paint-order:fill markers stroke" xml:space="preserve"><tspan x="1075.9103" y="1698.9866" stroke-width="1.3912">User</tspan></text><path d="m901.58 1677.7c-0.70384-0.1659-1.3631-0.7011-1.6979-1.3785l-0.18815-0.3807v-31.15l0.20252-0.3999c0.24986-0.4934 0.74779-0.9693 1.2706-1.2143l0.39581-0.1856 19.832-0.022c14.789-0.016 19.951-1e-3 20.301 0.059 0.89054 0.152 1.6408 0.8273 1.92 1.7281 0.13826 0.4461 0.1393 0.5816 0.12104 15.748l-0.0184 15.298-0.16193 0.4013c-0.17881 0.443-0.72273 1.0552-1.1204 1.2609-0.623 0.3224 0.26973 0.3093-20.765 0.3028-11.233 0-19.945-0.033-20.092-0.067zm39.532-14.963 0.0233-12.373h-38.845v24.782l38.799-0.034zm-20.555 9.2732c-0.31617-0.2129-0.38285-0.3793-0.47738-1.1915-0.0443-0.3807-0.1014-0.7106-0.12686-0.733-0.0255-0.022-0.24877-0.112-0.49624-0.1992-0.24746-0.087-0.59686-0.2324-0.77644-0.3227-0.17958-0.09-0.35597-0.1642-0.39199-0.1642-0.036 0-0.3217 0.2019-0.63487 0.4486-0.60827 0.4793-0.90819 0.5898-1.2342 0.4547-0.10838-0.045-0.59068-0.4794-1.0718-0.9656l-0.87472-0.8841v-0.3529c0-0.3275 0.0307-0.3919 0.42564-0.8939 0.2341-0.2976 0.45392-0.5775 0.48849-0.6221 0.0404-0.052-4e-3 -0.213-0.12423-0.4499-0.10289-0.2029-0.25788-0.5714-0.34442-0.8189l-0.15733-0.4499-0.74977-0.09c-1.2678-0.1525-1.3525-0.2827-1.3237-2.034l0.0202-1.2243 0.20437-0.2131c0.23373-0.2438 0.47674-0.3204 1.229-0.3871l0.53351-0.047 0.11512-0.3555c0.0633-0.1956 0.22282-0.6096 0.35445-0.9201l0.23932-0.5645-0.44846-0.5671c-0.72811-0.9208-0.69948-1.0565 0.46669-2.2121 0.47448-0.4702 0.90347-0.8807 0.95332-0.9123 0.0498-0.032 0.22029-0.058 0.37878-0.058 0.25075 0 0.36251 0.057 0.86103 0.4503 0.31509 0.2482 0.59036 0.4414 0.61173 0.4292 0.25134-0.1431 1.1617-0.5409 1.4579-0.6371 0.20939-0.068 0.39118-0.1326 0.40397-0.1434 0.0128-0.011 0.0653-0.3414 0.1167-0.7346 0.0889-0.6802 0.10533-0.7258 0.33913-0.9401l0.24571-0.2252h2.6345l0.24822 0.2275c0.23796 0.2181 0.25173 0.2567 0.33307 0.934 0.0467 0.3886 0.0981 0.7181 0.11418 0.7322 0.0161 0.014 0.2318 0.093 0.47927 0.1746 0.24747 0.082 0.65623 0.2496 0.90837 0.3728l0.45842 0.224 0.57299-0.4327c0.61591-0.465 0.85689-0.5305 1.2306-0.3346 0.10281 0.054 0.56851 0.485 1.0349 0.958 0.8387 0.8505 0.84797 0.8634 0.84797 1.1806 0 0.2879-0.0458 0.3807-0.448 0.9079l-0.448 0.5871 0.21584 0.435c0.11871 0.2393 0.28418 0.6377 0.36772 0.8853l0.15188 0.4502 0.65648 0.076c0.73037 0.084 1.0465 0.2265 1.1705 0.5258 0.0506 0.1223 0.0802 0.653 0.0802 1.4404 0 1.0344-0.0191 1.2759-0.11253 1.4184-0.15115 0.2307-0.41477 0.3543-0.87267 0.409-1.0225 0.1224-0.94538 0.088-1.0738 0.4822-0.0638 0.196-0.22212 0.5866-0.35179 0.868s-0.23577 0.5319-0.23577 0.5567c0 0.025 0.20215 0.3085 0.44923 0.6305 0.40983 0.5342 0.44928 0.6149 0.44994 0.9209l7.8e-4 0.3355-0.8781 0.8943c-0.90896 0.9257-1.1828 1.1017-1.5653 1.0057-0.14711-0.037-0.52325-0.3002-1.1848-0.8292-0.1557-0.1245-0.16664-0.1235-0.49785 0.044-0.18626 0.094-0.58786 0.2586-0.89243 0.3654-0.30458 0.1068-0.57381 0.2236-0.59829 0.2597-0.0245 0.036-0.0666 0.3338-0.0936 0.6618-0.0601 0.7311-0.16611 1.0016-0.46345 1.1829-0.20686 0.1261-0.34759 0.1397-1.4476 0.1399-1.155 3e-4 -1.2307-0.01-1.4536-0.158zm2.4622-5.4164c1.4145-0.3684 2.5404-1.4797 2.9113-2.8735 0.13039-0.49 0.12983-1.4535-1e-3 -1.9563-0.33983-1.3047-1.4336-2.4729-2.631-2.8101-1.2398-0.3491-2.3885-0.1776-3.4248 0.5113-1.6578 1.1021-2.203 3.2295-1.3041 5.0889 0.44262 0.9156 1.4986 1.7594 2.5484 2.0363 0.50528 0.1333 1.3965 0.1349 1.9013 0zm4.3942-18.069c0.89732-0.4884 1.2665-1.5958 0.84763-2.5427-0.45599-1.0308-1.6679-1.4803-2.6697-0.9902-1.6041 0.7849-1.473 3.0559 0.21278 3.6841 0.42775 0.1594 1.166 0.09 1.6093-0.1512zm6.2763 0.053c0.65853-0.3376 1.0519-0.9031 1.1154-1.6035 0.13956-1.539-1.4659-2.6578-2.8454-1.9829-1.6144 0.7899-1.4222 3.1538 0.30245 3.7193 0.30813 0.101 1.1184 0.026 1.4276-0.1329zm6.2106 0.074c1.0274-0.3682 1.5479-1.5447 1.1518-2.6034-0.3984-1.0648-1.6796-1.5563-2.7239-1.045-0.69963 0.3426-1.0945 0.9756-1.0981 1.7603-6e-3 1.4052 1.3472 2.3623 2.6702 1.8881z" stroke-width=".069222"/><g fill="#fff" stroke="#000" stroke-linecap="round" stroke-linejoin="round" stroke-width="1.5"><path d="m921.72 1594.1v36.15" marker-end="url(#TriangleStart-9-5-3-2)" stop-color="#000000" style="paint-order:fill markers stroke"/><path d="m949.54 1660.6h117.24" marker-end="url(#TriangleStart-9-5-3-2-1)" stop-color="#000000" style="paint-order:fill markers stroke"/><path d="m1054.2 1551.3h-104.5" marker-end="url(#TriangleStart-9-5-3-2-2)" stop-color="#000000" style="paint-order:fill markers stroke"/></g><g transform="matrix(.1438 0 0 .1438 903.31 1530)"><path d="m128 288.46c-3.9752 0-7.6853-1.06-11.13-2.9151l-35.246-20.936c-5.3002-2.9151-2.6501-3.9752-1.06-4.5052 7.1553-2.3851 8.4803-2.9151 15.901-7.1553 0.79503-0.53002 1.8551-0.26501 2.6501 0.26501l27.031 16.166c1.06 0.53002 2.3851 0.53002 3.1801 0l105.74-61.217c1.06-0.53002 1.5901-1.5901 1.5901-2.9151v-122.17c0-1.3251-0.53002-2.3851-1.5901-2.9151l-105.74-60.952c-1.06-0.53002-2.3851-0.53002-3.1801 0l-105.74 60.952c-1.06 0.53002-1.5901 1.8551-1.5901 2.9151v122.17c0 1.06 0.53002 2.3851 1.5901 2.9151l28.886 16.696c15.636 7.9503 25.441-1.3251 25.441-10.6v-120.58c0-1.5901 1.3251-3.1801 3.1801-3.1801h13.516c1.5901 0 3.1801 1.3251 3.1801 3.1801v120.58c0 20.936-11.395 33.126-31.271 33.126-6.0952 0-10.865 0-24.381-6.6252l-27.826-15.901c-6.8903-3.9752-11.13-11.395-11.13-19.346v-122.17c0-7.9503 4.2402-15.371 11.13-19.346l105.74-61.217c6.6253-3.7101 15.636-3.7101 22.261 0l105.74 61.217c6.8903 3.9752 11.13 11.395 11.13 19.346v122.17c0 7.9503-4.2402 15.371-11.13 19.346l-105.74 61.217c-3.4451 1.5901-7.4203 2.3851-11.13 2.3851zm32.596-84.008c-46.377 0-55.917-21.201-55.917-39.222 0-1.5901 1.325-3.1801 3.1801-3.1801h13.781c1.5901 0 2.9151 1.06 2.9151 2.6501 2.1201 14.046 8.2153 20.936 36.306 20.936 22.261 0 31.801-5.0352 31.801-16.961 0-6.8903-2.6501-11.925-37.366-15.371-28.886-2.9151-46.907-9.2754-46.907-32.331 0-21.466 18.021-34.186 48.232-34.186 33.921 0 50.617 11.66 52.737 37.101 0 0.79503-0.26501 1.5901-0.79503 2.3851-0.53002 0.53002-1.3251 1.06-2.1201 1.06h-13.781c-1.3251 0-2.6501-1.06-2.9151-2.3851-3.1801-14.576-11.395-19.346-33.126-19.346-24.381 0-27.296 8.4803-27.296 14.841 0 7.6853 3.4451 10.07 36.306 14.311 32.596 4.2402 47.967 10.335 47.967 33.126-0.26501 23.321-19.346 36.571-53.002 36.571z" fill="#539e43"/></g><path d="m1074.5 1564.9c-1.2217-0.3799-1.8794-1.4898-1.6596-2.8005 0.1015-0.6052 0.4895-1.0491 4.1689-4.7698 2.2314-2.2564 5.8003-5.8763 7.931-8.0442 8.2808-8.4255 10.795-10.976 13.966-14.171 1.8078-1.8213 3.2869-3.3598 3.2869-3.4188s-0.8985-0.1072-1.9968-0.1072h-1.9968l-6.087 6.1537c-3.3478 3.3846-8.2752 8.362-10.95 11.061l-4.8628 4.907h-1.0475c-0.9973 0-1.0767-0.029-1.6536-0.6069l-0.6059-0.607 0.02-12.834 0.4156-0.6181c0.2286-0.34 1.9024-2.1384 3.7196-3.9966l3.304-3.3786-3.093-0.08c-2.6596-0.069-3.1595-0.1227-3.5678-0.3821-0.8551-0.5433-1.0305-0.8924-1.0343-2.0591 0-0.9215 0.055-1.1432 0.4104-1.5657 0.2278-0.2706 0.6803-0.57 1.0056-0.6652 0.3904-0.1143 2.6728-0.1563 6.717-0.1235l6.1256 0.05 0.5888 0.4023c0.3239 0.2212 0.6623 0.612 0.7522 0.8686 0.2192 0.6259 0.1971 1.7046-0.044 2.1378-0.1845 0.3318-2.9012 3.1831-8.232 8.6398l-2.3401 2.3954v4.2186l3.2439-3.2982c9.7292-9.8916 14.641-14.816 15.035-15.075 0.4012-0.263 0.9812-0.2941 6.3213-0.3396 3.2338-0.027 6.1128-0.01 6.3978 0.047 0.773 0.1443 1.4188 0.773 1.653 1.6094 0.1763 0.6297 0.1669 0.8275-0.068 1.4433-0.2956 0.7739 0.3469 0.1006-13.043 13.67-13.477 13.658-16.169 16.411-16.169 16.538 0 0.069 1.0037 0.1254 2.2304 0.1254h2.2303l0.7767-0.8446c0.4271-0.4646 2.0841-2.1925 3.6821-3.8399s4.3534-4.4992 6.1231-6.3373 4.526-4.6893 6.125-6.3359c1.5991-1.6467 3.228-3.3486 3.6199-3.782 1.1462-1.2675 2.4602-1.5846 3.5444-0.8553 1.1186 0.7524 1.1203 0.7651 1.0089 7.5156-0.071 4.323-0.1578 6.1759-0.3051 6.5371-0.113 0.2773-0.8824 1.2061-1.7097 2.0641-0.8273 0.8579-2.3896 2.4772-3.4717 3.5984s-1.9689 2.0928-1.9708 2.1591c0 0.066 1.3253 0.1207 2.9492 0.1207 2.8018 0 2.9804 0.019 3.4992 0.3652 1.4145 0.945 1.4566 3.0018 0.081 3.9446-0.5139 0.3521-0.5843 0.3558-6.7515 0.3558-6.7887 0-6.8254-0.01-7.4672-0.9226-0.4123-0.5897-0.5531-1.2246-0.4241-1.9121 0.078-0.4158 0.5083-0.9919 1.6451-2.2025 1.5187-1.6172 7.9917-8.3619 8.6587-9.0221 0.2984-0.2953 0.3574-0.5956 0.4512-2.2956 0.062-1.1165 0.046-1.9943-0.037-2.0454-0.08-0.049-1.0553 0.8672-2.1682 2.0363-1.1129 1.1692-2.7594 2.886-3.659 3.8151-5.9119 6.1063-9.2615 9.5759-10.298 10.667-1.8857 1.9847-1.207 1.8279-8.3629 1.9322-3.4067 0.05-6.3844 0.031-6.6171-0.041z" fill="#008500" stroke-width=".16088"/><path d="m927.53 1621.9c-0.0727-0.032-0.18777-0.111-0.25581-0.1768-0.22916-0.2217-0.23488-0.2807-0.23488-2.4255v-1.9315l-0.36185-0.022c-0.56463-0.033-0.88535-0.2304-1.0874-0.667-0.0787-0.1701-0.0795-0.2005-0.0795-3.2103 0-3.4222-0.0148-3.2393 0.28984-3.5698 0.20747-0.2252 0.46252-0.3247 0.88971-0.3474l0.34914-0.018v-3.0832c0-3.4086-4e-3 -3.3459 0.23488-3.5772 0.26102-0.2526-0.0795-0.2368 5.0896-0.2368 4.2552 0 4.6945 0.01 4.7854 0.061 0.14108 0.086 3.8672 4.3599 3.8983 4.4712 0.0141 0.05 0.0272 0.6028 0.0293 1.228l3e-3 1.1367 0.34913 0.018c0.42719 0.023 0.68224 0.1222 0.8897 0.3474 0.30469 0.3305 0.28984 0.1476 0.28984 3.5698v3.0385l-0.1053 0.2145c-0.20211 0.4115-0.50958 0.5914-1.0681 0.6247l-0.35529 0.021v1.9315c0 2.1447-6e-3 2.2037-0.23488 2.4255-0.26355 0.2551 0.25978 0.2369-6.794 0.2353-5.6197 0-6.4055-0.01-6.5217-0.059zm12.787-2.7237 0.01-1.8212h-12.532v1.8055c0 0.993 0.0114 1.8169 0.0253 1.8308 0.0139 0.014 2.8292 0.021 6.2563 0.015l6.231-0.01zm-11.277-4.2558v-1.1511h2.0382v-1.0192h-2.0382v-1.3211h2.1892v-1.0191h-3.4726v5.6618h1.2833zm6.6809 0.604v-0.5473h-2.2647v-4.5672h-1.2833v2.8057c0 1.5432 0.0113 2.8171 0.0252 2.8309 0.0139 0.014 0.81215 0.025 1.774 0.025h1.7489zm3.0358 0.5139c0.0114-0.018 0.44435-1.2926 0.96225-2.8317l0.94163-2.7984-1.3699 0.02-0.27677 0.9248c-0.45033 1.5047-0.67093 2.2888-0.80164 2.8497-0.0677 0.2907-0.13498 0.5417-0.14948 0.5578-0.0145 0.016-0.0652-0.1537-0.11271-0.3774-0.0925-0.4358-0.40337-1.5848-0.82484-3.049l-0.26076-0.9059-0.70825-0.01c-0.56086-0.01-0.70446 0-0.69014 0.038 0.01 0.027 0.41163 1.2795 0.89264 2.7846 0.481 1.5051 0.88195 2.7578 0.89098 2.7837 0.0195 0.056 1.4727 0.069 1.507 0.014zm1.5691-7.4391v-0.9426l-3.5087-0.02-0.10463-0.1046-0.10464-0.1046-0.0104-2.0186-0.0104-2.0185h-8.7928v6.1525h12.531z" stroke-width=".037745"/></g></svg>
