<?xml version="1.0" encoding="UTF-8"?>
<!-- Created with Inkscape (http://www.inkscape.org/) -->
<svg width="630.53mm" height="702.47mm" version="1.1" viewBox="0 0 630.53 702.47" xml:space="preserve" xmlns="http://www.w3.org/2000/svg"><defs><marker id="TriangleStart-0-1-3-0-1-4-9-1-65-3-7-3" overflow="visible" markerHeight="6.155385" markerWidth="5.3244081" orient="auto-start-reverse" preserveAspectRatio="xMidYMid" viewBox="0 0 5.3244081 6.1553851"><path transform="scale(.5)" d="m5.77 0-8.65 5v-10z" fill="context-stroke" fill-rule="evenodd" stroke="context-stroke" stroke-width="1pt"/></marker><marker id="TriangleStart-0-1-3-0-1-4-9-1-65-3-7-5-7" overflow="visible" markerHeight="6.155385" markerWidth="5.3244081" orient="auto-start-reverse" preserveAspectRatio="xMidYMid" viewBox="0 0 5.3244081 6.1553851"><path transform="scale(.5)" d="m5.77 0-8.65 5v-10z" fill="context-stroke" fill-rule="evenodd" stroke="context-stroke" stroke-width="1pt"/></marker><marker id="TriangleStart-9-1-6-3" overflow="visible" markerHeight="6.155385" markerWidth="5.3244081" orient="auto-start-reverse" preserveAspectRatio="xMidYMid" viewBox="0 0 5.3244081 6.1553851"><path transform="scale(.5)" d="m5.77 0-8.65 5v-10z" fill="context-stroke" fill-rule="evenodd" stroke="context-stroke" stroke-width="1pt"/></marker><marker id="TriangleStart-9-1-6-2-2" overflow="visible" markerHeight="6.155385" markerWidth="5.3244081" orient="auto-start-reverse" preserveAspectRatio="xMidYMid" viewBox="0 0 5.3244081 6.1553851"><path transform="scale(.5)" d="m5.77 0-8.65 5v-10z" fill="context-stroke" fill-rule="evenodd" stroke="context-stroke" stroke-width="1pt"/></marker><marker id="TriangleStart-9-1-6-1-1" overflow="visible" markerHeight="6.155385" markerWidth="5.3244081" orient="auto-start-reverse" preserveAspectRatio="xMidYMid" viewBox="0 0 5.3244081 6.1553851"><path transform="scale(.5)" d="m5.77 0-8.65 5v-10z" fill="context-stroke" fill-rule="evenodd" stroke="context-stroke" stroke-width="1pt"/></marker><marker id="TriangleStart-9-1-6-1-06-0" overflow="visible" markerHeight="6.155385" markerWidth="5.3244081" orient="auto-start-reverse" preserveAspectRatio="xMidYMid" viewBox="0 0 5.3244081 6.1553851"><path transform="scale(.5)" d="m5.77 0-8.65 5v-10z" fill="context-stroke" fill-rule="evenodd" stroke="context-stroke" stroke-width="1pt"/></marker><marker id="TriangleStart-9-1-6-1-06-7-3" overflow="visible" markerHeight="6.155385" markerWidth="5.3244081" orient="auto-start-reverse" preserveAspectRatio="xMidYMid" viewBox="0 0 5.3244081 6.1553851"><path transform="scale(.5)" d="m5.77 0-8.65 5v-10z" fill="context-stroke" fill-rule="evenodd" stroke="context-stroke" stroke-width="1pt"/></marker><marker id="TriangleStart-9-1-6-1-9-0" overflow="visible" markerHeight="6.155385" markerWidth="5.3244081" orient="auto-start-reverse" preserveAspectRatio="xMidYMid" viewBox="0 0 5.3244081 6.1553851"><path transform="scale(.5)" d="m5.77 0-8.65 5v-10z" fill="context-stroke" fill-rule="evenodd" stroke="context-stroke" stroke-width="1pt"/></marker><marker id="TriangleStart-9-1-6-1-9-6-2" overflow="visible" markerHeight="6.155385" markerWidth="5.3244081" orient="auto-start-reverse" preserveAspectRatio="xMidYMid" viewBox="0 0 5.3244081 6.1553851"><path transform="scale(.5)" d="m5.77 0-8.65 5v-10z" fill="context-stroke" fill-rule="evenodd" stroke="context-stroke" stroke-width="1pt"/></marker><marker id="TriangleStart-9-1-6-1-7-1" overflow="visible" markerHeight="6.155385" markerWidth="5.3244081" orient="auto-start-reverse" preserveAspectRatio="xMidYMid" viewBox="0 0 5.3244081 6.1553851"><path transform="scale(.5)" d="m5.77 0-8.65 5v-10z" fill="context-stroke" fill-rule="evenodd" stroke="context-stroke" stroke-width="1pt"/></marker><marker id="TriangleStart-9-1-6-1-0-7" overflow="visible" markerHeight="6.155385" markerWidth="5.3244081" orient="auto-start-reverse" preserveAspectRatio="xMidYMid" viewBox="0 0 5.3244081 6.1553851"><path transform="scale(.5)" d="m5.77 0-8.65 5v-10z" fill="context-stroke" fill-rule="evenodd" stroke="context-stroke" stroke-width="1pt"/></marker><marker id="TriangleStart-91-2" overflow="visible" markerHeight="6.155385" markerWidth="5.3244081" orient="auto-start-reverse" preserveAspectRatio="xMidYMid" viewBox="0 0 5.3244081 6.1553851"><path transform="scale(.5)" d="m5.77 0-8.65 5v-10z" fill="context-stroke" fill-rule="evenodd" stroke="context-stroke" stroke-width="1pt"/></marker><marker id="TriangleStart-91-3-0" overflow="visible" markerHeight="6.155385" markerWidth="5.3244081" orient="auto-start-reverse" preserveAspectRatio="xMidYMid" viewBox="0 0 5.3244081 6.1553851"><path transform="scale(.5)" d="m5.77 0-8.65 5v-10z" fill="context-stroke" fill-rule="evenodd" stroke="context-stroke" stroke-width="1pt"/></marker><marker id="TriangleStart-9-1-2" overflow="visible" markerHeight="6.155385" markerWidth="5.3244081" orient="auto-start-reverse" preserveAspectRatio="xMidYMid" viewBox="0 0 5.3244081 6.1553851"><path transform="scale(.5)" d="m5.77 0-8.65 5v-10z" fill="context-stroke" fill-rule="evenodd" stroke="context-stroke" stroke-width="1pt"/></marker><marker id="TriangleStart-0-1-3-0-1-4-9-1-65-3-4" overflow="visible" markerHeight="6.155385" markerWidth="5.3244081" orient="auto-start-reverse" preserveAspectRatio="xMidYMid" viewBox="0 0 5.3244081 6.1553851"><path transform="scale(.5)" d="m5.77 0-8.65 5v-10z" fill="context-stroke" fill-rule="evenodd" stroke="context-stroke" stroke-width="1pt"/></marker><marker id="TriangleStart-0-1-3-0-1-4-9-1-65-3-7-5-7-5" overflow="visible" markerHeight="6.155385" markerWidth="5.3244081" orient="auto-start-reverse" preserveAspectRatio="xMidYMid" viewBox="0 0 5.3244081 6.1553851"><path transform="scale(.5)" d="m5.77 0-8.65 5v-10z" fill="context-stroke" fill-rule="evenodd" stroke="context-stroke" stroke-width="1pt"/></marker><marker id="TriangleStart-0-1-3-0-1-4-9-1-65-3-7-3-3" overflow="visible" markerHeight="6.155385" markerWidth="5.3244081" orient="auto-start-reverse" preserveAspectRatio="xMidYMid" viewBox="0 0 5.3244081 6.1553851"><path transform="scale(.5)" d="m5.77 0-8.65 5v-10z" fill="context-stroke" fill-rule="evenodd" stroke="context-stroke" stroke-width="1pt"/></marker><marker id="TriangleStart-0-1-3-0-1-4-9-1-65-3-4-7" overflow="visible" markerHeight="6.155385" markerWidth="5.3244081" orient="auto-start-reverse" preserveAspectRatio="xMidYMid" viewBox="0 0 5.3244081 6.1553851"><path transform="scale(.5)" d="m5.77 0-8.65 5v-10z" fill="context-stroke" fill-rule="evenodd" stroke="context-stroke" stroke-width="1pt"/></marker></defs><g transform="translate(-47.408 -40.345)"><g stroke="#000" stroke-linecap="round" stroke-linejoin="round"><rect x="47.458" y="40.395" width="630.43" height="702.37" fill="#fff" stop-color="#000000" stroke-width=".1" style="paint-order:markers stroke fill"/><path d="m599.8 564.21v43.23" fill="none" marker-end="url(#TriangleStart-0-1-3-0-1-4-9-1-65-3-7-5-7)" stop-color="#000000" style="paint-order:markers stroke fill"/><path d="m599.17 665.55v17.248" fill="none" marker-end="url(#TriangleStart-0-1-3-0-1-4-9-1-65-3-7-5-7-5)" stop-color="#000000" style="paint-order:markers stroke fill"/></g><g stroke-linecap="round" stroke-linejoin="round"><path d="m187.73 146.28h124.65v427.13h-124.65z" fill="#ececec" stop-color="#000000" style="paint-order:markers stroke fill"/><path d="m535.13 146.28h124.65v427.13h-124.65z" fill="#ececec" stop-color="#000000" style="paint-order:markers stroke fill"/><path d="m131.41 203.47h91.239" fill="none" marker-end="url(#TriangleStart-0-1-3-0-1-4-9-1-65-3-4)" stop-color="#000000" stroke="#000" stroke-dasharray="1, 4" style="paint-order:markers stroke fill"/></g><g transform="matrix(.15883 0 0 .15883 210.29 130.08)"><g transform="matrix(3.9483,0,0,-3.9483,263.23,518.98)"><path d="m0 0c0-7.534-6.107-13.642-13.641-13.642-7.535 0-13.642 6.108-13.642 13.642s6.107 13.642 13.642 13.642c7.534 0 13.641-6.108 13.641-13.642" fill="#f60"/></g><g transform="matrix(3.9483,0,0,-3.9483,369.76,443.57)"><path d="m0 0c0-7.533-6.107-13.642-13.641-13.642-7.535 0-13.642 6.109-13.642 13.642 0 7.534 6.107 13.643 13.642 13.643 7.534 0 13.641-6.109 13.641-13.643" fill="#fc0"/></g><g transform="matrix(3.9483,0,0,-3.9483,238.1,442.38)"><path d="m0 0c0-7.533-6.107-13.642-13.642-13.642-7.533 0-13.641 6.109-13.641 13.642 0 7.534 6.108 13.643 13.641 13.643 7.535 0 13.642-6.109 13.642-13.643" fill="#0089cc"/></g><g transform="matrix(3.9483,0,0,-3.9483,345.82,518.98)"><path d="m0 0c0-7.534-6.107-13.642-13.643-13.642-7.533 0-13.641 6.108-13.641 13.642s6.108 13.642 13.641 13.642c7.536 0 13.643-6.108 13.643-13.642" fill="#009939"/></g><g transform="matrix(3.9483,0,0,-3.9483,303.93,394.5)"><path d="m0 0c0-7.534-6.108-13.642-13.642-13.642s-13.642 6.108-13.642 13.642 6.108 13.642 13.642 13.642 13.642-6.108 13.642-13.642" fill="#bf0000"/></g><g transform="matrix(3.9483,0,0,-3.9483,262.04,443.57)"><path d="M 0,0 C 0,-0.287 0.025,-0.568 0.043,-0.851 6.094,0.545 10.61,5.955 10.61,12.43 c 0,0.287 -0.025,0.569 -0.043,0.852 C 4.516,11.885 0,6.475 0,0" fill="#fc0007"/></g><g transform="matrix(3.9483,0,0,-3.9483,269.15,470.24)"><path d="m0 0c2.351-4.11 6.769-6.887 11.843-6.887 2.068 0 4.021 0.474 5.778 1.298-2.35 4.11-6.768 6.887-11.843 6.887-2.068 0-4.021-0.474-5.778-1.298" fill="#1cd306"/></g><g transform="matrix(3.9483,0,0,-3.9483,238.1,518.98)"><path d="m0 0c0-3.333 1.198-6.383 3.184-8.752 1.984 2.369 3.182 5.419 3.182 8.752s-1.198 6.383-3.182 8.752c-1.986-2.369-3.184-5.419-3.184-8.752" fill="#0f7504"/></g><g transform="matrix(3.9483,0,0,-3.9483,162.91,491.83)"><path d="m0 0c1.657-0.716 3.481-1.117 5.401-1.117 5.024 0 9.401 2.723 11.769 6.766-1.657 0.716-3.482 1.116-5.401 1.116-5.024 0-9.402-2.723-11.769-6.765" fill="#0c5e87"/></g><g transform="matrix(3.9483,0,0,-3.9483,196.44,389.95)"><path d="m0 0c-0.032-0.38-0.059-0.762-0.059-1.151 0-6.47 4.509-11.875 10.553-13.277 0.031 0.38 0.058 0.762 0.058 1.15 0 6.47-4.508 11.877-10.552 13.278" fill="#6b0001"/></g><g transform="matrix(3.9483,0,0,-3.9483,201.47,512.31)"><path d="m0 0h-2.134c-1.884 0-3.416 1.527-3.416 3.406v19.316c0 1.879 1.532 3.407 3.416 3.407h26.759c1.884 0 3.415-1.528 3.415-3.407v-19.316c0-1.879-1.531-3.406-3.415-3.406h-9.116l-18.29-8.966z" fill="#fff"/></g></g><text x="252.81812" y="235.39439" fill="#000000" font-family="sans-serif" font-size="9.8778px" stop-color="#000000" stroke="#ffffff" stroke-linecap="round" stroke-linejoin="round" stroke-width=".5" text-align="center" text-anchor="middle" style="paint-order:markers stroke fill" xml:space="preserve"><tspan x="252.81812" y="235.39439" fill="#000000" stroke-width=".5">RTCPeerConnection</tspan></text><g transform="matrix(.15883 0 0 .15883 210.29 209.43)"><g transform="matrix(3.9483,0,0,-3.9483,263.23,518.98)"><path d="m0 0c0-7.534-6.107-13.642-13.641-13.642-7.535 0-13.642 6.108-13.642 13.642s6.107 13.642 13.642 13.642c7.534 0 13.641-6.108 13.641-13.642" fill="#f60"/></g><g transform="matrix(3.9483,0,0,-3.9483,369.76,443.57)"><path d="m0 0c0-7.533-6.107-13.642-13.641-13.642-7.535 0-13.642 6.109-13.642 13.642 0 7.534 6.107 13.643 13.642 13.643 7.534 0 13.641-6.109 13.641-13.643" fill="#fc0"/></g><g transform="matrix(3.9483,0,0,-3.9483,238.1,442.38)"><path d="m0 0c0-7.533-6.107-13.642-13.642-13.642-7.533 0-13.641 6.109-13.641 13.642 0 7.534 6.108 13.643 13.641 13.643 7.535 0 13.642-6.109 13.642-13.643" fill="#0089cc"/></g><g transform="matrix(3.9483,0,0,-3.9483,345.82,518.98)"><path d="m0 0c0-7.534-6.107-13.642-13.643-13.642-7.533 0-13.641 6.108-13.641 13.642s6.108 13.642 13.641 13.642c7.536 0 13.643-6.108 13.643-13.642" fill="#009939"/></g><g transform="matrix(3.9483,0,0,-3.9483,303.93,394.5)"><path d="m0 0c0-7.534-6.108-13.642-13.642-13.642s-13.642 6.108-13.642 13.642 6.108 13.642 13.642 13.642 13.642-6.108 13.642-13.642" fill="#bf0000"/></g><g transform="matrix(3.9483,0,0,-3.9483,262.04,443.57)"><path d="M 0,0 C 0,-0.287 0.025,-0.568 0.043,-0.851 6.094,0.545 10.61,5.955 10.61,12.43 c 0,0.287 -0.025,0.569 -0.043,0.852 C 4.516,11.885 0,6.475 0,0" fill="#fc0007"/></g><g transform="matrix(3.9483,0,0,-3.9483,269.15,470.24)"><path d="m0 0c2.351-4.11 6.769-6.887 11.843-6.887 2.068 0 4.021 0.474 5.778 1.298-2.35 4.11-6.768 6.887-11.843 6.887-2.068 0-4.021-0.474-5.778-1.298" fill="#1cd306"/></g><g transform="matrix(3.9483,0,0,-3.9483,238.1,518.98)"><path d="m0 0c0-3.333 1.198-6.383 3.184-8.752 1.984 2.369 3.182 5.419 3.182 8.752s-1.198 6.383-3.182 8.752c-1.986-2.369-3.184-5.419-3.184-8.752" fill="#0f7504"/></g><g transform="matrix(3.9483,0,0,-3.9483,162.91,491.83)"><path d="m0 0c1.657-0.716 3.481-1.117 5.401-1.117 5.024 0 9.401 2.723 11.769 6.766-1.657 0.716-3.482 1.116-5.401 1.116-5.024 0-9.402-2.723-11.769-6.765" fill="#0c5e87"/></g><g transform="matrix(3.9483,0,0,-3.9483,196.44,389.95)"><path d="m0 0c-0.032-0.38-0.059-0.762-0.059-1.151 0-6.47 4.509-11.875 10.553-13.277 0.031 0.38 0.058 0.762 0.058 1.15 0 6.47-4.508 11.877-10.552 13.278" fill="#6b0001"/></g><g transform="matrix(3.9483,0,0,-3.9483,201.47,512.31)"><path d="m0 0h-2.134c-1.884 0-3.416 1.527-3.416 3.406v19.316c0 1.879 1.532 3.407 3.416 3.407h26.759c1.884 0 3.415-1.528 3.415-3.407v-19.316c0-1.879-1.531-3.406-3.415-3.406h-9.116l-18.29-8.966z" fill="#fff"/></g></g><g transform="matrix(.15883 0 0 .15883 210.29 332.09)"><g transform="matrix(3.9483,0,0,-3.9483,263.23,518.98)"><path d="m0 0c0-7.534-6.107-13.642-13.641-13.642-7.535 0-13.642 6.108-13.642 13.642s6.107 13.642 13.642 13.642c7.534 0 13.641-6.108 13.641-13.642" fill="#f60"/></g><g transform="matrix(3.9483,0,0,-3.9483,369.76,443.57)"><path d="m0 0c0-7.533-6.107-13.642-13.641-13.642-7.535 0-13.642 6.109-13.642 13.642 0 7.534 6.107 13.643 13.642 13.643 7.534 0 13.641-6.109 13.641-13.643" fill="#fc0"/></g><g transform="matrix(3.9483,0,0,-3.9483,238.1,442.38)"><path d="m0 0c0-7.533-6.107-13.642-13.642-13.642-7.533 0-13.641 6.109-13.641 13.642 0 7.534 6.108 13.643 13.641 13.643 7.535 0 13.642-6.109 13.642-13.643" fill="#0089cc"/></g><g transform="matrix(3.9483,0,0,-3.9483,345.82,518.98)"><path d="m0 0c0-7.534-6.107-13.642-13.643-13.642-7.533 0-13.641 6.108-13.641 13.642s6.108 13.642 13.641 13.642c7.536 0 13.643-6.108 13.643-13.642" fill="#009939"/></g><g transform="matrix(3.9483,0,0,-3.9483,303.93,394.5)"><path d="m0 0c0-7.534-6.108-13.642-13.642-13.642s-13.642 6.108-13.642 13.642 6.108 13.642 13.642 13.642 13.642-6.108 13.642-13.642" fill="#bf0000"/></g><g transform="matrix(3.9483,0,0,-3.9483,262.04,443.57)"><path d="M 0,0 C 0,-0.287 0.025,-0.568 0.043,-0.851 6.094,0.545 10.61,5.955 10.61,12.43 c 0,0.287 -0.025,0.569 -0.043,0.852 C 4.516,11.885 0,6.475 0,0" fill="#fc0007"/></g><g transform="matrix(3.9483,0,0,-3.9483,269.15,470.24)"><path d="m0 0c2.351-4.11 6.769-6.887 11.843-6.887 2.068 0 4.021 0.474 5.778 1.298-2.35 4.11-6.768 6.887-11.843 6.887-2.068 0-4.021-0.474-5.778-1.298" fill="#1cd306"/></g><g transform="matrix(3.9483,0,0,-3.9483,238.1,518.98)"><path d="m0 0c0-3.333 1.198-6.383 3.184-8.752 1.984 2.369 3.182 5.419 3.182 8.752s-1.198 6.383-3.182 8.752c-1.986-2.369-3.184-5.419-3.184-8.752" fill="#0f7504"/></g><g transform="matrix(3.9483,0,0,-3.9483,162.91,491.83)"><path d="m0 0c1.657-0.716 3.481-1.117 5.401-1.117 5.024 0 9.401 2.723 11.769 6.766-1.657 0.716-3.482 1.116-5.401 1.116-5.024 0-9.402-2.723-11.769-6.765" fill="#0c5e87"/></g><g transform="matrix(3.9483,0,0,-3.9483,196.44,389.95)"><path d="m0 0c-0.032-0.38-0.059-0.762-0.059-1.151 0-6.47 4.509-11.875 10.553-13.277 0.031 0.38 0.058 0.762 0.058 1.15 0 6.47-4.508 11.877-10.552 13.278" fill="#6b0001"/></g><g transform="matrix(3.9483,0,0,-3.9483,201.47,512.31)"><path d="m0 0h-2.134c-1.884 0-3.416 1.527-3.416 3.406v19.316c0 1.879 1.532 3.407 3.416 3.407h26.759c1.884 0 3.415-1.528 3.415-3.407v-19.316c0-1.879-1.531-3.406-3.415-3.406h-9.116l-18.29-8.966z" fill="#fff"/></g></g><g transform="matrix(.15883 0 0 .15883 210.29 397.85)"><g transform="matrix(3.9483,0,0,-3.9483,263.23,518.98)"><path d="m0 0c0-7.534-6.107-13.642-13.641-13.642-7.535 0-13.642 6.108-13.642 13.642s6.107 13.642 13.642 13.642c7.534 0 13.641-6.108 13.641-13.642" fill="#f60"/></g><g transform="matrix(3.9483,0,0,-3.9483,369.76,443.57)"><path d="m0 0c0-7.533-6.107-13.642-13.641-13.642-7.535 0-13.642 6.109-13.642 13.642 0 7.534 6.107 13.643 13.642 13.643 7.534 0 13.641-6.109 13.641-13.643" fill="#fc0"/></g><g transform="matrix(3.9483,0,0,-3.9483,238.1,442.38)"><path d="m0 0c0-7.533-6.107-13.642-13.642-13.642-7.533 0-13.641 6.109-13.641 13.642 0 7.534 6.108 13.643 13.641 13.643 7.535 0 13.642-6.109 13.642-13.643" fill="#0089cc"/></g><g transform="matrix(3.9483,0,0,-3.9483,345.82,518.98)"><path d="m0 0c0-7.534-6.107-13.642-13.643-13.642-7.533 0-13.641 6.108-13.641 13.642s6.108 13.642 13.641 13.642c7.536 0 13.643-6.108 13.643-13.642" fill="#009939"/></g><g transform="matrix(3.9483,0,0,-3.9483,303.93,394.5)"><path d="m0 0c0-7.534-6.108-13.642-13.642-13.642s-13.642 6.108-13.642 13.642 6.108 13.642 13.642 13.642 13.642-6.108 13.642-13.642" fill="#bf0000"/></g><g transform="matrix(3.9483,0,0,-3.9483,262.04,443.57)"><path d="M 0,0 C 0,-0.287 0.025,-0.568 0.043,-0.851 6.094,0.545 10.61,5.955 10.61,12.43 c 0,0.287 -0.025,0.569 -0.043,0.852 C 4.516,11.885 0,6.475 0,0" fill="#fc0007"/></g><g transform="matrix(3.9483,0,0,-3.9483,269.15,470.24)"><path d="m0 0c2.351-4.11 6.769-6.887 11.843-6.887 2.068 0 4.021 0.474 5.778 1.298-2.35 4.11-6.768 6.887-11.843 6.887-2.068 0-4.021-0.474-5.778-1.298" fill="#1cd306"/></g><g transform="matrix(3.9483,0,0,-3.9483,238.1,518.98)"><path d="m0 0c0-3.333 1.198-6.383 3.184-8.752 1.984 2.369 3.182 5.419 3.182 8.752s-1.198 6.383-3.182 8.752c-1.986-2.369-3.184-5.419-3.184-8.752" fill="#0f7504"/></g><g transform="matrix(3.9483,0,0,-3.9483,162.91,491.83)"><path d="m0 0c1.657-0.716 3.481-1.117 5.401-1.117 5.024 0 9.401 2.723 11.769 6.766-1.657 0.716-3.482 1.116-5.401 1.116-5.024 0-9.402-2.723-11.769-6.765" fill="#0c5e87"/></g><g transform="matrix(3.9483,0,0,-3.9483,196.44,389.95)"><path d="m0 0c-0.032-0.38-0.059-0.762-0.059-1.151 0-6.47 4.509-11.875 10.553-13.277 0.031 0.38 0.058 0.762 0.058 1.15 0 6.47-4.508 11.877-10.552 13.278" fill="#6b0001"/></g><g transform="matrix(3.9483,0,0,-3.9483,201.47,512.31)"><path d="m0 0h-2.134c-1.884 0-3.416 1.527-3.416 3.406v19.316c0 1.879 1.532 3.407 3.416 3.407h26.759c1.884 0 3.415-1.528 3.415-3.407v-19.316c0-1.879-1.531-3.406-3.415-3.406h-9.116l-18.29-8.966z" fill="#fff"/></g></g><g transform="matrix(.15883 0 0 .15883 560.91 462.29)"><g transform="matrix(3.9483,0,0,-3.9483,263.23,518.98)"><path d="m0 0c0-7.534-6.107-13.642-13.641-13.642-7.535 0-13.642 6.108-13.642 13.642s6.107 13.642 13.642 13.642c7.534 0 13.641-6.108 13.641-13.642" fill="#f60"/></g><g transform="matrix(3.9483,0,0,-3.9483,369.76,443.57)"><path d="m0 0c0-7.533-6.107-13.642-13.641-13.642-7.535 0-13.642 6.109-13.642 13.642 0 7.534 6.107 13.643 13.642 13.643 7.534 0 13.641-6.109 13.641-13.643" fill="#fc0"/></g><g transform="matrix(3.9483,0,0,-3.9483,238.1,442.38)"><path d="m0 0c0-7.533-6.107-13.642-13.642-13.642-7.533 0-13.641 6.109-13.641 13.642 0 7.534 6.108 13.643 13.641 13.643 7.535 0 13.642-6.109 13.642-13.643" fill="#0089cc"/></g><g transform="matrix(3.9483,0,0,-3.9483,345.82,518.98)"><path d="m0 0c0-7.534-6.107-13.642-13.643-13.642-7.533 0-13.641 6.108-13.641 13.642s6.108 13.642 13.641 13.642c7.536 0 13.643-6.108 13.643-13.642" fill="#009939"/></g><g transform="matrix(3.9483,0,0,-3.9483,303.93,394.5)"><path d="m0 0c0-7.534-6.108-13.642-13.642-13.642s-13.642 6.108-13.642 13.642 6.108 13.642 13.642 13.642 13.642-6.108 13.642-13.642" fill="#bf0000"/></g><g transform="matrix(3.9483,0,0,-3.9483,262.04,443.57)"><path d="M 0,0 C 0,-0.287 0.025,-0.568 0.043,-0.851 6.094,0.545 10.61,5.955 10.61,12.43 c 0,0.287 -0.025,0.569 -0.043,0.852 C 4.516,11.885 0,6.475 0,0" fill="#fc0007"/></g><g transform="matrix(3.9483,0,0,-3.9483,269.15,470.24)"><path d="m0 0c2.351-4.11 6.769-6.887 11.843-6.887 2.068 0 4.021 0.474 5.778 1.298-2.35 4.11-6.768 6.887-11.843 6.887-2.068 0-4.021-0.474-5.778-1.298" fill="#1cd306"/></g><g transform="matrix(3.9483,0,0,-3.9483,238.1,518.98)"><path d="m0 0c0-3.333 1.198-6.383 3.184-8.752 1.984 2.369 3.182 5.419 3.182 8.752s-1.198 6.383-3.182 8.752c-1.986-2.369-3.184-5.419-3.184-8.752" fill="#0f7504"/></g><g transform="matrix(3.9483,0,0,-3.9483,162.91,491.83)"><path d="m0 0c1.657-0.716 3.481-1.117 5.401-1.117 5.024 0 9.401 2.723 11.769 6.766-1.657 0.716-3.482 1.116-5.401 1.116-5.024 0-9.402-2.723-11.769-6.765" fill="#0c5e87"/></g><g transform="matrix(3.9483,0,0,-3.9483,196.44,389.95)"><path d="m0 0c-0.032-0.38-0.059-0.762-0.059-1.151 0-6.47 4.509-11.875 10.553-13.277 0.031 0.38 0.058 0.762 0.058 1.15 0 6.47-4.508 11.877-10.552 13.278" fill="#6b0001"/></g><g transform="matrix(3.9483,0,0,-3.9483,201.47,512.31)"><path d="m0 0h-2.134c-1.884 0-3.416 1.527-3.416 3.406v19.316c0 1.879 1.532 3.407 3.416 3.407h26.759c1.884 0 3.415-1.528 3.415-3.407v-19.316c0-1.879-1.531-3.406-3.415-3.406h-9.116l-18.29-8.966z" fill="#fff"/></g></g><g transform="matrix(.15883 0 0 .15883 560.91 209.43)"><g transform="matrix(3.9483,0,0,-3.9483,263.23,518.98)"><path d="m0 0c0-7.534-6.107-13.642-13.641-13.642-7.535 0-13.642 6.108-13.642 13.642s6.107 13.642 13.642 13.642c7.534 0 13.641-6.108 13.641-13.642" fill="#f60"/></g><g transform="matrix(3.9483,0,0,-3.9483,369.76,443.57)"><path d="m0 0c0-7.533-6.107-13.642-13.641-13.642-7.535 0-13.642 6.109-13.642 13.642 0 7.534 6.107 13.643 13.642 13.643 7.534 0 13.641-6.109 13.641-13.643" fill="#fc0"/></g><g transform="matrix(3.9483,0,0,-3.9483,238.1,442.38)"><path d="m0 0c0-7.533-6.107-13.642-13.642-13.642-7.533 0-13.641 6.109-13.641 13.642 0 7.534 6.108 13.643 13.641 13.643 7.535 0 13.642-6.109 13.642-13.643" fill="#0089cc"/></g><g transform="matrix(3.9483,0,0,-3.9483,345.82,518.98)"><path d="m0 0c0-7.534-6.107-13.642-13.643-13.642-7.533 0-13.641 6.108-13.641 13.642s6.108 13.642 13.641 13.642c7.536 0 13.643-6.108 13.643-13.642" fill="#009939"/></g><g transform="matrix(3.9483,0,0,-3.9483,303.93,394.5)"><path d="m0 0c0-7.534-6.108-13.642-13.642-13.642s-13.642 6.108-13.642 13.642 6.108 13.642 13.642 13.642 13.642-6.108 13.642-13.642" fill="#bf0000"/></g><g transform="matrix(3.9483,0,0,-3.9483,262.04,443.57)"><path d="M 0,0 C 0,-0.287 0.025,-0.568 0.043,-0.851 6.094,0.545 10.61,5.955 10.61,12.43 c 0,0.287 -0.025,0.569 -0.043,0.852 C 4.516,11.885 0,6.475 0,0" fill="#fc0007"/></g><g transform="matrix(3.9483,0,0,-3.9483,269.15,470.24)"><path d="m0 0c2.351-4.11 6.769-6.887 11.843-6.887 2.068 0 4.021 0.474 5.778 1.298-2.35 4.11-6.768 6.887-11.843 6.887-2.068 0-4.021-0.474-5.778-1.298" fill="#1cd306"/></g><g transform="matrix(3.9483,0,0,-3.9483,238.1,518.98)"><path d="m0 0c0-3.333 1.198-6.383 3.184-8.752 1.984 2.369 3.182 5.419 3.182 8.752s-1.198 6.383-3.182 8.752c-1.986-2.369-3.184-5.419-3.184-8.752" fill="#0f7504"/></g><g transform="matrix(3.9483,0,0,-3.9483,162.91,491.83)"><path d="m0 0c1.657-0.716 3.481-1.117 5.401-1.117 5.024 0 9.401 2.723 11.769 6.766-1.657 0.716-3.482 1.116-5.401 1.116-5.024 0-9.402-2.723-11.769-6.765" fill="#0c5e87"/></g><g transform="matrix(3.9483,0,0,-3.9483,196.44,389.95)"><path d="m0 0c-0.032-0.38-0.059-0.762-0.059-1.151 0-6.47 4.509-11.875 10.553-13.277 0.031 0.38 0.058 0.762 0.058 1.15 0 6.47-4.508 11.877-10.552 13.278" fill="#6b0001"/></g><g transform="matrix(3.9483,0,0,-3.9483,201.47,512.31)"><path d="m0 0h-2.134c-1.884 0-3.416 1.527-3.416 3.406v19.316c0 1.879 1.532 3.407 3.416 3.407h26.759c1.884 0 3.415-1.528 3.415-3.407v-19.316c0-1.879-1.531-3.406-3.415-3.406h-9.116l-18.29-8.966z" fill="#fff"/></g></g><text x="602.10748" y="256.16928" fill="#000000" font-family="sans-serif" font-size="9.8778px" stop-color="#000000" stroke="#ffffff" stroke-linecap="round" stroke-linejoin="round" stroke-width=".5" text-align="center" text-anchor="middle" style="paint-order:markers stroke fill" xml:space="preserve"><tspan x="602.10748" y="256.16928" fill="#000000" stroke-width=".5">RTCPeerConnection</tspan></text><g transform="matrix(.15883 0 0 .15883 560.91 332.09)"><g transform="matrix(3.9483,0,0,-3.9483,263.23,518.98)"><path d="m0 0c0-7.534-6.107-13.642-13.641-13.642-7.535 0-13.642 6.108-13.642 13.642s6.107 13.642 13.642 13.642c7.534 0 13.641-6.108 13.641-13.642" fill="#f60"/></g><g transform="matrix(3.9483,0,0,-3.9483,369.76,443.57)"><path d="m0 0c0-7.533-6.107-13.642-13.641-13.642-7.535 0-13.642 6.109-13.642 13.642 0 7.534 6.107 13.643 13.642 13.643 7.534 0 13.641-6.109 13.641-13.643" fill="#fc0"/></g><g transform="matrix(3.9483,0,0,-3.9483,238.1,442.38)"><path d="m0 0c0-7.533-6.107-13.642-13.642-13.642-7.533 0-13.641 6.109-13.641 13.642 0 7.534 6.108 13.643 13.641 13.643 7.535 0 13.642-6.109 13.642-13.643" fill="#0089cc"/></g><g transform="matrix(3.9483,0,0,-3.9483,345.82,518.98)"><path d="m0 0c0-7.534-6.107-13.642-13.643-13.642-7.533 0-13.641 6.108-13.641 13.642s6.108 13.642 13.641 13.642c7.536 0 13.643-6.108 13.643-13.642" fill="#009939"/></g><g transform="matrix(3.9483,0,0,-3.9483,303.93,394.5)"><path d="m0 0c0-7.534-6.108-13.642-13.642-13.642s-13.642 6.108-13.642 13.642 6.108 13.642 13.642 13.642 13.642-6.108 13.642-13.642" fill="#bf0000"/></g><g transform="matrix(3.9483,0,0,-3.9483,262.04,443.57)"><path d="M 0,0 C 0,-0.287 0.025,-0.568 0.043,-0.851 6.094,0.545 10.61,5.955 10.61,12.43 c 0,0.287 -0.025,0.569 -0.043,0.852 C 4.516,11.885 0,6.475 0,0" fill="#fc0007"/></g><g transform="matrix(3.9483,0,0,-3.9483,269.15,470.24)"><path d="m0 0c2.351-4.11 6.769-6.887 11.843-6.887 2.068 0 4.021 0.474 5.778 1.298-2.35 4.11-6.768 6.887-11.843 6.887-2.068 0-4.021-0.474-5.778-1.298" fill="#1cd306"/></g><g transform="matrix(3.9483,0,0,-3.9483,238.1,518.98)"><path d="m0 0c0-3.333 1.198-6.383 3.184-8.752 1.984 2.369 3.182 5.419 3.182 8.752s-1.198 6.383-3.182 8.752c-1.986-2.369-3.184-5.419-3.184-8.752" fill="#0f7504"/></g><g transform="matrix(3.9483,0,0,-3.9483,162.91,491.83)"><path d="m0 0c1.657-0.716 3.481-1.117 5.401-1.117 5.024 0 9.401 2.723 11.769 6.766-1.657 0.716-3.482 1.116-5.401 1.116-5.024 0-9.402-2.723-11.769-6.765" fill="#0c5e87"/></g><g transform="matrix(3.9483,0,0,-3.9483,196.44,389.95)"><path d="m0 0c-0.032-0.38-0.059-0.762-0.059-1.151 0-6.47 4.509-11.875 10.553-13.277 0.031 0.38 0.058 0.762 0.058 1.15 0 6.47-4.508 11.877-10.552 13.278" fill="#6b0001"/></g><g transform="matrix(3.9483,0,0,-3.9483,201.47,512.31)"><path d="m0 0h-2.134c-1.884 0-3.416 1.527-3.416 3.406v19.316c0 1.879 1.532 3.407 3.416 3.407h26.759c1.884 0 3.415-1.528 3.415-3.407v-19.316c0-1.879-1.531-3.406-3.415-3.406h-9.116l-18.29-8.966z" fill="#fff"/></g></g><g fill="none" stroke="#000" stroke-linecap="round" stroke-linejoin="round"><path d="m277.66 206.98h116.45" marker-end="url(#TriangleStart-0-1-3-0-1-4-9-1-65-3-7-3)" stop-color="#000000" style="paint-order:markers stroke fill"/><path d="m420.61 245.82v38.122h-137.55" marker-end="url(#TriangleStart-9-1-6-3)" stop-color="#000000" stroke-dasharray="1, 4" style="paint-order:markers stroke fill"/><path d="m596.15 320.56v23.804h-137.55" marker-end="url(#TriangleStart-9-1-6-2-2)" stop-color="#000000" style="paint-order:markers stroke fill"/><g stroke-dasharray="1, 4"><path d="m430.35 244.7v39.237h137.55" marker-end="url(#TriangleStart-9-1-6-1-1)" stop-color="#000000" style="paint-order:markers stroke fill"/><path d="m453.35 541.44h120.98" marker-end="url(#TriangleStart-9-1-6-1-06-0)" stop-color="#000000" style="paint-order:markers stroke fill"/><path d="m397.91 471.77h-121.79" marker-end="url(#TriangleStart-9-1-6-1-06-7-3)" stop-color="#000000" style="paint-order:markers stroke fill"/></g><path d="m247.75 496.74v44.272h147.83" marker-end="url(#TriangleStart-9-1-6-1-9-0)" stop-color="#000000" style="paint-order:markers stroke fill"/><path d="m599.04 511.45v-39.682h-146.39" marker-end="url(#TriangleStart-9-1-6-1-9-6-2)" stop-color="#000000" style="paint-order:markers stroke fill"/><path d="m420.61 374.23v35.044h-139.74" marker-end="url(#TriangleStart-9-1-6-1-7-1)" stop-color="#000000" stroke-dasharray="1, 4" style="paint-order:markers stroke fill"/><path d="m430.35 374.23v35.044h138.59" marker-end="url(#TriangleStart-9-1-6-1-0-7)" stop-color="#000000" stroke-dasharray="1, 4" style="paint-order:markers stroke fill"/></g><text x="598.34796" y="662.74274" fill="#000000" font-family="sans-serif" font-size="9.8778px" stop-color="#000000" stroke="#ffffff" stroke-linecap="round" stroke-linejoin="round" stroke-width=".5" text-align="center" text-anchor="middle" style="paint-order:markers stroke fill" xml:space="preserve"><tspan x="598.34796" y="662.74274" fill="#000000" stroke-width=".5">MediaStream</tspan></text><path d="m590.2 648.45c-4.2504-2.1229-7.9073-4.0596-8.1264-4.3038-0.3873-0.4315-0.3984-0.7248-0.3984-10.462 0-9.7372 0.011-10.03 0.3984-10.462 0.5147-0.5736 15.702-8.1635 16.335-8.1635 0.6331 0 15.82 7.5899 16.335 8.1635 0.3872 0.4316 0.3984 0.7248 0.3984 10.462 0 9.7371-0.011 10.03-0.3984 10.462-0.5147 0.5737-15.702 8.1636-16.335 8.1636-0.2641 0-3.9578-1.7369-8.2082-3.8598zm6.3158-8.2435v-7.3224l-5.479-2.7374c-3.0135-1.5055-5.5235-2.7373-5.5777-2.7373-0.054 0-0.099 3.2716-0.099 7.2702v7.2702l5.5279 2.7788c3.0403 1.5284 5.5503 2.7836 5.5776 2.7896 0.027 0.01 0.05-3.2844 0.05-7.3117zm14.94-5.5269c0-3.9986-0.044-7.2702-0.099-7.2702-0.054 0-2.5642 1.2318-5.5776 2.7373l-5.4791 2.7374v14.646l11.155-5.5805zm-2.3905-10.358c0-0.054-2.3979-1.2977-5.3286-2.7639l-5.3287-2.6658-5.3287 2.6658c-2.9308 1.4661-5.3287 2.7099-5.3287 2.7639s2.3979 1.2978 5.3286 2.764l5.3287 2.6658 5.3287-2.6658c2.9308-1.4662 5.3287-2.71 5.3287-2.764z" stroke-width=".1992"/><text x="598.88879" y="736.98712" fill="#000000" font-family="sans-serif" font-size="9.8778px" stop-color="#000000" stroke="#ffffff" stroke-linecap="round" stroke-linejoin="round" stroke-width=".5" text-align="center" text-anchor="middle" style="paint-order:markers stroke fill" xml:space="preserve"><tspan x="598.88879" y="736.98712" fill="#000000" stroke-width=".5">MediaStreamTrack</tspan></text><path d="m590.75 722.7c-4.2504-2.1229-7.9073-4.0596-8.1264-4.3038-0.3873-0.4315-0.3984-0.7248-0.3984-10.462 0-9.7372 0.011-10.03 0.3984-10.462 0.5147-0.5736 15.702-8.1635 16.335-8.1635 0.6331 0 15.82 7.5899 16.335 8.1635 0.3872 0.4316 0.3984 0.7248 0.3984 10.462 0 9.7371-0.011 10.03-0.3984 10.462-0.5147 0.5737-15.702 8.1636-16.335 8.1636-0.2641 0-3.9578-1.7369-8.2082-3.8598zm6.3158-8.2435v-7.3224l-5.479-2.7374c-3.0135-1.5055-5.5235-2.7373-5.5777-2.7373-0.054 0-0.099 3.2716-0.099 7.2702v7.2702l5.5279 2.7788c3.0403 1.5284 5.5503 2.7836 5.5776 2.7896 0.027 0.01 0.05-3.2844 0.05-7.3117zm14.94-5.5269c0-3.9986-0.044-7.2702-0.099-7.2702-0.054 0-2.5642 1.2318-5.5776 2.7373l-5.4791 2.7374v14.646l11.155-5.5805zm-2.3905-10.358c0-0.054-2.3979-1.2977-5.3286-2.7639l-5.3287-2.6658-5.3287 2.6658c-2.9308 1.4661-5.3287 2.7099-5.3287 2.7639s2.3979 1.2978 5.3286 2.764l5.3287 2.6658 5.3287-2.6658c2.9308-1.4662 5.3287-2.71 5.3287-2.764z" stroke-width=".1992"/><text x="425.7207" y="236.98082" fill="#000000" font-family="sans-serif" font-size="9.8778px" stop-color="#000000" stroke="#ffffff" stroke-linecap="round" stroke-linejoin="round" stroke-width=".5" text-align="center" text-anchor="middle" style="paint-order:markers stroke fill" xml:space="preserve"><tspan x="425.7207" y="236.98082" fill="#000000" stroke-width=".5">RTCSessionDescriptionInit</tspan></text><path d="m415.9 221.8c-4.2504-2.1229-7.9073-4.0596-8.1264-4.3038-0.3873-0.43154-0.3984-0.72478-0.3984-10.462 0-9.7372 0.011-10.03 0.3984-10.462 0.5147-0.57366 15.702-8.1636 16.335-8.1636 0.633 0 15.82 7.5899 16.335 8.1636 0.3873 0.43154 0.3984 0.72478 0.3984 10.462 0 9.7371-0.011 10.03-0.3984 10.462-0.5147 0.57366-15.702 8.1636-16.335 8.1636-0.2641 0-3.9579-1.7369-8.2083-3.8598zm6.3158-8.2435v-7.3224l-5.479-2.7374c-3.0135-1.5056-5.5234-2.7374-5.5777-2.7374-0.054 0-0.099 3.2716-0.099 7.2702v7.2702l5.5279 2.7788c3.0403 1.5283 5.5503 2.7836 5.5777 2.7896 0.027 6e-3 0.05-3.2843 0.05-7.3117zm14.94-5.5269c0-3.9986-0.044-7.2702-0.099-7.2702-0.054 0-2.5643 1.2318-5.5777 2.7374l-5.4791 2.7374v14.646l11.155-5.5804zm-2.3905-10.358c0-0.054-2.3979-1.2978-5.3286-2.764l-5.3287-2.6658-5.3287 2.6658c-2.9308 1.4662-5.3287 2.71-5.3287 2.7639 0 0.054 2.3979 1.2978 5.3286 2.7639l5.3287 2.6658 5.3287-2.6658c2.9308-1.4662 5.3287-2.7099 5.3287-2.7639z" stroke-width=".1992"/><g fill="#000000" font-family="sans-serif" stroke="#ffffff" stroke-linecap="round" stroke-linejoin="round" text-anchor="middle"><text x="427.95862" y="369.12292" font-size="9.8778px" stop-color="#000000" stroke-width=".5" text-align="center" style="paint-order:markers stroke fill" xml:space="preserve"><tspan x="427.95862" y="369.12292" fill="#000000" stroke-width=".5">RTCSessionDescriptionInit</tspan></text><text x="250.00256" y="173.00023" font-size="24.001px" stop-color="#000000" stroke-width="1.2149" text-align="center" style="paint-order:markers stroke fill" xml:space="preserve"><tspan x="250.00256" y="173.00023" fill="#000000" stroke-width="1.2149">Local</tspan></text><text x="596.91473" y="173.00023" font-size="24.001px" stop-color="#000000" stroke-width="1.2149" text-align="center" style="paint-order:markers stroke fill" xml:space="preserve"><tspan x="596.91473" y="173.00023" fill="#000000" stroke-width="1.2149">Remote</tspan></text></g><path d="m418.09 356.93c-4.2504-2.1229-7.9073-4.0596-8.1264-4.3038-0.3873-0.4315-0.3984-0.7247-0.3984-10.462 0-9.7372 0.011-10.03 0.3984-10.462 0.5147-0.57366 15.702-8.1636 16.335-8.1636 0.6331 0 15.82 7.5899 16.335 8.1636 0.3873 0.43154 0.3984 0.72478 0.3984 10.462 0 9.7372-0.011 10.03-0.3984 10.462-0.5147 0.5737-15.702 8.1636-16.335 8.1636-0.2641 0-3.9578-1.7369-8.2082-3.8598zm6.3158-8.2435v-7.3224l-5.479-2.7374c-3.0135-1.5056-5.5234-2.7374-5.5777-2.7374-0.054 0-0.099 3.2716-0.099 7.2702v7.2702l5.5279 2.7788c3.0403 1.5284 5.5503 2.7837 5.5777 2.7896 0.027 0.01 0.05-3.2843 0.05-7.3117zm14.94-5.5269c0-3.9986-0.044-7.2702-0.099-7.2702-0.054 0-2.5643 1.2318-5.5777 2.7374l-5.4791 2.7374v14.646l11.155-5.5804zm-2.3905-10.358c0-0.054-2.3979-1.2978-5.3286-2.764l-5.3287-2.6658-5.3287 2.6658c-2.9308 1.4662-5.3287 2.71-5.3287 2.7639 0 0.054 2.3979 1.2978 5.3286 2.7639l5.3287 2.6658 5.3287-2.6658c2.9308-1.4662 5.3287-2.7099 5.3287-2.7639z" stroke-width=".1992"/><text x="424.53284" y="566.97247" fill="#000000" font-family="sans-serif" font-size="9.8778px" stop-color="#000000" stroke="#ffffff" stroke-linecap="round" stroke-linejoin="round" stroke-width=".5" text-align="center" text-anchor="middle" style="paint-order:markers stroke fill" xml:space="preserve"><tspan x="424.53284" y="566.97247" fill="#000000" stroke-width=".5">RTCIceCandidate</tspan></text><path d="m416.55 554.78c-4.2505-2.1229-7.9074-4.0596-8.1265-4.3038-0.3872-0.4315-0.3984-0.7247-0.3984-10.462 0-9.7372 0.011-10.03 0.3984-10.462 0.5148-0.5737 15.702-8.1636 16.335-8.1636s15.82 7.5899 16.335 8.1636c0.3872 0.4315 0.3984 0.7247 0.3984 10.462 0 9.7371-0.011 10.03-0.3984 10.462-0.5148 0.5737-15.702 8.1636-16.335 8.1636-0.2641 0-3.9578-1.7369-8.2082-3.8598zm6.3157-8.2434v-7.3224l-5.479-2.7374c-3.0135-1.5055-5.5234-2.7373-5.5777-2.7373-0.054 0-0.099 3.2716-0.099 7.2702v7.2702l5.5279 2.7787c3.0403 1.5284 5.5503 2.7837 5.5777 2.7896 0.027 0.01 0.05-3.2843 0.05-7.3116zm14.94-5.5269c0-3.9986-0.044-7.2702-0.099-7.2702-0.054 0-2.5642 1.2318-5.5777 2.7373l-5.479 2.7374v14.646l5.5777-2.7902 5.5776-2.7901zm-2.3904-10.358c0-0.054-2.3979-1.2977-5.3287-2.7639l-5.3287-2.6658-5.3287 2.6658c-2.9308 1.4661-5.3287 2.7099-5.3287 2.7639s2.3979 1.2978 5.3287 2.764l5.3286 2.6658 5.3287-2.6658c2.9308-1.4662 5.3288-2.71 5.3288-2.764z" stroke-width=".1992"/><text x="424.53284" y="497.59552" fill="#000000" font-family="sans-serif" font-size="9.8778px" stop-color="#000000" stroke="#ffffff" stroke-linecap="round" stroke-linejoin="round" stroke-width=".5" text-align="center" text-anchor="middle" style="paint-order:markers stroke fill" xml:space="preserve"><tspan x="424.53284" y="497.59552" fill="#000000" stroke-width=".5">RTCIceCandidate</tspan></text><path d="m416.55 485.41c-4.2505-2.1229-7.9074-4.0596-8.1265-4.3038-0.3872-0.4315-0.3984-0.7247-0.3984-10.462s0.011-10.03 0.3984-10.462c0.5148-0.5737 15.702-8.1636 16.335-8.1636s15.82 7.5899 16.335 8.1636c0.3872 0.4315 0.3984 0.7247 0.3984 10.462s-0.011 10.03-0.3984 10.462c-0.5148 0.5737-15.702 8.1636-16.335 8.1636-0.2641 0-3.9578-1.7369-8.2082-3.8598zm6.3157-8.2435v-7.3224l-5.479-2.7374c-3.0135-1.5055-5.5234-2.7373-5.5777-2.7373-0.054 0-0.099 3.2716-0.099 7.2702v7.2702l5.5279 2.7788c3.0403 1.5284 5.5503 2.7837 5.5777 2.7896 0.027 0.01 0.05-3.2843 0.05-7.3117zm14.94-5.5269c0-3.9986-0.044-7.2702-0.099-7.2702-0.054 0-2.5642 1.2318-5.5777 2.7373l-5.479 2.7374v14.646l11.155-5.5804zm-2.3904-10.358c0-0.054-2.3979-1.2977-5.3287-2.7639l-5.3287-2.6658-5.3287 2.6658c-2.9308 1.4661-5.3287 2.7099-5.3287 2.7639s2.3979 1.2978 5.3287 2.764l5.3286 2.6658 5.3287-2.6658c2.9308-1.4662 5.3288-2.71 5.3288-2.764z" stroke-width=".1992"/><g fill="#000000" font-family="sans-serif" font-size="9.8778px" stroke="#ffffff" stroke-linecap="round" stroke-linejoin="round" stroke-width=".5" text-anchor="middle"><text x="172.70874" y="197.2993" stop-color="#000000" text-align="center" style="paint-order:markers stroke fill" xml:space="preserve"><tspan x="172.70874" y="197.2993" fill="#000000" stroke-width=".5">.addTrack()</tspan></text><text x="333.66858" y="201.66856" stop-color="#000000" text-align="center" style="paint-order:markers stroke fill" xml:space="preserve"><tspan x="333.66858" y="201.66856" fill="#000000" stroke-width=".5">.createOffer()</tspan></text><text x="553.59369" y="338.88766" stop-color="#000000" text-align="center" style="paint-order:markers stroke fill" xml:space="preserve"><tspan x="553.59369" y="338.88766" fill="#000000" stroke-width=".5">.createAnswer()</tspan></text><text x="362.16638" y="278.86539" stop-color="#000000" text-align="center" style="paint-order:markers stroke fill" xml:space="preserve"><tspan x="362.16638" y="278.86539" fill="#000000" stroke-width=".5">.setLocalDescription()</tspan></text><text x="306.70398" y="530.26239" stop-color="#000000" text-align="center" style="paint-order:markers stroke fill" xml:space="preserve"><tspan x="306.70398" y="530.26239" fill="#000000" stroke-width=".5">on('icecandidate')</tspan></text><text x="547.53363" y="462.82135" stop-color="#000000" text-align="center" style="paint-order:markers stroke fill" xml:space="preserve"><tspan x="547.53363" y="462.82135" fill="#000000" stroke-width=".5">on('icecandidate')</tspan></text><text x="557.07257" y="592.45758" stop-color="#000000" text-align="center" style="paint-order:markers stroke fill" xml:space="preserve"><tspan x="557.07257" y="592.45758" fill="#000000" stroke-width=".5">on('track')</tspan></text><text x="506.75998" y="535.47833" stop-color="#000000" text-align="center" style="paint-order:markers stroke fill" xml:space="preserve"><tspan x="506.75998" y="535.47833" fill="#000000" stroke-width=".5">.addIceCandidate()</tspan></text><text x="346.50879" y="462.59406" stop-color="#000000" text-align="center" style="paint-order:markers stroke fill" xml:space="preserve"><tspan x="346.50879" y="462.59406" fill="#000000" stroke-width=".5">.addIceCandidate()</tspan></text><text x="493.21518" y="403.66498" stop-color="#000000" text-align="center" style="paint-order:markers stroke fill" xml:space="preserve"><tspan x="493.21518" y="403.66498" fill="#000000" stroke-width=".5">.setLocalDescription()</tspan></text><text x="497.85983" y="278.86539" stop-color="#000000" text-align="center" style="paint-order:markers stroke fill" xml:space="preserve"><tspan x="497.85983" y="278.86539" fill="#000000" stroke-width=".5">.setRemoteDescription()</tspan></text><text x="355.29077" y="402.40924" stop-color="#000000" text-align="center" style="paint-order:markers stroke fill" xml:space="preserve"><tspan x="355.29077" y="402.40924" fill="#000000" stroke-width=".5">.setRemoteDescription()</tspan></text></g><g stroke-linecap="round" stroke-linejoin="round"><path d="m398.69 72.472h-102.86v22.921h-101.8" fill="none" marker-end="url(#TriangleStart-91-2)" stop-color="#000000" stroke="#000" style="paint-order:markers stroke fill"/><path d="m308.59 104.45h-115.34" fill="none" marker-end="url(#TriangleStart-91-3-0)" stop-color="#000000" stroke="#000" style="paint-order:markers stroke fill"/><text x="166.1272" y="131.47978" fill="#000000" font-family="sans-serif" font-size="9.8778px" stop-color="#000000" stroke="#ffffff" stroke-width=".5" text-align="center" text-anchor="middle" style="paint-order:markers stroke fill" xml:space="preserve"><tspan x="166.1272" y="131.47978" fill="#000000" stroke-width=".5">MediaStream</tspan></text><text x="105.42356" y="233.90782" fill="#000000" font-family="sans-serif" font-size="9.8778px" stop-color="#000000" stroke="#ffffff" stroke-width=".5" text-align="center" text-anchor="middle" style="paint-order:markers stroke fill" xml:space="preserve"><tspan x="105.42356" y="233.90782" fill="#000000" stroke-width=".5">MediaStreamTrack</tspan></text><path d="m141.33 101.47h-36.591v77.012" fill="none" marker-end="url(#TriangleStart-9-1-2)" stop-color="#000000" stroke="#000" style="paint-order:markers stroke fill"/></g><path d="m157.49 115.63c-4.2505-2.1229-7.9074-4.0596-8.1265-4.3038-0.3872-0.43154-0.3984-0.72478-0.3984-10.462 0-9.7372 0.011-10.03 0.3984-10.462 0.5148-0.57366 15.702-8.1636 16.335-8.1636s15.82 7.5899 16.335 8.1636c0.3872 0.43154 0.3984 0.72478 0.3984 10.462 0 9.7371-0.011 10.03-0.3984 10.462-0.5148 0.57366-15.702 8.1636-16.335 8.1636-0.2641 0-3.9578-1.7369-8.2082-3.8598zm6.3158-8.2435v-7.3224l-5.4791-2.7374c-3.0134-1.5056-5.5234-2.7374-5.5777-2.7374-0.054 0-0.099 3.2716-0.099 7.2702v7.2702l5.5279 2.7788c3.0404 1.5283 5.5503 2.7836 5.5777 2.7896 0.027 6e-3 0.05-3.2843 0.05-7.3117zm14.94-5.5269c0-3.9986-0.044-7.2702-0.099-7.2702-0.054 0-2.5642 1.2318-5.5777 2.7374l-5.479 2.7374v14.646l11.155-5.5804zm-2.3904-10.358c0-0.054-2.3979-1.2978-5.3287-2.764l-5.3286-2.6658-5.3288 2.6658c-2.9308 1.4662-5.3287 2.71-5.3287 2.7639 0 0.054 2.3979 1.2978 5.3287 2.7639l5.3286 2.6658 5.3287-2.6658c2.9308-1.4662 5.3288-2.7099 5.3288-2.7639z" stroke-width=".1992"/><path d="m95.6 218.73c-4.2504-2.1229-7.9073-4.0596-8.1264-4.3038-0.3873-0.43154-0.3984-0.72478-0.3984-10.462 0-9.7372 0.011-10.03 0.3984-10.462 0.5147-0.57366 15.702-8.1636 16.335-8.1636 0.633 0 15.82 7.5899 16.335 8.1636 0.3873 0.43154 0.3984 0.72478 0.3984 10.462 0 9.7371-0.011 10.03-0.3984 10.462-0.5147 0.57366-15.702 8.1636-16.335 8.1636-0.2641 0-3.9578-1.7369-8.2083-3.8598zm6.3158-8.2435v-7.3224l-5.479-2.7374c-3.0135-1.5056-5.5234-2.7374-5.5777-2.7374-0.054 0-0.099 3.2716-0.099 7.2702v7.2702l5.5279 2.7788c3.0403 1.5283 5.5503 2.7836 5.5777 2.7896 0.027 6e-3 0.05-3.2843 0.05-7.3117zm14.94-5.5269c0-3.9986-0.044-7.2702-0.099-7.2702-0.054 0-2.5643 1.2318-5.5777 2.7374l-5.4791 2.7374v14.646l11.155-5.5804zm-2.3905-10.358c0-0.054-2.3979-1.2978-5.3286-2.764l-5.3287-2.6658-5.3287 2.6658c-2.9308 1.4662-5.3287 2.71-5.3287 2.7639 0 0.054 2.3979 1.2978 5.3286 2.7639l5.3287 2.6658 5.3287-2.6658c2.9308-1.4662 5.3287-2.7099 5.3287-2.7639z" stroke-width=".1992"/><g fill="#000000" font-family="sans-serif" font-size="9.8778px" stroke="#ffffff" stroke-linecap="round" stroke-linejoin="round" stroke-width=".5" text-anchor="middle"><text x="424.83313" y="101.04166" stop-color="#000000" text-align="center" style="paint-order:markers stroke fill" xml:space="preserve"><tspan x="424.83313" y="101.04166" fill="#000000" stroke-width=".5">HTMLCanvasElement</tspan></text><text x="333.46631" y="66.167442" stop-color="#000000" text-align="center" style="paint-order:markers stroke fill" xml:space="preserve"><tspan x="333.46631" y="66.167442" fill="#000000" stroke-width=".5">.captureStream()</tspan></text><text x="110.48826" y="95.301735" stop-color="#000000" text-align="center" style="paint-order:markers stroke fill" xml:space="preserve"><tspan x="110.48826" y="95.301735" fill="#000000" stroke-width=".5">.getTracks()</tspan></text><text x="257.05872" y="117.38609" stop-color="#000000" text-align="center" style="paint-order:markers stroke fill" xml:space="preserve"><tspan x="257.05872" y="117.38609" fill="#000000" stroke-width=".5">.getUserMedia()</tspan></text></g><path d="m416.2 85.188c-4.2504-2.1229-7.9073-4.0596-8.1265-4.3038-0.3872-0.43154-0.3984-0.72478-0.3984-10.462 0-9.7372 0.011-10.03 0.3984-10.462 0.5148-0.57366 15.702-8.1636 16.335-8.1636s15.82 7.5899 16.335 8.1636c0.3872 0.43154 0.3984 0.72478 0.3984 10.462 0 9.7371-0.011 10.03-0.3984 10.462-0.5148 0.57366-15.702 8.1636-16.335 8.1636-0.2641 0-3.9578-1.7369-8.2082-3.8598zm6.3158-8.2435v-7.3224l-5.4791-2.7374c-3.0134-1.5056-5.5234-2.7374-5.5777-2.7374-0.054 0-0.099 3.2716-0.099 7.2702v7.2702l5.5279 2.7788c3.0404 1.5283 5.5503 2.7836 5.5777 2.7896 0.027 6e-3 0.05-3.2843 0.05-7.3117zm14.94-5.5269c0-3.9986-0.044-7.2702-0.099-7.2702-0.054 0-2.5642 1.2318-5.5777 2.7374l-5.479 2.7374v14.646l11.155-5.5804zm-2.3904-10.358c0-0.054-2.3979-1.2978-5.3287-2.764l-5.3286-2.6658-5.3287 2.6658c-2.9308 1.4662-5.3288 2.71-5.3288 2.7639 0 0.054 2.3979 1.2978 5.3287 2.7639l5.3286 2.6658 5.3288-2.6658c2.9308-1.4662 5.3287-2.7099 5.3287-2.7639z" stroke-width=".1992"/><text x="332.53613" y="130.3239" fill="#000000" font-family="sans-serif" font-size="9.8778px" stop-color="#000000" stroke="#ffffff" stroke-linecap="round" stroke-linejoin="round" stroke-width=".5" text-align="center" text-anchor="middle" style="paint-order:markers stroke fill" xml:space="preserve"><tspan x="332.53613" y="130.3239" fill="#000000" stroke-width=".5">MediaDevices</tspan></text><path d="m323.9 114.47c-4.2504-2.1229-7.9073-4.0596-8.1264-4.3038-0.3873-0.43154-0.3985-0.72478-0.3985-10.462 0-9.7372 0.011-10.03 0.3985-10.462 0.5147-0.57366 15.702-8.1636 16.335-8.1636 0.6331 0 15.82 7.5899 16.335 8.1636 0.3872 0.43154 0.3984 0.72478 0.3984 10.462 0 9.7371-0.011 10.03-0.3984 10.462-0.5148 0.57366-15.702 8.1636-16.335 8.1636-0.2641 0-3.9578-1.7369-8.2082-3.8598zm6.3158-8.2435v-7.3224l-5.479-2.7374c-3.0135-1.5056-5.5235-2.7374-5.5777-2.7374-0.054 0-0.099 3.2716-0.099 7.2702v7.2702l5.5278 2.7788c3.0404 1.5283 5.5504 2.7836 5.5777 2.7896 0.027 6e-3 0.05-3.2843 0.05-7.3117zm14.94-5.5269c0-3.9986-0.044-7.2702-0.099-7.2702-0.054 0-2.5642 1.2318-5.5777 2.7374l-5.479 2.7374v14.646l11.155-5.5804zm-2.3904-10.358c0-0.054-2.3979-1.2978-5.3286-2.764l-5.3287-2.6658-5.3287 2.6658c-2.9308 1.4662-5.3287 2.71-5.3287 2.7639 0 0.054 2.3978 1.2978 5.3286 2.7639l5.3287 2.6658 5.3287-2.6658c2.9308-1.4662 5.3287-2.7099 5.3287-2.7639z" stroke-width=".1992"/><g transform="translate(-321.25 -182.46)"><g stroke="#000" stroke-linecap="round" stroke-linejoin="round"><rect x="391.55" y="819.41" width="294.62" height="84.193" fill="#fff" stop-color="#000000" style="paint-order:markers stroke fill"/><path d="m404.15 887.17h82.673" fill="none" marker-end="url(#TriangleStart-0-1-3-0-1-4-9-1-65-3-4-7)" stop-color="#000000" stroke-dasharray="1, 4" style="paint-order:markers stroke fill"/><path d="m404.15 863.58h82.673" fill="none" marker-end="url(#TriangleStart-0-1-3-0-1-4-9-1-65-3-7-3-3)" stop-color="#000000" style="paint-order:markers stroke fill"/></g><path d="m440.16 846.49c-2.6169-1.307-4.8684-2.4994-5.0033-2.6498-0.23846-0.26567-0.24529-0.44619-0.24529-6.4413 0-5.995 7e-3 -6.1756 0.24529-6.4413 0.31689-0.3532 9.6673-5.0262 10.057-5.0262 0.38979 0 9.7402 4.673 10.057 5.0262 0.23845 0.26569 0.24529 0.44623 0.24529 6.4413 0 5.9951-7e-3 6.1756-0.24529 6.4413-0.3169 0.35322-9.6673 5.0262-10.057 5.0262-0.16261 0-2.4368-1.0694-5.0537-2.3764zm3.8886-5.0754v-4.5083l-3.3734-1.6854c-1.8554-0.92695-3.4007-1.6854-3.4341-1.6854-0.0333 0-0.0609 2.0143-0.0609 4.4762v4.4762l3.4035 1.7109c1.8719 0.94101 3.4172 1.7139 3.4341 1.7175 0.0166 6e-3 0.0308-2.0221 0.0308-4.5017zm9.1986-3.4028c0-2.4619-0.0271-4.4762-0.0609-4.4762-0.0333 0-1.5788 0.75841-3.4341 1.6854l-3.3734 1.6854v9.0175l6.8682-3.4358zm-1.4718-6.3772c0-0.0332-1.4764-0.79903-3.2808-1.7017l-3.2808-1.6413-3.2808 1.6413c-1.8045 0.90271-3.2808 1.6685-3.2808 1.7017 0 0.0332 1.4764 0.79901 3.2808 1.7017l3.2808 1.6413 3.2808-1.6413c1.8045-0.9027 3.2808-1.6685 3.2808-1.7017z" stroke-width=".12265"/><g fill="#000000" font-family="sans-serif" font-size="9.8493px" stroke="#ffffff" stroke-linecap="round" stroke-linejoin="round" stroke-width=".49856"><text x="498.03998" y="866.29822" stop-color="#000000" style="paint-order:markers stroke fill" xml:space="preserve"><tspan x="498.03998" y="866.29822" fill="#000000" stroke-width=".49856">Create instance by method or event</tspan></text><text x="498.03998" y="889.88464" stop-color="#000000" style="paint-order:markers stroke fill" xml:space="preserve"><tspan x="498.03998" y="889.88464" fill="#000000" stroke-width=".49856">Call method by instance as params</tspan></text><text x="497.62637" y="840.9201" stop-color="#000000" style="paint-order:markers stroke fill" xml:space="preserve"><tspan x="497.62637" y="840.9201" fill="#000000" stroke-width=".49856">Instance</tspan></text></g></g></g></svg>
